<svg width="10" height="18" viewBox="0 0 10 18" fill="none" xmlns="http://www.w3.org/2000/svg">
  <path d="M0.00137014 14.7468C0.0423701 14.6313 0.185363 14.5634 0.319363 14.5341C0.361363 14.5248 0.425371 14.6113 0.458371 14.608C0.522371 14.6006 0.515378 14.5327 0.584378 14.5317C0.607378 14.5317 0.715355 14.6622 0.736355 14.6594C0.855355 14.6424 0.883362 14.5507 0.974362 14.5067C1.42236 14.29 1.78235 13.997 2.16235 13.6996C2.28635 13.6023 2.52835 13.565 2.58935 13.4008C2.59635 13.3816 2.48036 13.2899 2.47436 13.279C2.37536 13.1115 2.58137 13.327 2.63537 13.3267C2.85037 13.3245 2.97037 13.2133 3.02337 13.0717C3.04637 13.0108 2.78935 12.8571 2.95135 12.9237C2.96235 12.9281 3.06737 13.0452 3.09137 13.0444C3.14437 13.042 3.17138 12.9711 3.20038 12.9583C3.25538 12.934 3.26137 12.9261 3.29837 12.8883C3.35037 12.837 3.46436 12.8275 3.49136 12.7461C3.49636 12.7285 3.36336 12.6362 3.36136 12.5983C3.35836 12.5603 3.41638 12.5179 3.45938 12.5263C3.50338 12.5346 3.58937 12.6271 3.61337 12.6436C3.81637 12.7832 3.62237 12.4954 3.62237 12.4821C3.64537 12.2463 3.89735 12.2561 4.01635 12.1246C4.10735 12.0237 4.15736 11.875 4.25036 11.7857C4.36136 11.6803 4.51335 11.6426 4.60235 11.5226C4.61135 11.51 4.45937 11.3967 4.47137 11.3811C4.59137 11.2157 4.74235 11.0801 4.97335 11.0154C4.99635 11.0089 5.10135 11.1397 5.13235 11.14C5.31635 11.1397 5.69136 11.2128 5.20636 10.674C5.28436 10.6307 5.37438 10.574 5.53238 10.6159C5.63438 10.6428 5.73636 10.7989 5.71936 10.703C5.71636 10.6815 5.58736 10.5883 5.59036 10.5641C5.60036 10.4953 5.64937 10.4572 5.67837 10.4035C5.69137 10.3793 5.70035 10.3514 5.69735 10.3149C5.69535 10.2917 5.58637 10.2008 5.57037 10.1806C5.43937 10.0167 5.73636 10.1963 5.76336 10.2019C5.97136 10.2451 5.96436 10.1391 6.02636 10.0691C6.04136 10.0527 5.87637 9.954 5.88437 9.9344C5.92937 9.835 6.00437 9.7617 6.13137 9.7279C6.15937 9.7206 6.28036 9.8301 6.30136 9.8311C6.39136 9.8328 6.14435 9.6523 6.22335 9.6522C6.24035 9.6518 6.35336 9.7324 6.36636 9.7394C6.58236 9.8463 6.31138 9.641 6.30838 9.6319C6.26738 9.5052 6.60037 9.6382 6.60037 9.5344C6.60037 9.5223 6.43535 9.4575 6.44235 9.4296C6.48935 9.2427 6.60338 9.1017 6.79138 8.9702C6.82038 8.9495 6.94036 9.0068 6.95636 9.01C7.20936 9.0521 6.88838 8.9365 6.87738 8.9254C6.80738 8.8347 7.10238 8.8228 6.71338 8.6983C6.90438 8.4243 6.67738 8.1788 6.96338 7.8079C6.96638 7.8029 7.13136 7.7725 7.13736 7.7623C7.20436 7.6385 6.95435 7.7176 6.63235 7.7499C6.55235 7.7606 6.90636 7.6027 6.93136 7.5879C7.02436 7.5399 7.26736 7.4798 7.28436 7.4681C7.34236 7.4253 7.22837 7.4508 7.07837 7.4906L7.11337 7.5578C6.94337 7.6642 6.72136 7.808 6.69836 7.7766C6.69836 7.774 6.82638 7.6917 6.83438 7.6781C6.86238 7.6355 6.80338 7.6567 6.83438 7.6115C6.90838 7.5073 7.22137 7.2575 6.99737 7.346C6.96837 7.3577 6.59935 7.6454 6.58035 7.583C6.57335 7.558 6.50235 7.4758 6.50735 7.4331C6.51335 7.3905 6.64636 7.3167 6.65036 7.3111C6.76036 7.1251 6.84536 7.1005 7.05536 6.8892C7.26436 6.6783 6.71237 7.1107 6.63937 7.1445C6.56737 7.1782 6.66136 7.0307 6.69836 6.9841C6.73436 6.9376 6.82235 6.8943 6.83935 6.8641C6.95435 6.6657 6.53938 7.0447 6.43338 7.0894C6.18338 7.1957 6.56336 6.8368 6.56436 6.7557C6.56536 6.7339 6.48037 6.8173 6.46237 6.8122C6.39237 6.7911 6.49835 6.6632 6.33935 6.7014C6.31335 6.7074 6.03335 6.8575 6.19235 6.6878C6.21435 6.6633 6.32536 6.5944 6.33236 6.5564C6.34336 6.4995 6.32236 6.428 6.26336 6.423C6.21936 6.4195 6.07335 6.5794 6.10235 6.5086C6.11435 6.477 6.23137 6.4235 6.24737 6.3706C6.26337 6.3181 6.20736 6.2576 6.18536 6.2363C6.16236 6.2151 6.04735 6.3299 6.03735 6.3348C5.97835 6.3623 5.88135 6.3659 5.87835 6.3618C5.70035 6.1733 5.75535 5.8127 5.52035 5.6756C5.50235 5.6649 5.38138 5.7855 5.37738 5.785C5.27838 5.7796 5.65937 5.5264 5.74337 5.3914C5.48437 5.6213 5.51437 5.5596 5.45337 5.5472C5.42437 5.5415 5.33036 5.6385 5.31836 5.6458C5.14136 5.7522 5.32536 5.5627 5.36236 5.5228C5.49736 5.3762 5.30438 5.5101 5.39438 5.4118C5.48338 5.3141 5.65437 5.2141 5.62237 5.1804C5.51937 5.2516 5.29737 5.4896 5.23437 5.4975C4.99937 5.5291 5.02638 5.1752 4.97638 5.0789C4.92438 4.9813 4.88437 4.9712 4.87637 4.8952C4.86137 4.758 4.71037 4.9501 4.58337 4.9729C4.45437 4.9956 4.91437 4.6218 5.00137 4.5286C5.08937 4.4355 4.98538 4.5157 5.02838 4.4593C5.07138 4.403 5.15338 4.3645 5.15338 4.3252C5.15238 4.2857 4.93136 4.3801 4.82736 4.4629C4.60536 4.6381 4.41237 4.8644 4.43737 4.7389C4.43937 4.7315 4.56235 4.6361 4.56335 4.6133C4.56035 4.4337 4.47136 4.3285 4.45636 4.1584C4.45436 4.1348 4.59137 4.0276 4.59137 4.0125C4.59337 3.8546 4.41037 4.0849 4.13437 4.2655C4.45537 3.9769 4.62237 3.7697 4.56537 3.7069C4.53037 3.6685 4.40138 3.8058 4.28238 3.8744C4.24738 3.8951 4.31437 3.779 4.24637 3.8361C4.02437 4.0227 3.81538 4.2728 3.84738 4.1213C3.84938 4.1143 3.97136 4.0121 3.96936 3.9961C3.95436 3.8918 3.73235 4.0973 3.64135 4.058C3.57035 4.027 3.61435 3.8093 3.57635 3.729C3.91935 3.3859 3.78437 3.4092 3.52737 3.6259C3.49937 3.579 3.44637 3.5537 3.44137 3.484C3.43937 3.4603 3.54636 3.3678 3.55536 3.3554C3.69636 3.1606 3.45236 3.3778 3.43536 3.379C3.26136 3.3828 3.35735 3.1335 3.10635 3.2276C3.09735 3.231 2.86135 3.4715 3.00735 3.2712C3.01735 3.2575 3.15037 3.1723 3.11837 3.126C3.08637 3.0795 3.13136 2.8741 2.96936 2.937C2.93036 2.9521 2.71035 3.1216 2.82635 2.9382C2.84235 2.9134 2.91236 2.8459 2.94336 2.8013C3.04036 2.6586 2.80138 2.9014 2.97638 2.6688C3.15038 2.4359 3.25335 2.2368 3.05935 2.3307C3.05335 2.3333 2.85835 2.5215 2.84335 2.5018C2.81835 2.47 2.81338 2.3909 2.78238 2.3653C2.76738 2.3531 2.66537 2.4869 2.66037 2.487C2.49737 2.4684 2.52835 2.297 2.46035 2.1537C2.44835 2.127 2.24535 2.2549 2.32235 2.0832C2.40635 1.8958 2.97938 1.3018 2.75238 1.368C2.66138 1.3944 1.94635 2.1581 2.21835 1.6818C1.99235 1.6719 2.03338 1.352 1.76938 1.3933C1.75738 1.3952 1.56336 1.6138 1.55136 1.6C1.53236 1.578 1.60035 1.4588 1.58935 1.4396C1.54635 1.3573 1.41338 1.4055 1.36038 1.3469C1.33838 1.324 1.42635 1.2137 1.39935 1.1859C1.37235 1.1578 1.25236 1.3008 1.25836 1.1976C1.26236 1.1354 1.37236 0.906699 1.40536 0.782799L1.42236 0.794098C1.43236 0.763598 1.43836 0.739799 1.43536 0.727099C1.21936 1.0319 1.19635 1.0065 1.08935 1.0506C1.06835 1.0592 1.00237 1.1719 0.98837 1.1813C0.93037 1.2219 0.976372 1.122 0.915372 1.1677C0.900372 1.1785 0.82437 1.2808 0.80737 1.2953C0.66337 1.4225 0.786377 1.1546 0.808377 1.109C0.893377 0.934299 0.776367 1.0536 0.798367 0.975498C0.821367 0.898098 0.915379 0.853298 0.916379 0.796198C0.919379 0.678198 0.83735 0.636399 0.78735 0.584299C0.76635 0.564199 0.668357 0.704999 0.663357 0.705099C0.587357 0.696399 0.66536 0.521898 0.40936 0.747698C0.97636 0.075798 0.324361 0.784898 0.379361 0.594698C0.384361 0.579498 0.665376 0.274399 0.726376 0.247799C0.786376 0.220899 0.724365 0.341699 0.815365 0.295799C0.836365 0.285599 1.13337 0.0297986 1.15237 0.0156986C1.30937 -0.0905014 0.901368 0.375899 0.880368 0.403399C0.659368 0.698699 0.980366 0.422998 1.00937 0.409498C1.14637 0.352298 1.13336 0.454798 1.23636 0.415798C1.30336 0.390698 1.55736 0.073199 1.56936 0.098799C1.60936 0.181799 1.30237 0.659899 1.66037 0.312399C1.73637 0.237899 1.97937 -0.134401 1.82837 0.186599C1.82537 0.192899 1.80936 0.224799 1.79336 0.261499L1.74936 0.232099C1.72236 0.319599 1.69637 0.432599 1.79437 0.329899C1.81237 0.311099 1.88238 0.202399 1.89438 0.196899C1.97138 0.163199 1.93738 0.263998 2.00238 0.248598C2.06838 0.233398 2.15837 0.205698 2.17437 0.270398C2.18437 0.309898 2.07836 0.529798 2.05536 0.586298C1.99036 0.748598 2.18635 0.546098 2.08535 0.727598C1.98335 0.909198 1.76035 1.1356 1.73135 1.2801C1.93235 1.0104 2.14136 0.735598 2.34536 0.465698C2.45536 0.561898 2.50037 0.732799 2.62237 0.810099C2.63737 0.818999 2.73536 0.665999 2.75436 0.671999C2.83336 0.697899 2.81035 0.844699 2.90435 0.855099C2.97835 0.862799 3.15637 0.760799 3.23837 0.766199C3.02337 1.0879 3.18135 1.0499 3.21435 1.1237C3.22535 1.1488 3.15735 1.2261 3.14935 1.2629C3.11835 1.3997 3.31538 1.121 3.36438 1.0921C3.57238 0.969798 3.07838 1.5595 3.15738 1.6032C3.16138 1.6055 3.47438 1.3344 3.49838 1.3208C3.64738 1.2298 3.41037 1.434 3.41537 1.4782C3.42337 1.5592 3.38935 1.6602 3.52035 1.6154C3.55835 1.6019 3.76536 1.4436 3.66336 1.6175C3.64936 1.6402 3.55738 1.7393 3.55438 1.748C3.52238 1.8969 3.80937 1.5815 3.93737 1.5034C4.06637 1.4254 3.91837 1.6882 3.87137 1.7598C3.74937 1.9456 3.78736 1.8107 3.77136 1.8253C3.58236 1.9995 3.64737 1.9992 3.66037 2.0401C3.38237 2.3517 3.43637 2.3676 3.67437 2.0813C3.70037 2.0499 3.65337 2.0592 3.66037 2.0401C3.96137 1.76 4.03937 1.7606 3.82437 2.0835C3.72337 2.2348 3.56137 2.3694 3.67737 2.373C3.73037 2.3749 3.91536 2.1542 3.99536 2.1215C4.17736 2.0469 4.06835 2.3131 4.15835 2.3407C4.19035 2.3507 4.27838 2.2163 4.30438 2.2193C4.37438 2.227 4.32638 2.3448 4.40738 2.3397C4.41538 2.3391 4.52137 2.2121 4.53537 2.2226C4.64337 2.3011 4.64936 2.4549 4.74536 2.5535C4.79236 2.6019 4.93735 2.6192 4.97335 2.6811C5.03635 2.7882 4.96435 3.0575 5.07635 3.0895C5.14935 3.1109 5.25836 2.986 5.35836 2.9285C5.55336 2.8165 5.33837 3.1562 5.30337 3.2071C5.30237 3.2087 5.23537 3.195 5.19537 3.2752C5.07937 3.4096 5.30237 3.2072 5.30337 3.2071C5.28137 3.2401 5.33236 3.3477 5.37036 3.3426C5.39136 3.3396 5.50037 3.2273 5.50937 3.2278C5.71337 3.24 5.84937 3.3276 5.89837 3.4886C5.89737 3.4927 5.76635 3.6081 5.76635 3.6163C5.76935 3.7338 5.96537 3.6313 6.10937 3.601C6.25237 3.5698 6.26037 3.6419 6.06637 3.8747C6.13137 3.8905 6.08536 4.0383 6.05536 4.126C6.02536 4.2129 6.28438 3.9918 6.29138 3.9903C6.53538 3.9408 6.43836 4.1252 6.50036 4.243C6.52936 4.2989 6.64736 4.359 6.71936 4.386C6.77636 4.4069 6.73737 4.4834 6.80737 4.4869C6.81637 4.4875 6.92738 4.3843 6.93338 4.382C7.10638 4.306 6.80737 4.526 6.76437 4.5773C6.60737 4.7639 6.52537 4.8653 6.65637 4.8451C6.68637 4.8405 7.12436 4.5331 7.16736 4.536C7.22236 4.5402 7.06735 4.6519 7.12835 4.6529C7.13335 4.653 7.22338 4.5769 7.23538 4.5991C7.29138 4.7014 7.31838 4.8421 7.40338 4.9273C7.41438 4.9391 7.54636 4.8047 7.56436 4.8199C7.65136 4.8914 7.72335 4.9909 7.72335 5.1306C7.72235 5.1652 7.60937 5.234 7.58337 5.2628C7.42137 5.4369 7.71937 5.2626 7.72937 5.2651C7.98137 5.3179 7.83137 5.628 8.07037 5.6966C8.08337 5.6998 8.42638 5.5444 8.20038 5.7656C8.18538 5.7805 7.95136 6.0048 8.14636 5.8975C8.15836 5.8908 8.27635 5.7721 8.28735 5.8145C8.29835 5.8568 8.42636 5.8424 8.31436 5.9965C8.27936 6.0452 8.04836 6.2707 8.28436 6.1595C8.30036 6.1514 8.81237 5.8712 8.50937 6.1326C8.45937 6.1756 8.11837 6.4232 8.32937 6.3442C8.36937 6.3289 8.43238 6.2554 8.49838 6.2458C8.60038 6.2309 8.54737 6.3495 8.73437 6.2868C8.76137 6.2774 8.94438 6.1839 8.91638 6.2434L9.19137 6.7723C9.18337 6.7852 9.16536 6.8015 9.13336 6.8218C9.10336 6.8405 8.96538 6.8702 8.95938 6.9014C8.92738 7.0472 9.05637 7.1554 8.99237 7.3088C8.97037 7.3632 8.74336 7.3914 8.69336 7.4501C8.64436 7.5094 8.60435 7.6067 8.71435 7.6375C8.82535 7.669 9.17437 7.5523 9.21637 7.628C9.39737 7.9669 9.19936 8.3539 9.13836 8.6944C9.12836 8.746 9.26235 8.7141 9.25735 8.7928C9.24435 9.0802 9.24336 9.6135 8.90136 9.7462C8.63336 9.8458 8.54737 9.5796 8.41937 9.6736C8.35937 9.7145 8.72837 9.9293 8.73437 9.9505C8.80137 10.1476 8.58537 10.1718 8.57837 10.3166C8.57637 10.347 8.74238 10.3975 8.73938 10.4231C8.72838 10.5124 8.62036 10.5541 8.59436 10.6288C8.58336 10.6625 8.70136 10.7205 8.67636 10.7441C8.61836 10.8009 8.53537 10.8323 8.39337 10.8299C8.38137 10.8294 8.26436 10.7079 8.23236 10.7501C8.17836 10.8191 8.02138 10.839 8.07138 10.9874C8.08638 11.0316 8.33137 11.2031 8.12637 11.1361C8.08337 11.1222 7.80036 10.9016 8.01236 11.1381C8.04936 11.1763 8.31337 11.523 8.06137 11.4086C7.99537 11.3786 7.73937 11.2306 7.75637 11.2841C7.75937 11.2922 7.89737 11.376 7.89337 11.4073C7.87537 11.5159 7.79936 11.5829 7.77636 11.6893C7.76936 11.718 7.92235 11.7944 7.90835 11.8341C7.87135 11.9438 7.75337 12.0162 7.64837 12.0554C7.60937 12.0699 7.52337 11.9593 7.51037 11.9514C7.30137 11.8204 7.52936 12.0578 7.53436 12.0812C7.53436 12.082 7.53436 12.0829 7.53436 12.0837C7.56636 12.2139 7.41437 12.1544 7.39837 12.233C7.39337 12.2546 7.51836 12.3496 7.52636 12.3618C7.60036 12.4828 7.41237 12.2721 7.37237 12.2699C7.26037 12.263 7.21638 12.3302 7.18338 12.3964C7.17138 12.4209 7.32535 12.521 7.31335 12.5416C7.24335 12.6653 7.13237 12.7617 6.96737 12.7947C6.93637 12.8008 6.84337 12.6949 6.81637 12.6774C6.62637 12.5546 6.81537 12.7993 6.82837 12.828C6.88837 12.9588 6.78235 12.8919 6.76635 12.9442C6.68735 13.2021 6.42536 13.3682 6.23236 13.5047C5.98236 13.6823 5.72836 13.7638 5.56036 13.9982C5.55036 14.013 5.69935 14.125 5.69235 14.1393C5.58935 14.3184 5.40037 14.4168 5.30337 14.602C5.29537 14.6169 5.44138 14.7185 5.43338 14.7465C5.41538 14.8052 5.36138 14.8502 5.28238 14.8528C5.24438 14.8543 5.15737 14.7253 5.12137 14.7289C5.03737 14.7366 4.98137 14.7788 4.95837 14.8458C4.94837 14.8746 5.10936 14.9659 5.08636 14.9938C4.93336 15.1864 4.79337 15.3845 4.45337 15.4087C4.42937 15.4103 4.15037 15.1724 4.17837 15.2464C4.25037 15.3174 4.33836 15.3986 4.41736 15.4733C4.21836 15.7749 3.88237 15.9497 3.62237 16.1987C3.61137 16.2091 3.77136 16.3229 3.75036 16.3438C3.63136 16.4669 3.55735 16.6241 3.29635 16.6194C3.27035 16.619 3.02837 16.3778 3.03137 16.4502C3.03237 16.4628 3.01236 16.5503 3.05136 16.6161C3.05736 16.6258 3.18337 16.7254 3.16937 16.7468C3.08837 16.8667 2.95335 16.9552 2.78335 16.9911C2.75535 16.9974 2.65137 16.861 2.63037 16.8644C2.48137 16.8882 2.48536 17.0691 2.29236 17.0455C2.16536 17.0265 1.97637 16.8006 1.74237 16.6262C1.70937 16.6018 1.67135 16.6304 1.55035 16.5132C1.24735 16.2189 0.934372 15.877 0.609372 15.5652C0.538372 15.4982 0.573356 15.6115 0.430356 15.4225C0.421356 15.4098 0.395371 15.3259 0.346371 15.2624C0.312371 15.2186 0.181354 15.1072 0.141354 15.0473C0.101354 14.9877 0.216367 15.076 0.173367 15.0015C0.130367 14.9259 -0.0156299 14.7971 0.00137014 14.7468ZM5.92038 4.5157C5.82538 4.6547 6.27835 4.2646 6.14135 4.325C6.13435 4.3284 5.92538 4.5088 5.92038 4.5157ZM2.22436 1.0907C2.10636 1.3328 2.37435 1.0505 2.46835 0.864998C2.56035 0.679198 2.25936 1.017 2.22436 1.0907ZM1.64337 0.904398C1.57737 1.1119 2.07236 0.422399 1.91336 0.521399C1.90436 0.526799 1.64637 0.892098 1.64337 0.904398ZM1.81436 16.4358C1.80836 16.4304 1.77936 16.4491 1.78436 16.4553C1.90736 16.6012 1.96536 16.5635 1.81436 16.4358ZM1.08636 0.772198C1.03136 0.874698 1.15538 0.801899 1.22238 0.674099C1.27738 0.571799 1.15636 0.645298 1.08636 0.772198ZM6.79437 6.5755C6.78737 6.5815 6.79635 6.6051 6.83535 6.5739C6.96335 6.4733 6.90637 6.4752 6.79437 6.5755ZM0.410367 0.178398C0.483367 0.295698 0.0543631 0.856699 0.000363055 0.692099C-0.00963694 0.662499 0.199357 0.575099 0.219357 0.505499C0.255357 0.379399 -0.0856333 0.660898 0.0353667 0.448498C0.0583667 0.409798 0.407374 0.170699 0.411374 0.177899C0.411374 0.178099 0.410367 0.178298 0.410367 0.178398ZM5.39636 5.008C5.39136 5.0138 5.40736 5.0434 5.41336 5.0388C5.56836 4.927 5.53536 4.8671 5.39636 5.008ZM7.13937 7.848C7.12337 7.8529 7.12037 7.922 7.13537 7.9217C7.44937 7.9083 7.45337 7.7508 7.13937 7.848ZM3.58438 3.7189C3.42438 3.8296 3.37937 3.8164 3.52737 3.6259C3.54337 3.6593 3.56738 3.6857 3.58438 3.7189Z" fill="#2F2F2F"/>
</svg>
