<svg width="40" height="40" viewBox="0 0 40 40" fill="none" xmlns="http://www.w3.org/2000/svg">
  <path d="M20.0001 0C8.95994 0 0 8.96005 0 20.0001C0 31.0401 8.95994 40 20.0001 40C31.0401 40 40 31.0401 40 20.0001C40 8.96005 31.06 0 20.0001 0Z" fill="url(#paint0_linear_0_1)"/>
  <path d="M0.75 20.0001C0.75 9.3742 9.37424 0.75 20.0001 0.75C30.6454 0.75 39.25 9.37375 39.25 20.0001C39.25 30.6258 30.6259 39.25 20.0001 39.25C9.37424 39.25 0.75 30.6258 0.75 20.0001Z" stroke="#645E75"/>
  <path d="M16.726 26.2778C17.5229 26.2778 17.8354 25.9778 17.8354 25.2199H17.8196V15.6503C17.8196 14.8923 17.5071 14.5922 16.7104 14.5922H14.6951C13.8983 14.5922 13.5858 14.8923 13.5858 15.6503V25.2199C13.5858 25.9778 13.8983 26.2778 14.6951 26.2778H16.726Z" fill="#1D224E"/>
  <path d="M24.9751 26.2778C25.7719 26.2778 26.0842 25.9778 26.0842 25.2199V20.4351V15.6503C26.0842 14.8923 25.7719 14.5922 24.9751 14.5922H22.9597C22.163 14.5922 21.8505 14.8923 21.8505 15.6503V25.2199C21.8505 25.9778 22.163 26.2778 22.9597 26.2778H24.9751Z" fill="#1D224E"/>
  <path d="M18.4213 25.2198V24.6277H18.4055V15.6503C18.4055 15.2077 18.3172 14.7418 17.9662 14.4066C17.6238 14.0795 17.158 14 16.7105 14H14.6951C14.2476 14 13.7818 14.0795 13.4393 14.4066C13.0885 14.7418 13 15.2077 13 15.6503V25.2198C13 25.6623 13.0885 26.1282 13.4393 26.4634C13.7818 26.7905 14.2476 26.87 14.6951 26.87H16.7261C17.1736 26.87 17.6395 26.7905 17.9819 26.4634C18.333 26.1282 18.4213 25.6623 18.4213 25.2198ZM24.975 26.87C25.4225 26.87 25.8883 26.7905 26.2307 26.4634C26.5817 26.1282 26.67 25.6623 26.67 25.2198V20.4351V15.6503C26.67 15.2077 26.5817 14.7418 26.2307 14.4066C25.8883 14.0795 25.4225 14 24.975 14H22.9596C22.5121 14 22.0462 14.0795 21.7038 14.4066C21.3528 14.7418 21.2645 15.2077 21.2645 15.6503V25.2198C21.2645 25.6623 21.3528 26.1282 21.7038 26.4634C22.0462 26.7905 22.5121 26.87 22.9596 26.87H24.975Z" stroke="#645E75"/>
  <defs>
    <linearGradient id="paint0_linear_0_1" x1="20.0001" y1="0" x2="20.0001" y2="40" gradientUnits="userSpaceOnUse">
      <stop stop-color="#464556"/>
      <stop offset="1" stop-color="#323043"/>
    </linearGradient>
  </defs>
</svg>
