<svg width="23" height="24" viewBox="0 0 23 24" fill="none" xmlns="http://www.w3.org/2000/svg">
  <path d="M3.90302 0.00157709C4.08342 0.0576987 4.17245 0.2778 4.19955 0.485324C4.20833 0.550072 4.06403 0.656824 4.06442 0.707157C4.06542 0.805318 4.17293 0.790331 4.16389 0.8973C4.15951 0.933709 3.94212 1.11026 3.94149 1.1443C3.94721 1.32529 4.08675 1.36364 4.13949 1.50035C4.39894 2.17396 4.78532 2.70586 5.1689 3.26756C5.29556 3.45263 5.3043 3.82233 5.54519 3.90417C5.57376 3.91307 5.73726 3.72773 5.75539 3.71682C6.03284 3.5531 5.66053 3.8862 5.65029 3.96942C5.6106 4.29869 5.75661 4.47592 5.96464 4.54823C6.05368 4.57848 6.34199 4.17323 6.20675 4.42706C6.19754 4.44445 5.99711 4.61336 5.9928 4.64983C5.9853 4.73108 6.08947 4.76876 6.10353 4.81201C6.12956 4.89586 6.14052 4.90327 6.19079 4.95741C6.25803 5.03318 6.25089 5.20989 6.37003 5.24449C6.39596 5.25131 6.56436 5.04095 6.62339 5.03384C6.68204 5.0277 6.73599 5.1132 6.71441 5.18111C6.69243 5.24917 6.53252 5.38805 6.50234 5.42625C6.24829 5.74586 6.7222 5.43272 6.74819 5.42904C7.10584 5.44792 7.03902 5.83572 7.21645 6.01066C7.35152 6.14278 7.57015 6.2103 7.68751 6.34714C7.82656 6.51124 7.85226 6.74275 8.01782 6.87189C8.03561 6.88497 8.24125 6.64481 8.26274 6.66125C8.49117 6.83633 8.66779 7.06012 8.71786 7.41063C8.72177 7.44639 8.50025 7.61506 8.49265 7.66229C8.4544 7.94586 8.26171 8.5269 9.19268 7.74804C9.24292 7.8644 9.30929 7.99991 9.21145 8.24577C9.1484 8.40413 8.88751 8.57021 9.03785 8.53844C9.07162 8.53147 9.24256 8.32786 9.27901 8.33152C9.43216 8.3472 9.46346 8.49962 9.64404 8.48625C9.68123 8.48308 9.84537 8.31118 9.88051 8.28585C10.1663 8.08244 9.82775 8.55235 9.81295 8.59623C9.70508 8.92546 9.87268 8.92098 9.97154 9.02965C9.9943 9.05491 10.1908 8.80383 10.2221 8.81807C10.3752 8.90575 10.481 9.0494 10.4989 9.26639C10.5023 9.31522 10.2857 9.48306 10.2774 9.51619C10.2442 9.65906 10.6192 9.31086 10.5937 9.44162C10.5868 9.47005 10.4194 9.62484 10.4023 9.64575C10.1499 9.95993 10.5803 9.58769 10.5974 9.58703C10.8228 9.56978 10.4693 10.0534 10.6293 10.0941C10.6512 10.0949 10.8303 9.86427 10.8724 9.88902C11.1551 10.0554 11.3363 10.3491 11.3922 10.7363C11.4012 10.7962 11.2189 10.9274 11.2018 10.9488C10.937 11.282 11.3589 10.909 11.3894 10.9013C11.5882 10.8809 11.3331 11.3001 11.8755 10.8817C12.0858 11.4228 12.7314 11.5276 12.6741 12.3283C12.6722 12.3392 12.4689 12.525 12.4667 12.5454C12.4692 12.7701 12.7574 12.441 13.2118 12.14C13.3246 12.0658 12.9291 12.573 12.8983 12.6144C12.7935 12.7556 12.4769 13.0308 12.4592 13.0609C12.3232 13.2988 13.2952 12.3174 13.3657 12.386C13.3662 12.3898 13.1777 12.5594 13.1648 12.5836C13.1267 12.6577 13.2157 12.6049 13.1714 12.6843C13.0679 12.868 12.6079 13.3543 12.9471 13.141C12.9939 13.11 13.5347 12.5496 13.5712 12.6368C13.5851 12.6723 13.704 12.7726 13.6988 12.839C13.6935 12.9054 13.4932 13.0622 13.4877 13.0721C13.3338 13.3898 13.2045 13.4563 12.8955 13.8457C12.5876 14.2341 13.4095 13.3956 13.5196 13.32C13.6292 13.2448 13.4948 13.4982 13.4417 13.581C13.3887 13.6632 13.256 13.7578 13.2305 13.8093C13.0674 14.1464 13.6824 13.4381 13.8442 13.3349C14.226 13.0918 13.661 13.7587 13.6631 13.8811C13.6642 13.9132 13.7899 13.7622 13.8189 13.7627C13.929 13.7722 13.7729 13.9994 14.0178 13.8913C14.0592 13.8727 14.4835 13.5596 14.2468 13.8652C14.2125 13.9093 14.045 14.0479 14.0357 14.1076C14.022 14.1969 14.0568 14.2989 14.1492 14.2884C14.2177 14.28 14.436 13.9948 14.396 14.1095C14.3777 14.1612 14.1975 14.278 14.1755 14.363C14.1534 14.4477 14.241 14.5211 14.2768 14.5466C14.3128 14.5718 14.4885 14.3641 14.5039 14.3537C14.5933 14.2949 14.7448 14.2616 14.7498 14.267C15.0356 14.5045 14.9536 15.0668 15.3166 15.214C15.3454 15.2248 15.5344 15.011 15.5408 15.0108C15.6938 14.995 15.1001 15.4772 14.9675 15.7042C15.3722 15.2884 15.3265 15.3896 15.4198 15.3929C15.4652 15.3941 15.6125 15.2234 15.6309 15.2093C15.9077 15.0031 15.6184 15.3381 15.5605 15.4078C15.3487 15.6637 15.6511 15.4128 15.5099 15.584C15.3695 15.7543 15.1026 15.9485 15.1505 15.9922C15.311 15.8587 15.6627 15.4424 15.7604 15.4153C16.1289 15.3131 16.0747 15.858 16.1498 15.996C16.2251 16.133 16.2874 16.1405 16.2962 16.2551C16.3121 16.4622 16.5564 16.1381 16.757 16.0771C16.9577 16.0165 16.2211 16.6808 16.0795 16.8414C15.9382 17.0013 16.1042 16.8576 16.0335 16.9523C15.9626 17.047 15.8332 17.1229 15.8308 17.1825C15.8286 17.2418 16.1758 17.0526 16.3441 16.9057C16.7007 16.5943 17.0174 16.2105 16.97 16.4089C16.9638 16.423 16.7673 16.5902 16.7654 16.6251C16.7562 16.8986 16.8859 17.0448 16.893 17.3018C16.8937 17.3373 16.6735 17.5244 16.6697 17.5488C16.6489 17.7897 16.9564 17.4062 17.4026 17.0837C16.876 17.5796 16.5961 17.9245 16.6772 18.0111C16.7261 18.0625 16.941 17.8324 17.1314 17.7082C17.1888 17.6706 17.0711 17.8586 17.183 17.7604C17.5488 17.4395 17.9001 17.0231 17.8333 17.2617C17.8286 17.2738 17.6298 17.448 17.6315 17.4724C17.6419 17.631 18.0121 17.2837 18.1477 17.3316C18.2534 17.3698 18.1624 17.7144 18.2087 17.8312C17.6301 18.4024 17.8396 18.3479 18.2687 17.9841C18.3056 18.0531 18.3857 18.0882 18.3823 18.1938C18.3812 18.23 18.2019 18.3843 18.1861 18.4044C17.9374 18.7195 18.3481 18.3587 18.3747 18.355C18.6461 18.3327 18.4547 18.7238 18.8599 18.5573C18.8744 18.5512 19.2821 18.1606 19.0213 18.4827C19.002 18.5055 18.7822 18.6464 18.8233 18.7158C18.8651 18.7853 18.7561 19.1036 19.0194 18.9963C19.0838 18.9698 19.4546 18.6953 19.239 18.9851C19.2093 19.0247 19.089 19.1335 19.0326 19.2042C18.8533 19.4292 19.2701 19.0406 18.9547 19.4092C18.6387 19.7784 18.4389 20.0924 18.7539 19.9349C18.7632 19.9305 19.1018 19.631 19.1226 19.659C19.1535 19.7063 19.1426 19.828 19.1855 19.8669C19.2063 19.8853 19.3933 19.6751 19.4004 19.6749C19.6439 19.6952 19.5604 19.9648 19.6247 20.1819C19.6361 20.2221 19.9826 20.0267 19.818 20.29C19.6377 20.5786 18.6031 21.4932 18.9622 21.388C19.1065 21.3462 20.4134 20.1779 19.8621 20.908C20.1991 20.927 20.0351 21.4169 20.4411 21.3684C20.4592 21.3664 20.8313 21.0477 20.8455 21.0711C20.8653 21.107 20.7189 21.283 20.7282 21.3134C20.7636 21.4449 20.9794 21.3833 21.0388 21.485C21.0616 21.5231 20.8841 21.6784 20.9103 21.7245C20.9377 21.77 21.183 21.576 21.1261 21.731C21.0821 21.849 20.6698 22.3326 20.6663 22.4347C21.1125 21.9953 21.1376 22.038 21.3156 21.9817C21.3504 21.9702 21.4922 21.8047 21.5164 21.7916C21.6185 21.7348 21.5116 21.8827 21.6197 21.8177C21.6465 21.8012 21.7971 21.6517 21.8271 21.6304C22.0867 21.4441 21.805 21.8426 21.7557 21.9118C21.5691 22.175 21.7846 21.9969 21.7257 22.115C21.6668 22.233 21.5112 22.299 21.4921 22.3872C21.453 22.5701 21.5708 22.6389 21.6375 22.719C21.6658 22.7486 21.8475 22.5282 21.8561 22.5279C21.9683 22.5373 21.8139 22.8124 22.2512 22.445C21.2497 23.5235 22.3892 22.3814 22.2672 22.6752C22.2536 22.7023 21.7726 23.1979 21.6741 23.2438C21.5754 23.2896 21.6893 23.096 21.5399 23.172C21.504 23.1904 20.9928 23.6002 20.9581 23.6213C20.6865 23.7861 21.4168 23.0463 21.4545 23.0033C21.8596 22.538 21.3016 22.9725 21.2509 22.9912C21.0204 23.0755 21.0621 22.911 20.8887 22.9623C20.7763 22.995 20.2902 23.4695 20.2722 23.4255C20.2171 23.2737 20.8549 22.5678 20.1727 23.0508C20.027 23.1538 19.5203 23.6993 19.8602 23.2121C19.8823 23.1805 20.2047 22.7485 19.9325 22.9548C19.8981 22.9809 19.7443 23.1337 19.726 23.1412C19.6067 23.1886 19.7054 23.0435 19.6078 23.063C19.51 23.0825 19.3759 23.1227 19.3835 23.0266C19.3886 22.9682 19.6393 22.6509 19.6969 22.568C19.8628 22.3311 19.4924 22.6211 19.7148 22.3555C19.9382 22.0885 20.3566 21.7616 20.4561 21.5446C20.0541 21.9395 19.6381 22.3418 19.2324 22.7377C19.1165 22.5941 19.1171 22.3382 18.9687 22.226C18.9476 22.216 18.7536 22.4405 18.7266 22.4338C18.6192 22.3949 18.7079 22.1794 18.5709 22.1644C18.4639 22.1537 18.1718 22.315 18.0529 22.3108C18.4722 21.8196 18.2261 21.8828 18.2011 21.7758C18.1924 21.7383 18.3166 21.6184 18.34 21.5623C18.4251 21.354 18.0503 21.7843 17.9694 21.8307C17.6245 22.0276 18.5326 21.1122 18.4235 21.0487C18.4065 21.0545 17.8786 21.4707 17.8371 21.4961C17.5904 21.6439 17.9964 21.3208 18.0031 21.2538C18.013 21.1327 18.0907 20.9777 17.8821 21.0543C17.8201 21.0778 17.4714 21.3339 17.6691 21.0637C17.6948 21.0284 17.8567 20.8728 17.8643 20.8577C17.9503 20.6306 17.4425 21.131 17.2299 21.2613C17.0176 21.3911 17.3042 20.9817 17.3923 20.8689C17.6194 20.5766 17.5291 20.7833 17.5565 20.7598C17.8823 20.4785 17.7835 20.4847 17.7742 20.4243C18.2658 19.9259 18.1873 19.9069 17.7629 20.3637C17.7167 20.4136 17.7897 20.3948 17.7742 20.4243C17.2561 20.8777 17.14 20.8863 17.5358 20.3749C17.7214 20.1351 17.9968 19.9146 17.8211 19.9209C17.7415 19.9236 17.4143 20.2777 17.2872 20.3366C16.9971 20.4709 17.2153 20.0541 17.0854 20.0244C17.0383 20.0137 16.8797 20.2275 16.8405 20.2276C16.7371 20.2258 16.8309 20.04 16.7063 20.0589C16.6948 20.0608 16.5103 20.2666 16.4914 20.2527C16.3446 20.1517 16.3612 19.9202 16.2352 19.7876C16.174 19.7237 15.9529 19.7191 15.9096 19.6329C15.8334 19.4846 15.9794 19.0633 15.8139 19.0364C15.7067 19.0187 15.5247 19.227 15.3644 19.3328C15.0541 19.5379 15.4242 18.988 15.4845 18.9031C15.4865 18.9004 15.5873 18.9077 15.6591 18.7791C15.8517 18.5545 15.486 18.9028 15.4845 18.9031C15.5227 18.8491 15.4598 18.6977 15.401 18.713C15.3689 18.7217 15.189 18.9123 15.1758 18.9134C14.8653 18.9349 14.6733 18.8384 14.6137 18.6067C14.6168 18.5986 14.8266 18.398 14.8267 18.3858C14.8342 18.21 14.5258 18.4089 14.305 18.4893C14.0846 18.5694 14.0801 18.464 14.3951 18.0689C14.2974 18.0611 14.3796 17.8288 14.4317 17.6905C14.483 17.5532 14.0728 17.9483 14.061 17.9524C13.6857 18.0877 13.8478 17.7888 13.7598 17.6299C13.7184 17.5538 13.543 17.4956 13.4351 17.4761C13.3493 17.4612 13.4134 17.3373 13.3065 17.3512C13.2922 17.353 13.119 17.5375 13.1095 17.5432C12.8424 17.7055 13.3065 17.2941 13.375 17.2049C13.622 16.8824 13.7503 16.7068 13.5496 16.7742C13.5036 16.7896 12.8279 17.3723 12.7604 17.3838C12.6771 17.3945 12.9173 17.1824 12.8242 17.1993C12.8151 17.202 12.6772 17.3404 12.66 17.3111C12.578 17.1762 12.5404 16.9771 12.4132 16.8786C12.3946 16.8674 12.1958 17.1033 12.1664 17.0893C12.0352 17.0113 11.928 16.8886 11.9299 16.6838C11.9311 16.6328 12.1019 16.4939 12.143 16.4424C12.3875 16.1333 11.9414 16.4838 11.9206 16.4881C11.5384 16.4963 11.7623 15.9883 11.3969 15.9727C11.3763 15.9726 10.861 16.326 11.1989 15.9195C11.2237 15.8897 11.5663 15.4793 11.2749 15.707C11.2543 15.7245 11.0822 15.9374 11.0638 15.8804C11.0455 15.8224 10.8525 15.8911 11.016 15.6241C11.0677 15.5395 11.4088 15.122 11.0554 15.3743C11.0309 15.3921 10.2676 15.9987 10.7138 15.501C10.7874 15.4191 11.2939 14.9253 10.9775 15.1217C10.9163 15.1599 10.8248 15.2917 10.7251 15.3314C10.5716 15.3929 10.6452 15.1991 10.3657 15.365C10.3163 15.3945 9.93373 15.6909 10.1583 15.4013C10.1935 15.3559 10.3712 15.1989 10.3722 15.1627C10.3777 14.9902 10.178 15.0136 10.208 14.8141C10.2184 14.7436 10.5047 14.4898 10.5458 14.3863C10.5868 14.2829 10.5927 14.1499 10.436 14.2399C10.2792 14.3301 9.88395 14.7952 9.79981 14.7805C9.43475 14.7158 9.47448 14.2526 9.29684 14.0023C9.27051 13.9651 9.14221 14.1446 9.09227 14.1011C8.90762 13.9405 8.46398 13.7868 8.64185 13.3116C8.78429 12.931 9.13644 12.8828 9.15139 12.6852C9.15788 12.5906 8.60737 13.0409 8.58085 13.046C8.31623 13.101 8.46544 12.809 8.30309 12.7831C8.26939 12.7781 8.08609 12.9976 8.05911 12.9919C7.96728 12.9707 7.9984 12.8212 7.92774 12.784C7.89546 12.768 7.74475 12.9262 7.73443 12.8922C7.70807 12.8124 7.72641 12.7005 7.81983 12.5044C7.83059 12.4851 8.05217 12.327 8.02064 12.2807C7.96779 12.2062 8.0323 11.9846 7.81044 12.0589C7.74357 12.0821 7.38829 12.4324 7.58617 12.1428C7.62753 12.0821 8.06635 11.6709 7.64341 11.9825C7.57294 12.0342 6.98462 12.4364 7.25961 12.0738C7.332 11.9783 7.65034 11.6018 7.56928 11.6301C7.55464 11.6382 7.38035 11.8392 7.34031 11.8361C7.20169 11.8217 7.14169 11.7218 7.00343 11.7028C6.96617 11.6982 6.80081 11.9237 6.75101 11.9116C6.61505 11.8756 6.55679 11.7192 6.53424 11.5742C6.52632 11.5204 6.71202 11.3788 6.72755 11.3589C6.98003 11.0359 6.56813 11.4023 6.5333 11.413C6.32211 11.4737 6.44805 11.2351 6.33061 11.2144C6.29862 11.2083 6.12581 11.4068 6.1054 11.4195C5.90472 11.5408 6.26537 11.2396 6.279 11.1771C6.31344 11.0043 6.22133 10.9413 6.12698 10.8947C6.09212 10.8779 5.90619 11.1195 5.87644 11.1035C5.7014 11.0035 5.57862 10.8408 5.56302 10.589C5.56048 10.5412 5.7424 10.3915 5.77509 10.3485C6.00408 10.0488 5.58822 10.3553 5.54143 10.3774C5.32851 10.4782 5.45345 10.3118 5.37722 10.2898C4.99993 10.1864 4.80017 9.7942 4.63308 9.50873C4.41435 9.13768 4.34192 8.75207 4.01844 8.51235C3.99633 8.49973 3.79683 8.73266 3.7754 8.72393C3.52232 8.57846 3.41166 8.29726 3.14762 8.16189C3.12561 8.15157 2.94005 8.3821 2.89895 8.37067C2.81316 8.34852 2.75626 8.26949 2.76852 8.14884C2.77426 8.09027 2.9899 7.94682 2.99185 7.89158C2.99668 7.76272 2.94412 7.68146 2.8464 7.65111C2.80393 7.63961 2.63096 7.89265 2.59304 7.85989C2.3299 7.64079 2.05592 7.44075 2.08913 6.92223C2.09497 6.88332 2.51137 6.43996 2.39316 6.48695C2.26954 6.60441 2.12761 6.74652 1.99717 6.87376C1.57538 6.59315 1.3773 6.09661 1.04752 5.72265C1.03236 5.70876 0.82888 5.96143 0.800728 5.93236C0.637325 5.76328 0.411638 5.66608 0.470418 5.26873C0.475929 5.22963 0.890171 4.83432 0.779146 4.84557C0.759134 4.84796 0.629641 4.82761 0.522029 4.8959C0.505482 4.90723 0.330254 5.1083 0.300571 5.08977C0.13107 4.97858 0.0268016 4.78885 0.00216543 4.53425C-0.000292462 4.49228 0.223899 4.31689 0.223624 4.28539C0.216254 4.06514 -0.0613776 4.09339 0.0124876 3.80258C0.063029 3.60716 0.439052 3.28747 0.743487 2.90778C0.786204 2.85425 0.749034 2.80165 0.946178 2.60113C1.44271 2.09597 2.01475 1.57068 2.54143 1.02965C2.65492 0.913139 2.47056 0.976379 2.78541 0.735119C2.80684 0.719019 2.94283 0.670007 3.04815 0.58692C3.12123 0.529273 3.3113 0.314518 3.41037 0.246713C3.50906 0.179285 3.35596 0.364668 3.47981 0.292384C3.60494 0.218666 3.82462 -0.0216725 3.90302 0.00157709ZM22.1555 23.3165C22.0617 23.1402 22.8087 22.2359 22.863 22.4757C22.8729 22.5193 22.5389 22.6822 22.498 22.7908C22.424 22.9886 22.9884 22.5105 22.772 22.8523C22.7318 22.915 22.1606 23.3273 22.1555 23.3165ZM20.4307 22.1225C20.6164 21.8157 19.5986 22.8069 19.8677 22.6705C19.883 22.6629 20.4164 22.1438 20.4307 22.1225ZM21.2227 22.4133C21.3397 22.2588 21.1264 22.36 20.9806 22.5522C20.8635 22.7067 21.077 22.6056 21.2227 22.4133ZM19.6547 21.8065C19.9156 21.4427 19.419 21.8644 19.2137 22.1421C19.0088 22.4194 19.5756 21.917 19.6547 21.8065ZM18.1946 17.848C18.457 17.6575 18.5258 17.6728 18.2687 17.9841C18.2488 17.9343 18.2159 17.8968 18.1946 17.848ZM15.4686 16.1572C15.2256 16.3639 15.2728 16.446 15.4939 16.1992C15.5019 16.1886 15.4786 16.1488 15.4686 16.1572ZM13.3178 14.2278C13.3278 14.2167 13.3143 14.1838 13.2549 14.2437C13.0637 14.4368 13.1503 14.4151 13.3178 14.2278ZM12.3344 12.3366C11.9261 12.6644 12.0389 12.8538 12.3935 12.4354C12.4117 12.4137 12.3553 12.3207 12.3344 12.3366ZM0.99685 2.94693C0.753595 3.15405 0.800313 3.23685 1.02125 2.98981C1.03013 2.97988 1.00701 2.93852 0.99685 2.94693Z" fill="#474747"/>
</svg>
