<svg width="23" height="23" viewBox="0 0 23 23" fill="none" xmlns="http://www.w3.org/2000/svg">
  <path d="M20.285 0C20.2486 0.07522 20.2116 0.15035 20.1752 0.22556C20.2614 0.23423 20.3478 0.24343 20.4342 0.25259C20.3846 0.16847 20.3346 0.08412 20.285 0ZM0.66437 22.4779C1.13936 22.889 1.56651 22.4769 1.70316 22.3866C3.12024 21.4496 3.95769 19.9885 5.18456 18.8773C5.19746 18.8662 5.25825 18.9365 5.2662 18.9342C5.31417 18.9186 5.24403 18.7866 5.25119 18.7701C5.26765 18.7366 5.3477 18.8432 5.36661 18.8261C5.55589 18.636 5.67984 18.4018 5.88647 18.2286C5.89993 18.2173 5.81201 18.155 5.84706 18.1466C5.8656 18.1427 6.01674 18.2229 6.04412 18.1997C6.13872 18.1176 6.17603 18.0065 6.27121 17.9154C6.32341 17.8657 6.39055 17.7794 6.4495 17.7243C6.4755 17.7003 6.55377 17.7262 6.58087 17.7038C6.61852 17.6713 6.50556 17.5724 6.50299 17.5594C6.49772 17.5066 6.61916 17.6201 6.63905 17.5948C6.67552 17.5473 6.59948 17.467 6.6597 17.4205C6.70295 17.3874 6.85205 17.3617 6.91869 17.3319C6.94026 17.1292 7.11914 17.0243 7.25463 16.9498C7.3349 16.9057 7.23073 16.7901 7.25651 16.7652C7.34827 16.6785 7.55727 16.751 7.64594 16.672C7.76343 16.5671 7.7689 16.376 7.87021 16.2619C7.8867 16.2435 7.98366 16.3473 8.00346 16.3328C8.07659 16.279 8.17689 16.2169 8.21929 16.1463C8.26669 16.0678 8.14347 15.8985 8.23524 15.8667C8.26299 15.8587 8.39571 15.9798 8.44262 15.9665C8.51717 15.944 8.45705 15.7778 8.47828 15.7316C8.50799 15.6694 8.59842 15.8391 8.64343 15.7595C8.64523 15.7562 8.5618 15.6546 8.57869 15.6449C8.63053 15.6185 8.70103 15.6958 8.75133 15.6318C8.75563 15.6241 8.74293 15.4656 8.74943 15.4538C8.79253 15.4082 8.85153 15.2878 8.89683 15.2805C9.05813 15.2544 9.12413 15.4675 8.89863 15.0847C9.00873 15.124 9.11983 15.1642 9.22993 15.1994C9.13753 15.1567 9.14053 14.9595 9.15393 14.958C9.26363 14.9502 9.34763 15.1031 9.40263 15.0101C9.02923 14.835 9.46353 14.8794 9.51423 14.8433C9.75743 14.6695 9.87853 14.4119 10.0904 14.2048C10.1614 14.1358 10.3138 14.1001 10.3869 14.0249C10.4041 14.0077 10.3267 13.9559 10.34 13.9392C10.3543 13.9231 10.4109 14.0125 10.4245 13.9914C10.5073 13.8588 10.4543 13.6372 10.7257 13.7099C10.7056 13.6804 10.685 13.6611 10.6656 13.626C10.9008 13.6987 10.8505 13.3385 10.8805 13.2513C10.9281 13.1161 11.0554 13.1959 11.101 13.1087C11.1611 12.9932 11.0904 12.6592 11.3675 13.0519C11.4384 13.0023 11.5 12.9477 11.5299 12.8561C11.5331 12.846 11.4457 12.768 11.4435 12.7611C11.4485 12.7317 11.5307 12.8018 11.5458 12.7937C11.5865 12.7717 11.444 12.7319 11.5139 12.7126C11.5514 12.7026 11.6323 12.7553 11.6997 12.6911C12.1047 12.3035 12.512 11.8507 12.9084 11.4347C12.9356 11.4063 13.0005 11.5071 13.0303 11.4673C13.134 11.328 13.2131 10.9723 13.3372 10.8867C13.4613 10.8013 13.5586 10.9446 13.675 10.9295C13.6967 10.9264 13.6197 10.8701 13.6281 10.8568C13.699 10.7739 13.6842 10.5756 13.7304 10.497C13.761 10.4451 13.8665 10.5561 13.903 10.5353C13.9571 10.5039 13.8912 10.3508 13.9105 10.3246C14.0025 10.2026 14.1648 10.2171 14.2202 10.073C14.2401 10.1005 14.2601 10.1247 14.2803 10.1512C14.3951 10.0295 14.5098 9.90757 14.6247 9.78587C14.6408 9.81297 14.657 9.84037 14.6735 9.86787C14.8009 9.71757 14.549 9.49907 15.0357 10.0068C15.0633 10.0141 15.0943 10.0236 15.1201 10.0301C14.8593 9.77877 14.7555 9.50807 14.7973 9.33657C14.8003 9.32387 15.1036 9.52037 14.802 9.23217C14.8881 9.29037 14.9464 9.33157 15.0216 9.38317C14.9547 9.27167 14.8892 9.16067 14.8227 9.04947C14.8481 9.05057 14.8732 9.05127 14.8987 9.05227C14.9585 9.10817 15.0179 9.16927 15.0788 9.22197C15.1443 9.17397 15.189 8.98747 15.2412 8.94977C15.3714 8.85737 15.6425 8.90017 15.5602 8.64592C15.6197 8.62154 15.691 8.77497 15.7395 8.69907C15.689 8.63477 15.6403 8.57335 15.5884 8.50704C15.8974 8.71177 15.7519 8.54475 15.7685 8.42129C15.7798 8.33809 15.8733 8.36917 15.9065 8.31224C15.9148 8.29772 15.8386 8.22484 15.8483 8.21903C15.8824 8.20065 16.0606 8.22882 16.0829 8.21344C16.2788 8.07329 16.4119 7.91758 16.5446 7.73062C16.5589 7.71081 16.6112 7.80594 16.6262 7.78655C16.6499 7.75319 16.5195 7.65624 16.5296 7.63369C16.5609 7.57265 16.6818 7.69164 16.7529 7.63369C16.9869 7.4425 17.1416 7.10892 17.3563 6.87964C17.3641 6.87384 17.4335 6.94327 17.4417 6.9365C17.4942 6.89095 17.449 6.74728 17.4942 6.70348C17.5699 6.63108 17.7262 6.6742 17.7992 6.60095C17.9422 6.45815 18.0196 6.28045 18.1642 6.13119C18.2825 6.00882 18.3963 5.9135 18.5283 5.78166C19.1053 5.20576 19.9207 4.84301 20.3835 4.14587C20.3949 4.12791 20.3266 4.07217 20.3338 4.07037C20.4038 4.05469 20.4915 4.13431 20.33 3.94361C20.4196 3.92384 20.5699 4.03828 20.6265 3.96318C20.6565 3.92309 20.4252 3.74547 20.5909 3.79168C20.7403 3.83373 20.7939 4.00388 20.8386 3.7311C20.8397 3.72374 20.7351 3.57791 20.8011 3.5773C20.8668 3.57641 20.9179 3.70386 21.0254 3.65094C21.2776 3.52607 21.4085 3.18078 21.6616 2.99569C21.6775 2.98411 21.8775 2.91919 21.9347 2.92392C22.0451 2.93349 22.1277 3.03601 22.2162 2.99382C22.2846 2.96078 22.2216 2.81414 22.3025 2.77572C22.3145 2.77372 22.4319 2.86654 22.462 2.80834C22.4924 2.74953 22.6725 2.72442 22.6187 2.55855C22.6044 2.51652 22.2994 2.12156 22.2528 2.07573C22.095 1.92183 22.0172 1.95667 21.9759 1.79518C21.9545 1.81439 21.9286 1.82819 21.9056 1.84551C21.8041 1.73755 21.7028 1.62955 21.6015 1.52208C21.642 1.51331 21.6827 1.50534 21.7235 1.49691C21.6899 1.46115 21.6567 1.42456 21.6231 1.38879C21.5338 1.4761 21.4515 1.29138 21.2806 1.21263C21.2597 1.1077 21.2388 1.00237 21.2177 0.89759C21.2011 0.92947 21.1785 0.96411 21.1661 0.99453C20.9851 0.82046 21.0785 0.81136 21.0545 0.7699C20.9173 0.53533 20.7592 0.8793 20.4792 0.6422C20.4906 0.57362 20.505 0.50349 20.5177 0.43435C20.474 0.41436 20.43 0.39469 20.3863 0.3747C20.4716 0.64467 20.4307 0.81154 20.4332 1.02994C20.4161 1.03238 20.3983 1.03478 20.3816 1.0374C20.3041 0.95465 20.2265 0.87222 20.1489 0.78947C20.1246 0.79477 20.1 0.80095 20.0757 0.80625C20.3842 1.02591 20.3205 1.08233 20.4088 1.31516C20.5408 1.36903 20.5327 1.26585 20.7026 1.44099C20.4359 1.44118 20.4679 1.78428 20.1874 1.76349C20.1176 1.75786 19.8946 1.5362 19.8392 1.63113C19.8664 1.65296 19.9113 1.69667 19.9453 1.72714C19.707 1.75079 19.563 1.76661 19.5361 2.01049C19.4636 1.9228 19.391 1.83439 19.3184 1.74671C19.3874 1.75781 19.457 1.76995 19.5258 1.7812C19.4126 1.62966 19.3246 1.59983 19.4123 1.51556C19.484 1.44645 19.501 1.5468 19.5596 1.56682C19.6391 1.59414 19.5564 1.46717 19.6441 1.49878C19.7117 1.52301 19.7983 1.65475 19.827 1.57148C19.6623 1.45296 19.4926 1.32995 19.326 1.20983C19.3442 1.25524 19.3628 1.3011 19.3813 1.34685C19.4332 1.37073 19.4843 1.39474 19.5361 1.41862C19.419 1.39958 19.3084 1.38159 19.1871 1.36176C19.4088 1.54928 19.2792 1.52444 19.2265 1.5286C19.1452 1.53518 19.3231 1.63746 19.2715 1.64325C19.2185 1.64835 19.0294 1.52308 19.0107 1.60876C19.1298 1.67157 19.1735 1.79057 19.265 1.86695C19.3567 1.94338 19.4318 1.90705 19.4705 2.0515C19.2981 2.08388 19.088 1.65511 18.9666 1.67121C18.8207 1.69172 19.3246 2.23182 19.462 2.319C19.5698 2.38718 19.619 2.30347 19.7266 2.3712C19.7656 2.64889 19.4503 2.3373 19.3682 2.29663C19.0704 2.14906 19.7171 2.69228 19.4132 2.566C19.5265 2.6752 19.6283 2.77357 19.737 2.87825C19.7015 2.87314 19.6644 2.85655 19.63 2.85867C19.4668 2.58867 19.4308 2.64145 19.4076 2.66387C19.371 2.69885 19.3207 2.53971 19.2837 2.52126C19.1847 2.47396 19.1772 2.54686 19.1064 2.42712C19.1397 2.4824 19.1722 2.53873 19.2049 2.59396C19.1067 2.58012 18.5422 2.21559 18.7301 2.21554C18.5482 2.05236 18.6008 2.16577 18.6034 2.21554C18.6054 2.26437 18.496 2.15508 18.4955 2.19597C18.4941 2.35944 18.7379 2.49268 18.899 2.62659C18.6873 2.63429 18.7265 2.46087 18.5002 2.55016C18.3645 2.4455 18.3087 2.24477 18.1783 2.23605C18.3766 2.45528 18.4822 2.64969 18.4645 2.80555C18.408 2.76623 18.3511 2.72649 18.2947 2.68717C18.4404 2.92645 18.6657 3.10143 18.3378 2.95095C18.8264 3.34218 18.5112 3.09485 18.6118 3.35174C18.6324 3.40357 18.7605 3.45781 18.7845 3.52604C18.7948 3.55653 18.7016 3.51289 18.7301 3.59035C18.7446 3.62897 18.858 3.85314 18.7385 3.81218C18.5536 3.57141 18.297 3.46476 18.1839 3.22591C18.1094 3.38604 17.9248 3.36616 18.3482 3.52417C18.3829 3.61816 18.417 3.71203 18.4514 3.80566C18.3796 3.7758 18.3081 3.74647 18.2365 3.71711C18.4089 3.89467 18.4612 3.94015 18.3482 3.99114C18.4253 3.99688 18.5032 4.00385 18.5809 4.00978C18.6175 4.04373 18.6594 4.07518 18.6925 4.11045C18.5812 4.08711 18.4286 4.1811 18.3519 4.16451C18.2753 4.14785 18.32 4.07802 18.2665 4.04148C17.8206 3.74136 18.1017 4.00927 17.9859 3.99674C17.9179 3.98895 17.9488 3.87657 17.9165 3.8765C17.7972 3.87725 17.9681 4.10254 17.9174 4.15798C17.8235 4.02713 17.7276 3.89424 17.6322 3.76279C17.5824 3.82411 17.5212 3.88691 17.4332 3.9026C17.3987 3.9088 17.3296 3.81074 17.3206 3.80846C17.2751 3.7964 17.1629 3.8176 17.1555 3.8243C17.1013 3.87679 17.2159 3.9937 17.1705 4.05173C17.2006 4.04126 17.2284 4.03041 17.2578 4.02004C17.4552 4.19815 17.653 4.37658 17.8508 4.55505C17.8135 4.61929 17.7766 4.6836 17.7391 4.74799C17.7136 4.64837 17.6878 4.54841 17.6622 4.44879C17.4517 4.35565 17.2406 4.26265 17.0297 4.16917C17.0928 4.29218 17.1562 4.41526 17.2193 4.53827C17.1119 4.59537 16.7492 4.20242 17.0419 4.57089C16.9896 4.56717 16.9372 4.56402 16.8852 4.56064C16.9361 4.60424 16.9873 4.64753 17.0382 4.69113C16.9797 4.69131 16.9215 4.69224 16.8627 4.69206C16.7256 4.49456 16.5786 4.28879 16.4461 4.09647C16.3523 4.11763 16.4927 4.25911 16.5202 4.30339C16.5915 4.4196 16.4196 4.33889 16.4883 4.4432C16.5121 4.47903 16.6623 4.5167 16.751 4.64359C16.7693 4.66985 17.0899 5.13785 16.95 5.09472C16.8789 5.02233 16.7945 4.93111 16.7182 4.85145C16.6094 4.87257 16.9522 5.27909 17.0663 5.37527C16.9578 5.33637 16.9007 5.38022 16.7782 5.27274C16.7577 5.28754 16.7378 5.30269 16.7172 5.31748C17.0166 5.57813 16.8914 5.60012 16.645 5.36502C16.6693 5.329 16.6938 5.29292 16.7182 5.2569C16.3992 4.98569 16.3125 4.71612 16.3944 5.17954C16.5117 5.36902 16.4386 5.094 16.5239 5.23826C16.5389 5.35646 16.4343 5.34928 16.492 5.50483C16.5644 5.69898 16.769 5.75163 16.4554 5.7248C16.3447 4.98624 16.1229 5.48141 15.8417 5.49737C16.2228 5.95704 16.2311 6.21469 15.9328 6.26168C15.8333 6.12715 15.9485 6.13266 15.9412 6.06314C15.9337 5.99389 15.8306 5.95833 15.8145 5.86554C15.7987 5.77231 15.8073 5.61528 15.7639 5.49365C15.6639 5.46088 15.3414 5.46875 15.639 5.54771C15.6739 5.74418 15.7547 5.90105 15.6756 6.02306C15.4625 5.87133 15.3505 5.75624 15.2468 5.84877C15.5596 6.04372 15.6245 6.33069 15.9121 6.5674C15.9207 6.43718 15.6262 6.22198 15.5443 6.06035C15.5362 6.04409 15.6651 6.04263 15.6756 6.02306C15.8395 6.31627 15.9028 6.42392 16.2162 6.65501C16.1458 6.67741 16.151 6.74029 16.0163 6.61493C16.0631 6.68066 16.11 6.74695 16.157 6.81253C16.1406 6.82605 16.1222 6.8348 16.1073 6.85168C15.9328 6.63455 16.0105 6.79674 15.8915 6.7389C15.7718 6.6804 15.6571 6.48559 15.5715 6.56646C15.5533 6.49323 15.5393 6.42847 15.5227 6.35861C15.4182 6.36183 15.3128 6.36471 15.2083 6.36793C15.1259 6.21094 15.0291 5.95146 14.8686 5.79657C14.9034 5.88007 14.7161 5.86182 14.7007 5.86648C14.6485 5.88619 14.7676 5.96572 14.7673 5.97087C14.759 6.07491 14.679 6.08758 14.8086 6.25888C14.698 6.23341 14.7043 6.30364 14.6556 6.34463C14.6287 6.36718 14.5224 6.25242 14.5289 6.28777C14.5731 6.52324 14.808 6.57445 14.3488 6.48817C14.294 6.38896 14.2372 6.28794 14.1817 6.18804C14.1316 6.17995 14.0808 6.17189 14.0307 6.16381C14.0307 6.19173 14.0316 6.21977 14.0316 6.24769C14.1994 6.41381 14.3677 6.58024 14.5355 6.74635C14.5292 6.77077 14.523 6.79558 14.5167 6.81999C14.5596 6.81013 14.6024 6.80002 14.6453 6.79016C14.6772 6.81707 14.7091 6.84435 14.741 6.87125C14.7474 6.95557 14.755 7.04011 14.7617 7.12478C14.7026 7.06763 14.6424 7.01042 14.5834 6.95327C14.576 7.12163 14.6232 7.17246 14.3788 7.09681C14.3157 7.163 14.0189 6.97335 13.8786 6.90853C13.8978 6.95425 13.9169 7.00061 13.9359 7.04648C13.8789 7.00696 13.8221 6.96763 13.7651 6.92811C13.8154 7.01198 13.8653 7.09624 13.9152 7.17977C13.7528 7.03731 13.6996 6.99458 13.7125 6.87498C13.4997 6.70905 13.4666 6.90838 13.4826 7.01945C13.4949 7.10371 13.694 7.22223 13.7088 7.24595C13.7587 7.32571 13.6436 7.32914 13.6412 7.3522C13.6335 7.45001 13.5884 7.47934 13.5755 7.56192C13.5733 7.5781 13.6465 7.70171 13.6487 7.70919C13.6487 7.74306 13.6547 7.83267 13.6516 7.84061C13.477 8.16341 13.3067 7.46443 13.1204 7.74088C13.0698 7.67683 13.0191 7.61369 12.9684 7.5498C12.9474 7.56374 12.9257 7.57781 12.9046 7.59174C12.9305 7.66163 13.0453 7.72136 12.9309 7.6952C13.0048 7.76289 13.0786 7.83121 13.1523 7.8984C13.0948 7.87942 13.0377 7.86006 12.9797 7.84154C13.1952 8.11695 13.1386 8.28456 13.4357 8.5639C13.5368 8.65887 13.718 8.67977 13.7811 8.82577C13.7675 8.88007 13.6744 8.74267 13.6534 8.74847C13.5094 8.80627 13.6796 8.96447 13.5943 8.96187C13.5172 8.89817 13.4386 8.83317 13.3607 8.76897C13.3658 8.80487 13.3707 8.84097 13.3757 8.87707C13.3247 8.83367 13.2737 8.79007 13.2227 8.74657C13.2341 8.72907 13.2472 8.70977 13.2574 8.69347C13.0549 8.52961 12.8002 8.61808 13.0219 8.70837C13.1123 8.74497 13.135 8.66967 13.3212 8.91627C13.2438 8.93097 13.159 8.95127 13.0791 8.96837C13.1243 9.01627 13.17 9.06407 13.2152 9.11197C13.1195 9.14687 12.9918 8.90287 12.8915 8.80347C12.8739 8.81537 12.8565 8.82787 12.8389 8.83977C12.8778 8.89107 12.919 8.94437 12.9562 8.99447C12.8835 8.92347 12.7078 8.76537 12.7254 8.87147C12.7374 8.94027 12.9639 9.07617 12.884 9.10547C12.7756 8.98967 12.6583 8.83387 12.5612 8.85847C12.6724 8.98097 12.7719 9.09577 12.8905 9.22287C12.702 9.18617 12.8485 9.40067 12.6287 9.35897C12.4893 9.33257 12.1175 9.11707 12.5349 9.60407C12.5055 9.65677 12.4056 9.53167 12.3678 9.51837C12.1906 9.45637 12.361 9.71067 12.3641 9.73547C12.3767 9.88417 12.2714 9.84107 12.3172 9.99747C12.2362 9.91097 12.1583 9.83037 12.0788 9.74667C12.2557 9.82087 12.2754 9.78887 12.32 9.69077C12.2792 9.69787 12.2378 9.70507 12.1971 9.71217C12.1329 9.64067 12.0687 9.56887 12.0047 9.49787C12.495 9.54427 12.0189 9.17417 11.7401 9.26667C11.8502 9.40787 11.9598 9.54937 12.0704 9.69077C11.7717 9.60747 11.8866 9.82237 11.8048 9.98247C11.7949 10.0014 11.6696 9.98137 11.6434 10.0003V9.99837C11.5102 9.89397 11.4745 9.82017 11.3703 9.71217C11.3447 9.71107 11.319 9.70957 11.2934 9.70847C11.3472 9.81627 11.4236 9.87367 11.3506 9.90797C11.277 9.82047 11.2028 9.73267 11.1292 9.64507C11.0675 9.70097 11.1168 9.82667 11.0241 9.84367C11.0638 9.86477 11.1036 9.88587 11.1433 9.90697C11.1018 10.1033 11.672 10.4811 11.345 10.3358C11.3806 10.3826 11.4173 10.4298 11.4529 10.4765C11.5002 10.4498 11.5475 10.423 11.5946 10.3964C11.6541 10.4539 11.7136 10.5111 11.7729 10.5688C11.7156 10.5909 11.6576 10.6129 11.6002 10.635C11.6686 10.6452 11.7374 10.6546 11.8058 10.6648C11.7877 10.7386 11.7694 10.8129 11.7513 10.8867C11.5846 10.6238 11.495 10.6603 11.2934 10.4365C11.3896 10.6942 11.5593 10.9908 11.2831 10.9677C11.2281 10.963 11.0919 10.8012 11.2024 11.0526C10.982 10.7994 10.7816 10.7767 10.5671 10.5409C10.6026 10.5271 10.635 10.5086 10.6722 10.498C10.7232 10.603 10.9344 10.8213 11.04 10.8438C11.1747 10.872 11.1032 10.6467 11.3394 10.8876C11.3493 10.8555 11.3621 10.8288 11.3732 10.799C11.3054 10.7485 11.2372 10.6978 11.1695 10.6471C11.3211 10.6814 11.3276 10.6149 11.2061 10.4383C11.102 10.4734 10.9983 10.5083 10.8946 10.5437C10.8947 10.5234 10.8951 10.503 10.8955 10.4831C10.6898 10.3836 10.5988 10.1856 10.4676 10.251C10.5381 10.3198 10.6088 10.3887 10.6797 10.4579C10.4569 10.3078 10.3596 10.4063 10.1758 10.1615C10.2122 10.2566 10.2476 10.3048 10.1148 10.2062C10.2001 10.4463 10.3573 10.7009 10.6318 10.9183C10.5631 10.9077 10.494 10.8974 10.4254 10.8867C10.3747 10.8029 10.3241 10.7196 10.2734 10.6359C10.2271 10.6903 10.18 10.7452 10.1336 10.799C10.3283 11.0021 10.2917 10.7627 10.4404 10.9687C10.4703 11.01 10.3669 10.9615 10.3794 10.9883C10.5224 11.2799 10.4831 11.0061 10.6281 11.1942C10.5681 11.357 10.9374 11.5458 10.5474 11.4655C10.6009 11.5268 10.6562 11.5894 10.7097 11.65C10.6595 11.7068 10.5327 11.5736 10.462 11.595C10.4195 11.6102 10.6096 11.8714 10.4226 11.7488C10.3875 11.7249 10.1626 11.3955 10.0622 11.5195C9.98483 11.616 10.2179 11.7759 10.2405 11.8924C10.2626 12.0085 9.88163 11.8444 10.1598 12.1841C10.1436 12.1187 10.1529 12.065 10.1467 12.0042C10.2184 12.0531 10.2895 12.1018 10.3606 12.1505C10.2196 12.1356 10.246 12.2917 10.0594 12.1906C10.1959 12.493 9.89733 12.383 9.67383 12.1105C9.73733 12.1187 9.81623 12.2565 9.78543 12.1496C9.73133 12.0881 9.67723 12.0266 9.62313 11.9651C9.56483 12.0369 9.51803 12.0811 9.72443 12.227C9.71863 12.2409 9.71333 12.255 9.70753 12.2689C9.57773 12.1436 9.44703 12.0177 9.31723 11.8924C9.29093 11.8901 9.26463 11.8881 9.23833 11.8858C9.25303 11.9271 9.26763 11.969 9.28243 12.0107C9.50333 12.1937 9.54083 12.1695 9.55083 12.3845C9.48073 12.3154 9.41083 12.2467 9.34063 12.1776C9.34343 12.3516 9.50983 12.5217 9.39513 12.6231C9.72123 12.7817 9.33693 12.3094 9.82393 12.7937C9.81283 12.7412 9.80123 12.6878 9.79013 12.6352C9.86393 12.7022 9.93793 12.7694 10.0116 12.8366C9.86223 12.9109 9.21073 12.6348 9.44383 13.0155C9.39723 12.9872 9.35553 12.9635 9.30593 12.9326C9.41813 13.19 8.96933 12.807 9.13513 13.1199C9.15333 13.1532 9.56063 13.5268 9.44953 13.6092C9.40093 13.5562 9.31663 13.4691 9.25433 13.4033C9.26453 13.4551 9.27613 13.5084 9.28713 13.5608C9.23643 13.5179 9.18533 13.4754 9.13423 13.4321C9.15183 13.3784 9.16913 13.3238 9.18673 13.27C9.14093 13.2835 9.09473 13.2975 9.04883 13.311C9.01083 13.1961 9.02713 13.1778 8.88083 13.0789C8.83973 13.1051 8.79713 13.131 8.75603 13.1572C8.72103 13.1293 8.68603 13.1003 8.65093 13.0724C8.57311 12.9626 8.49747 12.8545 8.41823 12.7433C8.40731 12.9071 8.33529 12.9874 8.45295 13.2383C8.47272 13.2807 8.63573 13.3625 8.44732 13.3306C8.511 13.3962 8.56131 13.4513 8.61998 13.5123C8.34191 13.4267 8.36518 13.5116 8.39664 13.7416C8.33872 13.5554 8.36058 13.6916 8.27841 13.6428C8.22188 13.6091 8.27232 13.5721 8.22023 13.53C8.16818 13.4882 7.92071 13.3563 7.94622 13.2849C8.45627 13.5528 8.02307 13.0573 8.36474 13.0901C8.2907 13.0637 8.21638 13.0372 8.14234 13.0109C8.11951 12.966 8.0988 12.9254 8.07478 12.8776C8.06497 13.0386 8.05668 12.9478 7.96123 12.9232C7.86582 12.8988 7.7506 12.9118 7.69098 12.9381C7.67222 12.9465 7.77327 13.0189 7.75104 13.0575C7.73578 13.0838 7.54965 13.012 7.6891 13.1768C7.77993 13.2841 8.14537 13.4653 8.01848 13.5906C8.09213 13.7111 8.12272 13.6212 8.13577 13.6316C8.26246 13.7359 8.27152 13.8991 8.14703 13.8469C8.13568 13.8403 8.07397 13.7246 8.00815 13.7202C7.85015 13.709 7.91165 13.8543 8.0044 14.0408C7.83471 13.8825 7.5766 13.7484 7.56055 13.8851C7.50957 13.8423 7.45798 13.7988 7.40665 13.7556C7.44336 13.7684 7.47973 13.7809 7.51644 13.7938C7.49996 13.7516 7.49253 13.716 7.47046 13.6689C7.35269 13.7055 7.11474 13.4917 6.9947 13.4461C6.58481 13.2908 7.26046 13.8097 7.38694 13.8898C7.3616 13.8319 7.33103 13.7689 7.30343 13.709C7.35892 13.7677 7.4154 13.8271 7.4714 13.8861C7.27973 14.073 7.81409 14.2848 7.82423 14.4863C7.51747 14.2309 7.41928 14.2741 7.508 14.5413C7.49679 14.5497 7.48669 14.5593 7.47515 14.5674C7.43238 14.5282 7.36889 14.4658 7.33909 14.4416C7.18325 14.5021 7.5958 14.9511 7.62811 15.0036C7.76381 15.2285 7.48162 15.0182 7.46201 15.026C7.39653 15.0736 7.49157 15.2017 7.38976 15.2077C7.27963 15.2138 7.23293 15.0886 7.13827 15.0297C7.06308 14.9832 7.00645 15.0177 6.92432 14.9738C6.9836 15.0177 7.04317 15.0601 7.10261 15.1043C7.11306 15.2341 7.13206 15.3511 7.08103 15.4361C6.62496 15.1364 7.19852 15.8368 6.70662 15.2954C6.73587 15.1958 6.71314 15.1004 6.61559 14.9347C6.55621 14.9601 6.49669 14.9865 6.4373 15.012C6.48184 15.0809 6.5291 15.1449 6.57243 15.2171C6.41973 15.1285 6.39753 15.2534 6.33314 15.2469C6.03157 15.2162 5.86739 14.9696 6.0901 15.4361C6.21298 15.3812 6.38153 15.5488 6.44668 15.438C6.54786 15.5763 6.47804 15.5967 6.65125 15.7111C6.53028 15.7607 6.42902 15.6051 6.28153 15.5247C6.15433 15.4553 6.09097 15.5068 5.96623 15.3765C6.03065 15.4522 6.09426 15.5246 6.1586 15.6002C6.10252 15.6545 6.04671 15.7099 5.99063 15.7642C6.08771 15.8137 6.18574 15.8632 6.28247 15.9124C6.29237 15.9577 6.30165 16.0032 6.31156 16.0485C5.94691 15.9568 6.13111 16.6055 5.59463 15.9981C5.51068 16.0452 5.57426 16.1251 5.64718 16.2684C5.59977 16.2292 5.55963 16.197 5.50736 16.1529C5.51004 16.2395 5.31453 16.11 5.31969 16.1892C5.32477 16.2683 5.46928 16.4305 5.20427 16.178C5.25452 16.276 5.29239 16.3614 5.33752 16.4539C5.26405 16.4098 5.1909 16.3665 5.11794 16.3225C5.12615 16.3756 5.13412 16.4288 5.14233 16.4819C5.00652 16.3714 4.97019 16.5125 4.84768 16.4688C4.94397 16.6386 5.36591 17.0554 5.20333 17.0682C5.10133 16.9624 4.99941 16.8571 4.89742 16.7513C4.89908 16.7928 4.90059 16.8344 4.90211 16.8762C4.9349 16.9111 4.96784 16.9465 5.00064 16.9815C5.00038 16.9609 5.0003 16.94 4.9997 16.919C5.0483 16.985 5.0964 17.0508 5.14515 17.1166C5.02913 17.0623 4.91318 17.0077 4.79701 16.9535C4.77396 16.848 4.75062 16.7421 4.72757 16.6366C4.59897 16.6125 4.63875 16.7248 4.50799 16.6851C4.61256 16.8673 4.71017 16.9355 4.8824 17.0747C4.85452 17.076 4.82677 17.0781 4.79889 17.0794C4.965 17.2251 5.03354 17.3421 5.10668 17.2443C5.14527 17.2943 5.18163 17.3428 5.2221 17.3944C5.20156 17.4017 5.22973 17.448 5.1977 17.4466C5.10851 17.4416 4.80132 17.2003 4.70786 17.1017C4.65941 17.0503 4.79674 17.1047 4.72382 17.0355C4.54599 16.8672 4.52853 17.0391 4.4911 16.7298C4.3348 16.6651 4.40799 16.7581 4.38975 16.8398C4.33571 16.7783 4.28254 16.7166 4.22835 16.6553C4.23176 16.7049 4.23432 16.7548 4.23773 16.8044C4.5679 17.068 4.50857 17.3498 4.92369 17.455C4.89143 17.5135 4.85939 17.5721 4.82798 17.6311C4.86788 17.6522 4.90725 17.6735 4.94715 17.6945C4.95156 17.658 4.95647 17.6216 4.96123 17.5855C4.9929 17.665 5.02433 17.7445 5.056 17.8241C4.92954 17.8121 4.79985 17.7283 4.64218 17.6237C4.61289 17.4625 4.72287 17.6139 4.80076 17.5883C4.71574 17.5074 4.6412 17.4292 4.54928 17.3469C4.69466 17.5446 4.48132 17.5066 4.45262 17.5184C4.36598 17.5543 4.5832 17.6752 4.54552 17.7197C4.50719 17.7635 4.35905 17.7128 4.49297 17.9126C4.39938 17.8185 4.30419 17.7187 4.22084 17.6311C4.12615 17.6643 4.24921 17.7619 4.25744 17.7831C4.38814 18.1239 4.1311 17.983 3.98531 18.0795C3.9716 18.0353 3.96051 17.9934 3.94871 17.9508C3.65704 17.8432 3.78038 17.842 3.79388 17.6973C3.73931 17.7913 3.52557 17.6645 3.42228 17.6666C3.31933 17.6689 3.31675 17.8458 3.3519 17.9462C3.53682 17.98 3.54584 17.8271 3.65969 17.7737C3.7461 17.8785 3.81842 17.9687 3.91399 18.0832C3.66183 17.934 3.76698 18.0967 3.77699 18.1401C3.80602 18.2668 3.63446 18.0941 3.79013 18.3078C3.72761 18.2433 3.67485 18.1892 3.61652 18.1289C3.54155 18.2566 3.54438 18.4774 3.24211 18.3088C3.38967 18.4674 3.53333 18.6187 3.68315 18.7813C3.52455 18.7094 3.60537 18.8632 3.54239 18.8727C3.47926 18.8817 3.36896 18.746 3.27871 18.7403C3.26205 18.7394 3.32254 18.8321 3.24586 18.7944C3.16713 18.7554 2.66952 18.4042 3.03379 18.7832C2.99916 18.8211 2.97866 18.8692 2.94933 18.9109C3.0052 18.8973 3.06065 18.8833 3.11637 18.8699C3.17736 18.9893 3.23835 19.1083 3.29935 19.2278C3.21471 19.1512 3.12849 19.0732 3.04505 18.9976C2.86675 18.9791 2.94104 19.1684 2.82922 19.2175C2.81049 19.2257 2.68223 19.0351 2.66313 19.1346C2.64414 19.2345 2.89805 19.5748 2.68096 19.5615C2.66801 19.5592 2.41205 19.3649 2.53269 19.5568C2.5602 19.6006 2.64805 19.6191 2.67627 19.6845C2.70428 19.7502 2.65843 19.8732 2.76353 19.9912C2.72484 19.9509 2.68868 19.9051 2.65093 19.8625C2.61753 19.8581 2.58372 19.8534 2.55052 19.8495C2.61907 19.9203 2.68783 19.9915 2.75603 20.062C2.50978 19.9832 2.20082 19.7625 2.16485 19.9725C2.0981 19.8371 2.03093 19.7014 1.96403 19.5661C2.04484 19.6275 2.12642 19.6892 2.20707 19.7507C2.23562 19.6658 2.26486 19.5811 2.29341 19.4962C2.38387 19.5675 2.47413 19.6384 2.5646 19.7097C2.56915 19.6843 2.57412 19.6595 2.57867 19.6342C2.51631 19.5797 2.45445 19.5254 2.39194 19.4711C2.43619 19.4557 2.48108 19.4397 2.52519 19.4245C2.11794 19.1405 2.38497 19.6223 2.10291 19.3266C2.13443 19.3846 2.16582 19.4434 2.19769 19.5018C2.05124 19.3681 2.06426 19.4356 2.03817 19.5055C1.98001 19.4259 1.92432 19.3455 1.86457 19.266C1.91513 19.4093 1.82219 19.4825 1.81108 19.568C1.80627 19.6056 1.93025 19.6859 1.93588 19.7041C1.96588 19.7984 1.72618 19.6841 1.72662 19.7106C1.73254 19.871 2.0187 20.2562 1.71161 20.1198C1.74437 19.9783 1.72029 20.0486 1.62809 19.8951C1.59916 19.847 1.6317 19.6544 1.52581 19.8308C1.51368 19.8519 1.48923 20.3384 1.75196 20.432C1.6535 20.4168 1.55486 20.3834 1.45637 20.3612C1.83358 20.9211 1.42391 20.4499 1.2077 20.1813C1.19139 20.1954 1.17462 20.2076 1.1589 20.2232C1.44796 20.4439 1.2932 20.6295 1.10635 20.5588C1.04428 20.5353 1.01676 20.4004 0.93369 20.4059C0.93029 20.4449 0.92869 20.4923 0.92618 20.5346C0.79717 20.3415 0.67125 20.3427 0.50766 20.1785C0.61321 20.3648 0.89194 20.7046 1.08289 20.8496C0.98091 20.8156 0.87838 20.7815 0.77604 20.7471C0.7529 20.693 0.73068 20.6389 0.70754 20.5849C0.69968 20.7971 0.3224 20.7054 0.64467 21.0714C0.62754 21.0836 0.61018 21.0957 0.59306 21.1078C0.53027 21.0544 0.46723 21.0008 0.40444 20.9475C0.38866 21.0636 0.3733 21.1799 0.35752 21.2961C0.45278 21.2733 0.55042 21.3421 0.5452 21.214C0.58834 21.3043 0.6311 21.3955 0.6747 21.4853C0.4007 21.3985 0.26882 21.2932 0.18205 21.4862C0.17852 21.4967 0.2235 21.7513 0.2346 21.7696C0.28546 21.8531 0.40965 21.925 0.43635 21.9662C0.51122 22.0814 0.62548 22.4429 0.66437 22.4779ZM20.1677 1.15298C20.0758 1.0572 20.0154 1.06652 19.9659 0.9386C19.936 0.96899 19.9059 0.9994 19.8758 1.02994C19.8935 1.0298 19.9116 1.02915 19.9293 1.02901C19.9537 1.06886 19.9781 1.1094 20.0025 1.14925C19.8841 1.05291 19.9369 1.12477 19.9415 1.19213C19.8348 1.06865 19.7274 0.94556 19.6206 0.82209C19.6181 0.89284 19.6156 0.96386 19.6131 1.0346C19.6418 1.06399 19.6708 1.09377 19.6994 1.12315C19.6483 1.09997 19.5967 1.0755 19.5455 1.05231C19.5765 1.09061 19.6074 1.12866 19.6384 1.16696C19.5953 1.15745 19.5515 1.14792 19.508 1.13807C19.5872 1.22688 19.6607 1.22652 19.5737 1.27042C19.6803 1.33633 19.7869 1.40226 19.8937 1.46802C19.9852 1.36318 20.0765 1.25816 20.1677 1.15298ZM17.9916 1.18001C17.8862 0.98047 17.8263 1.23786 17.7035 0.90598C17.666 0.91255 17.6275 0.91805 17.5899 0.92462C17.6691 1.01435 17.7482 1.10426 17.8274 1.19399C17.8819 1.18933 17.9369 1.18482 17.9916 1.18001ZM18.8427 1.24246C18.8794 1.25592 18.9172 1.26926 18.9534 1.28254C18.9032 1.21884 18.8535 1.15516 18.8033 1.09146C18.8981 1.10399 18.9934 1.11679 19.0885 1.12968C18.9086 0.96089 18.8628 1.06223 18.7001 0.98148C18.6925 1.09389 18.765 1.22371 18.9093 1.37481C18.8875 1.33088 18.8644 1.28654 18.8427 1.24246ZM19.0923 2.19317C18.8236 1.9803 18.6731 2.00188 18.5433 1.68799C18.6336 1.76295 18.7242 1.83766 18.8145 1.91262C18.7826 1.81658 18.7504 1.7203 18.7188 1.62461C18.7621 1.64445 18.8054 1.66477 18.8483 1.68426C18.719 1.52642 18.5894 1.36803 18.4598 1.20983C18.4677 1.24379 18.4754 1.27841 18.4833 1.31236C18.3144 1.24794 18.236 1.26199 18.1436 1.3105C18.1157 1.27049 18.0879 1.23027 18.0601 1.19026C18.0822 1.2835 18.1044 1.37773 18.1267 1.47082C18.2147 1.49657 18.3133 1.52494 18.3951 1.54911C18.5746 1.81881 18.3681 1.77491 18.2787 1.77001C18.1569 1.76322 18.2772 1.85713 18.1896 1.85483C18.1758 1.85456 18.0915 1.77202 18.076 1.78306C18.0014 1.84392 17.914 2.01962 18.1877 2.13818C18.2742 2.00199 18.5269 2.06378 18.579 1.89771C18.7772 2.15219 18.9127 2.17144 19.0923 2.19317ZM19.0275 1.50064C19.0053 1.46688 18.9831 1.4328 18.9609 1.39905C18.883 1.37327 18.8052 1.34839 18.7273 1.32262C18.8034 1.40811 18.8797 1.49364 18.9553 1.57894C18.9794 1.55294 19.0035 1.52663 19.0275 1.50064ZM18.0329 2.09717C17.867 1.94296 17.8898 1.92172 17.8161 1.77374C17.7858 1.81426 17.7561 1.85547 17.726 1.89584C17.8283 1.96296 17.9305 2.03005 18.0329 2.09717ZM20.3966 2.23978C20.275 2.28163 20.1719 2.23594 20.0419 2.01515C20.111 2.02656 20.1802 2.03823 20.2493 2.04963C20.2981 2.11286 20.3477 2.1767 20.3966 2.23978ZM20.8067 2.55575C20.7287 2.49504 20.6496 2.42526 20.5712 2.36001C20.6818 2.38277 20.7198 2.24428 20.8818 2.44949C20.891 2.46321 20.8784 2.60668 20.8067 2.55575ZM17.7767 2.92672C17.7481 2.76308 17.8577 2.83507 18.0075 2.87545C17.9032 2.7739 17.7994 2.67315 17.695 2.57159C17.6996 2.54825 17.6937 2.51511 17.7044 2.49703C17.5536 2.45198 17.7216 2.63505 17.6237 2.63311C17.5255 2.63077 17.3987 2.56369 17.5993 2.84376C17.6506 2.86468 17.7189 2.9003 17.7767 2.92672ZM20.2962 2.84749C20.4191 3.03255 20.3935 3.16894 20.1855 3.04136C20.1867 3.00112 20.1881 2.96044 20.1893 2.92019C20.1305 2.9402 20.07 2.95849 20.0119 2.97984C19.7943 2.76795 19.9647 2.84621 19.9744 2.71886C19.9755 2.69874 19.7767 2.36525 20.0016 2.54177C20.0477 2.5782 20.0036 2.67822 20.1742 2.74776C20.1617 2.77909 20.1411 2.79638 20.1255 2.82232C20.1752 2.87474 20.2251 2.92727 20.2747 2.97984C20.2819 2.93576 20.289 2.89157 20.2962 2.84749ZM17.2718 3.06373C17.2957 3.04975 17.2954 3.0456 17.3075 3.0106C17.3131 2.99473 17.3423 2.87139 17.2718 2.81859C17.2318 2.85631 17.1916 2.89917 17.1517 2.93883C17.1915 2.98072 17.232 3.0212 17.2718 3.06373ZM18.8399 3.04602C18.8679 3 18.8953 2.95316 18.9234 2.90714C18.982 2.96262 19.0412 3.0185 19.0998 3.07398C19.0132 3.06449 18.9264 3.05551 18.8399 3.04602ZM17.818 3.32657C17.4581 2.91681 17.6753 3.14733 17.513 3.1355C17.4568 3.13109 17.4147 3.03925 17.3873 3.04416C17.2386 3.07006 17.4902 3.33336 17.6444 3.44774C17.7029 3.40774 17.7611 3.36637 17.818 3.32657ZM17.1958 3.64255C17.3346 3.63654 17.4175 3.61223 17.3816 3.43842L17.3309 3.39928C17.3064 3.38207 17.2806 3.36341 17.2737 3.35174C17.2989 3.34833 17.3307 3.34951 17.3582 3.34801C17.3018 3.28816 17.2452 3.22856 17.1893 3.16905C17.1649 3.22604 17.1405 3.28342 17.1161 3.34056C17.088 3.30067 17.0606 3.2602 17.0325 3.22032C16.9802 3.23742 16.9273 3.25447 16.8749 3.27158C16.9826 3.35452 17.0907 3.43794 17.1986 3.52138C17.1978 3.56188 17.1963 3.6017 17.1958 3.64255ZM16.3147 3.51485C16.4589 3.59072 16.4834 3.47799 16.4536 3.35547C16.4465 3.32798 16.3238 3.16061 16.2959 3.19888C16.2514 3.26345 16.456 3.5189 16.2706 3.39182C16.2869 3.4335 16.2994 3.47293 16.3147 3.51485ZM18.6484 3.43656L18.534 3.33869C18.4687 3.324 18.4031 3.30958 18.3378 3.29488C18.4101 3.35852 18.4824 3.42232 18.5546 3.48596C18.5857 3.4697 18.6173 3.45282 18.6484 3.43656ZM19.3381 3.71059C19.1706 3.98712 19.0716 3.6003 19.2781 3.48037C19.2363 3.43072 19.1938 3.38147 19.1523 3.33217C19.3109 3.33458 19.4601 3.34017 19.676 3.56146C19.6595 3.62583 19.5536 3.48647 19.5136 3.47943C19.3627 3.45336 19.4083 3.5834 19.2912 3.58942C19.3192 3.60909 19.3458 3.62716 19.3729 3.64628L19.3381 3.71059ZM16.1814 3.62018C16.2047 3.7098 16.3938 3.86702 16.3888 3.77863L16.3644 3.74321C16.3246 3.70231 16.2657 3.65897 16.4179 3.71618C16.3223 3.59566 16.2362 3.48446 16.1439 3.36759C16.1267 3.38115 16.1089 3.39207 16.0913 3.40673C16.2807 3.57322 16.1589 3.53103 16.1814 3.62018ZM16.7191 4.72748C16.6055 4.64877 16.4922 4.56945 16.3785 4.49073C16.4051 4.58092 16.4315 4.67193 16.4583 4.76197C16.5446 4.75015 16.6321 4.73861 16.7191 4.72748ZM15.8173 4.7862C15.9032 4.99397 15.8287 4.94254 15.6644 4.90271C15.7759 5.03084 16.0512 5.15741 16.142 5.1553C16.0339 5.03226 15.9253 4.90939 15.8173 4.7862ZM15.4298 6.13305C15.1466 6.01831 15.4092 5.93286 15.2262 5.86741C15.08 5.81515 15.2197 6.07499 15.3688 6.17686C15.3884 6.16432 15.4091 6.14947 15.4298 6.13305ZM14.8874 6.55807C14.6884 6.33313 14.7306 6.41397 14.8349 6.38657C14.8647 6.37861 14.9354 6.14951 15.0488 6.38751C14.9951 6.44085 14.9411 6.50053 14.8874 6.55807ZM14.3431 7.0558C14.3365 6.97461 14.2535 6.90963 14.2014 6.81719C14.188 6.79294 14.1972 6.75056 14.2043 6.73797C14.2474 6.78798 14.2885 6.839 14.3309 6.88896C14.5319 6.91389 14.3016 6.34347 13.9171 6.40335C13.9795 6.45871 14.0415 6.5139 14.1039 6.56926C13.9767 6.6627 13.9812 6.91271 14.3431 7.0558ZM13.7501 6.69416L13.6487 6.58697C13.5914 6.65976 13.4375 6.54055 13.508 6.71839C13.5888 6.71067 13.6696 6.70222 13.7501 6.69416ZM15.1924 7.08936C14.9923 6.82606 15.143 6.92815 15.0751 6.72398C15.1425 6.81558 15.21 6.90793 15.2778 6.99988C15.2991 6.9452 15.3202 6.89051 15.3416 6.83583C15.3707 6.85576 15.3997 6.87556 15.4288 6.89549C15.4469 6.94038 15.4689 6.98963 15.4842 7.03157C15.4845 7.07646 15.4066 6.97704 15.4054 6.9803C15.3952 7.08403 15.4286 7.13309 15.2909 7.13596C15.2587 7.12113 15.2253 7.10488 15.1924 7.08936ZM13.4826 7.12664C13.3732 7.13496 13.2637 7.14349 13.1542 7.15181C13.1976 7.18259 13.2413 7.2133 13.2846 7.24408C13.3898 7.25609 13.4949 7.26828 13.5999 7.28043C13.5608 7.22928 13.5218 7.17779 13.4826 7.12664ZM14.65 7.76604C14.5423 7.65252 14.4347 7.5395 14.3272 7.42584C14.4974 7.4865 14.6146 7.62302 14.7354 7.79494C14.7069 7.78558 14.6784 7.7754 14.65 7.76604ZM13.0416 8.15285C13.0147 8.10406 12.9308 8.06202 12.9159 8.01211C12.9014 7.96232 13.0052 7.99986 12.8905 7.90119C12.8521 7.91076 12.81 7.9189 12.7704 7.92822C12.6563 7.6583 12.9093 7.75353 12.6719 7.51531C12.6581 7.65193 12.5672 7.68531 12.4279 7.69241C12.6204 7.87762 12.8582 7.96762 12.99 8.19013C13.0072 8.17793 13.0259 8.16565 13.0416 8.15285ZM13.1889 7.74926C13.4609 8.03356 13.6201 8.30685 13.1561 7.86577C13.1209 7.71778 13.3493 8.00067 13.1889 7.74926ZM14.8255 8.02795C14.6821 7.98806 14.6164 7.95812 14.4923 7.78655L14.7476 7.92449C14.7734 7.95889 14.7998 7.99341 14.8255 8.02795ZM12.7132 8.20878C12.7486 8.18164 12.8156 8.18637 12.7995 8.11464C12.6665 7.99942 12.7236 8.16761 12.579 7.94407C12.5558 7.96084 12.5329 7.97812 12.5095 7.9944C12.5986 8.05783 12.6394 8.13216 12.7132 8.20878ZM13.5005 8.66737C13.3319 8.47663 13.1301 8.46433 13.1946 8.343C13.0584 8.2429 12.967 8.20973 12.9018 8.25352C12.9383 8.30715 12.9751 8.3602 13.0116 8.41383C12.8893 8.29483 12.8301 8.26403 12.7132 8.20878C12.6215 8.28247 12.6672 8.31822 12.8464 8.53593C12.822 8.33715 13.0067 8.51494 13.1749 8.56297C13.2902 8.59582 13.3104 8.50952 13.5005 8.66737ZM11.2934 9.65717C11.4632 9.71047 11.3993 9.52627 11.5965 9.60967C11.4346 9.51137 11.2732 9.41377 11.1151 9.32077C10.9785 9.31247 11.152 9.61267 11.2934 9.65717ZM12.9759 9.88277C12.9105 9.92607 12.9235 10.1081 12.7404 10.0003C12.634 9.93717 12.6529 9.78727 12.4607 9.71317C12.5268 9.67337 12.5913 9.71307 12.6991 9.83807C12.7251 9.83997 12.7513 9.84207 12.777 9.84367C12.7598 9.81547 12.7435 9.78697 12.7263 9.75877C12.7808 9.80027 12.8353 9.84117 12.8896 9.88277C12.8929 9.86067 12.896 9.83807 12.899 9.81567C12.9247 9.83827 12.9484 9.85717 12.9759 9.88277ZM12.2402 10.4737C11.9943 10.5469 11.6898 10.5476 11.3675 10.0208C11.3933 10.0223 11.4188 10.0238 11.4445 10.0254C11.6542 10.2301 11.5858 10.0728 11.6444 10.0012C11.7361 10.0738 11.7908 10.0576 11.8677 10.1205C12.0165 10.2421 12.0707 10.3776 12.2402 10.4737ZM12.6419 10.1811C12.5789 10.2669 12.4837 10.1907 12.3162 10.0552C12.3682 10.0378 12.4201 10.0196 12.472 10.0021C12.5286 10.0616 12.585 10.1213 12.6419 10.1811ZM11.0776 10.4104C10.9652 10.1686 11.1819 10.3543 11.2277 10.2808C11.2379 10.264 11.0728 10.1891 11.1451 10.155C11.0283 10.118 10.9252 10.0904 10.8139 10.0571C10.8592 10.1252 10.9047 10.1931 10.95 10.2612C10.9044 10.234 10.8585 10.2074 10.8129 10.1801C10.9013 10.2571 10.9875 10.3324 11.0776 10.4104ZM10.0153 10.4253C10.1472 10.5305 10.0463 10.4015 10.0454 10.3973L10.1063 10.3936C10.2012 10.38 9.97483 10.3302 10.0538 10.2193C10.0078 10.2057 9.96013 10.1905 9.91403 10.1764C9.94683 10.2583 9.98653 10.3485 10.0153 10.4253ZM10.0773 11.0041C10.0953 10.866 9.86533 10.7845 9.75733 10.7124C9.88063 10.878 9.83783 10.8954 9.80613 10.9603C9.86083 10.9245 10.0718 11.0253 10.0773 11.0041ZM9.64183 11.7693C9.57963 11.7348 9.51733 11.6994 9.45513 11.6649C9.45133 11.6248 9.45293 11.5894 9.44573 11.5456C9.70463 11.707 9.52253 11.5173 9.59873 11.4673C9.83263 11.3147 10.109 11.6909 9.80423 11.0404C9.68653 11.2027 9.51463 10.9256 9.25623 10.8373C9.37073 10.9859 9.75273 11.1983 9.75823 11.3163C9.52033 11.2748 9.29573 11.2393 9.09663 11.2576C9.07703 11.2319 9.05713 11.206 9.03753 11.1803C9.06913 11.1774 9.10073 11.1747 9.13233 11.1719C9.05253 11.1296 8.97383 11.0868 8.89303 11.0442C9.05583 11.1584 8.91673 11.1427 9.08443 11.293C9.15913 11.36 9.28503 11.4306 9.36883 11.4823C9.36473 11.5596 9.35653 11.6348 9.35093 11.7115C9.42903 11.7464 9.50673 11.7819 9.58463 11.8169C9.60383 11.8012 9.62263 11.7849 9.64183 11.7693ZM10.5408 11.4105C10.6365 11.2884 10.3012 10.9964 10.0988 10.8848C10.1492 10.9486 10.1998 11.0125 10.2499 11.0759C10.2047 11.0691 10.1587 11.0627 10.1139 11.0563C10.2558 11.1744 10.3989 11.2923 10.5408 11.4105ZM9.80613 10.9603C9.79633 10.9667 9.79173 10.9774 9.79393 10.9938C9.79753 10.9814 9.80133 10.97 9.80613 10.9603ZM10.6797 11.2474C10.7619 11.308 10.8436 11.3684 10.9256 11.4291C10.9434 11.3961 10.9611 11.3626 10.979 11.3294C11.0385 11.387 11.0988 11.4452 11.1583 11.5028C10.9687 11.5396 11.1638 11.682 11.2746 11.9035C11.0764 11.685 10.8783 11.4663 10.6797 11.2474ZM9.03663 11.8411C9.10543 11.8291 9.15403 11.7992 9.21213 11.7777C9.09303 11.6841 8.67783 11.3161 8.72223 11.5093C8.72903 11.5293 9.03513 11.7577 9.03663 11.8411ZM10.6938 11.6034C10.7284 11.5781 10.7622 11.5515 10.797 11.5261C10.8593 11.6018 10.9214 11.6778 10.9837 11.7535C10.8872 11.7036 10.7903 11.6533 10.6938 11.6034ZM9.74693 11.6305C9.93393 11.7519 9.90993 11.8572 9.98723 11.7274C9.95323 11.6817 9.91883 11.6361 9.88493 11.5904C9.83903 11.6039 9.79283 11.6169 9.74693 11.6305ZM9.11073 12.5961C9.20253 12.5507 9.05973 12.474 8.96063 12.3612C9.05253 12.4543 9.37203 12.5412 9.33593 12.4758C9.23723 12.2981 9.09543 12.3999 8.95783 12.158C9.00823 12.441 8.56817 12.0734 9.11073 12.5961ZM10.5474 12.5308C10.2803 12.187 10.5577 12.3046 10.6506 12.4246C10.6191 12.4454 10.5548 12.4167 10.5418 12.4619C10.5403 12.4668 10.6739 12.6628 10.5474 12.5308ZM7.91338 12.5206C7.9758 12.5751 8.03878 12.63 8.10105 12.6846C8.11799 12.6203 8.13572 12.556 8.15266 12.4917C7.86486 12.3934 7.7931 12.3833 7.81109 12.6287C7.882 12.667 7.9532 12.705 8.02411 12.7433C7.98715 12.6691 7.95033 12.5948 7.91338 12.5206ZM8.69223 12.5718C8.77333 12.748 9.13913 12.793 9.14263 12.693C9.08003 12.638 9.02563 12.5851 8.94933 12.5262C9.06023 12.7195 8.67913 12.5426 8.69223 12.5718ZM9.33593 14.1377C9.23143 14.1802 9.16363 14.0185 9.06473 13.9234C9.02363 13.884 9.03603 14.0051 8.96533 13.901C8.84403 13.7218 9.04093 13.6981 8.85743 13.5151C8.87873 13.6133 8.75313 13.6387 8.65283 13.4946C8.54278 13.3366 8.83883 13.4899 8.77293 13.3343C9.00163 13.6905 9.04523 13.4664 8.83483 13.2271C9.08703 13.3209 9.08513 13.4634 8.99623 13.5356C9.21863 13.6584 9.05303 13.6382 9.18493 13.7929C9.32243 13.8282 9.42493 13.583 9.57523 13.8935C9.62863 14.0039 9.18313 13.6697 9.39043 14.0371C9.28503 13.9708 9.19093 13.901 9.09013 13.8339C9.17213 13.9346 9.25423 14.0382 9.33593 14.1377ZM7.27152 14.1098C7.13513 14.0493 6.99804 13.988 6.86145 13.9271C7.0224 14.0869 7.1879 14.2094 7.33815 14.2403C7.31604 14.1967 7.29329 14.153 7.27152 14.1098ZM7.17112 14.9197C7.34147 15.0376 7.31359 15.1619 7.35035 15.0129C7.37482 14.9146 7.37853 14.8917 7.42448 14.8237C7.21838 14.6601 7.03641 14.7093 7.15798 14.5124C7.16339 14.5141 7.26595 14.6229 7.27621 14.5833C7.27799 14.5688 7.21488 14.4559 7.22648 14.3922C7.23045 14.3715 7.29529 14.2509 7.16642 14.3754C7.04082 14.2431 6.90315 14.1192 6.77793 13.9942C6.69192 14.0072 6.90662 14.2965 6.84831 14.3428C6.76053 14.4104 6.46524 14.1954 6.78638 14.5441C6.93423 14.5608 7.04834 14.4515 6.86145 14.2365C6.92234 14.1712 7.1053 14.317 7.1364 14.449C6.81362 14.5632 7.32234 14.7534 6.99845 14.8125C6.94944 14.7684 6.89105 14.726 6.84831 14.6811C6.95413 14.9023 7.11001 14.8778 7.17112 14.9197ZM8.06164 15.1062C7.75208 14.8822 7.95395 14.9449 7.86833 14.8256C7.82829 14.8144 7.78811 14.8043 7.74822 14.793C7.75864 14.6329 7.83485 14.6836 7.99877 14.9086C8.00964 14.9238 7.93825 14.9208 7.96311 14.9524C7.9886 14.9843 8.20014 15.1384 8.06164 15.1062ZM5.90055 15.2991C5.92196 15.3276 5.94224 15.3511 5.9606 15.3709L5.96623 15.3765C5.94474 15.3512 5.9223 15.3254 5.90055 15.2991ZM7.53052 15.6449C7.12458 15.2651 7.41021 15.333 7.52864 15.4585C7.51854 15.4782 7.43994 15.4236 7.45357 15.4687C7.46707 15.514 7.55531 15.6097 7.53052 15.6449ZM6.96936 15.9012C6.29665 15.4507 6.88788 15.5485 7.03317 15.7856C7.03984 15.7965 6.91784 15.8293 6.96936 15.9012ZM5.46795 16.7606C5.46022 16.6817 5.45144 16.6017 5.44355 16.5229C5.48394 16.5439 5.52515 16.5653 5.56554 16.5863C5.43187 16.5893 5.66639 16.8249 5.46795 16.7606ZM4.33908 16.9433C4.12478 16.8538 4.03901 16.6573 4.09041 16.9274C4.1361 16.9587 4.18171 16.9893 4.22741 17.0206C4.26496 16.9951 4.30223 16.9695 4.33908 16.9433ZM3.83704 17.3702C3.86772 17.3606 3.83599 17.0851 4.04724 17.2294C3.95437 17.148 3.85953 17.0825 3.76573 17.0104C3.82716 17.0957 3.62673 17.4355 3.83704 17.3702ZM3.93933 17.7076C3.99189 17.7036 3.94334 17.5519 3.98156 17.5258C3.4933 17.2445 3.73004 17.7236 3.93933 17.7076ZM3.59119 18.5334C3.60769 18.5198 3.62407 18.5056 3.64092 18.4924C3.66774 18.5223 3.69614 18.5537 3.7235 18.5847C3.74526 18.609 3.76649 18.634 3.78825 18.6583C3.71435 18.5674 3.64914 18.3596 3.7676 18.4169C3.82719 18.4457 3.95037 18.6366 4.04255 18.5996C3.98756 18.6381 3.92221 18.6599 3.86332 18.6918C3.91416 18.7342 3.96543 18.7772 4.01627 18.8195L4.00314 18.8969C3.86584 18.7756 3.72849 18.6547 3.59119 18.5334ZM1.27526 19.3527C1.44334 19.4902 1.57214 19.4013 1.58117 19.3024C1.55213 19.2863 1.52235 19.2703 1.49297 19.2539C1.42052 19.2868 1.34771 19.3197 1.27526 19.3527ZM0.1295 21.2317C0.18605 21.2315 0.25891 21.2725 0.27588 21.2131C0.27807 21.1982 0.20651 21.0022 0.15202 20.9633C0.11545 21.0799 0.21843 21.1556 0 21.0807C0.04335 21.1316 0.0861 21.1803 0.1295 21.2317ZM0.36503 21.7938C0.22504 21.6475 0.38135 21.5698 0.33594 21.4424C0.36851 21.4616 0.49269 21.5888 0.49171 21.6232C0.48943 21.7048 0.40288 21.7395 0.36503 21.7938Z" fill="#474747"/>
</svg>
