<svg width="512" height="512" viewBox="0 0 512 512" fill="none" xmlns="http://www.w3.org/2000/svg">
  <rect width="512" height="512" fill="#272727"/>
  <path d="M88.5678 95.8358V412.047H77.457V95.8358H88.5678ZM231.774 189.299L120.871 292.027L86.5103 321.465L82.3952 313.437L114.699 282.968L215.931 189.299H231.774ZM223.749 412.047L117.374 286.88L124.575 278.234L238.152 412.047H223.749Z" fill="white"/>
  <path d="M410.059 355.228C410.059 349.189 408.55 343.219 405.533 337.317C402.515 331.416 396.685 325.995 388.043 321.054C379.539 316.113 366.988 311.927 350.39 308.496C338.045 305.751 327.003 302.663 317.264 299.232C307.662 295.801 299.569 291.683 292.984 286.88C286.4 282.076 281.394 276.312 277.964 269.587C274.535 262.862 272.82 254.902 272.82 245.707C272.82 237.472 274.604 229.718 278.17 222.444C281.874 215.032 287.086 208.582 293.807 203.092C300.666 197.465 308.896 193.073 318.498 189.917C328.237 186.76 339.142 185.182 351.213 185.182C368.36 185.182 383.037 188.133 395.245 194.034C407.59 199.798 416.987 207.69 423.434 217.709C430.018 227.728 433.31 239.05 433.31 251.677H408.825C408.825 243.991 406.561 236.717 402.035 229.855C397.645 222.993 391.13 217.366 382.488 212.974C373.984 208.582 363.559 206.386 351.213 206.386C338.456 206.386 328.1 208.308 320.144 212.15C312.188 215.993 306.359 220.865 302.655 226.767C299.089 232.668 297.305 238.776 297.305 245.089C297.305 250.03 298.06 254.559 299.569 258.676C301.215 262.656 304.095 266.362 308.21 269.793C312.463 273.224 318.498 276.449 326.317 279.469C334.136 282.488 344.286 285.439 356.769 288.321C374.738 292.301 389.415 297.173 400.8 302.937C412.323 308.564 420.827 315.564 426.314 323.936C431.801 332.171 434.544 342.189 434.544 353.992C434.544 363.188 432.624 371.628 428.783 379.314C424.942 386.862 419.387 393.381 412.117 398.871C404.984 404.361 396.342 408.616 386.192 411.635C376.178 414.654 364.93 416.164 352.448 416.164C333.655 416.164 317.744 413.076 304.713 406.9C291.818 400.587 282.011 392.352 275.289 382.196C268.705 371.903 265.413 360.992 265.413 349.463H289.898C290.721 360.992 294.356 370.119 300.803 376.844C307.25 383.431 315.137 388.098 324.465 390.842C333.93 393.587 343.257 394.96 352.448 394.96C365.067 394.96 375.63 393.107 384.134 389.401C392.639 385.696 399.086 380.824 403.475 374.785C407.865 368.746 410.059 362.227 410.059 355.228Z" fill="white"/>
</svg>
