<svg width="32" height="32" viewBox="0 0 32 32" fill="none" xmlns="http://www.w3.org/2000/svg">
  <g clip-path="url(#clip0_3696_3000)">
    <path d="M17.83 12.1499H29.6249V15.8486H2.33984V12.1499H14.1348H17.83Z" fill="#F3533A"/>
    <path d="M29.6239 16.1979H2.33953C2.14564 16.1979 1.98828 16.0406 1.98828 15.8467V12.1515C1.98828 11.9577 2.14564 11.8003 2.33953 11.8003H29.6239C29.8182 11.8003 29.9752 11.9577 29.9752 12.1515V15.8467C29.9752 16.0406 29.8182 16.1979 29.6239 16.1979ZM2.69078 15.4954H29.2727V12.5028H2.69078V15.4954Z" fill="#1D1D1B"/>
    <path d="M8.23812 8.5249H4.54297V30.5413H8.23812V8.5249Z" fill="#F3533A"/>
    <path d="M27.4256 8.5249H23.7305V30.5413H27.4256V8.5249Z" fill="#F3533A"/>
    <path d="M8.2339 30.8936H4.53875C4.34486 30.8936 4.1875 30.7366 4.1875 30.5424V8.52532C4.1875 8.33143 4.34486 8.17407 4.53875 8.17407H8.2339C8.42779 8.17407 8.58515 8.33143 8.58515 8.52532V30.5424C8.58515 30.7366 8.42814 30.8936 8.2339 30.8936ZM4.89 30.1911H7.88265V8.87657H4.89V30.1911Z" fill="#1D1D1B"/>
    <path d="M27.4253 30.8936H23.7302C23.5359 30.8936 23.3789 30.7366 23.3789 30.5424V8.52532C23.3789 8.33143 23.5359 8.17407 23.7302 8.17407H27.4253C27.6195 8.17407 27.7766 8.33143 27.7766 8.52532V30.5424C27.7766 30.7366 27.6195 30.8936 27.4253 30.8936ZM24.0818 30.1911H27.0744V8.87657H24.0818V30.1911Z" fill="#1D1D1B"/>
    <path d="M29.6249 4.89307L28.8733 8.58822H3.09152L2.33984 4.89307H29.6249Z" fill="#F3533A"/>
    <path d="M28.8719 8.94037H3.09229C2.9251 8.94037 2.78144 8.82306 2.74807 8.65937L1.99534 4.96422C1.97426 4.86096 2.00096 4.75347 2.0677 4.67163C2.13443 4.59014 2.23419 4.54272 2.33956 4.54272H29.624C29.7293 4.54272 29.8294 4.59014 29.8958 4.67163C29.9626 4.75312 29.9893 4.86061 29.9678 4.96422L29.2155 8.65937C29.1828 8.82271 29.0391 8.94037 28.8719 8.94037ZM3.37926 8.23787H28.585L29.1944 5.24522H2.76985L3.37926 8.23787Z" fill="#1D1D1B"/>
    <path d="M15.9823 3.52875C9.93522 3.52875 4.46802 2.58564 0.527344 1.06578L1.14765 4.68225C5.03318 6.06618 10.2464 6.9148 15.9823 6.9148C21.7183 6.9148 26.9315 6.06618 30.817 4.6819L31.4373 1.06543C27.4967 2.58564 22.0295 3.52875 15.9823 3.52875Z" fill="#ACA7A7"/>
    <path d="M15.9821 7.26608C10.4183 7.26608 5.10807 6.46593 1.02971 5.01281C0.910283 4.97031 0.822822 4.86634 0.801396 4.7413L0.180737 1.12483C0.159662 1.00048 0.206729 0.874034 0.304377 0.793949C0.402024 0.713513 0.535148 0.692087 0.653519 0.737749C4.73223 2.311 10.1759 3.17753 15.9821 3.17753C21.7879 3.17753 27.2319 2.311 31.3106 0.737749C31.429 0.692087 31.5618 0.713513 31.6598 0.793949C31.7574 0.874034 31.8048 1.00048 31.7834 1.12483L31.1627 4.7413C31.1413 4.86634 31.0539 4.97031 30.9348 5.01281C26.8564 6.46593 21.5462 7.26608 15.9821 7.26608ZM1.45894 4.4192C5.43754 5.80313 10.5841 6.56358 15.9821 6.56358C21.3801 6.56358 26.5269 5.80277 30.5052 4.4192L30.9878 1.6078C26.9017 3.07532 21.6045 3.88003 15.9821 3.88003C10.3593 3.88003 5.06206 3.07532 0.976318 1.6078L1.45894 4.4192Z" fill="#1D1D1B"/>
    <path d="M9.00083 27.8401H3.78125V30.8995H9.00083V27.8401Z" fill="#ACA7A7"/>
    <path d="M8.99555 31.2498H3.77703C3.58314 31.2498 3.42578 31.0928 3.42578 30.8986V27.8403C3.42578 27.646 3.58314 27.489 3.77703 27.489H8.9952C9.18909 27.489 9.34645 27.646 9.34645 27.8403V30.8986C9.3468 31.0928 9.18944 31.2498 8.99555 31.2498ZM4.12828 30.5473H8.64395V28.1915H4.12828V30.5473Z" fill="#1D1D1B"/>
    <path d="M17.828 8.58813H14.1328V12.1498H17.828V8.58813Z" fill="#F5D882"/>
    <path d="M17.8316 12.5029H14.1364C13.9425 12.5029 13.7852 12.3456 13.7852 12.1517V8.58929C13.7852 8.3954 13.9425 8.23804 14.1364 8.23804H17.8316C18.0258 8.23804 18.1828 8.3954 18.1828 8.58929V12.1517C18.1828 12.3456 18.0258 12.5029 17.8316 12.5029ZM14.4877 11.8004H17.4803V8.94054H14.4877V11.8004Z" fill="#1D1D1B"/>
    <path d="M28.1883 27.8401H22.9688V30.8995H28.1883V27.8401Z" fill="#ACA7A7"/>
    <path d="M28.1866 31.2498H22.9684C22.7742 31.2498 22.6172 31.0928 22.6172 30.8986V27.8403C22.6172 27.646 22.7742 27.489 22.9684 27.489H28.1866C28.3808 27.489 28.5379 27.646 28.5379 27.8403V30.8986C28.5379 31.0928 28.3808 31.2498 28.1866 31.2498ZM23.3197 30.5473H27.8354V28.1915H23.3197V30.5473Z" fill="#1D1D1B"/>
  </g>
  <defs>
    <clipPath id="clip0_3696_3000">
      <rect width="32" height="32" fill="white"/>
    </clipPath>
  </defs>
</svg>
