<svg width="32" height="32" viewBox="0 0 32 32" fill="none" xmlns="http://www.w3.org/2000/svg">
  <path d="M25.0625 24.0189L23.5779 25.5977L3.57016 4.27371L3.31141 0.836914L25.0625 24.0189Z" fill="#EAEAEA"/>
  <path d="M30.2968 29.59L28.8125 31.1719L23.8497 25.8826L25.3339 24.3006L30.2968 29.59Z" fill="#FF6C52"/>
  <path d="M23.5679 25.9439C23.6536 25.9439 23.7361 25.9077 23.7966 25.8429L25.2802 24.2617C25.4066 24.1269 25.4066 23.9091 25.2802 23.7743L3.53003 0.593326C3.43462 0.490946 3.28843 0.463369 3.16584 0.524039C3.04261 0.584364 2.96822 0.720181 2.9789 0.864272L3.23603 4.30072C3.2425 4.38242 3.27549 4.45895 3.32983 4.51686L23.3392 25.8429C23.3997 25.9077 23.4818 25.9439 23.5679 25.9439ZM24.5938 24.018L23.5676 25.1118L3.87126 4.1194L3.69337 1.7426L24.5938 24.018Z" fill="#1D1D1B"/>
  <path d="M28.8023 31.5166C28.8851 31.5166 28.9679 31.4828 29.0309 31.4156L30.5145 29.8344C30.641 29.6996 30.641 29.4818 30.5145 29.347L25.5511 24.0567C25.4246 23.9219 25.2202 23.9219 25.0937 24.0567L23.6101 25.6379C23.5493 25.7027 23.5154 25.7899 23.5154 25.8816C23.5154 25.9733 23.5493 26.0608 23.6101 26.1253L28.5736 31.4156C28.6367 31.4828 28.7195 31.5166 28.8023 31.5166ZM29.8282 29.5907L28.8019 30.6845L24.2955 25.8816L25.3221 24.7878L29.8282 29.5907Z" fill="#1D1D1B"/>
  <path d="M26.341 23.2199L22.8281 26.9639L21.8676 25.9401L25.3804 22.1962L26.341 23.2199Z" fill="#ACA7A7"/>
  <path d="M22.8277 27.3079C22.9134 27.3079 22.9959 27.2717 23.0564 27.2069L26.5692 23.463C26.6957 23.3282 26.6957 23.1103 26.5692 22.9755L25.608 21.9507C25.4867 21.8214 25.2719 21.8214 25.1506 21.9507L21.6378 25.6946C21.5113 25.8294 21.5113 26.0473 21.6378 26.1821L22.5994 27.2069C22.6598 27.2717 22.742 27.3079 22.8277 27.3079ZM25.8832 23.2193L22.8277 26.4758L22.3235 25.9384L25.379 22.6818L25.8832 23.2193Z" fill="#1D1D1B"/>
  <path d="M27.0523 29.6613C27.138 29.6613 27.2204 29.6251 27.2809 29.5603L28.7645 27.9791C28.891 27.8444 28.891 27.6265 28.7645 27.4917L27.2822 25.9119C27.1609 25.7826 26.9462 25.7826 26.8249 25.9119L25.3413 27.4931C25.2148 27.6279 25.2148 27.8457 25.3413 27.9805L26.8236 29.5603C26.8841 29.6251 26.9665 29.6613 27.0523 29.6613ZM28.0785 27.7354L27.0523 28.8292L26.0276 27.7368L27.0539 26.643L28.0785 27.7354Z" fill="#1D1D1B"/>
  <path d="M8.53797 24.0189L10.0225 25.5977L30.0303 4.27371L30.2891 0.836914L8.53797 24.0189Z" fill="#EAEAEA"/>
  <path d="M8.28135 24.2985L9.76562 25.8804L4.8028 31.1697L3.31852 29.5878L8.28135 24.2985Z" fill="#FF6C52"/>
  <path d="M10.0191 25.9439C10.1019 25.9439 10.1847 25.9101 10.2477 25.8429L30.2574 4.5172C30.3118 4.45929 30.3451 4.38242 30.3512 4.30107L30.6084 0.864616C30.619 0.720526 30.5443 0.584709 30.4211 0.524039C30.2979 0.463369 30.1526 0.490946 30.0572 0.593326L8.30679 23.7743C8.24598 23.8391 8.21202 23.9263 8.21202 24.018C8.21202 24.1097 8.24598 24.1973 8.30679 24.2617L9.79039 25.8429C9.85346 25.9101 9.93626 25.9439 10.0191 25.9439ZM29.7157 4.1194L10.0191 25.1118L8.99279 24.018L29.8936 1.7426L29.7157 4.1194Z" fill="#1D1D1B"/>
  <path d="M4.79116 31.5166C4.87719 31.5166 4.95934 31.4804 5.01982 31.4156L9.98328 26.1253C10.1097 25.9905 10.1097 25.7727 9.98328 25.6379L8.49968 24.0567C8.37839 23.9274 8.16363 23.9274 8.04234 24.0567L3.07888 29.347C2.95242 29.4818 2.95242 29.6996 3.07888 29.8344L4.56249 31.4156C4.62297 31.4804 4.70512 31.5166 4.79116 31.5166ZM9.29695 25.8816L4.79083 30.6845L3.76457 29.5907L8.27101 24.7878L9.29695 25.8816Z" fill="#1D1D1B"/>
  <path d="M8.22152 22.1943L11.7344 25.9382L10.7738 26.962L7.26097 23.218L8.22152 22.1943Z" fill="#ACA7A7"/>
  <path d="M10.7777 27.3081C10.8638 27.3081 10.9459 27.2719 11.0064 27.2071L11.9677 26.1822C12.0941 26.0474 12.0941 25.8296 11.9677 25.6948L8.45481 21.9509C8.394 21.886 8.31218 21.8499 8.22614 21.8499C8.14011 21.8499 8.05795 21.886 7.99747 21.9509L7.03622 22.9757C6.90976 23.1105 6.90976 23.3283 7.03622 23.4631L10.5491 27.2071C10.6099 27.2719 10.692 27.3081 10.7777 27.3081ZM11.2816 25.9385L10.7777 26.4759L7.72223 23.2194L8.22614 22.682L11.2816 25.9385Z" fill="#1D1D1B"/>
  <path d="M6.53043 29.6615C6.61647 29.6615 6.69862 29.6253 6.7591 29.5605L8.24109 27.9807C8.36755 27.8459 8.36755 27.628 8.24109 27.4932L6.75749 25.912C6.69668 25.8472 6.61485 25.811 6.52882 25.811C6.44278 25.811 6.36063 25.8472 6.30015 25.912L4.81816 27.4919C4.6917 27.6266 4.6917 27.8445 4.81816 27.9793L6.30176 29.5605C6.36225 29.6253 6.4444 29.6615 6.53043 29.6615ZM7.55508 27.737L6.53043 28.8294L5.50417 27.7356L6.52882 26.6432L7.55508 27.737Z" fill="#1D1D1B"/>
</svg>
