<svg width="91" height="7" viewBox="0 0 91 7" fill="none" xmlns="http://www.w3.org/2000/svg">
  <path d="M1.60798 1.40125C2.10652 1.28523 2.77563 1.25628 3.28891 1.26833C3.44943 1.2719 3.38284 1.3872 3.49466 1.39435C3.71288 1.40827 3.90446 1.33164 4.12172 1.35372C4.1936 1.36157 4.1278 1.53914 4.20263 1.54357C4.61287 1.56663 4.98703 1.47651 5.39767 1.46121C6.6202 1.41605 7.82316 1.33241 9.04297 1.24726C9.84746 1.19253 10.6652 1.13443 11.5043 1.11567C11.5871 1.11368 11.667 1.11386 11.731 1.11464C12.3057 1.08987 13.0974 1.14732 13.6908 1.05512C13.771 1.04258 13.7146 0.89817 13.7292 0.88516C13.9638 0.685637 13.8995 0.987331 14.06 1.01815C14.244 1.0523 14.4225 1.07576 14.6128 1.08919C15.0837 1.12409 15.568 1.09711 15.9991 1.03666C16.2569 1.00034 15.9847 0.719546 16.2502 0.872093C16.2686 0.882378 16.2104 1.04168 16.2817 1.05519C16.4443 1.08547 16.7449 1.04413 16.8692 1.05109C17.1094 1.06524 17.1484 1.06196 17.3737 1.05392C17.6827 1.04427 18.052 1.10621 18.3811 1.05656C18.4514 1.0455 18.351 0.889206 18.4625 0.857083C18.5739 0.825007 18.8726 0.825815 18.9745 0.859309C19.0766 0.892812 19.0392 1.02065 19.0583 1.04877C19.2151 1.28627 19.545 0.933886 19.5891 0.92363C20.3915 0.746685 21.0919 0.909263 21.8503 0.875081C22.4263 0.848687 23.0377 0.75728 23.5843 0.739235C23.627 0.737866 23.6686 0.736859 23.7093 0.736161C24.3068 0.725764 24.8297 0.77005 25.4322 0.729765C25.5002 0.725505 25.4123 0.540347 25.4957 0.534804C26.3882 0.473817 27.2846 0.501311 28.1512 0.647697C28.2392 0.662561 28.1217 0.825666 28.2096 0.850441C28.7402 0.997933 29.57 1.35088 29.9096 0.640599C30.0974 0.661185 30.2945 0.682503 30.4995 0.720044C30.6805 0.755252 30.8753 0.805371 31.0231 0.881561C31.2271 0.982523 31.0174 1.15551 31.2786 1.08794C31.3375 1.07292 31.269 0.912282 31.3545 0.901622C31.7157 0.856945 32.1185 0.923693 32.4763 0.85614C32.5502 0.842073 32.5359 0.699795 32.5577 0.675142C32.7451 0.475888 33.0144 0.828511 33.079 0.856014C33.5523 1.06066 33.9059 1.003 34.3555 1.02753C34.4588 1.03328 34.3451 0.837796 34.4449 0.836512C34.9691 0.832727 35.5007 0.874123 36.008 0.983685C36.1194 1.00845 36.0081 1.16516 36.0609 1.18527C36.294 1.27206 36.3639 0.969184 36.5891 1.04687C36.6362 1.06285 36.6022 1.19999 36.6101 1.21565C36.7345 1.46146 36.8716 1.12932 36.9075 1.12371C37.361 1.04509 37.6286 1.4138 38.0618 1.38782C38.1139 1.38438 38.007 1.2026 38.1529 1.20367C39.1248 1.20975 40.1457 1.32066 41.0942 1.52547C41.2416 1.55708 41.1264 1.68142 41.1347 1.69827C41.27 1.96196 41.392 1.62933 41.4416 1.6199C41.8309 1.5543 42.168 1.86466 42.4578 1.47968C44.0691 1.73958 45.7075 1.65026 47.2781 2.18022C47.2981 2.18655 47.244 2.34935 47.2839 2.36126C47.7617 2.50674 47.6975 2.23818 48.0575 1.95767C48.148 1.88725 48.3536 2.29787 48.3726 2.32852C48.441 2.44103 48.3289 2.67899 48.3535 2.7021C48.5331 2.86372 48.6009 2.23856 48.8208 2.11652C48.85 2.10066 48.8819 2.09339 48.9169 2.09762C48.9262 2.10013 48.8681 2.24594 48.8917 2.26401C48.9648 2.32061 49.0499 2.27033 49.1198 2.33166C49.2794 2.47343 49.2896 2.87833 49.5868 2.68183C49.6243 2.65626 49.6341 2.18561 49.8972 2.24282C50.0048 2.26612 50.4741 2.32254 50.6049 2.37208C50.7332 2.42092 50.6209 2.55716 50.6294 2.56496C50.9561 2.81321 50.8074 2.87536 50.9428 3.19334C51.0772 3.51032 51.1308 2.80966 51.2149 2.74309C51.2991 2.67669 51.5328 2.87857 51.5887 2.94514C51.6438 3.01152 51.5496 3.09386 51.6013 3.1346C51.9423 3.40174 51.8192 2.81644 51.9596 2.72588C52.2963 2.51248 52.438 3.06237 52.6967 3.15715C52.7662 3.18272 52.7272 3.05614 52.7929 3.05593C53.0536 3.0569 53.1794 3.24293 53.4938 3.14683C53.546 3.1313 53.8324 2.86433 53.9444 3.11748C53.9601 3.15389 53.8763 3.27048 53.9796 3.3185C54.1333 3.39026 54.4189 3.47108 54.5996 3.4605C54.7328 3.45256 54.6253 3.21553 54.7741 3.31058C54.8407 3.35308 54.6846 3.45106 54.8114 3.52065C54.9373 3.58998 55.2791 3.64878 55.4099 3.66935C55.54 3.6896 55.4995 3.51707 55.512 3.50834C55.5859 3.45875 55.8516 3.4301 55.873 3.43444C56.9862 3.62793 57.953 4.09917 59.0465 4.20881C59.1322 4.21759 59.1068 4.0393 59.1202 4.03891C59.4214 4.02126 59.1122 4.42635 59.2877 4.61268C59.3202 4.26636 59.4285 4.34993 59.6388 4.34866C59.7403 4.34775 59.7101 4.20613 59.7215 4.1942C59.9021 4.01915 59.9577 4.29586 59.9748 4.35347C60.0377 4.56536 60.1823 4.35258 60.2258 4.49419C60.2698 4.63485 60.0856 4.80146 60.2827 4.83201C60.358 4.71883 60.2663 4.37489 60.4232 4.3478C61.0134 4.24718 62.0176 4.65071 62.4682 4.73049C62.576 4.75034 62.6668 4.76478 62.7461 4.77641C62.9937 4.81262 63.1274 4.82208 63.3234 4.87683C63.7924 5.00588 63.641 4.74869 63.9461 4.66675C64.2511 4.58361 64.056 5.16011 64.0875 5.29066C64.1188 5.42102 64.1762 5.29459 64.2229 5.36868C64.2696 5.44273 64.1484 5.51937 64.27 5.55589C64.3921 5.59266 64.7481 5.3932 64.801 5.2635C64.9138 4.98909 64.7843 4.68362 65.1002 4.81001C65.1184 4.81744 65.0471 4.96851 65.1175 4.9891C65.6771 5.14756 66.2683 5.18663 66.8338 5.31587C66.9117 5.33389 66.8344 5.50397 66.8798 5.5164C67.3519 5.64552 67.1933 5.34713 67.4637 5.032C67.3912 5.46117 67.5264 5.73049 67.8896 5.74294C68.1068 5.7503 68.0751 5.5609 68.2184 5.43141C68.2616 5.39238 68.4115 5.52499 68.4418 5.43692C68.5393 5.14898 68.402 4.82243 68.7691 4.95791C68.7852 4.96431 68.7311 5.12203 68.7869 5.13253C69.1507 5.20083 69.1981 4.89841 69.5893 4.8648C69.897 4.83847 70.444 5.02373 70.7951 5.05146C70.7906 5.53669 71.1226 5.42337 71.254 5.0874C71.4811 5.09883 71.7272 5.07661 71.9488 5.11919C72.0244 5.1337 71.9772 5.27495 71.987 5.28997C72.1366 5.52555 72.2326 5.19824 72.2806 5.18456C72.8095 5.0502 73.2531 5.28536 73.7547 5.02891C73.7732 5.01965 73.7882 4.68212 73.935 4.92361C73.9442 4.94028 73.7803 5.09892 74.0209 5.10307C74.1063 5.1047 74.2306 5.128 74.3571 5.14864C74.5832 5.18356 74.8386 5.20953 75.0446 5.10248C75.1242 5.06163 75.3163 4.77968 75.4861 4.98563C75.5097 5.01358 75.4899 5.11126 75.5245 5.16347C75.6356 5.32973 75.6723 4.98696 75.8068 5.26978C75.9406 5.55247 76.2047 5.75598 76.5296 5.53404C76.5402 5.52749 76.6016 5.25283 76.7058 5.2494C76.8744 5.24416 77.1183 5.28006 77.2931 5.26022C77.3769 5.25063 77.3057 5.08945 77.3199 5.08491C77.522 5.03001 77.7 5.00141 77.8962 5.00062C78.1866 5.0044 78.5001 5.00447 78.8832 4.95655C78.994 4.9428 79.2513 4.64498 79.5035 4.76971C79.778 4.90508 79.7384 5.74844 80.2076 5.45296C80.2118 5.45039 80.2161 5.44772 80.2204 5.44497C80.4392 5.31112 80.4241 4.23411 80.9524 4.6416C81.6491 4.29374 82.4077 4.33371 83.0758 3.90642C83.1061 3.88726 83.1158 3.57633 83.1938 3.554C83.3099 3.52135 83.416 3.62902 83.5007 3.60959C83.7894 3.54635 84.0264 3.38912 84.2842 3.282C84.3439 3.25732 84.4034 3.2356 84.4635 3.21845C84.5922 3.1812 84.5927 3.32991 84.7446 3.28609C84.8951 3.2426 84.9351 3.03276 85.1649 3.0489C85.3403 3.06117 85.6145 3.36813 85.8288 3.34298C85.7163 2.98655 85.8593 2.94594 86.0759 2.77245C86.1184 2.73874 86.0269 2.63141 86.045 2.60906C86.1159 2.51596 86.2363 2.59124 86.3027 2.49493C86.3196 2.47151 86.2839 2.34893 86.2957 2.32292C86.3949 2.09569 86.7365 2.3036 86.789 2.34421C86.9989 2.49112 87.0461 2.31471 87.1912 2.37023C87.3301 2.42872 87.1507 2.54395 87.3022 2.57233C87.3644 2.58482 87.4287 2.59426 87.4951 2.60183C87.7586 2.6314 88.0553 2.63348 88.3021 2.66127C88.4251 2.67458 88.3579 2.49696 88.3758 2.49491C88.6423 2.47763 88.8748 2.69541 89.0709 2.38259C89.111 3.27809 89.2409 2.32236 89.5823 2.56109C89.6092 2.58034 89.5721 2.99533 89.4512 3.0357C89.3307 3.0761 89.186 2.91919 89.0193 2.9889C88.9787 3.00464 88.7194 3.35903 88.6911 3.37927C88.4593 3.53322 88.505 2.91581 88.4963 2.88012C88.4046 2.49828 88.1102 2.89404 88.0499 2.92053C87.8454 2.99918 87.6745 2.98548 87.5146 3.00669C87.4416 3.01648 87.3734 3.03388 87.31 3.07159C87.1759 3.15098 87.2392 3.55407 87.1405 3.56124C86.7991 3.59678 86.4632 3.11236 86.2293 3.70363C86.1792 3.83055 86.4022 4.22387 85.9928 3.99248C85.9659 3.9782 85.6409 3.75069 85.5751 3.98669C85.567 4.01638 85.6093 4.13869 85.5911 4.15639C85.4693 4.27224 85.3397 4.20767 85.197 4.30886C85.0611 4.40482 84.9082 4.52962 84.7239 4.56158C84.7135 4.56331 84.703 4.56474 84.6924 4.56584C84.5738 4.57882 84.3569 4.39843 84.2847 4.3608C84.0819 4.25066 84.0135 4.5689 83.8548 4.40552C83.6951 4.24136 83.7745 3.88209 83.4887 3.83837C83.5884 4.15964 83.6793 4.49329 83.7739 4.8183C83.2357 4.98915 82.6736 5.06328 82.1337 5.25241C82.0667 5.27617 82.1911 5.42614 82.1207 5.45604C81.8219 5.58156 81.5139 5.5428 81.2027 5.68828C80.9603 5.80176 80.7316 6.06572 80.4484 6.18523C80.421 6.15201 80.3925 6.12441 80.3633 6.1016C80.1239 5.89289 79.8187 6.07226 79.5608 6.10244C79.4609 6.1142 79.4421 6.01301 79.3656 5.99704C79.0728 5.94021 79.2755 6.24098 79.2153 6.31049C78.9455 6.60747 78.7563 5.86876 78.3436 5.9648C78.3321 5.97032 78.0686 6.41961 78.0091 6.44626C78.0072 6.44749 78.0053 6.44869 78.0034 6.44988C77.8892 6.62028 77.9769 6.30484 77.8707 6.28582C77.6414 6.25694 77.4373 6.18322 77.1566 6.32875C77.0744 6.37198 76.8863 6.644 76.7062 6.45835C76.6821 6.43409 76.6847 6.29798 76.6665 6.2913C76.3461 6.18055 76.3625 6.60561 76.1919 6.76029C76.0205 6.91484 75.7238 6.63524 75.6679 6.55297C75.5121 6.34093 75.7722 6.45412 75.782 6.43197C75.8621 6.17148 75.6655 6.22572 75.5106 6.21116C75.4713 5.79486 75.2571 5.82949 75.3517 6.19758C75.3629 6.23777 75.4804 6.19348 75.5106 6.21116C75.397 6.62677 75.1622 6.68967 74.8877 6.31698C74.7626 6.14205 74.8662 5.92904 74.5049 6.01867C74.4395 6.03467 74.4107 6.08909 74.3915 6.15417C74.3637 6.25332 74.3571 6.37729 74.2704 6.42759C73.9416 6.61775 73.4973 6.36284 73.1534 6.41402C73.0274 6.43263 73.1548 6.58686 73.0684 6.60499C72.8429 6.65346 72.6398 6.53995 72.4099 6.60514C72.3895 6.61123 72.4429 6.77502 72.3725 6.77852C71.833 6.80822 71.3601 6.70908 70.795 6.70944C70.5225 6.70988 70.0326 6.80106 69.7501 6.78107C69.2586 6.74821 68.6587 6.5 68.2386 6.54859C67.9645 6.57958 68.0194 6.74559 67.8996 6.85492C67.6665 7.0669 67.2759 6.6639 67.2244 6.60145C67.223 6.59948 67.46 6.56856 67.3371 6.47976C67.2701 6.30107 67.2272 6.60078 67.2244 6.60145C67.1901 6.56157 66.7208 6.50604 66.6264 6.53305C66.5748 6.54804 66.5964 6.70532 66.5696 6.71018C65.9322 6.82197 65.2928 6.82509 64.6549 6.70439C64.6438 6.7004 64.6738 6.52744 64.6477 6.52023C64.2826 6.41479 64.0279 6.60761 63.7078 6.70575C63.3881 6.80364 63.1448 6.73574 62.9956 6.41801C62.8647 6.42499 62.7082 6.37585 62.565 6.31276C62.4491 6.26198 62.3419 6.20226 62.2617 6.15608C62.0825 6.05243 62.0116 6.38583 61.9939 6.39038C61.441 6.53448 61.1639 6.2975 60.6307 6.18342C60.3769 6.12872 59.863 6.09316 59.5816 6.08145C59.3589 6.07301 59.2423 5.97126 59.0338 5.98539C59.0056 5.9872 59.0059 6.14114 58.9966 6.14538C58.7409 6.2831 58.9147 5.93839 58.8807 5.86499C58.7581 5.59811 58.6787 5.4534 58.3757 5.51168C58.3058 5.52496 58.0166 6.01279 57.8918 6.02075C57.7298 6.03013 57.8236 5.85355 57.6534 5.86808C57.6389 5.86915 57.6196 5.98549 57.521 5.96126C57.0626 5.85019 56.5735 5.68489 56.0954 5.60427C56.0299 5.59277 56.0776 5.79243 55.9832 5.77899C55.5378 5.71528 55.0598 5.61648 54.6489 5.4504C54.5482 5.40901 54.638 5.29266 54.6223 5.25019C54.5251 4.99269 54.2637 5.2918 54.2303 5.2923C53.4216 5.31049 52.8775 4.90057 52.059 4.91562C52.0155 4.91713 51.6231 5.22487 51.5255 4.89171C51.5189 4.8695 51.4219 4.52893 51.2573 4.72599C51.2471 4.73834 51.3141 4.91601 51.1558 4.87468C51.0005 4.83386 50.7252 4.90431 50.5333 4.69282C50.473 4.62621 50.3522 4.28476 50.1081 4.50873C50.092 4.52437 49.695 5.05296 49.6323 4.64246C49.6221 4.57493 49.6981 4.15911 49.4219 4.34094C49.369 4.37632 49.4429 4.48088 49.3103 4.52286C49.1051 4.58748 48.8695 4.44376 48.6092 4.60149C48.5932 4.61137 48.5567 4.65049 48.511 4.6868C48.4286 4.75357 48.3162 4.81098 48.242 4.66063C48.224 4.62424 48.2822 4.48923 48.2098 4.46489C47.8639 4.34833 47.4827 4.40087 47.1353 4.2661C47.0113 4.21858 47.1005 3.99897 46.9731 3.92429C46.8442 3.84947 46.584 3.764 46.4327 3.8536C46.2822 3.94331 46.3991 4.31953 46.1872 4.32787C45.2688 4.36472 44.3861 4.07388 43.4761 3.96988C43.3412 3.95447 43.4431 4.09281 43.2435 4.07952C42.5081 4.0304 41.23 4.06144 40.6086 3.74462C40.1098 3.49039 40.7669 3.36478 40.3803 3.24938C40.1936 3.19423 39.9622 3.60235 39.9155 3.61271C39.4611 3.71926 39.1617 3.51384 38.7572 3.54742C38.6732 3.55441 38.7449 3.72993 38.6736 3.734C38.4299 3.74943 38.1828 3.65883 37.9501 3.65978C37.8463 3.66064 37.8581 3.79212 37.7637 3.77678C37.5394 3.7417 37.3377 3.67576 37.1236 3.54175C37.104 3.52954 37.2487 3.37452 37.0811 3.35955C36.8072 3.33566 36.4779 3.19767 36.1546 3.30634C36.0595 3.33915 36.0407 3.63707 35.852 3.42133C35.8126 3.37629 35.8832 3.02081 35.6336 3.31874C35.5908 3.36814 35.1819 3.76673 35.0001 3.48871C34.9526 3.41553 34.8369 3.11649 34.7238 3.15745C34.7082 3.16409 34.7622 3.32709 34.6679 3.33843C34.336 3.37561 33.993 3.34327 33.6572 3.3791C33.5672 3.38899 33.6945 3.56053 33.5585 3.56988C33.1857 3.5959 32.7336 3.53504 32.3716 3.46878C32.2399 3.44411 32.3369 3.31037 32.3278 3.29505C32.1833 3.04587 32.0789 3.37048 32.0255 3.38758C31.7004 3.48979 31.4603 3.32645 31.1653 3.35655C31.082 3.36438 31.1351 3.523 31.1181 3.53635C30.9435 3.66655 31.0798 3.39008 30.9743 3.35527C30.8007 3.2957 30.5967 3.27222 30.4118 3.26577C30.2838 3.2613 30.1603 3.26383 30.0449 3.26783C29.932 3.27166 30.0527 3.45734 29.9512 3.45867C29.3604 3.47042 28.7512 3.43441 28.1889 3.32154C28.0805 3.29993 28.1521 3.16169 28.1301 3.12926C27.9822 2.90246 27.7514 3.20303 27.6996 3.23128C27.4647 3.3601 27.3769 3.23541 27.1717 3.25691C26.1833 3.35586 24.9957 3.34468 23.9884 3.34543C23.9391 3.34539 23.8892 3.34525 23.8388 3.34504C22.6273 3.33701 21.6637 3.2564 20.4985 3.34017C20.4217 3.34551 20.5072 3.52798 20.4411 3.53496C19.5849 3.61673 18.7376 3.58002 17.8815 3.67083C17.8112 3.67796 17.9203 3.84972 17.8079 3.86707C17.5775 3.90389 17.2828 3.90714 17.0468 3.86117C16.9309 3.83912 17.078 3.6812 16.9616 3.66209C16.6924 3.61717 16.4035 3.61746 16.1305 3.65814C16.0141 3.67585 16.1984 3.84799 16.047 3.85696C15.6153 3.88415 15.1802 3.91433 14.7555 3.92721C14.1623 3.94563 13.5711 3.93079 12.9805 3.83758C12.9106 3.82667 12.8231 3.46544 12.6844 3.54735C12.6817 3.64963 12.6923 3.76881 12.6967 3.87755C12.4557 3.90627 12.3279 3.92896 11.9775 3.96477C11.0177 4.02546 10.2614 4.05731 9.36435 4.12436C8.9944 4.15181 8.61863 4.1839 8.24267 4.22361C8.17907 4.23038 8.31114 4.41022 8.18917 4.42421C7.48303 4.50554 6.80034 4.64374 6.05089 4.54248C5.97683 4.53269 5.97226 4.18897 5.76549 4.26683C5.72969 4.28079 5.41505 4.36606 5.34194 4.44998C5.33207 4.46249 5.4104 4.61338 5.30769 4.63094C4.7122 4.73004 4.07962 4.77333 3.4691 4.75258C3.37062 4.74892 3.452 4.56742 3.38163 4.56335C2.88224 4.53586 2.36785 4.73145 1.88196 4.63792C1.55654 4.57472 1.63517 4.26881 1.43268 4.00333C1.40402 3.96589 1.20991 3.98411 1.17866 3.81863C1.09955 3.40257 1.13469 2.93147 1.03931 2.4894C1.01893 2.39416 0.773181 2.53085 0.896858 2.27867C0.905588 2.26173 1.08349 2.1606 1.11965 2.07579C1.14491 2.01712 1.06526 1.85492 1.12208 1.77669C1.17889 1.69854 1.26921 1.8315 1.3676 1.73557C1.46591 1.63862 1.39356 1.45177 1.60798 1.40125ZM61.4586 5.68517C61.3085 5.49844 61.1955 6.08645 61.4056 5.97229C61.4159 5.96606 61.4665 5.69439 61.4586 5.68517ZM82.5333 4.63201C82.2345 4.45278 82.2059 4.86982 82.4229 5.01342C82.6403 5.15648 82.6246 4.68607 82.5333 4.63201ZM84.7028 3.69153C84.385 3.58073 84.6216 4.39639 84.8332 4.14235C84.8459 4.12775 84.7214 3.69789 84.7028 3.69153ZM2.19167 3.82373C2.18832 3.81614 2.0484 3.82615 2.04605 3.83439C1.99606 4.03227 2.27584 4.01213 2.19167 3.82373ZM86.8316 2.78284C86.7258 2.68949 86.5363 2.88057 86.6712 2.99091C86.7773 3.07921 86.9581 2.89886 86.8316 2.78284ZM52.6557 3.44635C52.6546 3.4371 52.5569 3.4127 52.5506 3.46275C52.5309 3.62395 52.6757 3.60168 52.6557 3.44635ZM90.5977 3.10576C90.4776 3.04264 90.4538 2.99967 90.3856 2.94433C90.0232 2.70369 89.9856 2.23186 90.4579 2.37003C90.4622 2.3712 90.4656 2.37261 90.4683 2.37425L90.4955 2.37866C90.5186 2.38967 90.5108 2.40238 90.4881 2.41697L90.4633 2.41296C90.4144 2.47564 90.2227 2.57727 90.3223 2.64035C90.3581 2.66292 90.3949 2.673 90.4296 2.67415C90.5626 2.68269 90.7617 2.68569 90.8118 2.65251C90.8432 2.6247 90.8896 2.62281 90.995 2.71092C91.028 2.74238 90.8443 3.06059 90.6573 3.0983C90.6246 3.10702 90.6027 3.10939 90.5961 3.1061C90.5966 3.10599 90.5972 3.10587 90.5977 3.10576ZM61.4621 4.95968C61.4597 4.95139 61.3232 4.92372 61.3188 4.93095C61.2161 5.10777 61.4922 5.16383 61.4621 4.95968ZM46.8896 2.30444C46.884 2.28682 46.5637 2.23876 46.5513 2.25324C46.3531 2.54544 46.9992 2.6433 46.8896 2.30444ZM70.8008 5.06437C70.9507 4.87249 71.1304 4.8485 71.2533 5.08717C71.1029 5.07594 70.9518 5.07526 70.8008 5.06437Z" fill="#CE2128"/>
</svg>
