<svg width="102" height="7" viewBox="0 0 102 7" fill="none" xmlns="http://www.w3.org/2000/svg">
  <path d="M1.73956 0.898032C2.30041 0.781939 3.04944 0.753115 3.62302 0.765309C3.8024 0.768923 3.72464 0.884392 3.84948 0.891582C4.09308 0.905579 4.30949 0.828875 4.55177 0.851047C4.63192 0.858935 4.55328 1.03676 4.63683 1.04122C5.09487 1.06443 5.51578 0.974259 5.97531 0.959045C7.34406 0.914136 8.69237 0.830593 10.0572 0.745806C10.9562 0.691374 11.8668 0.63391 12.7993 0.615494C12.8936 0.613469 12.9864 0.613681 13.0647 0.614136C13.7167 0.589076 14.5807 0.647402 15.2478 0.555164C15.3373 0.542643 15.2762 0.398174 15.2928 0.385165C15.5578 0.185593 15.481 0.48743 15.6608 0.518243C15.8683 0.552977 16.0719 0.576597 16.2875 0.589979C16.8108 0.624003 17.3499 0.597007 17.8301 0.536938C18.1187 0.500649 17.8178 0.219743 18.113 0.372361C18.1335 0.382651 18.0668 0.541974 18.1464 0.555498C18.3284 0.58578 18.6653 0.544468 18.8042 0.551441C19.0734 0.565599 19.1165 0.562348 19.3692 0.554311C19.7155 0.544669 20.1281 0.606661 20.4973 0.557026C20.5761 0.545967 20.4652 0.389638 20.5904 0.357518C20.7156 0.325441 21.05 0.326275 21.1638 0.359782C21.2778 0.3933 21.2347 0.521157 21.2557 0.549283C21.429 0.786837 21.802 0.434419 21.8515 0.424163C22.7517 0.247255 23.535 0.409905 24.3849 0.375794C25.0296 0.349482 25.7169 0.258066 26.329 0.240132C26.3859 0.238507 26.4412 0.237389 26.495 0.23669C27.1536 0.227951 27.734 0.270634 28.3971 0.230729C28.473 0.226443 28.3768 0.0412794 28.4696 0.0357137C29.4638 -0.0256137 30.4598 0.000871718 31.4311 0.147C31.5288 0.161815 31.3992 0.324992 31.4969 0.34972C32.0927 0.497032 33.0234 0.849822 33.3987 0.139414C33.6193 0.161092 33.8567 0.183749 34.0979 0.225384C34.2879 0.260103 34.4897 0.308623 34.6474 0.380218C34.8756 0.481127 34.6433 0.654206 34.934 0.586539C35.0002 0.571523 34.9197 0.410794 35.019 0.400238C35.4211 0.355428 35.8725 0.422104 36.2737 0.354522C36.3561 0.34043 36.3389 0.198135 36.363 0.173471C36.5694 -0.0259038 36.8766 0.32681 36.9482 0.354268C37.4813 0.558907 37.8747 0.501092 38.3796 0.525586C38.495 0.531299 38.366 0.335815 38.4775 0.3345C39.0637 0.330575 39.6594 0.371866 40.2289 0.48135C40.3537 0.506086 40.231 0.662867 40.2903 0.682973C40.5522 0.769722 40.6256 0.466692 40.88 0.544407C40.9329 0.560376 40.8965 0.697561 40.9055 0.713223C41.0475 0.959056 41.1968 0.62679 41.2369 0.621159C41.7442 0.542433 42.0483 0.911176 42.5324 0.885038C42.5906 0.881582 42.4687 0.699785 42.6319 0.700803C43.7194 0.70659 44.864 0.817237 45.9284 1.02176C46.0938 1.05333 45.9669 1.17778 45.9764 1.19463C46.132 1.45839 46.2633 1.12556 46.3185 1.11611C46.7533 1.05033 47.1356 1.36071 47.4535 0.975402C49.2609 1.23476 51.0905 1.1444 52.8587 1.67366C52.8813 1.67999 52.8246 1.843 52.8696 1.8549C53.409 2.00032 53.3282 1.73127 53.7245 1.45021C53.8246 1.3797 54.0629 1.79043 54.0858 1.82119C54.1654 1.93381 54.0463 2.17216 54.0744 2.19528C54.298 2.37118 54.3486 1.61538 54.6495 1.58889C54.6617 1.58787 54.6743 1.588 54.6873 1.58939C54.6978 1.5919 54.6369 1.73797 54.6638 1.75604C54.7472 1.81267 54.8411 1.76225 54.9211 1.82362C55.1048 1.96558 55.1251 2.37078 55.4531 2.17385C55.4943 2.14822 55.4911 1.67676 55.7872 1.73385C55.9047 1.75666 56.436 1.81332 56.5803 1.86241C56.7254 1.91125 56.6043 2.04785 56.6141 2.05566C56.9876 2.30412 56.8252 2.36678 56.9847 2.68497C57.1463 3.00259 57.1823 2.30033 57.2741 2.23355C57.3667 2.16705 57.6325 2.36883 57.6982 2.43563C57.7623 2.50214 57.6598 2.58473 57.7191 2.62554C58.1107 2.89314 57.9516 2.30646 58.1055 2.21557C58.4723 2.00109 58.6502 2.55218 58.9437 2.64713C59.0225 2.67274 58.974 2.54582 59.0476 2.54557C59.3363 2.54592 59.4877 2.73297 59.8328 2.63596C59.8902 2.6203 60.2013 2.35257 60.3345 2.60609C60.3535 2.6426 60.2645 2.75961 60.382 2.80773C60.5574 2.87973 60.878 2.96034 61.0802 2.94974C61.2286 2.94169 61.0993 2.70403 61.2685 2.79915C61.3438 2.8416 61.1744 2.94017 61.3186 3.00985C61.4628 3.07946 61.8455 3.13802 61.9932 3.15871C62.1395 3.179 62.0868 3.00586 62.1004 2.9971C62.1813 2.94738 62.4753 2.91824 62.4999 2.92267C63.7503 3.11618 64.8497 3.589 66.0756 3.69923C66.1718 3.70807 66.1361 3.52917 66.1511 3.52878C66.4872 3.51121 66.1577 3.91749 66.3613 4.10447C66.3836 3.75704 66.5081 3.84093 66.743 3.83971C66.8564 3.83883 66.8172 3.69677 66.8294 3.6848C67.0246 3.5093 67.0976 3.7869 67.1189 3.84469C67.1971 4.05723 67.3508 3.8439 67.4047 3.98594C67.4591 4.12703 67.2595 4.29403 67.4808 4.32474C67.5608 4.21129 67.4455 3.86633 67.6201 3.83925C68.2769 3.73875 69.4156 4.14421 69.9221 4.22451C70.0661 4.24823 70.1831 4.26431 70.2834 4.27708C70.531 4.30852 70.6765 4.32023 70.8839 4.37189C71.4122 4.50151 71.237 4.24391 71.5775 4.16219C71.9183 4.07929 71.7103 4.65605 71.7482 4.78674C71.7857 4.91722 71.8475 4.79073 71.9011 4.86491C71.9547 4.93904 71.8206 5.01566 71.9573 5.05228C72.0945 5.08916 72.4891 4.88979 72.5466 4.76007C72.6684 4.48559 72.5184 4.17985 72.8747 4.30656C72.8952 4.31401 72.8176 4.4651 72.8968 4.48576C73.5264 4.64472 74.1896 4.6842 74.8241 4.81382C74.9115 4.83188 74.8264 5.00195 74.8773 5.01441C75.4076 5.14385 75.2266 4.84529 75.528 4.53031C75.4499 4.95949 75.6024 5.22891 76.0096 5.24158C76.2529 5.24907 76.2159 5.05962 76.3762 4.93022C76.4243 4.89122 76.5936 5.02393 76.6262 4.93586C76.7342 4.64796 76.579 4.32133 76.9918 4.45704C77.0099 4.46344 76.9496 4.62114 77.0123 4.63168C77.4199 4.70019 77.4722 4.39779 77.9114 4.36441C78.2569 4.33827 78.87 4.52383 79.2633 4.55176C79.258 5.03699 79.6284 4.92387 79.778 4.58795C80.032 4.59951 80.307 4.57744 80.5568 4.62012C80.6419 4.63466 80.5881 4.7759 80.5991 4.79092C80.7652 5.0266 80.874 4.69933 80.9284 4.68567C81.524 4.55153 82.0146 4.78704 82.5814 4.53074C82.6017 4.52149 82.6245 4.18384 82.7832 4.42553C82.7934 4.4422 82.607 4.60083 82.8792 4.60502C82.9925 4.60687 83.1559 4.63804 83.3254 4.66014C83.5626 4.68943 83.8132 4.70211 84.0273 4.60497C84.1134 4.56429 84.3314 4.28247 84.5236 4.48846C84.5488 4.51647 84.5265 4.61411 84.5633 4.66642C84.6855 4.83285 84.7301 4.49007 84.8786 4.77305C85.022 5.05611 85.3172 5.25988 85.6833 5.03856C85.6934 5.03214 85.7688 4.75738 85.8867 4.75411C86.0755 4.74926 86.3469 4.786 86.5435 4.76683C86.6369 4.75764 86.562 4.59597 86.5779 4.59149C86.8351 4.53071 87.0555 4.50339 87.2983 4.5067C87.6057 4.51633 87.9341 4.5158 88.3333 4.47144C88.458 4.4578 88.7608 4.15841 89.0346 4.284C89.3359 4.42133 89.2434 5.28284 89.7962 4.96352C89.8119 4.95456 89.8271 4.9409 89.8419 4.92339C90.0529 4.68697 90.1313 3.77578 90.6538 4.1588C91.4499 3.8098 92.2885 3.85082 93.0587 3.41982C93.0937 3.40042 93.1259 3.0864 93.2145 3.06372C93.3449 3.03098 93.4555 3.13972 93.5506 3.12015C93.8848 3.05454 94.1655 2.88791 94.4693 2.77969C94.5283 2.75878 94.587 2.74026 94.6459 2.72521C94.789 2.68828 94.7822 2.83764 94.9517 2.794C95.1237 2.74946 95.1794 2.53847 95.435 2.55426C95.6285 2.56674 95.9103 2.8772 96.1504 2.85164C96.0509 2.49136 96.212 2.45044 96.4637 2.27538C96.5133 2.24128 96.4188 2.13299 96.4404 2.1104C96.5253 2.0164 96.6538 2.09248 96.7332 1.99543C96.7535 1.9718 96.7216 1.84818 96.7363 1.82195C96.8592 1.59322 97.2234 1.80343 97.2802 1.84415C97.5062 1.99185 97.5658 1.81481 97.7248 1.87054C97.8782 1.92903 97.6743 2.04461 97.8437 2.07282C97.9148 2.08546 97.9887 2.09492 98.0651 2.10249C98.3611 2.13131 98.6938 2.13338 98.9704 2.16095C99.1089 2.17422 99.0292 1.99645 99.0493 1.9944C99.3466 1.97683 99.6142 2.19498 99.8222 1.88128C99.8994 2.77902 100.01 1.82075 100.4 2.05991C100.43 2.07921 100.406 2.49552 100.272 2.53605C100.139 2.57659 99.9707 2.41923 99.7862 2.48911C99.7417 2.50494 99.462 2.86002 99.4302 2.88022C99.1717 3.03413 99.205 2.41574 99.1944 2.38003C99.0814 1.9977 98.7598 2.394 98.6904 2.42041C98.4609 2.49852 98.2658 2.48561 98.0825 2.50653C97.9966 2.51641 97.9156 2.53404 97.8391 2.57284C97.6806 2.6532 97.7338 3.05783 97.6155 3.06655C97.2102 3.10727 96.8734 2.61802 96.5709 3.21573C96.5057 3.34419 96.7269 3.74128 96.2866 3.50808C96.2589 3.49331 95.912 3.26406 95.8231 3.50235C95.8119 3.53239 95.8502 3.65603 95.8285 3.67397C95.686 3.79083 95.5454 3.72596 95.3809 3.82791C95.2292 3.92082 95.0624 4.03899 94.8669 4.07819C94.8461 4.08226 94.8249 4.0854 94.8033 4.08746C94.6715 4.10037 94.4434 3.91808 94.3657 3.88012C94.1487 3.76869 94.0511 4.09004 93.8864 3.9249C93.7218 3.75867 93.8346 3.39581 93.5214 3.35129C93.609 3.67609 93.686 4.0134 93.7678 4.34197C93.16 4.51398 92.5325 4.58811 91.9223 4.77784C91.8467 4.80163 91.9743 4.95326 91.8942 4.98331C91.5552 5.10929 91.218 5.0691 90.864 5.2147C90.5927 5.32681 90.3231 5.58952 90.0096 5.7076C90.0079 5.7083 90.0061 5.70899 90.0043 5.70968C89.747 5.37112 89.3476 5.59105 89.0276 5.6244C88.9145 5.63642 88.9006 5.5343 88.8153 5.51838C88.4919 5.4609 88.7022 5.76348 88.6309 5.83338C88.3144 6.13093 88.1427 5.38957 87.6783 5.4797C87.6614 5.48299 87.5085 5.72441 87.3874 5.85958C87.3679 5.90773 87.3519 5.94361 87.3451 5.95103C87.1707 6.13473 87.3057 5.8109 87.168 5.79444C86.8955 5.76781 86.6807 5.69091 86.3658 5.83562C86.2727 5.8786 86.0613 6.14989 85.8648 5.96366C85.8393 5.93928 85.8443 5.80313 85.8244 5.79638C85.4651 5.68507 85.4828 6.11003 85.2875 6.26461C85.0946 6.41887 84.7734 6.13854 84.7073 6.05639C84.5316 5.8443 84.8305 5.9574 84.8358 5.93552C84.927 5.67514 84.7066 5.72913 84.5368 5.71427C84.4949 5.29795 84.2593 5.33221 84.3591 5.70054C84.3688 5.74084 84.5024 5.69659 84.5368 5.71427C84.4 6.13005 84.1438 6.19246 83.8402 5.81952C83.7012 5.6445 83.816 5.43162 83.4129 5.52096C83.3888 5.52615 83.369 5.53539 83.3525 5.54773C83.2461 5.63117 83.2893 5.85721 83.1474 5.9298C82.778 6.11984 82.2825 5.86468 81.898 5.91566C81.7563 5.93423 81.8971 6.08854 81.8022 6.10659C81.55 6.15493 81.3221 6.04133 81.0667 6.10635C81.0437 6.11244 81.103 6.27626 81.0238 6.27973C80.42 6.30913 79.8919 6.20971 79.2601 6.20975C78.9569 6.21003 78.4072 6.30093 78.0929 6.28078C77.544 6.24764 76.8729 5.99911 76.4039 6.04748C76.0971 6.07831 76.1605 6.24439 76.0268 6.35365C75.7674 6.56552 75.3296 6.1623 75.2712 6.09981C75.2696 6.09783 75.5343 6.06704 75.3963 5.97817C75.3201 5.79942 75.2743 6.09914 75.2712 6.09981C75.2333 6.05993 74.7083 6.00414 74.6031 6.03111C74.5457 6.04608 74.5712 6.2034 74.5414 6.20824C73.831 6.31976 73.1189 6.32265 72.4063 6.20167C72.3939 6.19768 72.4246 6.02464 72.3953 6.01742C71.9866 5.91178 71.7061 6.10463 71.3518 6.20278C70.9981 6.30069 70.7265 6.23272 70.5531 5.9146C70.4221 5.92083 70.2673 5.88166 70.1205 5.82771C69.972 5.7734 69.8318 5.70423 69.7302 5.6522C69.5273 5.54829 69.4581 5.88228 69.4385 5.88683C68.828 6.0312 68.5136 5.79392 67.9164 5.67966C67.6322 5.62488 67.0592 5.58937 66.7458 5.57774C66.4976 5.56934 66.3641 5.46736 66.1324 5.48159C66.101 5.48341 66.1074 5.63784 66.0973 5.6421C65.8185 5.78042 65.9981 5.43449 65.9573 5.36088C65.8099 5.09315 65.716 4.94804 65.3804 5.00656C65.3028 5.01985 65.0012 5.50956 64.8623 5.51757C64.6822 5.52705 64.7789 5.34973 64.5905 5.36449C64.5743 5.36557 64.5577 5.48233 64.4468 5.45804C63.9312 5.34677 63.3793 5.18117 62.8413 5.10031C62.7683 5.0889 62.8299 5.28923 62.7239 5.27577C62.2233 5.21189 61.6849 5.11289 61.2186 4.94642C61.1039 4.90487 61.1996 4.78811 61.1802 4.74549C61.0598 4.487 60.7816 4.7875 60.7437 4.78791C59.8391 4.80635 59.2123 4.39522 58.297 4.41085C58.2483 4.41238 57.8184 4.72087 57.6978 4.38705C57.6895 4.36478 57.5681 4.02335 57.3903 4.22091C57.3795 4.23333 57.4601 4.41128 57.2824 4.37009C57.1077 4.32936 56.798 4.39965 56.5777 4.18806C56.508 4.12135 56.3587 3.77894 56.0946 4.00379C56.0775 4.01951 55.6464 4.54899 55.5646 4.13792C55.5514 4.07033 55.6239 3.65373 55.3189 3.83594C55.2605 3.8714 55.3469 3.97613 55.199 4.0182C54.9691 4.08285 54.7029 3.93929 54.4135 4.09719C54.4056 4.10165 54.393 4.11206 54.3771 4.12548C54.2942 4.1966 54.1172 4.35225 54.0031 4.15661C53.9819 4.12017 54.0436 3.98495 53.9615 3.96059C53.571 3.84412 53.1442 3.89684 52.7501 3.76197C52.6095 3.71442 52.7043 3.49454 52.5593 3.41981C52.4147 3.34513 52.1191 3.25952 51.9517 3.34928C51.7851 3.43915 51.924 3.81562 51.6877 3.82417C50.6574 3.86132 49.6608 3.5705 48.6383 3.4667C48.4866 3.45131 48.6036 3.58972 48.3793 3.57647C47.5536 3.52752 46.1204 3.55888 45.4187 3.24205C44.8558 2.98784 45.5903 2.86201 45.1553 2.74666C44.9455 2.69155 44.6916 3.09986 44.6395 3.11025C44.1319 3.21695 43.7934 3.01153 43.3399 3.04518C43.2459 3.05219 43.3285 3.22776 43.2487 3.23185C42.9762 3.24735 42.697 3.15672 42.4367 3.15774C42.3204 3.15863 42.3353 3.29015 42.2294 3.27483C41.9769 3.23975 41.7503 3.17385 41.5088 3.03985C41.4867 3.02763 41.6468 2.87254 41.4589 2.8576C41.1508 2.83372 40.7798 2.69575 40.4194 2.80453C40.3132 2.83737 40.2962 3.1354 40.0816 2.91961C40.0361 2.87453 40.1116 2.51896 39.8355 2.81702C39.7887 2.86648 39.3332 3.26516 39.1273 2.98714C39.0731 2.91395 38.9415 2.61491 38.8138 2.65584C38.7963 2.66249 38.8587 2.82552 38.7528 2.83686C38.3823 2.87415 37.9963 2.8418 37.6209 2.87773C37.5183 2.88756 37.6638 3.05915 37.5115 3.06853C37.095 3.09465 36.588 3.03385 36.1804 2.96759C36.0329 2.94295 36.1401 2.80917 36.1298 2.79384C35.967 2.54469 35.8498 2.86926 35.7911 2.88641C35.4292 2.98873 35.1586 2.82539 34.8263 2.85548C34.7334 2.86333 34.794 3.02195 34.7751 3.03531C34.5813 3.16558 34.7311 2.88904 34.6131 2.85425C34.4312 2.79829 34.2143 2.7741 34.02 2.76617C33.8626 2.75986 33.7136 2.76258 33.5697 2.76689C33.4425 2.77071 33.5795 2.9564 33.466 2.95776C32.8049 2.96963 32.1208 2.93368 31.4869 2.82094C31.3658 2.79938 31.445 2.66111 31.4203 2.62868C31.2547 2.40195 30.997 2.70261 30.9364 2.73085C30.6753 2.8598 30.5707 2.7351 30.3426 2.75674C29.2252 2.85624 27.873 2.84708 26.7518 2.84705C26.7051 2.84701 26.658 2.84691 26.6104 2.84676C25.2438 2.83932 24.16 2.75702 22.8463 2.84123C22.7602 2.84656 22.8542 3.02907 22.7801 3.03605C21.8205 3.11776 20.8718 3.08098 19.9119 3.17176C19.8332 3.17887 19.9536 3.35068 19.8276 3.36802C19.5688 3.40485 19.2391 3.40807 18.9748 3.36209C18.8453 3.34002 19.0116 3.18208 18.8814 3.16296C18.58 3.11803 18.2568 3.11829 17.9501 3.15898C17.8197 3.17668 18.0242 3.34887 17.8546 3.35783C17.3738 3.38484 16.8884 3.41482 16.4146 3.42787C15.7453 3.44673 15.0789 3.4322 14.41 3.3389C14.3305 3.32808 14.2396 2.96659 14.08 3.04876C14.075 3.15112 14.0846 3.27039 14.0874 3.3792C13.8189 3.40768 13.6506 3.43271 13.2845 3.46608C12.2249 3.52568 11.3479 3.55961 10.3439 3.62656C9.92723 3.65414 9.50455 3.68631 9.0815 3.72615C9.01009 3.73293 9.15311 3.91304 9.01618 3.92703C8.22293 4.00845 7.4549 4.14678 6.61912 4.04525C6.53652 4.03542 6.5411 3.69117 6.30754 3.76912C6.26712 3.78309 5.91267 3.86843 5.82848 3.95248C5.81709 3.96501 5.90045 4.11614 5.78503 4.13372C5.11597 4.23287 4.40706 4.2761 3.72477 4.25519C3.61472 4.2515 3.71095 4.06973 3.63235 4.06564C3.07456 4.038 2.49362 4.2338 1.95288 4.14001C1.59075 4.07663 1.68749 3.77024 1.46868 3.50429C1.4377 3.46678 1.22009 3.48499 1.1899 3.31923C1.1134 2.90248 1.16626 2.43062 1.07231 1.98782C1.05225 1.89242 0.773482 2.02927 0.919055 1.77671C0.929305 1.75975 1.13117 1.65849 1.17406 1.57355C1.20399 1.51479 1.11958 1.35231 1.18537 1.27397C1.25116 1.1957 1.34834 1.3289 1.46113 1.23284C1.57386 1.13575 1.49832 0.948581 1.73956 0.898032ZM68.8221 5.1803C68.6485 4.99311 68.5414 5.58236 68.7719 5.468C68.7832 5.46176 68.831 5.18954 68.8221 5.1803ZM92.407 4.15219C92.0883 3.97076 92.0281 4.39175 92.2585 4.53718C92.4895 4.682 92.5043 4.20693 92.407 4.15219ZM94.8766 3.2038C94.5329 3.09147 94.7367 3.91621 94.9889 3.65963C95.0041 3.64485 94.8969 3.21021 94.8766 3.2038ZM2.32269 3.32456C2.31916 3.31697 2.16239 3.32696 2.15952 3.33521C2.09792 3.5334 2.4114 3.51329 2.32269 3.32456ZM97.3051 2.28519C97.1917 2.19144 96.9688 2.38421 97.1129 2.49518C97.2265 2.58387 97.4417 2.40144 97.3051 2.28519ZM58.909 2.93716C58.9073 2.92789 58.797 2.90347 58.7918 2.95365C58.7759 3.11532 58.9373 3.09292 58.909 2.93716ZM101.566 2.60879C101.436 2.54756 101.396 2.50101 101.316 2.44668C100.901 2.20648 100.832 1.72858 101.375 1.8688C101.382 1.87053 101.387 1.87275 101.39 1.87544L101.415 1.87895C101.43 1.88778 101.425 1.898 101.409 1.90953L101.387 1.90627C101.341 1.96797 101.113 2.07424 101.23 2.13944C101.273 2.16292 101.315 2.17293 101.356 2.17355C101.499 2.17973 101.703 2.17791 101.768 2.14946C101.814 2.12526 101.877 2.12274 101.994 2.21092C102.033 2.24282 101.819 2.55886 101.629 2.60021C101.595 2.6096 101.572 2.61239 101.565 2.60917C101.565 2.60904 101.566 2.60892 101.566 2.60879ZM68.8029 4.45329C68.8 4.44499 68.6466 4.41718 68.6419 4.42442C68.5329 4.60159 68.843 4.65789 68.8029 4.45329ZM52.4277 1.79834C52.421 1.7807 52.0611 1.73277 52.0476 1.74728C51.8322 2.03986 52.5584 2.13749 52.4277 1.79834ZM79.2695 4.56467C79.4393 4.37287 79.6389 4.34899 79.7773 4.58772C79.6072 4.57642 79.4401 4.57564 79.2695 4.56467Z" fill="#CE2128"/>
</svg>
