<svg xmlns="http://www.w3.org/2000/svg" width="20" height="20" fill="none"><path fill="#fff" d="M5.011 16 4 14.989l9.528-9.537H4.865V4H16v11.134h-1.452V6.473z"/><path fill="#fff" d="M7.214 12.468c.03-.032.157-.155.21-.209-.051.07-.318.324-.21.209m4.848-6.23-.128.14c.13-.125.299-.298.419-.414.02-.019-.024.038.022-.007.046-.046.028-.046.094-.114.073-.076.421-.41.54-.53l.189-.19.33.795c-.538.002-1.078.007-1.616.003.647-.01-.005-.02-.186-.016-.04.001-.034.026-.684.02-.412-.004-.031-.04-.72-.022.53.025.009.023-.406.024-.072 0-.65-.004-.905-.003-.088 0-.22.013-.337.014-.08 0-.14-.007-.258-.007a227 227 0 0 1-1.649 0c.324-.033-.253-.014-.28-.015-.13-.01.465-.012.23-.018l-.989.004c.27.004-.358.027-.473.016.017.01-.15.01-.39.007l-.465.007-.007-.48c.007-.463.029-1.192.022-1.348-.001-.038-.01.14-.011-.104l-.007-.455.469-.007c.076 0 .193 0 .37.002.081 0 .05.01.093.008.025 0 .18-.028.343-.013.06.006-.323.024.518.017-.335-.028 1.166-.015 1.442-.008l-.165-.012c.273.01.322 0 .383.001.248.002.589.012.82.011.27 0 .27-.018.586-.011L9.03 3.52q.327 0 .653.003c-.504.023.109 0 .149 0 .064 0-.028.009.08.008.01 0-.005-.01.16-.01.347-.002.292.009.438.009.013 0-.034-.008.218-.01.798-.006-.004.006-.035.007-.04.001.234.035-.445.023.228.004.25.019.276.02l.44-.003c.194-.005.023-.015.06-.017.032-.002.507.012.619-.019.227.028-.131.026-.513.03-.055.006.364.012.386.012.54 0 .24-.024.359-.039.062-.008.282.008.079-.013.49-.002.193.01.225.012.047.003.22-.003.24-.002.032 0-.078.008.047.01.02.001.22-.011-.037-.017.345.001.316-.01.433.012.238-.04.173.024.266.026.25.006.177-.025.19-.027.09-.01.78.001.95-.004-.067.023-.546 0-.653.005-.357.015.503.012.244.04l.326-.023c.2.018-.083.026.453.02.088-.017-.38.002-.285-.01.055-.008.366-.01.372-.013.006-.005-.275 0-.23-.007.096-.015 1.121 0 .34.008.218 0 .33.03.52.021.121-.006-.565-.05.465-.041.022.014-.412.004-.423.005-.016.002.063.035.076.036.022.003.257 0 .526-.001l.422-.006.006.434c.002.315.003.677-.006.797.02-.088.004.795.01.891.001.026.013-.07.014-.043.007.171-.014.633-.014.847 0 .24.01.21.01.223-.001.105-.008.021-.008.086v.8c0 .01.012-.1.014.047 0 .025-.013.01-.007.441.007.521.017-.361.031-.145-.02.335 0 .324-.002.415 0 .031-.017.265-.016.518l-.009-.546c-.003.18.001.527-.002.674-.002.072-.016.013-.016.17 0 .033.035.164.02-.245.012-.033.004.162.007.252 0 .014.021.068.008.183-.003.028-.062-.274-.02.505.002.025.01-.062.011-.038.001.017-.002.215 0 .237 0 .023.009-.073.01-.046.009.137-.024.317-.021.034l-.012.283c.024-.1.006.149.007.28.005.837.02.276.03.42.012.232-.03.055-.017.399.001.032.019-.384.009.428l-.002-.36c-.024.07.002.433.002.46.003.32-.005.104.007.577 0 .042-.005.135-.002.225.012.375.007-.494.017-.518.004-.011.003.923.001.955-.01.136-.004-.423-.017-.317-.004.04.005 1.371 0 1.639-.005.308-.037.447-.001.449a.3.3 0 0 0-.016.157l.006.442-.454.006q-.028.004-.046.004a44 44 0 0 0-.886 0c-.09 0-.167-.01-.199-.008-.018.001.016.013-.075.016h-.246l-.454.007-.007-.467c.002-.27.01-.657.014-.697.006-.056.003.322.013.254v-.81c0-.115.008-.056.008-.106 0-.02-.007-.415-.01-.398-.005.039-.001 1.257-.014.936-.003-.062.014-.28-.006-.245l.014-3.266c.015.625.001 1.33.003 1.984 0 .09-.002.394.008.357.003-.557-.002-1.25.004-1.785 0-.017.01.046.011-.018.003-.12-.012-.51-.008-.576 0-.011.013.211.02.144.02-.174-.023-.218-.023-.367 0-.115.022-.89.008-1.083-.014-.205-.008.571-.02.514-.011-.525.001-1.057 0-1.553 0-.009-.01.067-.01-.043-.003-.193.01-.244.012-.337.002-.101 0-.459.005-.507 0-.006.014.067.014.077.005.156-.011.212-.012.226 0 .053.006.105.006.154 0 .08-.007.124-.007.23 0 .072.01.002.01.072 0 .026-.026.304 0 .33.007.006.016-1.452.015-2.148l.692.286c-.122.123-.21.212-.241.245l.247-.24-.706-.291q0 .12-.004.24.003-.119.002-.24l.71.293c-.231.231-.445.457-.482.458l-3.12 3.106c-.187.184-.1.068-.4.377l.25-.223c-.16.153-.86.839-.968.954-.014.015-.021.048-.193.222-.153.154-.187.17-.271.25-.07.067-.146.146-.167.166-.016.016-.028.016-.067.053-.122.116-.009.036-.147.135l.085-.089c-.147.141-.352.329-.145.113.036-.037.01 0 .038-.027 1.063-1.065.202-.227-.162.155-.105.087-.636.628-.656.645-.027.022.058-.077-.068.038-.027.024-.74.746-.493.476.051-.055.398-.397.48-.48-.213.177-.645.66-.697.71-.21.205.383-.413-.087.052-.36.357-.011.032-.144.176-.075.08-.495.473-.467.48-.138.141-.065.05-.083.067-.018.016-.287.296-.38.381-.011.01.014-.033.002-.022-.023.02-.286.287-.296.298-.006.008.065-.048.04-.02-.027.032-.284.285-.296.302-.016.023.296-.294.252-.233-.147.143-.377.385-.466.488.021-.026.162-.166.211-.215-.01.036-.312.338-.219.224-.06.071-.012.03-.044.072-.009.01-.102.104-.117.124-.002.003.099-.088.082-.066-.03.04-.314.32-.338.342-.069.062.158-.173.171-.197.002-.004-.204.181-.208.183-.022.002.204-.209.17-.193l-.168.156c.199-.217.589-.597.677-.707-.305.312-.628.634-.651.61-.01-.01.118-.15.11-.146-.029.01-.204.205-.211.21q-.01.009-.01.007c-.005-.005.255-.272.265-.287.018-.027-.117.073-.12.069.003-.005.186-.197.116-.14s-.235.22-.241.226c-.036.027.248-.264.254-.275.003-.006-.159.141-.165.143s.106-.12.145-.173c.03-.04-.074.057-.058.039.013-.014.284-.285.296-.299.019-.021-.05.036-.043.026.011-.016.1-.101.087-.092-.01.007-.37.325-.374.318-.006-.014.376-.351.003-.055l-.083.089c-.058.043.193-.229-.125.092.582-.605.06-.088.132-.192.027-.04.255-.273.255-.275-.03.015-.097.094-.126.115-.016.012.182-.202.13-.161-.027.02-.244.24-.254.249-.092.081.01-.03-.014-.015-.015.01-.147.142-.15.145-.007.005.162-.184.196-.225.026-.031-.085.071-.066.05.112-.126.384-.362.114-.142-.016.013-.108.106-.111.109-.064.05.105-.121.13-.157.043-.062-.197.188 0-.023-.16.146-.244.232-.421.412.49-.5.639-.7.09-.15.175-.174.141-.17.193-.222.033-.032.3-.271.152-.187-.019.01-.168.17-.128.113.372-.367.003-.013.002-.014-.015-.024.904-.91 1.057-1.067.177-.183.322-.358.361-.397.13-.128.03-.014.062-.04s.383-.407.402-.424c.074-.068.011.013.02.006.092-.082.577-.58.717-.716-.01-.001-.287.274-.124.092.19-.211.227-.197.234-.201l2.761-2.76c-.025-.002-.617.61-.632.621-.091.07.926-.946 1.055-1.066l-.293.275c.146-.177.525-.514.752-.755.073-.078-.078.061-.075.058.078-.091.22-.223.126-.113.2-.215.178-.176.338-.334.008-.008-.067.054.056-.075.058-.06.373-.375.41-.422.014-.02-.17.115-.168.156-.353.331-.1.119-.234.251-.02.02.015-.038-.314.302.042-.085.444-.455.507-.523.131-.142-.442.409-.528.528.031-.065-.042.038-.168.162-.138.136-.083.072-.157.146-.203.202-.107.13-.285.287.196-.13-.282.29-.422.412l.634-.643-.041.03.169-.167-.022.032c.278-.3.361-.358.385-.381.305-.302.656-.653.963-.96.046-.046.003-.025.348-.352.11-.104.017.005.137-.118.129-.174.144-.153.19-.198.13-.13.203-.214.215-.226.15-.152.367-.368.539-.54l.741-.728-.01 1.032.001.043c0 .003.003-.037.005-.043l.01-1.045-.751.737h-.001l.753-.74-.01 1.048.001.08c-.001.057-.043.565-.03 1.01l.01-.347c-.005.136.006 1.089.017.856.007-.143-.02-.492.006-.53-.008.317.004 2.069-.002 2.205-.001.019-.01-.097-.01-.071-.002.02 0 .421-.003.474-.002.032-.007-.145-.01-.13a8 8 0 0 0 .005.541c-.004-.123 0-.469.008-.287.001.023-.005.144-.004.172.013.263.01-.522.01-.644.014.494-.002 1.257.006 1.829-.008.23-.013-.343-.02-.081-.016.542.012.144.013.16.009.136-.04.594-.003.595-.005.196-.01.133-.005.41l.008-.11c.02.309-.033.96-.037.912-.01-.131.007-.471.006-.5 0-.043-.037-.162-.004-.631-.025-.193-.017.744-.034.318.003.288-.014 1.472-.004 1.643.002.02.027-.075.014.218-.006.139-.006-.196-.012-.132-.005.057-.008.331-.009.701l-.352-.352H16l-.353.352c0-.541-.003-1.02-.003-1.207 0-.033.008-.021.008-.053 0-.1-.012-.46-.008-.638-.015.368-.016-.345-.014-.527.002-.275.016-.258.018-.377.012-.458-.02-1.169.01-1.525-.03.02.014-.616.014-.905 0-.226-.02-.555-.031-.25.001-.39-.004-.802-.006-1.168 0-.06.008.023.008-.08 0-.01-.01-.023-.01-.112-.008-.733.01-.376.016-.513q.005-.115.005-.175l.005 1.051c.02-.112-.003-.947.002-1.191 0-.008.01.021.01.012.001-.092-.002-.675-.015-.555-.003.032-.003.3-.002.62-.002-.087-.014-.023-.015-.038-.005-.184.006-.636.008-.796 0-.037-.008-.034-.008-.04.002-.146.024-.086.001-.236.027-.264.004.495.022.441.013-.04.006-1.726-.015-1.721l.008-.077c.007-.105.005-.574.001-.655 0-.014-.021-.008-.021-.025L15.64 4l.359.359a8 8 0 0 0-.436.003l.347.009c-.699 0-.59.006-.358.012h.034l.413.011L15.606 4v.002V4l.394.395c-.057.006-1.162.008-.941-.01.031-.003.58.006.308-.008-.048-.002-.4.002-.418 0-.124-.01.645-.023.551-.037-.187.013-.426.006-.64.01-.097.001-.121.012-.133.012-.18.003-.08-.008-.14-.008-.031 0-.385.023-.318-.008-1.166.023-.323.023.393.021-.227.012-.67.006-.868.009-.072 0-.03.011-.15.013-.248.005-1.432-.008-1.74-.01.19-.004.134-.016-.012-.015s-.024.016-.052.018c-.03.002-.717-.006-.831-.004.516-.005.4-.017-.038-.018l.19-.01c-.257.005-.797-.012-.946-.007-.023 0 .06.01.047.01-.13.005-.573-.005-.594-.002-.017.003.172.011.102.015-.015 0-.197-.012-.377-.009-.066.001-.026.01-.043.01-.14.005-.057-.01-.313-.008-.187.002-.327.017-.585.012.85.02.135.011-.22.017-.057.001-.008.018-.348.01.723-.03-.207-.016-.397-.017-.01 0-.014-.01-.107-.01-.008 0 .003.007-.084.007-.822.005-.296-.003-.453-.01-.066-.003-.466.007-.574.007-.025 0-.013-.007-.11-.007-.169 0-.32.009-.433.01-.013 0-.013-.013-.226-.009-.06.001-.126.006-.041.01.28.01.814-.01 1.131.002.29.01-.623.012-.671.012-.017 0 .161-.006-.02-.007-.155-.001-.438.02-.668.015a4 4 0 0 1-.194-.02c.008 0 .29-.004.25-.009-.005 0-.185 0-.208-.004-.03-.005-.107-.05-.145-.051-.07-.002-.058.002-.068.005L5.188 4l.001.03c-.001.137-.015.61.001.626l.003-.235c.001.436.008.25.011.312.003.067-.01.048-.012.195 0 .023.001.348.004.524l-.33-.33V5.12l.332.332c-.003-.198.01-.105.01-.118.002-.06-.008-.136-.008-.216.002-.562.017.005.021-.128.001-.045-.007-.136-.006-.156 0-.063.012-.064.01-.106-.001-.098-.016.017-.017.009-.01-.088.002-.43.019-.217.006-.129-.015-.144-.007-.245.016-.202.012.1.015.183.01.294.002.381.004.798 0 .064.003.133.005.196l-.378-.378.201-.007c.044 0 .458.034.47-.02.161.006.414.041.58.04.149-.002.101-.02.115-.021.022-.002.202 0 .263-.003.071-.003.035-.01.149-.013.281-.007.274.012.303.013.336.015.19-.013.264-.015.07-.002 1.042.009 1.247.002l-.25.011c.15.012.308-.007.31.014.03-.035.339-.011.431-.012.037 0 .034-.007.08-.007.178 0 .58.004.676 0 .418-.012-.65-.034-.735-.035.168 0 1.122-.007.684-.024-.068-.002-.188.013-.226.014-.258.004-.055-.01-.075-.012-.035-.002-.204.012-.249.01-.015 0 .081-.013-.164-.013.12-.012.81-.002.901-.005.033-.001-.17-.027.421-.002l-.02-.007.986-.003c-.035.005-.22.016.012.014.134-.001.035-.014.047-.014.097-.003 1.482 0 2.24 0l1.148.01-.812.798-.296.297c-.1.1-.368.383-.39.404-.124.127-.575.569-.663.659-.055.056.005.01-.045.06-.046.046-.005-.01-.02.004-.116.111-.968.983-1.18 1.182.127-.124.738-.763.72-.755a4 4 0 0 0-.19.182c-.057.046-.216.242-.316.335-.012.01.02-.043-.153.128-.06.059-.208.223-.373.37-.223.231-1.427 1.41-1.498 1.503-.001.003.17-.161.061-.043-.144.157-.03 0-.207.175-.027.026-.513.517-.528.534-.136.16.296-.262.291-.255-.011.018-.364.375-.38.389-.014.013.26-.292-.082.062l.125-.115c-.16.168-.186.173-.226.212-.125.12-.242.27-.46.448-.057.047.024-.046.016-.04-.07.055-.13.155-.239.235-.008.006.203-.222-.18.161l.083-.075c-.051.057-.437.447-.49.499-.155.15-.032.008-.184.162.112-.085-.352.383-.337.345-.05.08-.458.465-.644.65-.118.118-.351.364-.39.4-.046.045-.042.022-.126.102-.024.022-.261.274-.486.479-.043.04-.147.11-.074.028.125-.14.388-.376.375-.383s-.345.337-.437.426c-.425.413-.194.16-.209.167-.036.02-.264.249-.275.258-.043.036.113-.133.11-.14-.003-.01-.236.199-.188.146.069-.075.281-.268.294-.28.16-.175-.084.04-.155.095-.021.017.051-.063.035-.048-.253.232-.03.073-.193.232-.146.142.03-.053.023-.048-.008.006-.18.178-.21.201-.016.012.412-.455.384-.445l-.421.434v-.27q0 .003-.002.002v.266c.005-.023.194-.197.212-.218.04-.045-.084.069-.083.06 0-.005.132-.153.003-.03-.03.028-.078.083-.158.162v-.214q.056.057.13.136l-.136-.13v.201c.34-.357.02-.048.002-.037-.02.01.203-.229-.032.008v-.142l.052.052c-.007.03-.012.012-.063-.041v.12l.045-.046c.106-.116-.157.134.254-.267-.025.01-.215.197-.316.296v-.086l.06.061c.015.016-.063-.051-.039-.024.286.326.085.107.161.208.007.01.291.303.07.085q-.174-.17-.291-.29c.2-.19.3-.289.325-.359a8 8 0 0 0-.35.342l-.02.02.02.02c.188.182.356.334.412.39.139.138-.01.001.004.02l.126.127c.047.084-.295-.278-.544-.534l-.023-.022.023-.024c.075-.073.141-.138.184-.183l-.166.145.21-.212c-.342.328-.014.01.05-.094.014-.023-.198.205.04-.058-.187.182-.132.119-.294.292-.004-.012.364-.398.509-.55-.498.48-.247.278-.59.604l-.079.081.08.077.08.086c.066.053-.023-.039-.074-.091l-.074-.072.073-.075.033-.031-.03.033-.07.073.07.069c.076.072.204.208.375.345.032.026-.081-.108.101.075.02.02.128.146.126.145-.022-.009-.135-.127-.142-.129-.008-.001.123.126.122.127-.004.012-.11-.104-.097-.085.03.04.474.521-.125-.088.512.492.074.055-.125-.137-.05-.049-.069-.056-.141-.126l-.112-.11-.089-.085.089-.092.135-.135c.05-.052-.25.225.17-.189-.09.08-.203.192-.32.31l-.103.106.103.1c.174.174.36.355.48.485.405.438-.314-.273-.39-.346-.02-.02.04.054.026.041l-.147-.148-.136-.131.135-.14c.128-.127.296-.294.317-.323.034-.046-.148.149-.167.156-.012.004.47-.493.202-.23-.103.1-.248.256-.37.38l-.153.157.153.15c.098.095.176.176.194.208l-.202-.2-.163-.157.163-.167.6-.609-.46.422c.3-.304.568-.557.844-.853-.708.667.207-.24.214-.253.002-.005-.286.25-.332.29.233-.247.959-.98.511-.574a4 4 0 0 0 .255-.27c-.033.014-.436.43-.378.354.068-.087.19-.182.307-.302.605-.616.389-.497 1.008-1.102l-.041.032 2.003-1.989c.245-.275.928-.977 1.27-1.316.069-.068.413-.397.44-.42.049-.045-.208.214-.087.102.026-.023.598-.59.55-.557-.065.063-.26.267-.296.297-.243.216 1.523-1.53 1.604-1.622l-.124.109zM7.64 11.994c-.059.075-.231.235-.327.336-.133.14-.332.403-.265.271zm2.93-2.908c-.138.13-.053.007.065-.095.013-.011.122-.08-.065.095m-1.412 1.396.126-.125c.11-.097-.24.251-.126.125M10.581 5c.21-.001.058-.024-.072-.015a.4.4 0 0 0 .072.015m.149 0c.162.021.488-.02.229-.016a6 6 0 0 0-.23.017m-.644 4.556c.01-.02.15-.156.21-.214.004.007-.153.156-.21.214m3.5-3.506c.001-.01-.479.47-.506.509.074-.079.504-.5.505-.51m-1.418-1.054c.017.001.252 0 .245-.006-.114-.007-.322.001-.245.006m-3.462 0c-.012.001.163.036-.253.013-.061-.003.157-.013.135-.014l-.11-.004a13 13 0 0 1 .415-.002c.091.01-.181.006-.187.007m-1.817.026c-.04.005-.295.002-.353 0-.01 0 .033-.015-.082-.014-.092 0 .046.016-.134.013-.181-.002.061-.013.045-.014-.02 0-.302.006-.293-.003.006-.006.307-.002.382-.003.095-.002-.02-.013.139-.01.1 0 .044.02.065.021.018 0 .368-.01.23.01m1.537-.03h.052zm-.406 6.609c.074-.066-.127.147-.21.22-.007-.004.199-.21.21-.22m.226-6.593c-.288-.005-.076-.012.18-.016-.082.004-.083.018-.18.016M11.8 7.82q.014-.011.02-.01-.037.028-.02.01m.48-.47c.154-.171-.176.16-.168.164.003 0 .161-.158.167-.164M10.313 5c.02.001-.307.035.169.01-.254-.005.014-.008.01-.011-.01-.009-.437 0-.531-.004-.074.015.282.001.351.005m-5.01-.8c.009.058.006.24.005.364-.009-.057-.006-.24-.005-.364m9.683 2.51c.008.847-.028.956-.014.182 0-.016.01-.234.014-.182m-.01 7.269c-.015.08-.018-.185-.011-.358.001-.04.017-.185.02-.019-.019-.005-.026.251-.009.377m-6.894-8.96c-.084.01-.342.003-.478.002a6 6 0 0 1 .478-.002m6.885 4.474c-.001.09.012.15.014.134.005-.069-.006-.236-.014-.134M8.916 5.02a2 2 0 0 1-.354-.003c.074 0 .346-.001.354.003M5.3 4.433a3 3 0 0 1-.006-.305c.007.007.008.27.006.305m9.674 6.497c-.002.08-.002.28.004.302.007.027.004-.265-.004-.302m-8.086 2.613c-.01.005.197-.226.297-.32.191-.179-.288.313-.297.32m8.074-4.895c.013-.252 0 .028.014.017 0-.17.001-.592-.012-.302-.003.057-.001.206-.002.285m-.005.232c.005.027.019.21.018.052 0-.073-.017-.19-.018-.052m-6.718 3.304c.169-.151-.569.576-.591.596l-.025.02c-.024.03-.162.168-.185.178l.168-.168.014-.011c.043-.055.587-.586.62-.615m1.223-1.204c-.17.195-.224.206-.209.19.19-.209.076-.063.083-.068.015-.013.15-.161.126-.122m-.97.959-.169.166c-.133.119.304-.314.169-.166M5.519 5.044c-.155-.003-.003-.014.1-.01.009 0 .037.013-.1.01m9.44 3.96c-.002.037-.01.958.007.903-.002-.078.007-1.126-.007-.902m.347 5.723c-.162 0 .015-.016.102-.01.032.002-.06.01-.102.01M9.378 5.035c.168-.008.133.021-.013.011-.006 0 .006-.01.012-.01m5.586 9.56c.01.56-.041.427-.024-.302l.007.069c.008-.841.004-.058.007.148 0 .078.01.013.01.084m.63.378c.02-.3.022-.114.02.161l.386-.386c-.219-.001-.494-.005-.625-.003.286-.015.66-.012.152-.028.293-.001.422 0 .473.003l-.414.414c.002-.053.006-.02.008 0l.406-.406q-.017.002-.01.002H16l-.404.404c0-.043-.004-.14-.002-.16m-.857-.245-.19-.003.41.41.002-.162c.004.034.005.096.006.161l-.417-.417c.158 0 .336.006.19.011m-4.009-5.026c-.007.02-.036.06-.17.189.037-.044.118-.131.17-.189m-3.25 2.383c-.092.09-.274.267-.212.22.007-.006.215-.216.211-.22m7.473-.403c0 .027-.002.73.009.487.003-.073.002-.713-.009-.487m.002-3.64c0 .059.001.298.004.303a2 2 0 0 0-.005-.303m-7.938 4.492a7 7 0 0 0-.254.262c.064-.051.297-.3.254-.262m-2.06-7.468c-.033 0-.076-.01-.088-.01l.396.395c0-.034-.004-.621.01-.395l-.001.395-.405-.405.614.004c.043.015-.324 0-.413.002-.016 0-.026.013-.113.014m5.098 5.326a9 9 0 0 1-.507.512zm.253-.251c.11-.102-.136.148-.211.219a4 4 0 0 1 .211-.22m4.613-.768c.002.07.016-.147.018-.098.002.03-.003.189.001.239.002.014.014-.147.014-.193-.001-.066-.011-.002-.011-.074 0-.24.007-.452.007-.676 0-.02-.007.137-.007-.036 0-.027.01-.188.008-.394-.032-.457 0-.792-.012-1.372-.003.022-.011.455-.011.48-.006.485-.006 1.353-.006 1.86 0 .13.007.068.007.124 0 .044-.013-.009-.008.14M7.52 12.032c-.052.034-.197.191-.294.287.042-.026.198-.194.294-.287m5.022-4.112c.048-.048.2-.195.21-.21.013-.02-.206.194-.21.21M6.694 4.39h.177c.147.01-.347.009-.178 0m3.936.002c.125-.001.25-.005.292.005-.079-.001-.307.003-.292-.005m4.979-.33c.013-.026.005.35.003.42a4 4 0 0 1-.003-.42m-4.832 5.652c-.163.162-.114.142-.224.238-.018.016-.102.04.088-.127.034-.03-.085.103.136-.111m4.164 4.462c-.01-.059-.007-.241-.006-.365.007.028.005.277.006.365m-8.432-1.15c-.085.068-.43.427-.337.345.013-.011.287-.295.337-.344M7.5 5.06c-.205.01.22.013.353.003-.06 0-.339-.004-.353-.003m7.257-.676h.237c.178.011-.437.009-.237 0m-5.42-.009c.078-.008.592-.002.707.007-.11.012-.805.003-.708-.007m2.106 4.666q-.174.173-.337.328c.018-.027.32-.32.337-.328m4.111-4.658h.034zm-1.514 2.07c.099-.095.07-.084.064-.078-.076.07-.176.186-.064.078M7.396 12.13c-.042.026-.198.195-.294.287.033-.02.22-.21.294-.287m8.22 2.265c.013-.172.027.53.02.677-.008.011-.02-.652-.02-.677m-7.48-9.318c.014.009.308-.002.246-.006-.04-.003-.254 0-.246.006m7.574 9.688c-.066.002-.22-.006-.165-.012a.6.6 0 0 1 .165.012m-.799-4.385c-.001.03.008.417.017.257.006-.111-.007-.13-.007-.155 0-.03.016-.652-.01-.102m.715.085c.003.146 0 .323 0 .476a6 6 0 0 1 0-.476M6.999 5.079c.035.004 1.003.006.453-.005-.032 0-.561-.006-.453.005m3.778 4.634.073-.07zm1.846-1.842c-.033.042.157-.145.21-.203a3 3 0 0 0-.21.203m3.01 3.082c.004.088 0 .248 0 .357a4 4 0 0 1 0-.357m.007-6.194c-.003.175-.002.39.006.394l-.004.026c-.001.014.002.202 0 .283-.015.488-.01-1.884.012-.509zm-7-.401c-.1-.01-.378.002-.306.006.05.002.405.003.306-.006m3.825-.006a5 5 0 0 0-.309.01c.157.005.444-.002.309-.01m-4.59-.005a.6.6 0 0 0-.134.014c.063.005.24-.006.134-.014m3.266 5.057c.069-.062.27-.279.31-.331q.013-.01.078-.068c.059-.054 1.754-1.741.606-.62-.036.035.019-.008-.127.136-.01.01-.02.009-.05.038-.068.067-.432.426-.501.502q-.002 0-.018.013c-.096.082-.35.379-.298.33m1.863-5.053c-.055-.002-.228 0-.246.006.086.003.373 0 .246-.006m-5.975.754c.111.005.394-.005.308-.01-.052-.003-.437.004-.308.01m4.24-.75c.64.007.153-.001.25-.01zm-2.237 7.123c.074-.07.002.027-.084.1-.028.022.043-.06.084-.1m-3.251 3.256c.073-.05-.235.244-.125.119zm2.28-2.268a1.6 1.6 0 0 1 .211-.225c-.202.206-.006.024-.212.225m7.586-7.315-.001.002zM7.275 4.35c-.08-.01-.305-.008-.238 0 .007.002.205.007.238 0m4.176 4.723q-.013.009.006-.012.002 0-.006.012m-2.972-4.73c-.009.006.333.01.346.008.196-.012-.206-.009-.346-.008m.806.771a.6.6 0 0 0-.165-.011c-.054.005.1.014.165.011m-1.69 7.823a3 3 0 0 1-.21.198c.052-.05.207-.204.21-.198m-1.688 1.688a10 10 0 0 1 .422-.434c.012.007-.34.347-.422.434m5.024-5.017c.006-.006.2-.195.168-.175-.047.03-.226.226-.168.175M8.759 5.105c-.121.006.157.024.285.01.066-.007-.265-.011-.285-.01m-2.184-.767c-.16.005.236.014.291.005-.073 0-.235-.007-.291-.005m5.44-.01c-.503-.025-.229.022-.14.018.013 0 .153-.016.14-.017m-6.427 9.546c-.047.053.15-.126.168-.157a2 2 0 0 0-.168.156m10.066-6.27V7.54zm-10.531-3.3c.355.036.317.008.348.008.067 0 .222.01.347.008l-.431.013c.113.003 1.1.016 1.12.01.03-.008-.28-.006-.29-.006-.012-.002-.06-.025-.09-.026-.047-.002-.872-.002-1.004-.008m5.839.029c.08.003.104.012.141.01.013 0 .015-.01.06-.012zm-5.76.045c-.01.1-.007-.35-.005-.364.007-.077.014.282.005.364m3.106-.043a6 6 0 0 0-.36.002c.092.004.554.006.36-.002m2.908-.005c.122.001.351.01.325-.003zm-2.872.803c.225.022.118-.005-.08-.012-.061.01.043.009.08.012m.72.016c.063.004.708 0 .61-.011-.035-.005-.406.006-.423.005-.026-.001.092-.014-.106-.011.012.004-.102.016-.08.017m-.534-.002c.224.016.274-.014.106-.014-.066 0-.138.012-.106.014m-.913-.003c.08.003.294.007.442-.003l-.593-.002c-.023.006.08.003.151.005M5.01 15.63c.132-.12-.156.172-.17.182-.04.032.111-.129.17-.182m-.596-.968c-.037.033-.068.048-.14.129l.249-.215c.046-.073-.068.05-.11.086m-.344.247c.01-.011-.07.028.085-.1.05-.04-.039.057-.156.179.136.133.303.3.347.353-.085-.078-.24-.239-.35-.348q.044-.056.074-.084m.669 1.007a7 7 0 0 1-.217-.21c-.113-.127.193.17.217.21m-.624-.632c.088.096-.12-.106-.178-.169-.002-.01.164.154.178.169m2.466-.628c.114-.086.174-.206.026-.046a.2.2 0 0 0-.026.046m-2.055 1.088c-.089-.096.118.106.177.17a3 3 0 0 1-.177-.17m2.159-1.125c.143-.123.062-.11.044-.095-.073.063-.294.31-.34.362.347-.356.229-.21.296-.267m.592-.633c.12-.126-.202.181-.253.25.061-.06.22-.213.253-.25m.759-.736c.067-.065.267-.259.295-.297-.071.073-.273.264-.295.297m.166-.134c.11-.096.114-.142.001-.016-.004.005-.005.02-.001.016m.59-.574c.076-.06.133-.157.022-.048-.032.033-.03.055-.022.048M6.888 14.49c.1-.094.211-.234.002-.028l.212-.225c-.28.264-.24.264-.319.341-.11.108-.118.083-.102.056-.079.1-.459.48-.677.7.198-.188.518-.494.712-.681.055-.054.103-.111.15-.157.075-.073.016 0 .021-.006m2.67-2.71c.208-.19.061-.085-.048.031a.4.4 0 0 0 .047-.032m-4.83 4.292c-.258-.275-.053-.093-.628-.633.247.222.022.004.073.045.04.033.174.173.102.086.097.113.555.567.574.589.011.012-.039.001-.12-.087m3.362-2.768c.092-.042.079-.108.23-.218.144-.204-.482.481-.586.535.715-.708-.496.446.04-.013-.424.395-.13.138-.189.206-.062.073-.3.299-.278.296l.423-.427c-.159.119.137-.164.251-.246zm-.82.782c.014-.013.32-.324.296-.308-.044.038-.478.479-.296.308m-1.352 1.36c.11-.11.285-.278.338-.346-.11.11-.286.278-.338.346m5.7-5.691c.134-.148-.302.285-.17.166.007-.006.162-.16.17-.166m-3.21 3.225c.15-.136.059-.093-.041.02-.006.006.033-.014.04-.02m-3.899 2.88c-.015-.005-.398-.396-.467-.464.045.033.485.467.467.463m1.236-.198c.242-.198.516-.521.55-.554.032-.032-.01.029-.002.022.018-.017.364-.364.38-.382.011-.012-.064.037.003-.038-.132.147-.771.776-.803.81-.024.027.182-.152-.128.142m.634-.633c-.092.082.15-.162.21-.219.136-.126-.198.209-.21.22m.59-.579a6 6 0 0 0 .295-.303c-.126.11-.361.363-.296.303m2.786-2.785c.065-.066.248-.24.253-.256-.064.066-.248.24-.253.256M4.404 14.13c-.113.104.136-.148.21-.22.008 0-.2.212-.21.22m4.079-1.126c.04-.037.822-.826.93-.939-.112.104-.892.882-.925.92-.01.01-.01.024-.005.02m-1.698 1.7c-.064.08-.12.118-.13.127-.09.088-.273.274-.24.226.16-.154.498-.511.37-.352m3.062-3.062c.264-.27-.257.235-.182.176zm-1.45 1.452c-.052.065-.844.845-.97.971.101-.124.201-.206.352-.359.041-.04.025-.035.03-.04.07-.07.023-.012.067-.055.028-.028.595-.608.521-.517M6.75 14.752c-.04.049-.529.541-.55.56-.156.138.51-.523.55-.56m1.73-1.718c-.071.098-.47.479-.21.205.025-.026.138-.128.21-.205m1.351-1.35c.014-.012.295-.287.295-.296-.042.038-.449.442-.295.297m-.13.16c.007-.007-.066.05.065-.08.011-.01.04-.021.201-.189a1 1 0 0 0 .074-.088c-.185.156-.672.698-.34.357M6.748 14.77c.03-.023-.021.053-.085.104-.027.023.012-.03.085-.104m3.97-3.962c-.155.169.354-.337.378-.365-.021.012-.363.348-.379.365m-6.116 3.016c.137-.134.059-.043.065-.05.298-.28.208-.217.252-.264.093-.1.094-.069.251-.24-.26.281-.018.03-.005.029.054-.007-.371.35-.501.49-.018.019.128-.113.082-.062-.15.164-.672.613-.144.097M6.62 14.92c-.056.07-.542.541-.42.409.019-.021.502-.512.42-.41m9.767-9.707c.008.163.018-.214.012-.284a2 2 0 0 0-.012.284m-1.818-1.635c-.193.002-.397.037-.156.032.025-.001.178-.027.156-.032m1.305 11.962q.09.005.126.003l.414-.005-.006-.403q-.004-.053-.01 0l.005.392-.403.006-.085-.004c-.052 0-.047.01-.041.011m.528-7.981c0-.02 0-.254-.006-.245-.004.086 0 .375.006.245m-.592 7.984c.12-.004-.087-.02-.233-.004.075-.002.22.005.233.004m-6.998-2.766c.064-.078.266-.276.38-.393.021-.003-.3.309-.38.393M15.39 3.59c-.183.009.209.016.173.005zm-1.252 6.36c.008.133.018-.289.005-.173zm.005-1.844c-.003.101-.002.532.005.364a5 5 0 0 0-.005-.364m-9.223 5.39c-.047.029.178-.192.212-.223.013-.012-.15.184-.212.222m11.487.455c-.002-.105.001-.376-.005-.423.001.127-.009.457.005.423m.002-9.726c.006-.066.009-.151.01-.224l-.007-.424-.412.006c-.103 0-.18.004-.14.015a1 1 0 0 0 .14-.005l.402-.006.006.414c.004.014.008-.036 0 .224m-1.272 11.333a.4.4 0 0 0 .139-.017c-.091-.008-.222.01-.139.018m1.272-5.844a1.5 1.5 0 0 0 0-.237 3 3 0 0 0 0 .237m-5.107.581c.091-.082-.17.188-.254.261-.046.03.242-.25.254-.26m2.827 3.108c-.011-.013-.005.407.004.242.003-.042 0-.238-.004-.242m-.014-4.017c.014.282.023-.9.007-.59-.002.023-.008.566-.007.59m.009-1.93c-.002.049-.04.025-.025-.176.002-.027.012.097.014.075.002-.012.007-.45.006-.47-.001-.021-.013.004-.014-.018s.007-.247.008-.393l.742.307-.03.028c-.187.188-.2.215-.216.23-.045.045-.125.116-.216.206-.458.458-1.153 1.165-1.532 1.513.33-.317.631-.631.951-.955-.08.109.462-.484.147-.135.08-.085.5-.507.887-.896l-.72-.298c0 .47 0 .909-.002.982m-.318-3.889c.12-.012-.49-.01-.542.005.08.002.528-.003.542-.005m2.659 1.051c.002.057.027.11.014.407-.003.088-.01-.011-.012.005 0 .005-.013.276-.015.051-.003-.342.019-.032.019-.215 0-.022-.014-.368-.017-.348 0 .002.003.106.002.124-.005.065-.013.033-.013.042-.001.03.012.577 0 .656-.003.026-.012-.871-.01-.906.001-.022.023-.013.025-.036.001-.01-.005-.304-.005-.397l-.007-.46-.446.007-.054-.002a1.6 1.6 0 0 1-.263-.001 5 5 0 0 1 .24 0h.009c-.01-.002.018-.003.068-.005l.454-.006.007.467c.004.176.006.61.015.482.007.221-.018-.03-.011.135m.013 1.062-.007-.069c.006.387-.005.833-.005 1.279 0 .113.014-.017.01.13-.003.12-.016.25-.019.186 0-.016.008-.257.007-.378-.002-.357-.014-.267-.015-.288 0-.023.008-.248.008-.37-.001-.309-.008-.45.001-.871.008.243.025.11.02.38m-2.383 5.95c-.008-.014 0-.267-.002-.359.008.014 0 .268.002.36M12.94 5.386c-.037.051.22-.2.266-.252l.32.773q-.021 0 0 .003l-.322-.778-.012.01c-.025.022-.2.193-.252.244m-1.664.523c-.078.004.236.013.235.003 0-.003-.225-.003-.235-.003m5.189 4.77-.003.236c-.013.142-.006-.564.003-.236m-8.37-4.755c.271-.008-.546-.011-.296 0zm-1.137.003c.066 0 .355.003.358 0a3 3 0 0 0-.358 0m8.122 9.68c.031.013-.35.002-.483.004-.031-.014.35-.003.483-.005m1.4-1.958c.01 1.607-.02 1.253-.008-.096.01-.002.007-.005.007.096m-1.052 1.966c.059-.01.241-.006.364-.006-.022.006-.275.004-.364.006m-2.991-9.751c.063-.08.388-.386.335-.326a9 9 0 0 1-.335.326m4.04 4.95c.013-.038.008.445.005.482-.012.149-.002-.444-.005-.482m-2.412 2.574c-.01-.085-.005-.327-.005-.483.009.071.005.351.005.483m-.008 1.124v-.237c.011-.178.008.437 0 .237m-9.717-.57.126-.125c.111-.096-.24.251-.126.125"/></svg>