<svg xmlns="http://www.w3.org/2000/svg" width="15" height="14" fill="none"><path fill="#000" fill-opacity=".85" d="M7.083.203a.2.2 0 0 1 .38 0l1.562 4.804a.2.2 0 0 0 .19.139h5.051a.2.2 0 0 1 .118.361l-4.087 2.97a.2.2 0 0 0-.072.223l1.56 4.804a.2.2 0 0 1-.307.224l-4.087-2.97a.2.2 0 0 0-.235 0l-4.087 2.97a.2.2 0 0 1-.308-.224L4.322 8.7a.2.2 0 0 0-.072-.223L.163 5.507a.2.2 0 0 1 .118-.361h5.051a.2.2 0 0 0 .19-.139z"/><path fill="#000" fill-opacity=".85" d="M8.094.542c.107.285.217.669.292.963.024.092-.016.055-.001.119.03.125.079.234.106.359.01.04-.047.004-.036.047.057.235.137.45.204.684.211.74.43 1.467.654 2.2a.1.1 0 0 0-.098-.067l1.062.016c.402.007.89.045 1.305.028.049-.002.02-.039.029-.042.145-.046.096.028.191.038a8 8 0 0 0 1.152.028c.153-.006 0-.08.154-.038.01.003-.028.042.014.046.095.01.277.002.35.005.143.007.167.006.301.007.152 0 .326.014.493.013.069 0 .143.018.206.054.073.05.003-.061.12.035a.44.44 0 0 1 .126.312.43.43 0 0 1-.133.304c-.034.03-.055.036-.068.038-.016-.004-.018-.022-.026-.021-.107.002-.224.191-.244.208-.37.314-.734.518-1.102.785-.278.203-.567.433-.834.624-.317.227-.598.404-.903.63-.032.024.034.035-.006.064q-.476.355-.966.686c.01-.012.009-.028.001-.036l.03.113c.013.05-.047 0-.037.05.066.313.144.816.373.94.06.206.134.457.159.651.016.125-.064.025.001.164.015.031.039-.024.058.024.08.202.142.432.227.63.018.04.048.018.058.027.081.083.053.274.06.312.044.287.126.482.208.736.019.06.041-.025.061.031.102.293.198.6.271.895.017.066-.041.02-.035.051.018.1.064.132.1.19a.3.3 0 0 1 .018.193c-.016.057-.043.015-.049.024-.092.117-.141.229-.184.253a.36.36 0 0 1-.386-.039c-.121-.108-.209-.224-.363-.324-.026-.017.005.06-.066.01-.475-.33-.963-.7-1.405-1.065-.07-.056.001-.046 0-.052-.037-.105-.135-.071-.16-.085-.2-.116-.33-.3-.516-.31-.513-.401-1.048-.768-1.565-1.16a.04.04 0 0 0-.048-.005q-.288.196-.589.374c-.01.006-.017-.04-.038-.027-.251.153-.167.173-.278.351-.028.045-.205.055-.22.057-.054.007-.05-.072-.066-.067-.13.046.008.2-.137.306-.005.003-.008-.042-.022-.036-.045.018-.074.057-.119.074-.102.037-.191-.022-.286.119-.012.018.081.094-.052.184-.053.036-.28.204-.349.244s-.046-.022-.052-.02c-.202.085-.148.02-.278.024-.13.003-.003.128-.026.17-.024.04-.175.1-.214.11-.04.011-.015-.036-.048-.023-.214.09-.029.129-.073.195-.103.157-.29.132-.428.217-.038.022.009.025-.021.05-.118.1-.217.12-.336.254-.02.021-.088.168-.196.175-.015.001-.005-.047-.062-.014a2 2 0 0 0-.255.17.3.3 0 0 1-.08.045c-.102.024.028.073-.12.05-.06-.021.052-.023-.046-.065-.078-.025-.191-.194-.138-.312l.02-.063c.024-.076-.028-.047-.029-.054a1.3 1.3 0 0 1 .03-.204c.203-.643.46-1.213.642-1.844.014-.05-.037-.03-.036-.038.038-.173.103-.006.177-.112-.088-.01-.05-.074-.021-.195.014-.058-.028-.037-.03-.044-.02-.1.061-.138.079-.15.065-.04.03-.119.073-.147.044-.028.062.075.098-.038-.02-.042-.124.017-.108-.073.058-.34.315-.926.406-1.185.091-.258.113-.344.173-.493.037-.09.05-.14.054-.175-.005-.04-.037-.046-.068-.067q-.012-.005-.013-.015c-.052-.063.054-.115.053-.149-.002-.04-.044-.03-.06-.063-.014-.033.053-.01-.002-.059-.056-.049-.253-.122-.294-.11-.086.024-.056.138-.199.002-.008-.008.044-.018.012-.047-.26-.225-.546-.435-.806-.658-.036-.03.023-.04.003-.059-.214-.19-.175-.07-.349-.097.092-.066.06-.17-.114-.298-.105-.077-.114-.025-.202-.048C2.181 7 2.126 6.92 2.1 6.928c-.087.027-.064.143-.226-.014-.007-.007.042-.02.016-.043-.167-.14-.233-.095-.43-.226-.153-.103-.392-.334-.558-.464.074-.095-.103-.19-.217-.17-.109-.083-.231-.165-.331-.252-.035-.03.01-.041.008-.048-.036-.1-.132-.069-.158-.083l-.088-.055C-.118 5.42.04 5.052.281 5.07a1.6 1.6 0 0 0 .278-.028c.011-.002.029-.086.11-.025.006.004-.095.043.048.046s.415.048.614.009c.048-.01.17-.078.268-.024.013.007-.001.03.018.044.06.043.094-.042.165.03s.22.127.422.077c.006-.001.054-.069.117-.068.101.002.244.016.35.016.05 0 .018-.043.027-.043.339-.024.58.013.944.03.066.003.258-.054.387-.01.142.05-.004.256.322.207.13-.02.297-.28.533-.145.152-.012.3-.011.448-.008a.24.24 0 0 0 .229-.158c.07-.198.14-.398.186-.613.004-.02-.045-.105-.03-.15.025-.069.07-.096.087-.144.077-.202.11-.398.178-.595.026-.074.051-.037.082-.126s.006-.163.067-.277c.046-.086.166-.148.216-.266-.088-.034-.059-.117-.034-.273.005-.03-.036-.01-.035-.024.001-.06.044-.102.043-.16 0-.014-.03-.025-.032-.037-.016-.102.1-.225.12-.246.076-.081.05-.139.092-.206.042-.068.029.049.067-.033.08-.17.15-.4.209-.579.024-.071-.033-.036-.03-.046.038-.152.13-.288.076-.397.242-.035.008-.096.12-.294.008-.016.114-.005.107.064-.006.069-.069.156-.075.252-.002.023.052.174.052.192.002.144-.152.114-.162.118-.113.05-.06.23-.067.27-.026.188-.096.333-.121.489-.018.102.076.143.048.218-.092.25-.256.296-.217.573.009.06.13.043-.012.2-.009.01-.13.121-.107.216.003.011.034.021.032.035-.011.093-.055.143-.074.243-.02.099-.04.22-.085.325-.027.063-.112.129-.136.156-.07.075-.034.192-.101.23-.067.04-.107-.092-.186.043.078.031.156.07.234.105-.091.273-.199.536-.29.809a.48.48 0 0 1-.202.256c-.088.048.028.044-.078.09a.5.5 0 0 1-.171.03c-.161-.001-.31-.025-.481-.014-.152.01-.317.058-.475.07-.097-.096-.332-.063-.502-.072-.06-.003-.056-.029-.098-.037-.16-.031-.085.054-.13.067-.188.057-.204-.135-.426-.13-.012 0-.155.102-.175.109-.126.041-.021-.036-.1-.043-.144-.014-.244-.039-.412-.009-.05.01-.168.073-.263.024-.013-.007-.006-.04-.016-.043-.183-.033-.188.074-.293.11s-.266-.038-.299-.059c-.086-.055.066-.023.07-.029.056-.064-.062-.053-.153-.058-.013-.105-.139-.098-.093-.005.005.01.075 0 .093.005-.079.102-.217.115-.37.02-.072-.045-.004-.097-.221-.078-.1.008-.061.08-.148.1-.167.037-.376-.004-.56-.012l.02-.006c.018-.008.024.037.043.026.046-.03.013-.1-.015-.122l.036.022c.01.006.01-.045.045-.02.261.184.471.369.74.565.131.095.378.247.51.348.23.177.483.435.692.568.136.088.131.034.204.051.14.035.273.253.29.283 0 .001-.117-.072-.07-.012.01.061.069.012.07.012.011.02.23.191.28.217.026.014.036-.027.05-.02q.48.283.92.637c.005.004-.03.034-.017.044.132.115.25.163.377.218a.54.54 0 0 1 .234.624.45.45 0 0 1-.153.245 2 2 0 0 1-.178.406c-.054.1.022.142.02.151-.043.309-.144.463-.25.763a10 10 0 0 0-.173.591c-.033.126-.076.194-.101.312-.003.015.038.012.037.017.002.14-.066.05-.09.072-.088.076-.138.125-.163.296-.006.04.085.19.07.26-.02.092-.054.044-.073.14-.002.009.027.016.007.073-.092.264-.202.55-.29.827-.011.037.049.003.032.058-.06.2-.13.412-.204.61a.24.24 0 0 0-.043-.206c-.049-.05-.045.007-.06.003-.068-.003-.168-.077-.202-.062a.2.2 0 0 0-.047.02c.35-.292.68-.446 1.041-.751.02-.018.133-.213.253-.203.008 0 .128.013.16-.079.003-.006-.067-.006.015-.06.082-.055.194-.17.33-.213.043-.014.172-.008.238-.135.004-.009.08-.242.195-.202.019.006.07.099.162-.035.018-.025-.039-.013.015-.07.082-.088.224-.157.314-.28.015-.021.06-.142.162-.149.016 0 .015.043.055.02.186-.113.355-.265.547-.374.068-.039.07.03.144-.005a.9.9 0 0 0 .268-.19c.054-.071-.074-.09.024-.17q.068-.056.137-.11a.66.66 0 0 1 .774-.002c.329.243.64.507.968.753.066.049.03-.018.128.053.361.26 1 .686 1.272.969.217.226-.122.031.056.188.086.076.248.063.272.077.237.13.36.278.565.409.042.027.028-.037.063-.013.122.08.235.184.349.263.051.035.061.002.106.038.106.084.195.165.284.266l-.006-.002q-.004 0-.001.011c-.014.002-.034.005-.018.025q-.008-.002-.027-.011c-.133-.06-.261.073-.229.203a1 1 0 0 0-.038-.084c-.026-.05-.098-.03-.086-.16.002-.027.098-.024-.02-.134-.019-.018-.191-.21-.163-.341.008-.034.053-.131.022-.192-.005-.008-.032.04-.053-.013-.073-.183-.133-.38-.207-.569-.02-.05-.035.04-.063-.036a7 7 0 0 1-.209-.683c-.02-.078.03-.036.032-.043.029-.107-.066-.134-.08-.162-.087-.175-.096-.326-.16-.492-.018-.046-.045 0-.051-.009-.064-.085.026-.036.014-.099a4 4 0 0 0-.16-.538c-.023-.062-.043.023-.062-.034a12 12 0 0 1-.31-1.022c-.015-.063.03-.035.034-.05a.2.2 0 0 0-.029-.135.67.67 0 0 1-.04-.377.57.57 0 0 1 .22-.328c.054-.039.103-.06.167-.111.483-.387 1.113-.819 1.592-1.152.625-.434 1.122-.754 1.704-1.187.037-.027-.028-.038.004-.062q.309-.232.622-.455c-.185.129-.083.446.143.441q-.128.001-.257.005c-.042 0 .018.045-.05.048a3 3 0 0 1-.454-.01c-.069-.007.023-.044-.046-.05a4 4 0 0 0-.498-.01c-.07.002.036.047-.055.048-.621.004-1.231.012-1.86-.046-.042-.004-.08-.096-.171-.078-.007.025-.007.055-.01.082-.552.01-1.1 0-1.65-.008a.63.63 0 0 1-.59-.433 76 76 0 0 0-.24-.768c-.011-.037-.037.041-.06-.03-.132-.407-.273-.799-.362-1.23-.01-.043.079-.048.027-.166-.01-.02-.08-.2-.113-.243-.005-.005-.032.04-.052-.018a13 13 0 0 1-.314-1.056c-.014-.056.045-.01.035-.05-.069-.288-.199-.582-.249-.861-.033-.187.058-.144.096-.261.005-.017-.03-.128.009-.147.096-.047.223-.03.323-.086.022-.012-.052-.153.033-.083.006.005.059.107.087.127.019.014.048-.032.077 0 .03.032.009.085.049.14.04.057.077.014.123.137m-3.979 9.38c-.07.085.067.146.068.029a.2.2 0 0 0-.068-.03m1.617-5.054c-.104.109-.04.227.037.152.078-.075-.005-.185-.037-.152m.388-1.35c-.098.135.096.224.108.05 0-.01-.102-.058-.108-.05M7.556.888 7.53.806c-.06-.028-.011.133.025.084M6.5 2.178c-.042.038-.055.183-.002.136.043-.038.055-.184.002-.136M3.925 13.08c.003.001.053-.033.044-.042-.027-.03-.088.028-.044.042M7.317.125c-.094-.032-.191.015-.24.076-.065.071-.114.073-.095-.03A.26.26 0 0 1 7.097.01c.07-.061-.104.19-.012.109a.36.36 0 0 1 .23-.111c.085-.008.2.059.205.173 0 .02-.042-.028-.095-.046-.054-.021-.102-.008-.109-.01m-3.39 9.798-.03.082c.032.057.087-.1.03-.082m2.887 1.172c.006.001.165-.11.168-.116.035-.122-.285.1-.168.116M.9 6.177c-.102-.015-.193-.074-.216-.165z"/></svg>