<svg width="0" height="0" class="hidden">
  <symbol xmlns="http://www.w3.org/2000/svg" viewBox="0 0 20 17" fill="none" id="telegram">
    <path
      d="M20 0.5V1.81148H19.3805V3.16667H19.115V4.60929H18.4956V6.22678H17.8319V8.28142H17.2124V10.3361H16.5929V11.3415H16.3274V12.7404H15.9292V14.1393H15.4867V15.5383H14.9558V16.5H13.8496V16.0628H13.3628V15.4071H12.6549V14.8825H12.0354V14.1393H11.1504V13.571H10.4867V12.7404H9.77876V12.1721H8.84956V11.3415H8.27434L6.90265 9.98634V9.5929H7.56637V8.98087H8.53982V8.28142H9.60177V7.58197H10.6637V6.92623H11.5929V6.22678H12.8761V5.48361H13.8496V4.82787H14.7345V4.21585H15.7522V3.42896H16.8142V2.72951H15.7522V3.16667H14.5133V3.8224H13.3628V4.34699H12.3451V4.60929H11.7699V5.1776H10.2655V5.65847H9.42478V6.0082H8.40708V6.53279H7.25664V7.05738H6.0177V7.75683H4.77876V8.98087H3.93805V8.28142H2.34513V7.58197H1.28319V7.36339H0.530973V6.92623H0V6.0082H1.28319V5.48361H2.61062V5.00273H4.0708V4.60929H5.35398V4.21585H6.46018V3.8224H8.00885V3.42896H8.84956V3.16667H10.2655V2.90437H11.3274V2.46721H12.8761V1.98634H14.5133V1.54918H16.3274V1.06831H18.0089V0.5H20Z"
      fill="#25dff9"
    />
  </symbol>
  
  <symbol fill="none" xmlns="http://www.w3.org/2000/svg" viewBox="0 0 16 17" id="close">
    <path d="M8.92473 8.03237L13.6122 2.44487C13.6908 2.35201 13.6247 2.21094 13.5033 2.21094H12.0783C11.9944 2.21094 11.914 2.24844 11.8587 2.31272L7.99258 6.92165L4.12651 2.31272C4.07294 2.24844 3.99258 2.21094 3.90687 2.21094H2.48187C2.36044 2.21094 2.29437 2.35201 2.37294 2.44487L7.06044 8.03237L2.37294 13.6199C2.35534 13.6406 2.34405 13.6659 2.3404 13.6928C2.33676 13.7197 2.34092 13.7471 2.35239 13.7718C2.36386 13.7964 2.38216 13.8172 2.40511 13.8318C2.42806 13.8463 2.4547 13.8539 2.48187 13.8538H3.90687C3.9908 13.8538 4.07115 13.8163 4.12651 13.752L7.99258 9.14308L11.8587 13.752C11.9122 13.8163 11.9926 13.8538 12.0783 13.8538H13.5033C13.6247 13.8538 13.6908 13.7127 13.6122 13.6199L8.92473 8.03237Z" fill="#494949" fill-opacity="0.45"></path>
  </symbol>

  <symbol fill="none" xmlns="http://www.w3.org/2000/svg" viewBox="0 0 45 44" id="info">
    <rect x="0.5" width="44" height="44" rx="22" fill="#FF9900"></rect>
    <path d="M21.25 12H23.75V24.3333C23.75 24.8856 23.3023 25.3333 22.75 25.3333H22.25C21.6977 25.3333 21.25 24.8856 21.25 24.3333V12Z" fill="white"></path>
    <circle cx="22.5013" cy="29.9154" r="2.08333" fill="white"></circle>
  </symbol>
 
  <symbol fill="none" xmlns="http://www.w3.org/2000/svg" viewBox="0 0 16 17" id="settings">
    <path d="M13.5666 6.44862L13.3225 6.3128C13.2846 6.29171 13.2659 6.28113 13.2476 6.27016C13.0656 6.1611 12.9121 6.01042 12.8001 5.83015C12.7889 5.81201 12.7782 5.79299 12.7565 5.7554C12.7348 5.71785 12.7238 5.69882 12.7138 5.67999C12.6133 5.49244 12.559 5.28344 12.5557 5.07071C12.5554 5.04932 12.5555 5.02747 12.5562 4.98403L12.561 4.70052C12.5686 4.24684 12.5724 4.01929 12.5087 3.81508C12.4521 3.63369 12.3573 3.46662 12.2308 3.32483C12.0878 3.16457 11.8898 3.05023 11.4935 2.82184L11.1643 2.63214C10.7691 2.40439 10.5714 2.29047 10.3615 2.24705C10.1759 2.20863 9.98435 2.21041 9.79939 2.25193C9.59063 2.29879 9.39543 2.41567 9.00524 2.64931L9.00303 2.65037L8.76715 2.79161C8.72985 2.81394 8.71097 2.8252 8.69228 2.83559C8.50676 2.93874 8.29965 2.99577 8.0875 3.00258C8.06611 3.00327 8.04436 3.00327 8.00087 3.00327C7.95765 3.00327 7.93497 3.00327 7.91363 3.00258C7.70102 2.99574 7.49348 2.9384 7.30767 2.83482C7.28895 2.82439 7.27042 2.81304 7.23305 2.7906L6.99566 2.64809C6.60282 2.41224 6.4061 2.29414 6.19618 2.24705C6.01047 2.20538 5.81825 2.20422 5.63194 2.24314C5.42157 2.28708 5.22384 2.40184 4.82839 2.63135L4.82663 2.63214L4.50152 2.82083L4.49792 2.82303C4.10603 3.05048 3.90961 3.16448 3.7678 3.32409C3.64196 3.46573 3.5479 3.63254 3.4916 3.81345C3.42796 4.01794 3.43135 4.24597 3.43902 4.7018L3.44379 4.9849C3.44451 5.02778 3.44576 5.04908 3.44544 5.07016C3.44229 5.28333 3.38724 5.49276 3.2865 5.68064C3.27653 5.69922 3.2658 5.7178 3.24436 5.75492C3.22291 5.79206 3.21252 5.81053 3.20139 5.82845C3.08891 6.00968 2.93476 6.16124 2.75155 6.27048C2.73343 6.28129 2.71433 6.29168 2.67681 6.31247L2.43577 6.44605C2.03472 6.6683 1.83425 6.77952 1.68837 6.9378C1.55932 7.07781 1.46183 7.2439 1.40233 7.42478C1.33506 7.62925 1.33512 7.85852 1.33616 8.31703L1.33701 8.69178C1.33804 9.14723 1.33946 9.3748 1.40688 9.57788C1.46652 9.75755 1.5633 9.92265 1.69163 10.0618C1.83668 10.2191 2.03516 10.3297 2.43316 10.5511L2.67206 10.684C2.71271 10.7066 2.73317 10.7178 2.75278 10.7296C2.93432 10.8389 3.08726 10.99 3.19879 11.1702C3.21084 11.1897 3.2224 11.2099 3.24553 11.2503C3.26837 11.2902 3.28006 11.3102 3.29062 11.3302C3.38841 11.5153 3.44076 11.721 3.44433 11.9303C3.44471 11.9529 3.44438 11.9758 3.44361 12.0218L3.43902 12.2935C3.4313 12.7509 3.42794 12.9798 3.49195 13.1849C3.54858 13.3663 3.64323 13.5333 3.76975 13.6751C3.91277 13.8354 4.11103 13.9496 4.50738 14.178L4.83652 14.3677C5.23175 14.5955 5.4293 14.7092 5.63913 14.7527C5.82476 14.7911 6.01643 14.7896 6.20139 14.7481C6.41044 14.7011 6.60632 14.5838 6.99762 14.3495L7.2335 14.2083C7.27082 14.186 7.28971 14.1748 7.30841 14.1644C7.49393 14.0612 7.70082 14.0039 7.91298 13.9971C7.93436 13.9964 7.95611 13.9964 7.9996 13.9964C8.04319 13.9964 8.06492 13.9964 8.08635 13.9971C8.29896 14.0039 8.50712 14.0614 8.69293 14.165C8.70928 14.1741 8.72566 14.184 8.75442 14.2012L9.00518 14.3518C9.39809 14.5877 9.59438 14.7054 9.80431 14.7525C9.99003 14.7942 10.1824 14.7959 10.3687 14.757C10.579 14.713 10.7771 14.5981 11.1724 14.3687L11.5024 14.1771C11.8945 13.9495 12.0912 13.8354 12.233 13.6758C12.3589 13.5341 12.453 13.3674 12.5093 13.1865C12.5725 12.9835 12.5687 12.7572 12.5611 12.3079L12.5562 12.0149C12.5555 11.9721 12.5554 11.9507 12.5557 11.9297C12.5589 11.7165 12.613 11.5069 12.7138 11.319C12.7237 11.3005 12.7345 11.2818 12.7559 11.2448C12.7773 11.2076 12.7885 11.1891 12.7996 11.1712C12.9121 10.99 13.0664 10.8383 13.2496 10.729C13.2675 10.7184 13.2859 10.7081 13.3225 10.6878L13.3238 10.6873L13.5648 10.5537C13.9659 10.3314 14.1667 10.2201 14.3126 10.0618C14.4417 9.9218 14.539 9.75595 14.5985 9.57507C14.6654 9.37181 14.6649 9.14386 14.6639 8.69071L14.663 8.30792C14.6619 7.85247 14.6614 7.62493 14.594 7.42185C14.5343 7.24218 14.437 7.07707 14.3087 6.9379C14.1638 6.78074 13.965 6.67017 13.5678 6.44919L13.5666 6.44862Z" stroke="#AF6A34" stroke-linecap="round" stroke-linejoin="round"></path>
    <path d="M5.33355 8.49997C5.33355 9.97273 6.52746 11.1666 8.00022 11.1666C9.47298 11.1666 10.6669 9.97273 10.6669 8.49997C10.6669 7.02721 9.47298 5.83331 8.00022 5.83331C6.52746 5.83331 5.33355 7.02721 5.33355 8.49997Z" stroke="#AF6A34" stroke-linecap="round" stroke-linejoin="round"></path>
  </symbol>

  <symbol fill="none" xmlns="http://www.w3.org/2000/svg" viewBox="0 0 18 18" id="book">
    <g clip-path="url(#clip0_2911_7827)">
      <path d="M7.4925 6.61416C7.3575 7.1914 6.66 6.86815 6.9525 6.93742L2.52 5.78294C2.2725 5.71367 2.1375 5.45969 2.205 5.2288C2.2725 4.97481 2.52 4.83628 2.745 4.90554L7.1775 6.08311C7.4025 6.12928 7.5375 6.38327 7.4925 6.61416ZM7.155 9.154L2.7225 7.97644C2.475 7.90717 2.2275 8.0688 2.1825 8.29969C2.115 8.55368 2.2725 8.80766 2.4975 8.85384L6.93 10.0314C6.6375 9.96213 7.335 10.2392 7.47 9.70815C7.5375 9.47725 7.4025 9.22327 7.155 9.154ZM5.8275 11.8555L2.7225 11.0242C2.475 10.955 2.2275 11.1166 2.1825 11.3475C2.115 11.6015 2.2725 11.8555 2.4975 11.9016L5.6025 12.7329C5.31 12.6636 6.0075 12.9407 6.1425 12.4096C6.21 12.1787 6.075 11.9247 5.8275 11.8555ZM18 1.85774V13.9797C18 14.1875 17.865 14.3722 17.6625 14.4184L9.1125 16.6119C9.045 16.635 8.955 16.635 8.8875 16.6119L0.3375 14.4184C0.135 14.3722 0 14.1875 0 13.9797V1.85774C0 1.55758 0.27 1.32668 0.5625 1.41904L9 3.58945L17.4375 1.41904C17.73 1.32668 18 1.55758 18 1.85774ZM8.55 4.42067L0.9 2.45806V13.6103L8.55 15.5729V4.42067ZM17.1 2.45806L9.45 4.42067V15.5729L17.1 13.6103V2.45806ZM15.795 5.2288C15.7275 4.97481 15.48 4.83628 15.255 4.90554L10.8225 6.08311C10.575 6.15237 10.44 6.40636 10.5075 6.63725C10.6425 7.21449 11.34 6.89124 11.0475 6.9605L15.48 5.78294C15.7275 5.71367 15.8625 5.45969 15.795 5.2288ZM15.795 8.32278C15.7275 8.0688 15.48 7.93026 15.255 7.99953L10.8225 9.17709C10.575 9.24636 10.44 9.50034 10.5075 9.73124C10.6425 10.2854 11.34 9.98522 11.0475 10.0545L15.48 8.87693C15.7275 8.80766 15.8625 8.55368 15.795 8.32278ZM14.4675 11.7169C14.4 11.4629 14.1525 11.3244 13.9275 11.3937L10.8225 12.2249C10.575 12.2942 10.44 12.5482 10.5075 12.779C10.6425 13.3563 11.34 13.033 11.0475 13.1023L14.1525 12.2942C14.4 12.2249 14.535 11.9709 14.4675 11.7169Z" fill="currentColor"></path>
      <path d="M295.92 -167.388V135.732H-25.1996V-167.388H295.92ZM297.36 -168.828H-26.6396V137.172H297.36V-168.828Z" fill="#0000FF"></path>
    </g>
    <defs>
      <clipPath id="clip0_2911_7827">
        <rect width="18" height="18" fill="white" transform="translate(0 0.0078125)"></rect>
      </clipPath>
    </defs>
  </symbol>

  <symbol fill="none" xmlns="http://www.w3.org/2000/svg" viewBox="0 0 13 13" id="video">
    <g clip-path="url(#clip0_3183_9784)">
      <path d="M12.4696 2.06667L9.57886 3.88333V3.33333C9.57886 2.6 8.96308 2 8.21045 2H1.36841C0.615784 2 0 2.6 0 3.33333V8.66667C0 9.4 0.615784 10 1.36841 10H8.21045C8.96308 10 9.57886 9.4 9.57886 8.66667V8.11667L12.4696 9.93333C12.7946 10.1 12.9999 9.81667 12.9999 9.65V2.33333C12.9999 2.16667 12.8117 1.86667 12.4696 2.06667ZM8.89466 8.66667C8.89466 9.03333 8.58677 9.33333 8.21045 9.33333H1.36841C0.992096 9.33333 0.684204 9.03333 0.684204 8.66667V3.33333C0.684204 2.96667 0.992096 2.66667 1.36841 2.66667H8.21045C8.58677 2.66667 8.89466 2.96667 8.89466 3.33333V8.66667ZM12.3157 9.05L9.57886 7.33333V4.66667L12.3157 2.95V9.05Z" fill="currentColor"></path>
      <path d="M159.12 -84.4991V134.421H-72.7998V-84.4991H159.12ZM160.16 -85.5391H-73.8398V135.461H160.16V-85.5391Z" fill="#0000FF"></path>
    </g>
    <defs>
      <clipPath id="clip0_3183_9784">
        <rect width="13" height="13" fill="white"></rect>
      </clipPath>
    </defs>
  </symbol>

  <symbol fill="none" xmlns="http://www.w3.org/2000/svg" viewBox="0 0 13 13" id="audio">
    <path d="M11.6333 1H4.3C4.20275 1 4.10949 1.03863 4.04073 1.10739C3.97196 1.17616 3.93333 1.26942 3.93333 1.36667V8.33333H2.83333C2.47074 8.33333 2.11628 8.44086 1.81479 8.6423C1.5133 8.84375 1.27832 9.13008 1.13956 9.46508C1.00079 9.80008 0.964488 10.1687 1.03523 10.5243C1.10597 10.88 1.28058 11.2066 1.53697 11.463C1.79337 11.7194 2.12004 11.894 2.47567 11.9648C2.8313 12.0355 3.19992 11.9992 3.53492 11.8604C3.86992 11.7217 4.15625 11.4867 4.35769 11.1852C4.55914 10.8837 4.66667 10.5293 4.66667 10.1667V8.7C4.66453 8.66878 4.65837 8.63797 4.64833 8.60833C4.65837 8.5787 4.66453 8.54788 4.66667 8.51667V4.11667H11.2667V8.33333H10.1667C9.80407 8.33333 9.44961 8.44086 9.14812 8.6423C8.84663 8.84375 8.61165 9.13008 8.47289 9.46508C8.33413 9.80008 8.29782 10.1687 8.36856 10.5243C8.4393 10.88 8.61391 11.2066 8.8703 11.463C9.1267 11.7194 9.45337 11.894 9.809 11.9648C10.1646 12.0355 10.5333 11.9992 10.8683 11.8604C11.2033 11.7217 11.4896 11.4867 11.691 11.1852C11.8925 10.8837 12 10.5293 12 10.1667V8.7C11.9979 8.66878 11.9917 8.63797 11.9817 8.60833C11.9917 8.5787 11.9979 8.54788 12 8.51667V1.36667C12 1.26942 11.9614 1.17616 11.8926 1.10739C11.8238 1.03863 11.7306 1 11.6333 1ZM3.93333 10.1667C3.93333 10.3842 3.86882 10.5969 3.74795 10.7778C3.62708 10.9587 3.45528 11.0997 3.25429 11.1829C3.05329 11.2662 2.83211 11.288 2.61873 11.2455C2.40536 11.2031 2.20935 11.0983 2.05552 10.9445C1.90168 10.7906 1.79691 10.5946 1.75447 10.3813C1.71203 10.1679 1.73381 9.94671 1.81707 9.74571C1.90032 9.54472 2.04131 9.37292 2.22221 9.25205C2.4031 9.13118 2.61577 9.06667 2.83333 9.06667H3.93333V10.1667ZM4.66667 3.38333V1.73333H11.2667V3.38333H4.66667ZM11.2667 10.1667C11.2667 10.3842 11.2022 10.5969 11.0813 10.7778C10.9604 10.9587 10.7886 11.0997 10.5876 11.1829C10.3866 11.2662 10.1654 11.288 9.95207 11.2455C9.73869 11.2031 9.54269 11.0983 9.38885 10.9445C9.23501 10.7906 9.13025 10.5946 9.0878 10.3813C9.04536 10.1679 9.06714 9.94671 9.1504 9.74571C9.23366 9.54472 9.37465 9.37292 9.55554 9.25205C9.73643 9.13118 9.94911 9.06667 10.1667 9.06667H11.2667V10.1667Z" fill="currentColor"></path>
  </symbol>

  <symbol fill="none" xmlns="http://www.w3.org/2000/svg" viewBox="0 0 23 12" id="logo">
    <path d="M13.5481 11.9979H14.8614C14.8626 7.53158 18.5091 3.91743 22.9994 3.91743L23 0.00174906C17.7379 0.00174883 13.2607 3.34021 11.6014 8H11.4039C9.74522 3.33945 5.26609 0 0.000804486 0L0 3.91569C4.4943 3.91569 8.14068 7.52974 8.1426 11.9911H8.70857V12H13.5481V11.9979Z" fill="#65350F"></path>
  </symbol>

  <symbol fill="none" xmlns="http://www.w3.org/2000/svg" viewBox="0 0 2 22" id="vertical-line">
    <path d="M1 1V21" stroke="black" stroke-opacity="0.85" stroke-width="0.5" stroke-linecap="round"></path>
  </symbol>

  <symbol fill="none" xmlns="http://www.w3.org/2000/svg" viewBox="0 0 134 27" id="header">
    <path d="M3.0291 0.143816V20.5H2.31346V0.143816H3.0291ZM12.253 6.16055L5.10978 12.7737L2.89658 14.6688L2.63152 14.1519L4.7122 12.1905L11.2325 6.16055H12.253ZM11.7361 20.5L4.88449 12.4423L5.34833 11.8857L12.6638 20.5H11.7361ZM20.0589 20.7651C19.1842 20.7651 18.3669 20.5928 17.6071 20.2482C16.8473 19.8948 16.1802 19.4 15.6059 18.7639C15.0317 18.1278 14.5811 17.3768 14.2542 16.5109C13.9361 15.6363 13.7771 14.6776 13.7771 13.6351V13.052C13.7771 12.0006 13.9317 11.042 14.2409 10.1761C14.559 9.30145 14.9919 8.54604 15.5397 7.90991C16.0963 7.26495 16.7368 6.77018 17.4613 6.42561C18.1858 6.0722 18.9633 5.8955 19.7938 5.8955C20.589 5.8955 21.3179 6.0457 21.9805 6.34609C22.6431 6.63765 23.2174 7.0529 23.7034 7.59185C24.1981 8.13079 24.578 8.77576 24.8431 9.52674C25.1081 10.2777 25.2407 11.1082 25.2407 12.0183V12.8532H14.2409V12.1375H24.525V11.9652C24.525 11.0022 24.3306 10.1187 23.9419 9.3147C23.5532 8.50187 23.0054 7.84807 22.2986 7.3533C21.5918 6.85853 20.7568 6.61115 19.7938 6.61115C18.9986 6.61115 18.2742 6.77901 17.6204 7.11475C16.9754 7.45048 16.4188 7.91433 15.9505 8.50628C15.4822 9.0894 15.12 9.76971 14.8638 10.5472C14.6164 11.3247 14.4927 12.1596 14.4927 13.052V13.6351C14.4927 14.5274 14.6341 15.3624 14.9168 16.1399C15.1995 16.9173 15.5927 17.6021 16.0963 18.194C16.5999 18.7771 17.1874 19.2366 17.8589 19.5723C18.5392 19.8992 19.2725 20.0627 20.0589 20.0627C20.8805 20.0627 21.6448 19.9257 22.3516 19.6518C23.0672 19.3779 23.721 18.8567 24.313 18.088L24.8166 18.4458C24.4985 18.8964 24.1142 19.2984 23.6636 19.6518C23.2218 19.9964 22.7006 20.2703 22.0998 20.4735C21.5078 20.6679 20.8275 20.7651 20.0589 20.7651ZM33.7357 20.7651C32.861 20.7651 32.0437 20.5928 31.2839 20.2482C30.5241 19.8948 29.857 19.4 29.2828 18.7639C28.7085 18.1278 28.2579 17.3768 27.931 16.5109C27.6129 15.6363 27.4539 14.6776 27.4539 13.6351V13.052C27.4539 12.0006 27.6085 11.042 27.9177 10.1761C28.2358 9.30145 28.6687 8.54604 29.2165 7.90991C29.7731 7.26495 30.4137 6.77018 31.1381 6.42561C31.8626 6.0722 32.6401 5.8955 33.4706 5.8955C34.2658 5.8955 34.9947 6.0457 35.6573 6.34609C36.3199 6.63765 36.8942 7.0529 37.3802 7.59185C37.8749 8.13079 38.2548 8.77576 38.5199 9.52674C38.785 10.2777 38.9175 11.1082 38.9175 12.0183V12.8532H27.9177V12.1375H38.2018V11.9652C38.2018 11.0022 38.0075 10.1187 37.6187 9.3147C37.23 8.50187 36.6822 7.84807 35.9754 7.3533C35.2686 6.85853 34.4336 6.61115 33.4706 6.61115C32.6754 6.61115 31.951 6.77901 31.2972 7.11475C30.6522 7.45048 30.0956 7.91433 29.6273 8.50628C29.1591 9.0894 28.7968 9.76971 28.5406 10.5472C28.2932 11.3247 28.1695 12.1596 28.1695 13.052V13.6351C28.1695 14.5274 28.3109 15.3624 28.5936 16.1399C28.8763 16.9173 29.2695 17.6021 29.7731 18.194C30.2767 18.7771 30.8642 19.2366 31.5357 19.5723C32.216 19.8992 32.9493 20.0627 33.7357 20.0627C34.5573 20.0627 35.3216 19.9257 36.0284 19.6518C36.744 19.3779 37.3978 18.8567 37.9898 18.088L38.4934 18.4458C38.1753 18.8964 37.791 19.2984 37.3404 19.6518C36.8986 19.9964 36.3774 20.2703 35.7766 20.4735C35.1846 20.6679 34.5043 20.7651 33.7357 20.7651ZM42.9463 8.91712V26.0131H42.2307V6.16055H42.9463V8.91712ZM53.2172 13.1845V13.4628C53.2172 14.5584 53.0935 15.5523 52.8461 16.4447C52.6075 17.337 52.2586 18.1057 51.7991 18.7506C51.3397 19.3956 50.7743 19.8948 50.1028 20.2482C49.4401 20.5928 48.6847 20.7651 47.8366 20.7651C47.0326 20.7651 46.3081 20.6502 45.6631 20.4205C45.0182 20.1908 44.4571 19.8727 43.98 19.4663C43.5118 19.0599 43.1318 18.6004 42.8403 18.088C42.5487 17.5667 42.3455 17.0234 42.2307 16.4579V10.6267C42.3897 9.95525 42.6238 9.33237 42.9331 8.75809C43.2423 8.1838 43.6266 7.68462 44.086 7.26053C44.5455 6.82761 45.0844 6.49187 45.7029 6.25332C46.3302 6.01477 47.0326 5.8955 47.8101 5.8955C48.6582 5.8955 49.4181 6.06337 50.0895 6.3991C50.761 6.73484 51.3264 7.22077 51.7859 7.8569C52.2541 8.4842 52.6075 9.24844 52.8461 10.1496C53.0935 11.042 53.2172 12.0536 53.2172 13.1845ZM52.4883 13.4628V13.1845C52.4883 12.2303 52.3911 11.3556 52.1967 10.5605C52.0112 9.75646 51.724 9.0629 51.3353 8.47978C50.9554 7.88782 50.4694 7.4284 49.8775 7.1015C49.2944 6.7746 48.6096 6.61115 47.8233 6.61115C46.9221 6.61115 46.1623 6.76134 45.5438 7.06174C44.9342 7.3533 44.435 7.73321 44.0463 8.20147C43.6664 8.6609 43.3704 9.15125 43.1584 9.67252C42.9551 10.185 42.8049 10.6621 42.7078 11.1038V16.1266C42.8668 16.8511 43.1584 17.5093 43.5824 18.1013C44.0065 18.6932 44.572 19.1659 45.2788 19.5193C45.9944 19.8727 46.8514 20.0494 47.8498 20.0494C48.6361 20.0494 49.3165 19.886 49.8907 19.5591C50.4739 19.2322 50.9554 18.7771 51.3353 18.194C51.724 17.6021 52.0112 16.9041 52.1967 16.1001C52.3911 15.2961 52.4883 14.417 52.4883 13.4628ZM65.5157 16.8422C65.5157 16.4535 65.4185 16.0692 65.2241 15.6893C65.0298 15.3093 64.6543 14.9604 64.0977 14.6423C63.5499 14.3242 62.7415 14.0548 61.6724 13.8339C60.8772 13.6572 60.166 13.4584 59.5387 13.2375C58.9203 13.0166 58.399 12.7516 57.9749 12.4423C57.5508 12.1331 57.2283 11.762 57.0074 11.3291C56.7866 10.8962 56.6761 10.3838 56.6761 9.7918C56.6761 9.26169 56.791 8.7625 57.0207 8.29424C57.2593 7.81714 57.595 7.40189 58.0279 7.04849C58.4697 6.68624 58.9998 6.40352 59.6182 6.20031C60.2455 5.9971 60.9479 5.8955 61.7254 5.8955C62.8298 5.8955 63.7752 6.08545 64.5615 6.46537C65.3567 6.83644 65.9619 7.34446 66.3771 7.98943C66.8012 8.63439 67.0133 9.36329 67.0133 10.1761H65.4362C65.4362 9.68136 65.2904 9.2131 64.9988 8.77134C64.7161 8.32958 64.2964 7.96734 63.7398 7.68462C63.1921 7.40189 62.5206 7.26053 61.7254 7.26053C60.9038 7.26053 60.2367 7.38422 59.7243 7.63161C59.2118 7.87899 58.8363 8.19264 58.5978 8.57255C58.3681 8.95246 58.2532 9.34562 58.2532 9.75204C58.2532 10.0701 58.3018 10.3617 58.399 10.6267C58.505 10.8829 58.6905 11.1215 58.9556 11.3424C59.2295 11.5632 59.6182 11.7709 60.1218 11.9652C60.6254 12.1596 61.2792 12.3496 62.0832 12.5351C63.2406 12.7913 64.186 13.105 64.9193 13.4761C65.6615 13.8383 66.2093 14.2889 66.5627 14.8278C66.9161 15.3579 67.0928 16.0029 67.0928 16.7627C67.0928 17.3547 66.9691 17.898 66.7217 18.3928C66.4743 18.8788 66.1165 19.2984 65.6482 19.6518C65.1888 20.0052 64.6322 20.2791 63.9784 20.4735C63.3334 20.6679 62.6089 20.7651 61.8049 20.7651C60.5945 20.7651 59.5696 20.5663 58.7303 20.1687C57.8998 19.7623 57.2681 19.2322 56.8352 18.5784C56.4111 17.9157 56.199 17.2133 56.199 16.4712H57.7761C57.8291 17.2133 58.0633 17.8009 58.4785 18.2338C58.8938 18.6579 59.4018 18.9583 60.0026 19.135C60.6122 19.3117 61.213 19.4 61.8049 19.4C62.6178 19.4 63.2981 19.2807 63.8459 19.0422C64.3936 18.8037 64.8089 18.49 65.0916 18.1013C65.3743 17.7125 65.5157 17.2928 65.5157 16.8422ZM72.4469 6.16055V20.5H70.8698V6.16055H72.4469ZM70.5915 2.01245C70.5915 1.71205 70.6843 1.46025 70.8698 1.25704C71.0642 1.045 71.3292 0.938979 71.665 0.938979C72.0007 0.938979 72.2658 1.045 72.4601 1.25704C72.6633 1.46025 72.7649 1.71205 72.7649 2.01245C72.7649 2.30401 72.6633 2.55581 72.4601 2.76786C72.2658 2.97106 72.0007 3.07267 71.665 3.07267C71.3292 3.07267 71.0642 2.97106 70.8698 2.76786C70.6843 2.55581 70.5915 2.30401 70.5915 2.01245ZM78.2781 9.12916V20.5H76.6877V6.16055H78.2118L78.2781 9.12916ZM77.9865 12.4423L77.2179 12.0448C77.2709 11.1966 77.4299 10.4014 77.695 9.65927C77.9688 8.91712 78.3488 8.26332 78.8347 7.69787C79.3206 7.13242 79.9037 6.69066 80.584 6.3726C81.2644 6.05453 82.0374 5.8955 82.9033 5.8955C83.6012 5.8955 84.233 5.99268 84.7984 6.18706C85.3727 6.3726 85.8586 6.66857 86.2562 7.07499C86.6626 7.47257 86.9763 7.99385 87.1972 8.63881C87.418 9.28378 87.5285 10.0569 87.5285 10.958V20.5H85.9514V11.011C85.9514 10.0569 85.8012 9.31028 85.5008 8.77134C85.2092 8.2324 84.7984 7.84807 84.2683 7.61835C83.747 7.38864 83.1418 7.27378 82.4527 7.27378C81.6398 7.27378 80.9507 7.44165 80.3853 7.77738C79.8286 8.10429 79.3736 8.53279 79.0202 9.0629C78.6757 9.58417 78.4194 10.1452 78.2516 10.746C78.0837 11.338 77.9953 11.9034 77.9865 12.4423ZM87.5152 11.1966L86.455 11.2231C86.4992 10.5251 86.6582 9.85806 86.9321 9.22193C87.2148 8.5858 87.5992 8.02035 88.0851 7.52558C88.571 7.02198 89.1497 6.6244 89.8212 6.33284C90.5015 6.04128 91.2657 5.8955 92.1139 5.8955C92.8561 5.8955 93.5187 5.9971 94.1018 6.20031C94.6849 6.39468 95.1753 6.70833 95.5729 7.14125C95.9793 7.56534 96.2885 8.1087 96.5006 8.77134C96.7126 9.43398 96.8186 10.2291 96.8186 11.1568V20.5H95.2283V11.1436C95.2283 10.1275 95.0781 9.34121 94.7777 8.78459C94.4862 8.21914 94.0797 7.82598 93.5585 7.6051C93.0372 7.38422 92.4276 7.27378 91.7296 7.27378C91.0404 7.28262 90.4352 7.41073 89.914 7.65811C89.3927 7.89666 88.9554 8.21472 88.6019 8.61231C88.2574 9.00105 87.9923 9.42072 87.8068 9.87132C87.6301 10.3219 87.5329 10.7637 87.5152 11.1966ZM102.411 8.91712V26.0131H100.821V6.16055H102.305L102.411 8.91712ZM112.377 13.1977V13.4761C112.377 14.5451 112.254 15.5258 112.006 16.4182C111.759 17.3105 111.401 18.0836 110.933 18.7374C110.473 19.3824 109.903 19.8815 109.223 20.2349C108.543 20.5884 107.77 20.7651 106.904 20.7651C106.047 20.7651 105.283 20.6325 104.611 20.3675C103.94 20.1024 103.361 19.7269 102.875 19.241C102.398 18.7462 102.014 18.1719 101.722 17.5181C101.439 16.8555 101.241 16.131 101.126 15.3447V11.6737C101.258 10.8078 101.475 10.0215 101.775 9.3147C102.076 8.60789 102.46 7.99826 102.928 7.48583C103.405 6.97339 103.971 6.58022 104.624 6.30633C105.278 6.03244 106.025 5.8955 106.864 5.8955C107.739 5.8955 108.516 6.06778 109.197 6.41235C109.886 6.74809 110.465 7.23844 110.933 7.88341C111.41 8.51954 111.768 9.2882 112.006 10.1894C112.254 11.0817 112.377 12.0845 112.377 13.1977ZM110.787 13.4761V13.1977C110.787 12.3584 110.699 11.5809 110.522 10.8653C110.354 10.1496 110.093 9.52674 109.74 8.99664C109.395 8.45769 108.954 8.03802 108.415 7.73763C107.885 7.43723 107.253 7.28703 106.52 7.28703C105.76 7.28703 105.11 7.41514 104.571 7.67136C104.041 7.91875 103.6 8.25007 103.246 8.66532C102.893 9.07173 102.614 9.51791 102.411 10.0038C102.208 10.4898 102.058 10.9669 101.961 11.4351V15.6628C102.129 16.3342 102.398 16.9571 102.769 17.5314C103.14 18.0968 103.635 18.5518 104.253 18.8964C104.881 19.2322 105.645 19.4 106.546 19.4C107.271 19.4 107.898 19.2498 108.428 18.9494C108.958 18.649 109.395 18.2294 109.74 17.6904C110.093 17.1515 110.354 16.5242 110.522 15.8085C110.699 15.0929 110.787 14.3154 110.787 13.4761ZM117.665 0.143816V20.5H116.088V0.143816H117.665ZM127.538 20.7651C126.602 20.7651 125.74 20.5928 124.954 20.2482C124.177 19.9036 123.496 19.4177 122.913 18.7904C122.339 18.1631 121.893 17.421 121.575 16.5639C121.265 15.6981 121.111 14.7527 121.111 13.7279V13.158C121.111 12.0536 121.274 11.0552 121.601 10.1629C121.928 9.27053 122.379 8.50628 122.953 7.87015C123.527 7.23402 124.181 6.74809 124.914 6.41235C125.657 6.06778 126.434 5.8955 127.247 5.8955C128.157 5.8955 128.965 6.05895 129.672 6.38585C130.379 6.70391 130.971 7.15892 131.448 7.75088C131.934 8.334 132.301 9.02756 132.548 9.83156C132.795 10.6267 132.919 11.5058 132.919 12.4688V13.4363H122.065V12.0845H131.342V11.899C131.324 11.095 131.161 10.344 130.852 9.64602C130.551 8.93921 130.101 8.36492 129.5 7.92316C128.899 7.48141 128.148 7.26053 127.247 7.26053C126.575 7.26053 125.957 7.40189 125.392 7.68462C124.835 7.96734 124.353 8.37376 123.947 8.90387C123.549 9.42514 123.24 10.048 123.019 10.7725C122.807 11.4881 122.701 12.2833 122.701 13.158V13.7279C122.701 14.523 122.816 15.2652 123.046 15.9543C123.284 16.6346 123.62 17.2354 124.053 17.7567C124.495 18.278 125.016 18.6844 125.617 18.9759C126.218 19.2675 126.88 19.4133 127.605 19.4133C128.453 19.4133 129.204 19.2587 129.858 18.9494C130.511 18.6314 131.099 18.1322 131.62 17.4519L132.614 18.2205C132.305 18.68 131.916 19.104 131.448 19.4928C130.989 19.8815 130.436 20.1908 129.791 20.4205C129.146 20.6502 128.395 20.7651 127.538 20.7651Z" fill="black" fill-opacity="0.85"></path>
  
  <symbol fill="none" xmlns="http://www.w3.org/2000/svg" viewBox="0 0 24 25" id="arrow">
    <path d="M8.83984 7.42562L13.4198 12.0156L8.83984 16.6056L10.2498 18.0156L16.2498 12.0156L10.2498 6.01562L8.83984 7.42562Z" fill="#E1DFDC"></path>
  </symbol>

  <symbol fill="none" xmlns="http://www.w3.org/2000/svg" viewBox="0 0 24 24" id="search">
    <path d="M22.6504 21.1775L15.6942 14.2212C16.7736 12.8257 17.3576 11.1194 17.3576 9.32478C17.3576 7.17656 16.5192 5.16228 15.0031 3.64353C13.487 2.12478 11.4674 1.28906 9.32185 1.28906C7.17631 1.28906 5.15667 2.12746 3.6406 3.64353C2.12185 5.1596 1.28613 7.17656 1.28613 9.32478C1.28613 11.4703 2.12453 13.49 3.6406 15.006C5.15667 16.5248 7.17363 17.3605 9.32185 17.3605C11.1165 17.3605 12.8201 16.7766 14.2156 15.6998L21.1718 22.6533C21.1922 22.6738 21.2165 22.6899 21.2431 22.701C21.2698 22.712 21.2983 22.7177 21.3272 22.7177C21.3561 22.7177 21.3846 22.712 21.4113 22.701C21.4379 22.6899 21.4622 22.6738 21.4826 22.6533L22.6504 21.4882C22.6708 21.4678 22.687 21.4436 22.6981 21.4169C22.7091 21.3902 22.7148 21.3617 22.7148 21.3328C22.7148 21.304 22.7091 21.2754 22.6981 21.2487C22.687 21.2221 22.6708 21.1979 22.6504 21.1775ZM13.5647 13.5676C12.429 14.7007 10.9236 15.3248 9.32185 15.3248C7.72006 15.3248 6.2147 14.7007 5.07899 13.5676C3.94595 12.4319 3.32185 10.9266 3.32185 9.32478C3.32185 7.72299 3.94595 6.21496 5.07899 5.08192C6.2147 3.94888 7.72006 3.32478 9.32185 3.32478C10.9236 3.32478 12.4317 3.94621 13.5647 5.08192C14.6977 6.21763 15.3218 7.72299 15.3218 9.32478C15.3218 10.9266 14.6977 12.4346 13.5647 13.5676Z" fill="#AF6A34"></path>
  </symbol>

  <symbol fill="none" xmlns="http://www.w3.org/2000/svg" viewBox="0 0 208 208" id="avatar">
    <rect width="208" height="207.992" rx="8" fill="#F2F2F2"></rect>
    <ellipse cx="103.478" cy="74.2075" rx="40.7638" ry="40.7622" fill="#CCCCCC"></ellipse>
    <path d="M103.997 123.344C150.87 123.344 188.9 161.199 189.181 208.004H18.8145C19.0955 161.199 57.1246 123.344 103.997 123.344Z" fill="#CCCCCC"></path>
  </symbol>

  <symbol fill="none" xmlns="http://www.w3.org/2000/svg" viewBox="0 0 16 12" id="hamburger">
    <path d="M16 11.5H0V10.5H16V11.5ZM16 6.5H0V5.5H16V6.5ZM16 1.5H0V0.5H16V1.5Z" fill="black" fill-opacity="0.85"></path>
  </symbol>

  <symbol fill="none" xmlns="http://www.w3.org/2000/svg" viewBox="0 0 16 16" id="edit">
    <g clip-path="url(#clip0_3183_6298)">
      <path d="M3.45921 12.284C3.49492 12.284 3.53064 12.2805 3.56635 12.2751L6.56992 11.7483C6.60564 11.7412 6.63957 11.7251 6.66457 11.6983L14.2342 4.12868C14.2508 4.11216 14.2639 4.09254 14.2729 4.07094C14.2818 4.04934 14.2864 4.02618 14.2864 4.00279C14.2864 3.9794 14.2818 3.95625 14.2729 3.93464C14.2639 3.91304 14.2508 3.89342 14.2342 3.8769L11.2664 0.907254C11.2324 0.873326 11.1878 0.855469 11.1396 0.855469C11.0914 0.855469 11.0467 0.873326 11.0128 0.907254L3.44314 8.4769C3.41635 8.50368 3.40028 8.53583 3.39314 8.57154L2.86635 11.5751C2.84898 11.6708 2.85519 11.7692 2.88443 11.862C2.91368 11.9547 2.96509 12.0389 3.03421 12.1073C3.15207 12.2215 3.30028 12.284 3.45921 12.284ZM4.66278 9.16975L11.1396 2.69475L12.4485 4.00368L5.97171 10.4787L4.38421 10.759L4.66278 9.16975ZM14.5717 13.784H1.42885C1.11278 13.784 0.857422 14.0394 0.857422 14.3555V14.9983C0.857422 15.0769 0.921708 15.1412 1.00028 15.1412H15.0003C15.0789 15.1412 15.1431 15.0769 15.1431 14.9983V14.3555C15.1431 14.0394 14.8878 13.784 14.5717 13.784Z" fill="#AF6A34"></path>
    </g>
    <defs>
      <clipPath id="clip0_3183_6298">
        <rect width="16" height="16" fill="white"></rect>
      </clipPath>
    </defs>
  </symbol>
</svg>
