<svg width="130" height="2" viewBox="0 0 130 2" fill="none" xmlns="http://www.w3.org/2000/svg">
  <path d="M2.91992 0.0740592C5.63936 -0.100748 7.49652 0.0848262 10.0193 0.114429C15.5726 0.179455 22.8958 0.120851 28.5756 0.125498C32.8747 0.129021 37.2438 0.141537 41.517 0.151542C41.7358 0.152055 41.8665 0.170816 41.9658 0.171076C42.9014 0.173331 44.471 0.156171 45.3991 0.158705C47.3515 0.163987 50.7483 0.160924 52.5363 0.178889C53.2954 0.186494 54.074 0.189955 54.3693 0.235537C54.6461 0.237854 54.7978 0.196954 54.8705 0.194516H54.8738C55.1073 0.187596 55.6956 0.21647 55.826 0.214701C55.8454 0.214419 55.726 0.184241 56.0409 0.193214C56.069 0.193989 56.0436 0.214412 56.3093 0.214701C56.3793 0.214738 57.2671 0.184046 57.5209 0.182145C58.366 0.175955 60.3839 0.200144 61.3941 0.199725C61.5484 0.199707 61.6375 0.187565 61.8006 0.187354C61.8845 0.18725 62.0101 0.200353 62.0366 0.200376C62.1503 0.199918 62.6469 0.141504 62.4687 0.257024C62.986 0.249715 62.8352 0.21151 62.8462 0.186703C63.409 0.183121 63.6804 0.237201 63.8274 0.17954C66.5946 0.186499 69.3621 0.193418 72.1294 0.200376C72.1302 0.191046 72.1308 0.181709 72.1316 0.172378C72.9473 0.209925 73.2273 0.146497 73.6929 0.201027C73.9799 0.189031 74.2668 0.177212 74.5538 0.165216C81.9332 0.202205 89.2962 0.157913 96.5924 0.158054C96.8999 0.158071 96.977 0.178092 97.4844 0.178238C98.045 0.178378 98.8336 0.155182 99.5724 0.155449C100.221 0.15566 101.177 0.174621 101.9 0.177587C102.062 0.178218 102.18 0.165258 102.199 0.165216C102.307 0.165711 102.313 0.186112 102.418 0.186703C102.543 0.187337 102.695 0.172113 102.84 0.173029C103.379 0.176326 103.967 0.171407 104.038 0.171727C104.368 0.173626 104.442 0.193648 104.469 0.193865C104.835 0.196239 104.698 0.178514 104.79 0.17954C105.264 0.184986 105.599 0.229108 106.249 0.186703C106.231 0.20305 106.213 0.21919 106.195 0.235537C106.692 0.244764 106.364 0.201105 106.466 0.193214C106.511 0.19033 107.577 0.195695 107.66 0.19647C107.947 0.199302 107.954 0.22157 107.979 0.221863C108.041 0.222533 108.763 0.197656 109.133 0.216654C109.571 0.23918 109.056 0.283156 109.164 0.291533C109.182 0.292941 109.641 0.288776 109.703 0.302602C109.771 0.317502 109.376 0.317215 109.38 0.323438C109.384 0.327733 110.043 0.358719 109.918 0.379434C109.816 0.400211 108.921 0.373571 108.732 0.383341C108.702 0.38516 108.76 0.410402 108.732 0.411339C108.617 0.414776 106.566 0.41554 106.467 0.411339C106.574 0.399671 106.682 0.387846 106.789 0.376178C106.646 0.374998 106.503 0.374103 106.36 0.372923C106.563 0.363563 106.766 0.354284 106.969 0.344925C106.668 0.248817 105.76 0.345728 105.722 0.393759C105.706 0.415954 106.261 0.473145 105.744 0.506402C105.823 0.512099 105.902 0.517634 105.98 0.523331C106.142 0.513976 106.304 0.504689 106.466 0.495333C106.358 0.489433 106.249 0.483653 106.142 0.477753C106.181 0.471093 106.221 0.464228 106.261 0.457568C106.563 0.446869 106.866 0.436363 107.168 0.425663C107.324 0.430596 107.292 0.450503 107.399 0.454313C108.732 0.502285 107.863 0.440952 108.735 0.449755C108.86 0.460335 108.985 0.471079 109.11 0.48166C109.066 0.437916 109.452 0.465339 109.919 0.446499C109.863 0.460611 109.808 0.47471 109.752 0.488822C110.429 0.481295 111.802 0.55253 111.433 0.474497C111.588 0.481165 111.743 0.488014 111.898 0.494682C112.029 0.481913 112.16 0.469035 112.291 0.456266C112.472 0.457731 112.653 0.459359 112.835 0.460824C112.835 0.467709 112.836 0.474774 112.837 0.48166C112.692 0.4817 112.548 0.481619 112.404 0.48166C112.512 0.502728 112.62 0.52375 112.729 0.544818C112.835 0.541323 112.942 0.537896 113.048 0.5344C112.602 0.514487 113.19 0.482111 113.333 0.454313C113.711 0.444028 113.952 0.480031 114.079 0.48166C114.139 0.482269 114.837 0.418874 114.563 0.488822C114.923 0.480317 115.284 0.471282 115.644 0.462777C115.785 0.468143 115.926 0.473689 116.066 0.479055C115.761 0.511677 116.646 0.550824 115.994 0.564352C115.507 0.574496 115.387 0.543956 115.155 0.544167C114.947 0.544318 114.837 0.565389 114.61 0.566305C113.084 0.572082 111.841 0.568232 110.392 0.559143C110.106 0.557325 109.846 0.567049 109.654 0.565654C109.437 0.56403 109.708 0.538579 109.432 0.544818C109.143 0.551434 109.079 0.572311 109.003 0.572816C108.955 0.573055 108.803 0.553946 108.664 0.553934C108.092 0.553938 107.253 0.572271 107.172 0.572165C107.076 0.571904 105.462 0.555082 105.384 0.55198C105.345 0.549733 105.427 0.480494 105.073 0.554585C104.961 0.555969 104.85 0.557759 104.739 0.559143C104.757 0.545185 104.775 0.530778 104.793 0.51682C104.134 0.569734 104.36 0.540661 103.725 0.544818C102.204 0.554821 99.9601 0.543144 98.2962 0.548074C97.9247 0.549203 97.7825 0.565753 97.343 0.566956C96.9345 0.567986 95.8693 0.518191 96.1002 0.587141C95.1921 0.527389 95.0458 0.630539 94.5912 0.566305C94.5363 0.57564 94.4813 0.584969 94.4264 0.594303C93.9327 0.554143 93.7795 0.589439 93.2404 0.594303C93.0085 0.596385 93.2758 0.553283 92.8072 0.600814C92.7178 0.59728 92.6282 0.593931 92.5388 0.590396C92.5595 0.580129 92.5805 0.570062 92.6012 0.559794C92.0804 0.568249 92.0462 0.562783 92.1056 0.601465C91.8543 0.594429 91.603 0.587015 91.3517 0.579979C91.3204 0.592675 91.2894 0.605698 91.2581 0.618395C91.3857 0.642514 97.086 0.605926 97.882 0.594303C98.8143 0.623041 100.688 0.586828 101.441 0.593652C101.742 0.596406 101.876 0.625357 102.314 0.628812C102.753 0.632261 103.304 0.606313 103.538 0.605372C104.316 0.602131 108.001 0.608065 105.495 0.643788C105.567 0.657755 105.639 0.671493 105.711 0.68546C106.707 0.637698 106.347 0.666849 107.173 0.671786C107.521 0.67389 108.347 0.642845 108.302 0.706296C107.656 0.718123 106.97 0.698218 106.408 0.699133C106.351 0.69929 105.686 0.727849 105.344 0.719969C105.036 0.712721 105.248 0.652655 104.577 0.72062C104.078 0.654141 103.789 0.714208 103.657 0.72062C103.429 0.731737 103.404 0.699048 103.176 0.695227C102.929 0.691051 102.758 0.712628 102.724 0.712807C102.384 0.7133 100.611 0.716269 100.53 0.70304C100.601 0.697227 100.673 0.691273 100.744 0.68546C100.284 0.676121 100.38 0.710051 100.26 0.714109C100.169 0.713987 100.079 0.71358 99.9889 0.713458C100.025 0.706515 100.06 0.699565 100.096 0.692622C99.5528 0.694108 99.9683 0.717995 99.1972 0.717365C98.7076 0.716938 98.2018 0.69069 98.1537 0.692622C98.1397 0.693186 98.2933 0.711056 98.0936 0.713458C97.763 0.717395 97.1921 0.71696 97.128 0.692622C96.9669 0.696057 96.9799 0.719871 96.9588 0.72062C96.8648 0.722945 95.2477 0.730929 94.9576 0.73234C94.1548 0.736216 93.2605 0.730929 92.3907 0.734945C92.3019 0.735295 92.3585 0.720149 92.2693 0.72062C92.1254 0.721404 91.3863 0.74562 91.2759 0.747316C91.0003 0.751457 90.2763 0.741665 90.1623 0.748618C90.1478 0.749728 90.3834 0.770225 90.1055 0.776616C89.7966 0.783675 89.9631 0.756058 89.9463 0.755781C89.3164 0.746269 88.9185 0.765717 88.4885 0.769454C88.3492 0.770623 88.0926 0.749642 87.8961 0.755781C87.8736 0.756479 87.9173 0.77543 87.8961 0.776616C87.5992 0.786755 87.321 0.750992 87.1923 0.748618C86.8777 0.742934 87.0483 0.769266 87.0319 0.769454C86.8224 0.770286 86.5407 0.761035 86.2223 0.762292C84.8015 0.767929 83.6413 0.769262 82.1309 0.767501C81.9418 0.767267 81.7177 0.748751 81.6877 0.748618C81.598 0.748759 81.6229 0.77125 81.3636 0.770756C80.8171 0.769631 80.31 0.770528 79.7689 0.770105C79.6601 0.769976 79.6136 0.749708 79.5306 0.749269C79.2519 0.748017 78.3021 0.801066 78.2855 0.734945C77.7326 0.793558 77.3652 0.742849 76.9202 0.743409C75.8657 0.744678 74.2141 0.756879 73.1629 0.749269C72.9419 0.747626 72.8381 0.730677 72.7152 0.729736C72.4949 0.728054 71.2378 0.737555 71.1661 0.734945C71.0365 0.729801 71.1134 0.654793 70.4467 0.719969C70.0563 0.72459 70.1021 0.693626 70.0213 0.691971C69.3915 0.679666 68.7787 0.748231 68.8932 0.68546C68.16 0.702505 67.6847 0.737589 67.3854 0.678949C67.3868 0.707411 67.0424 0.724334 66.6281 0.713458C67.0538 0.665337 67.0018 0.634987 68.0313 0.643788C68.0468 0.644184 68.0165 0.664408 68.0324 0.664624C68.1793 0.666022 68.4858 0.655702 68.7362 0.656811C68.9868 0.657938 68.8486 0.672059 68.9489 0.671786C69.0403 0.671439 69.0378 0.651232 69.1705 0.65095C69.6011 0.650173 69.9821 0.644799 70.2273 0.644439C70.3818 0.644234 70.5551 0.662003 70.675 0.66202C71.1385 0.661877 72.1208 0.647749 72.7107 0.649648C72.8336 0.650092 72.7826 0.670167 73.0515 0.671786C73.0835 0.671806 73.198 0.651256 73.4324 0.647044C73.6677 0.642821 73.8502 0.653039 74.0014 0.65095C74.1278 0.64919 74.0754 0.631252 74.3344 0.630115C74.5504 0.629199 76.995 0.642191 77.1307 0.64509C77.3217 0.649251 77.4128 0.674188 77.5294 0.671135C77.5499 0.670471 77.5852 0.646197 77.6563 0.644439C78.8298 0.615426 81.4271 0.649206 82.7679 0.648997C85.5703 0.648644 88.1558 0.633869 90.9831 0.628161C91.0335 0.623888 91.0841 0.619412 91.1345 0.615139C90.8487 0.614976 90.5628 0.615302 90.277 0.615139C90.2752 0.603582 90.2733 0.591536 90.2715 0.579979C89.8852 0.578156 89.9365 0.60581 89.9474 0.622301C89.8045 0.615308 89.6615 0.608459 89.5187 0.601465C89.3953 0.641741 88.4412 0.614425 87.9496 0.614488C87.6298 0.614494 87.2495 0.630003 87.0809 0.628812C86.7247 0.626349 86.7337 0.601862 86.7056 0.601465C86.656 0.601013 86.1603 0.622492 85.8025 0.62165C85.2722 0.620443 85.2144 0.58208 84.4884 0.614488C83.5583 0.594701 82.5275 0.604736 81.5251 0.607977C81.7159 0.572709 80.8178 0.606569 80.4126 0.606023C77.9406 0.602571 74.9022 0.587418 72.3978 0.573467C72.0759 0.571706 71.8321 0.550641 71.6528 0.551329C71.5559 0.551738 71.5134 0.575993 71.3788 0.572816C71.3551 0.572193 71.3382 0.549582 71.0871 0.54612C70.4617 0.537457 68.9042 0.575677 68.509 0.531796C66.3703 0.538591 64.2311 0.545185 62.0923 0.55198C62.0386 0.542624 61.9845 0.533339 61.9309 0.523982C61.5245 0.571813 59.9179 0.54387 59.1345 0.54612C57.756 0.550138 55.997 0.564684 54.7892 0.566305C54.5267 0.566657 54.3115 0.553007 54.0631 0.553283C53.9563 0.553433 53.8235 0.571399 53.7123 0.571514C52.4633 0.572853 50.7716 0.554813 49.5128 0.555236C46.6552 0.556152 43.9637 0.553159 41.0682 0.553934C31.3139 0.556682 21.6158 0.582593 11.9447 0.572165C11.8151 0.572024 11.8213 0.552128 11.7209 0.55198C11.1277 0.550994 9.80273 0.56722 9.13283 0.566305C8.59906 0.565587 7.75183 0.534517 7.56819 0.565654C9.4644 0.612792 11.4686 0.609776 13.4426 0.622952C13.5825 0.623914 13.6001 0.642785 13.6174 0.643137C13.9367 0.649805 13.7354 0.623499 14.1987 0.622301C14.3549 0.621976 15.7815 0.683124 15.6141 0.622301C15.9582 0.646727 18.3722 0.659044 18.8381 0.65095C18.979 0.648458 18.8791 0.630382 18.9071 0.629464C19.0291 0.625465 19.0843 0.650305 19.1933 0.65095C19.484 0.652497 20.2233 0.631927 20.3637 0.632068C20.687 0.632291 21.6552 0.652468 22.082 0.647695C22.473 0.643329 22.4004 0.617558 22.738 0.615139C23.0044 0.613319 22.7149 0.635205 23.3093 0.641835C23.6042 0.645076 24.6365 0.629467 24.8873 0.629464C25.1379 0.629464 25.4168 0.644986 25.7626 0.643788C26.2606 0.642097 27.3437 0.633164 27.8506 0.628161C27.8809 0.62788 27.9554 0.608205 28.0299 0.608628C28.1835 0.609534 28.1376 0.634053 28.2537 0.636626C28.3704 0.639162 30.3917 0.636346 30.7349 0.636626C30.9712 0.636752 31.1344 0.621533 31.265 0.62165C31.3675 0.621791 31.3787 0.642887 31.4833 0.643137C31.5157 0.643137 31.7914 0.625146 32.0668 0.625557C32.3268 0.625982 33.3133 0.64293 33.4299 0.643137C33.5044 0.643208 33.4233 0.62846 33.6437 0.628812C33.8445 0.629183 33.9769 0.648715 34.0914 0.648997C34.3569 0.649602 34.6538 0.632798 34.9355 0.632719C35.7458 0.632509 35.7043 0.656687 35.7529 0.657462C35.8874 0.659586 35.9414 0.637765 35.9856 0.637277C36.1725 0.635446 36.6309 0.630962 36.7975 0.630115C37.0046 0.629088 37.0928 0.650229 37.3131 0.650299C37.4775 0.650263 37.8093 0.629798 38.1839 0.628812C39.0288 0.626487 40.0337 0.622829 40.8633 0.623604C41.1105 0.623829 41.1485 0.642644 41.2241 0.643137C41.6216 0.645735 41.8446 0.624629 41.958 0.624906C42.7674 0.626821 44.2107 0.659853 44.9614 0.662671C45.2676 0.66379 46.6062 0.648854 47.3613 0.651602C47.4471 0.651926 47.3666 0.666295 47.4626 0.663973C47.6925 0.658396 47.6713 0.628566 47.7878 0.629464C47.8441 0.629998 47.9725 0.646639 48.1364 0.648346C48.9866 0.657153 49.5715 0.644178 49.9594 0.64509C53.6848 0.653898 57.4841 0.661946 60.9631 0.664624C61.3509 0.664896 61.832 0.646503 62.4175 0.663973C62.4355 0.673362 62.453 0.683233 62.471 0.692622C62.4915 0.683385 62.5128 0.673861 62.5333 0.664624C63.1963 0.659619 63.4475 0.647653 64.1247 0.659415C64.1835 0.660616 64.3611 0.70346 64.471 0.650299C65.1417 0.688894 64.7737 0.649988 65.2717 0.646393C65.7696 0.642802 66.2534 0.654777 66.7361 0.657462C67.0005 0.676534 65.8932 0.720006 65.8185 0.719969C65.7019 0.719799 65.58 0.69338 65.4677 0.691971C65.1356 0.687786 64.8145 0.708964 64.7394 0.68546C64.3095 0.710467 64.8443 0.698096 64.7906 0.72062C64.5037 0.711302 64.2168 0.70194 63.9298 0.692622C63.7826 0.769071 62.1982 0.66947 62.3084 0.727783C62.1822 0.716103 62.0559 0.704301 61.9297 0.692622C61.3768 0.76577 61.0514 0.714399 60.3139 0.692622C60.367 0.701956 60.42 0.711286 60.4731 0.72062C60.4514 0.724621 59.8083 0.738791 60.0399 0.699133C59.3724 0.751667 59.4 0.66461 58.8016 0.727783C58.4469 0.735835 58.66 0.699161 58.0243 0.699784C57.6472 0.700137 57.1783 0.719281 56.757 0.72062C56.6603 0.720791 56.6181 0.699813 56.532 0.699784C56.4458 0.699793 56.4035 0.720683 56.2993 0.721271C56.0834 0.722398 55.803 0.707522 55.6678 0.7089C55.5469 0.710102 55.3736 0.728792 55.0821 0.731689C54.0636 0.7419 54.3708 0.715181 54.2101 0.706296C54.0373 0.696858 53.913 0.731761 53.5686 0.727783C53.5341 0.72736 53.6231 0.705451 53.5107 0.706296C53.4201 0.706958 53.3744 0.730579 53.0742 0.734945C52.9534 0.736708 51.1009 0.741678 50.8169 0.742107C50.3836 0.742741 49.4178 0.723084 48.9694 0.723225C48.7967 0.72325 48.6116 0.741581 48.4282 0.741456C47.8198 0.741033 46.8463 0.739767 46.0751 0.738852C45.3807 0.738002 44.1621 0.696281 43.781 0.733643C42.8064 0.738499 42.5685 0.706786 42.4948 0.706296C42.2961 0.705099 42.2038 0.726118 41.9536 0.727131C38.7069 0.73946 34.4312 0.725442 31.3563 0.727131C24.2234 0.731218 17.0512 0.742888 9.89343 0.734294C9.87426 0.743694 9.8547 0.753543 9.83553 0.762943C10.6814 0.769002 11.6754 0.78525 12.5105 0.788988C13.6253 0.793914 15.2794 0.754719 16.0974 0.818939C15.7664 0.82454 15.2281 0.799891 15.2355 0.832613C15.8283 0.834972 16.4211 0.837415 17.0139 0.839775C16.9964 0.824626 16.9792 0.809345 16.9616 0.794197C17.5805 0.789763 18.2136 0.793125 18.8347 0.790941C18.9426 0.790579 18.8666 0.776687 18.9606 0.776616C19.0651 0.776603 18.9943 0.790829 19.014 0.790941C19.2795 0.791071 19.3602 0.776411 19.3926 0.776616C19.475 0.777237 19.4117 0.791051 19.651 0.794848C20.0957 0.801916 20.4136 0.766033 20.3092 0.826101H20.7401C20.7773 0.809743 20.8154 0.792975 20.8526 0.776616C21.7357 0.842568 22.143 0.727124 22.6311 0.818939C22.7921 0.8049 22.9534 0.790656 23.1144 0.776616C23.205 0.792952 23.2955 0.809766 23.3861 0.826101C23.4038 0.812082 23.4219 0.797798 23.4396 0.783779C24.3071 0.794131 25.2313 0.776951 26.061 0.77857C26.6386 0.779699 26.7775 0.785484 27.2894 0.78443C28.4273 0.782042 27.2974 0.8097 28.2426 0.839775C28.1936 0.822646 28.1446 0.805465 28.0956 0.788337C28.2522 0.782033 28.409 0.775758 28.5656 0.769454C28.6746 0.783489 28.7839 0.797742 28.893 0.811777C29.3766 0.739024 29.6899 0.797395 29.756 0.797452C29.8093 0.797325 29.9921 0.753857 30.5645 0.790941C30.328 0.731199 30.9997 0.790395 31.0556 0.790941C31.107 0.791184 31.7633 0.777367 32.03 0.777919C32.2396 0.778345 32.6867 0.791559 32.9989 0.790941C33.2745 0.790379 33.2472 0.769665 33.2673 0.769454C33.6064 0.767767 33.394 0.783655 33.6392 0.78443C33.8844 0.785197 34.0752 0.767904 34.1281 0.769454C34.1531 0.770514 34.066 0.789124 34.1871 0.790941C34.5145 0.795931 35.1063 0.779386 35.4812 0.779872C35.614 0.780025 35.782 0.796308 35.93 0.796801C36.1566 0.797485 36.2626 0.775988 36.3943 0.776616C36.4402 0.776895 36.7333 0.810334 37.097 0.805266C37.1666 0.80397 37.3699 0.734562 37.6394 0.833264C37.6601 0.819385 37.681 0.805471 37.7017 0.791592C38.9214 0.757148 39.2608 0.869771 39.8031 0.769454C40.6889 0.78066 40.0812 0.820113 40.1784 0.826101C40.2418 0.829836 40.5298 0.818978 40.5615 0.81959C40.6177 0.820788 40.6081 0.833322 40.6695 0.833264C41.7986 0.830939 41.2975 0.807252 41.6551 0.792243C42.5054 0.75653 43.1686 0.835585 41.6896 0.811777V0.833264C42.0538 0.826574 42.9783 0.829671 42.6696 0.865169C42.426 0.893124 40.2339 0.874769 41.4758 0.914003C41.7576 0.92285 41.9041 0.896675 42.3923 0.945907C42.7149 0.948524 42.7616 0.88453 43.1986 0.910096C43.1267 0.887862 43.0544 0.865916 42.9825 0.843682C43.5789 0.814668 44.3152 0.853543 44.7732 0.841077C44.9289 0.836828 45.4894 0.730547 45.359 0.836519C45.6207 0.829912 46.8517 0.849243 47.0818 0.839775C47.1369 0.837478 47.2091 0.780991 48.0061 0.800708C48.0614 0.807779 48.1167 0.815124 48.172 0.822195C47.4438 0.842757 48.7298 0.863698 48.3814 0.917258C48.2626 0.893165 47.6838 0.878589 47.5907 0.866471C47.4328 0.84562 47.9048 0.818778 47.3023 0.826101C46.9229 0.915604 48.0086 0.874641 47.8435 0.959581C48.6342 0.919932 48.7136 0.957316 48.8925 0.95893C49.6585 0.965341 50.1409 0.956813 50.8637 0.966743C51.0395 0.949281 49.7332 0.924096 49.5696 0.931583C50.1654 0.869678 49.1386 0.86681 48.7055 0.903585C48.6691 0.884877 48.6327 0.865645 48.5963 0.846937C49.1601 0.857081 49.7106 0.862281 50.269 0.846937C50.3052 0.853917 50.3419 0.861445 50.3781 0.868424C50.253 0.878945 50.1279 0.889157 50.0028 0.899678C50.4672 0.916921 50.1891 0.862276 50.808 0.910096C50.8271 0.889119 50.8457 0.867914 50.8648 0.846937C51.4582 0.853937 52.052 0.861425 52.6455 0.868424C52.9544 0.826155 54.0963 0.841697 53.8871 0.896422C54.348 0.900286 53.7793 0.871323 54.2112 0.858006C54.3993 0.852234 54.7664 0.850448 54.8571 0.865169C54.8174 0.917184 54.2685 0.923835 54.1021 0.959581C54.2069 0.971036 56.7587 0.933894 56.532 0.994741C56.736 1.00204 56.6427 0.970872 57.0109 0.962836C58.0425 0.940463 59.64 1.0022 60.4709 0.92442C59.4957 0.881126 59.2071 0.927137 58.4597 0.928978C57.9822 0.930176 55.0709 0.93717 55.7202 0.882098C55.6133 0.88909 55.5063 0.896592 55.3994 0.903585C55.2914 0.887191 55.1834 0.870493 55.0754 0.8541C55.38 0.851739 55.685 0.849297 55.9897 0.846937C56.0623 0.863275 56.1353 0.879434 56.2079 0.895771C56.2413 0.884176 56.2748 0.872857 56.3082 0.861262C56.4364 0.858942 56.5652 0.856419 56.6935 0.8541C56.6574 0.868139 56.6204 0.882383 56.5843 0.896422C56.782 0.898823 56.9802 0.901184 57.1779 0.903585C57.1247 0.884838 57.0718 0.865684 57.0187 0.846937C57.9491 0.842225 57.6343 0.854197 58.1501 0.88926C58.5356 0.892848 57.8849 0.856752 58.7002 0.847588C59.6487 0.836953 59.0268 0.894345 60.2548 0.882098C60.2725 0.872749 60.2906 0.863448 60.3083 0.8541C60.5784 0.863458 60.849 0.87274 61.119 0.882098C61.0833 0.870459 61.0467 0.858576 61.011 0.846937C61.5685 0.851447 62.3374 0.829277 62.5222 0.874935C61.9576 0.85297 61.9624 0.932457 62.109 0.94721C62.4123 0.977276 66.8921 0.949842 67.7618 0.947861C68.8722 0.945325 69.712 0.97079 70.7262 0.931583C70.0382 0.899439 67.6222 0.925827 67.1638 0.903585C67.1184 0.901401 67.131 0.828049 66.8397 0.910096C65.8998 0.89615 64.7756 0.919651 63.6013 0.917258C63.6371 0.896219 63.6735 0.875138 63.7093 0.8541C64.431 0.898816 65.0984 0.80037 65.0044 0.882098H65.4354V0.839775H66.0858V0.882098H66.6237C66.6422 0.868185 66.6608 0.854339 66.6793 0.840426C67.2164 0.869583 69.0473 0.791122 68.2429 0.874935H68.999C68.9982 0.864737 68.9976 0.854532 68.9968 0.844333C69.1051 0.842951 69.2137 0.841808 69.322 0.840426C69.2864 0.849702 69.2506 0.859148 69.2151 0.868424C69.7117 0.851736 70.1828 0.900563 70.5091 0.868424C70.2942 0.861394 70.0792 0.853968 69.8643 0.846937C70.2766 0.860262 71.0351 0.832755 71.1049 0.832613C71.3123 0.832473 71.4225 0.853694 71.6472 0.854751C71.8495 0.855623 71.8222 0.839212 71.8599 0.839775C72.9536 0.856074 72.5373 0.942909 73.0482 0.840426C73.1023 0.854367 73.1566 0.868157 73.2107 0.882098C73.2831 0.870421 73.3555 0.858614 73.4279 0.846937C73.7511 0.848036 74.0747 0.849745 74.3979 0.850844C74.2901 0.833346 74.1816 0.815602 74.0738 0.798103C74.557 0.790313 74.7834 0.825127 74.8311 0.826101C74.9638 0.828143 75.025 0.805958 75.066 0.805917C77.04 0.80782 75.8413 0.827376 76.8278 0.910096C77.179 0.877644 76.8232 0.844792 76.7732 0.811777C77.2409 0.82727 77.3876 0.81841 77.8813 0.820241C78.0096 0.820785 78.1478 0.838884 78.2287 0.839124C78.2993 0.839276 78.5182 0.820334 78.6864 0.820241C78.9673 0.820101 79.3419 0.83094 79.7266 0.830659C80.0469 0.830364 81.0252 0.817127 81.7077 0.816986C81.9991 0.816987 81.932 0.833231 82.0073 0.833264C82.0404 0.833071 82.2657 0.813837 82.4516 0.81373C83.9761 0.813308 85.5389 0.825802 87.0709 0.82545C88.1501 0.825239 89.2469 0.80958 90.3283 0.811126C90.5584 0.811478 90.4371 0.825608 90.5376 0.826101C90.5721 0.826128 90.6146 0.802025 90.9697 0.811777C91.0976 0.815322 90.9503 0.832419 91.0766 0.833264C91.138 0.833631 91.1649 0.812075 91.5243 0.807219C92.1763 0.798384 92.5274 0.826836 92.5867 0.826101C92.6967 0.824467 92.6649 0.806561 92.8105 0.805917C93.5234 0.802817 94.1187 0.799583 94.7549 0.798103C95.052 0.797399 97.1013 0.794282 97.2138 0.797452C97.4647 0.804527 97.231 0.84102 97.5535 0.839775C97.6439 0.830456 97.7347 0.821096 97.8252 0.811777C97.6816 0.804702 97.5377 0.798016 97.3942 0.790941C97.7894 0.802752 98.2374 0.785765 98.5301 0.786383C98.5842 0.786528 99.0824 0.803183 99.3364 0.801359C99.2284 0.808277 99.1202 0.815277 99.0123 0.822195C99.0504 0.828089 99.0889 0.833881 99.127 0.839775C99.6348 0.83083 100.172 0.831345 100.693 0.832613C100.88 0.833049 100.817 0.847082 101.007 0.847588C102.114 0.850611 101.835 0.791053 102.9 0.902934C102.54 0.892791 101.228 0.907308 101.037 0.903585C100.903 0.900775 100.389 0.806669 100.578 0.903585C99.515 0.90316 100.438 0.849567 99.4455 0.861262C99.4651 0.872994 99.4849 0.88469 99.5045 0.896422C99.1581 0.903883 98.9021 0.910147 98.6916 0.88926C98.6194 0.946536 97.4428 0.912736 96.7973 0.916607C95.8638 0.922103 94.8089 0.936279 93.8841 0.938745C93.5656 0.939569 93.385 0.917188 93.3451 0.917258C93.2865 0.917462 93.123 0.93725 93.0065 0.937443C92.5711 0.938005 91.2459 0.904202 90.9163 0.95893H98.6893C98.3637 0.932028 100.983 0.929596 101.117 0.930932C101.24 0.932129 101.137 0.951128 101.173 0.952419C101.445 0.960513 101.677 0.932942 101.764 0.932885C101.83 0.932889 101.963 0.945519 102.197 0.945256C102.24 0.945216 102.253 0.931686 102.299 0.931583C102.604 0.931583 102.906 0.932304 103.213 0.932234C103.232 0.932365 103.309 0.951675 103.387 0.951767C103.464 0.951767 103.542 0.932296 103.561 0.932234C103.807 0.93239 104.227 0.945115 104.46 0.945256C104.541 0.945245 104.485 0.930792 104.576 0.930932C104.854 0.931305 104.763 0.959735 105.107 0.952419C105.223 0.94995 105.216 0.928062 105.437 0.930932C105.593 0.933012 105.577 0.971846 105.602 0.973254C105.64 0.974704 106.177 0.944709 106.353 0.969999C105.967 1.03702 106.775 0.972885 106.736 0.944605C106.951 0.951726 107.166 0.958971 107.38 0.966092C107.453 0.958959 107.526 0.951738 107.598 0.944605C108.463 0.976876 108.991 0.95746 109.841 0.967394C109.886 0.967987 110.595 0.984045 110.565 0.99409C110.136 1.01142 109.708 1.01245 109.434 0.980417C108.982 1.04148 108.974 0.992525 108.245 1.0006C108.003 1.00333 107.984 1.01972 107.956 1.02013C107.006 1.02838 105.485 1.03535 104.845 0.986928C104.666 1.00003 105.31 1.00527 105.059 1.01493C104.917 1.02023 101.634 1.03552 102.684 0.979766C102.575 0.981312 102.466 0.983428 102.357 0.984975C102.247 1.03757 101.705 1.02507 101.766 0.972603C101.715 0.983317 101.664 0.994446 101.613 1.00516C101.511 1.01425 101.39 1.0192 101.222 1.02209C100.576 1.03307 96.7364 1.01455 96.5323 1.02209C96.5276 1.03454 96.5235 1.0474 96.5189 1.05985C98.2151 1.07394 99.861 1.04243 101.711 1.07808C101.657 1.06642 101.603 1.05524 101.549 1.04358C102.287 1.05993 103.025 1.07605 103.763 1.09241C102.982 1.11354 101.739 1.1313 100.919 1.1139C100.774 1.11077 100.88 1.09438 100.846 1.09241C100.759 1.08741 100.665 1.11571 100.351 1.11845C100.036 1.12119 99.2461 1.10096 99.1738 1.10152C99.034 1.10275 98.6583 1.13509 98.421 1.13473C98.1092 1.13417 98.3168 1.11437 98.255 1.1139C97.9958 1.11193 97.7632 1.12188 97.5601 1.12041C97.2586 1.11821 96.6316 1.08306 96.4209 1.13473C96.6363 1.13709 96.8525 1.13953 97.0679 1.14189C95.9001 1.16042 94.9867 1.09424 93.8362 1.14515C93.5747 1.20771 94.5248 1.1992 93.7215 1.22589C93.8673 1.22499 94.0133 1.22418 94.1591 1.22328C94.1933 1.21018 94.2274 1.19667 94.2616 1.18357C94.5129 1.19292 94.7642 1.20286 95.0155 1.21221C94.9438 1.20055 94.8722 1.18872 94.8006 1.17705C95.6916 1.16825 96.5916 1.15603 96.9031 1.21873C96.9214 1.20355 96.9404 1.18833 96.9588 1.17315C97.7864 1.19158 99.0283 1.12777 98.7962 1.21221C98.8354 1.20774 98.8751 1.20302 98.9143 1.19854C99.414 1.21577 99.2008 1.181 99.3887 1.17705C99.4453 1.17601 100.414 1.19369 99.9834 1.21873C100.932 1.23789 100.64 1.15903 100.901 1.15557C101.508 1.19466 102.6 1.13617 102.142 1.19789C102.232 1.2002 102.322 1.20274 102.412 1.20505C102.709 1.15644 103.002 1.21139 103.324 1.2298C103.433 1.23089 103.543 1.23195 103.652 1.23305C103.725 1.21669 103.798 1.19992 103.871 1.18357C104.897 1.26142 104.573 1.04894 105.041 1.22784C104.968 1.23854 104.895 1.24904 104.822 1.25975C104.649 1.26483 104.475 1.26964 104.302 1.27472C105.001 1.27944 105.7 1.28433 106.399 1.28905C107.286 1.33916 107.79 1.2852 108.775 1.32486C108.868 1.3201 108.961 1.3153 109.053 1.31053C108.959 1.35104 108.6 1.34511 109.267 1.36327C109.323 1.39191 108.874 1.39564 108.669 1.37369C108.619 1.36833 109.04 1.34583 108.567 1.34504C108.246 1.34449 108.829 1.37928 107.866 1.36653C107.901 1.37351 107.937 1.38038 107.973 1.38737C107.868 1.38716 107.764 1.38692 107.66 1.38671C107.567 1.37052 107.473 1.35473 107.38 1.33853C107.142 1.36192 107.007 1.39432 106.462 1.38737C106.61 1.3772 106.409 1.34451 106.139 1.34504V1.3802C105.486 1.38774 105.711 1.35336 105.167 1.3802C105.113 1.37092 105.059 1.36149 105.005 1.35221C104.709 1.39061 103.619 1.41693 103.818 1.35937C103.512 1.41531 102.869 1.39044 102.63 1.34569C102.612 1.35721 102.594 1.36868 102.576 1.3802C102.449 1.38256 102.321 1.38501 102.194 1.38737C102.123 1.38034 102.052 1.37356 101.981 1.36653C101.891 1.37355 101.802 1.38035 101.712 1.38737C101.657 1.37569 101.602 1.36388 101.548 1.35221C101.403 1.3662 101.258 1.38053 101.114 1.39453C101.025 1.38521 100.936 1.37585 100.848 1.36653C100.835 1.39077 99.9614 1.39613 99.7161 1.3802C99.6431 1.38728 99.5697 1.39461 99.4967 1.40169C99.4611 1.39011 99.4255 1.37811 99.3898 1.36653C99.3354 1.37581 99.2805 1.38525 99.2261 1.39453C99.101 1.38526 98.9759 1.37579 98.8508 1.36653C98.3398 1.42339 98.3227 1.37334 98.206 1.37369C97.9897 1.37436 97.254 1.40999 97.1303 1.4082C97.0073 1.40636 96.9477 1.38605 96.8485 1.38411C95.2117 1.35205 95.884 1.40669 95.5556 1.41536C95.3786 1.42005 95.2533 1.40154 95.0968 1.40364C94.8291 1.40716 93.4807 1.43208 93.3996 1.42969C93.2864 1.42613 93.5526 1.33626 93.1847 1.35937C93.1725 1.40756 92.3856 1.35931 92.7526 1.42643C92.4286 1.42054 92.1044 1.41475 91.7804 1.40885C91.816 1.4657 91.4169 1.42913 90.982 1.43229C90.3648 1.43675 88.9757 1.47397 89.0264 1.41536C88.8788 1.42882 88.7309 1.44228 88.5832 1.45573C87.5721 1.43729 86.58 1.45698 85.5764 1.45769C82.5977 1.45987 79.3659 1.4471 76.4013 1.43555C76.259 1.43496 76.2789 1.41579 76.1763 1.41536C75.6369 1.41326 74.2364 1.42675 73.4814 1.42253C73.2396 1.42119 73.1215 1.40257 73.0448 1.40169C72.7848 1.39867 72.8455 1.42316 72.7263 1.42253C72.5372 1.4214 71.5367 1.39824 71.1917 1.39583C71.0212 1.39464 70.8191 1.41422 70.6193 1.4082C70.6022 1.40771 70.6335 1.38788 70.6193 1.38737C70.2553 1.3849 70.4739 1.4026 70.351 1.40169C69.4726 1.39514 68.5332 1.39478 67.5803 1.39062C67.3436 1.38955 66.9814 1.37503 66.7785 1.37369C66.7018 1.37327 66.8398 1.38863 66.5724 1.38737C66.4809 1.38692 66.4495 1.36722 66.3464 1.36588C65.9004 1.36046 65.7505 1.42429 65.3675 1.37304C64.6275 1.37642 63.339 1.39287 62.6636 1.39323C62.504 1.39329 62.4258 1.38132 62.2738 1.38151C62.1659 1.38165 61.9757 1.39949 61.8072 1.39974C61.6387 1.39995 61.3719 1.38283 61.0477 1.38346C60.707 1.3841 60.2836 1.39456 60.2058 1.39453C60.1129 1.39453 60.0693 1.37277 59.9764 1.37304C59.6955 1.37375 58.943 1.39481 58.5811 1.39713C58.1924 1.39959 57.9589 1.38911 57.826 1.38932C57.703 1.38962 57.5593 1.40804 57.5031 1.4082C57.4158 1.40844 57.3947 1.38719 57.2837 1.38737C57.1024 1.38774 56.9153 1.40133 56.6434 1.40169C51.7425 1.40838 46.9375 1.39657 42.1696 1.38085C41.6381 1.37909 41.337 1.39427 40.5537 1.38737C40.2366 1.38453 40.3698 1.36167 40.1228 1.36588C40.013 1.36781 40.0403 1.38587 39.9011 1.38671C39.2853 1.39037 38.5677 1.37406 38.3009 1.37434C38.1951 1.37446 38.0743 1.39422 37.8576 1.39453C36.2402 1.39678 34.3263 1.39108 32.5857 1.39453C31.6642 1.39636 30.2692 1.40621 29.2115 1.40755C26.2891 1.41128 23.1449 1.40688 20.4795 1.40885C16.455 1.41174 12.4494 1.42997 8.43347 1.4082C10.3123 1.45631 12.8711 1.45247 14.9627 1.45769C21.0044 1.47262 27.4373 1.44491 33.6292 1.44597C35.7836 1.44632 38.5003 1.44525 40.8589 1.45638C40.9659 1.45685 41.188 1.44109 41.419 1.44271C41.4719 1.44328 42.0776 1.47108 42.2821 1.47136C42.0876 1.42177 42.8908 1.46602 43.1396 1.46485C43.4529 1.46329 44.1066 1.43847 44.8401 1.45248C45.5056 1.46516 45.3223 1.48449 45.359 1.48568C45.5943 1.49341 45.6765 1.46275 45.8568 1.45964C46.5936 1.44724 50.3836 1.46502 51.4416 1.46615C51.715 1.46643 51.723 1.48561 51.7846 1.48568C51.9476 1.4858 52.1795 1.4667 52.4405 1.4668C52.9116 1.46708 53.4552 1.48561 53.7145 1.48568C54.3348 1.48588 55.5113 1.46397 56.3171 1.46355C56.5435 1.46342 56.5299 1.48377 56.6322 1.48373C57.084 1.48337 58.2609 1.45985 58.8216 1.45964C59.7322 1.45929 60.6688 1.47218 61.5945 1.4655C61.6532 1.47457 61.7129 1.48377 61.7716 1.49285C61.864 1.48334 61.9565 1.47371 62.0489 1.4642C63.6144 1.47145 65.2082 1.45114 66.7651 1.45248C66.9446 1.45263 67.8309 1.46996 67.9801 1.47006C68.1032 1.47006 68.2251 1.44721 68.4077 1.45052C68.663 1.45515 68.4232 1.49792 68.8409 1.48568C68.9523 1.48233 68.8442 1.46405 69.0692 1.45834C69.1436 1.45644 70.5861 1.44929 70.6683 1.45052C70.7979 1.45266 70.9144 1.492 70.9479 1.49285C71.1213 1.49722 71.1141 1.46694 71.2307 1.4642C71.5746 1.45599 72.0236 1.47631 72.0804 1.47592C72.7567 1.47035 74.0209 1.44608 74.7308 1.46029C74.8281 1.46226 74.8178 1.48457 74.8344 1.48568C74.9455 1.49033 75.0151 1.46486 75.1206 1.4642C75.69 1.46131 76.5826 1.47871 77.1552 1.48308C77.2213 1.4835 77.3607 1.47082 77.4781 1.47201C78.1413 1.4789 77.9285 1.49841 77.9648 1.49936C78.0545 1.50145 78.2128 1.47987 78.4515 1.47852C79.0663 1.47493 80.2447 1.47813 80.9037 1.47982C81.3974 1.48116 81.3902 1.50603 81.4226 1.50652C81.4919 1.50741 81.6845 1.48729 82.0095 1.48503C82.6344 1.48061 82.5635 1.50018 82.8202 1.49936C82.8418 1.49936 82.8046 1.4805 83.0897 1.47852C83.6407 1.47472 84.8784 1.49382 85.4684 1.49285C85.6952 1.49249 85.7486 1.47368 85.9807 1.47331C86.3484 1.47268 87.178 1.49284 87.2458 1.49285C87.2641 1.49285 87.3058 1.47136 87.4139 1.47136C87.5326 1.47138 87.6495 1.4825 87.738 1.48243C88.2423 1.48214 89.1113 1.44512 88.8705 1.52085C89.032 1.50215 89.1935 1.48354 89.3549 1.46485C90.4116 1.46858 91.4384 1.46084 92.4853 1.45704C92.7206 1.45619 92.9171 1.47073 93.1157 1.47006C93.3144 1.46935 94.1919 1.44511 94.3384 1.44466C94.6009 1.44389 96.0858 1.44167 96.2706 1.44336C96.6313 1.44662 96.9811 1.47813 97.128 1.47201C97.2458 1.46708 97.1372 1.44902 97.3619 1.44401C97.7505 1.43539 98.4102 1.45799 98.5301 1.45769C98.5808 1.45754 98.4863 1.44371 98.9611 1.44271C99.2169 1.44215 99.3548 1.45773 99.4477 1.45769C99.4766 1.45761 99.4335 1.43291 99.9399 1.4362C100.29 1.43852 100.44 1.45762 100.477 1.45769C100.532 1.45775 100.665 1.43745 100.887 1.43815C101.404 1.43993 102.349 1.46307 102.841 1.46485C102.936 1.4652 102.904 1.44048 103.283 1.44271C103.554 1.44433 103.507 1.46402 103.608 1.46485C103.769 1.46605 104.009 1.44196 104.364 1.44271C104.812 1.4437 108.134 1.46885 108.305 1.47527C108.421 1.47956 108.556 1.47968 108.613 1.49024C108.564 1.50038 108.514 1.51071 108.465 1.52085C107.957 1.48536 108.161 1.52532 108.027 1.52801C107.832 1.53174 107.094 1.5268 106.916 1.53582C106.853 1.53911 106.997 1.56051 106.656 1.57163C106.29 1.5835 106.127 1.5451 105.981 1.59768C105.462 1.53932 104.963 1.60131 105.565 1.61786C105.903 1.6271 109.196 1.64783 109.869 1.65107C110.415 1.65367 111.437 1.63859 112.107 1.6426C112.5 1.64499 113.466 1.64748 113.433 1.67516C113.782 1.67865 113.412 1.65108 113.485 1.64716C113.639 1.63907 114.731 1.65834 114.938 1.65758C115.958 1.65392 117.245 1.62295 118.236 1.65823C118.19 1.6657 118.144 1.6729 118.098 1.68037C117.875 1.6941 116.843 1.67448 116.726 1.71032H121.257C121.235 1.6799 123.103 1.68026 123.191 1.69404C123.158 1.70885 123.125 1.72351 123.092 1.73832C122.034 1.68213 122.128 1.75694 121.417 1.71748C121.128 1.71695 121.216 1.74083 121.073 1.74548C119.654 1.79169 121.05 1.6956 119.964 1.71748C120.29 1.75296 119.4 1.76571 119.002 1.77022C118.909 1.77118 117.719 1.7625 117.578 1.76306C116.782 1.76624 115.417 1.78575 114.628 1.76632C114.005 1.76399 113.662 1.78912 113.097 1.79497C112.669 1.7994 112.791 1.78151 112.59 1.78129C112.166 1.7808 112.027 1.83518 111.755 1.75981C111.468 1.76921 111.181 1.7784 110.894 1.7878V1.75264C110.714 1.75264 110.533 1.75264 110.353 1.75264C110.3 1.76431 110.247 1.77614 110.194 1.7878C109.622 1.77181 109.86 1.7435 109.753 1.71032C109.63 1.70804 109.506 1.70544 109.382 1.70316C109.287 1.72863 109.191 1.75452 109.095 1.77999C108.543 1.77792 107.991 1.77555 107.439 1.77348C107.403 1.76181 107.368 1.74999 107.332 1.73832C107.331 1.74996 107.33 1.76184 107.329 1.77348C106.394 1.77588 105.459 1.77824 104.524 1.78064C104.275 1.79938 105.773 1.81402 105.887 1.81515C106.517 1.82133 108.19 1.80231 108.195 1.8438C108.588 1.81273 109.769 1.82085 110.136 1.85812C109.579 1.85589 109.021 1.8532 108.464 1.85096C108.482 1.8649 108.499 1.87935 108.517 1.89329C107.822 1.837 107.721 1.84011 107.007 1.89329C107.006 1.87457 107.005 1.85536 107.005 1.83664C106.507 1.9017 105.628 1.79164 105.602 1.8718C105.336 1.86529 105.071 1.85878 104.805 1.85226C104.234 1.86208 105.122 1.92401 102.881 1.8998C102.727 1.89811 102.758 1.87755 102.526 1.87896C102.458 1.87946 102.075 1.9094 101.342 1.90631C101.228 1.90581 101.219 1.88777 101.1 1.88547C100.826 1.88012 100.279 1.91529 100.527 1.85812C99.4403 1.84144 99.8906 1.88829 99.5535 1.90696C99.3289 1.91934 99.3738 1.88561 99.1793 1.89329C98.9392 1.90282 99.1151 1.93697 98.1526 1.92128C98.2605 1.91897 98.3687 1.91644 98.4766 1.91412C98.4223 1.90484 98.3673 1.8954 98.3129 1.88612C97.7634 1.90836 97.8149 1.87632 97.5557 1.92845C97.1561 1.90521 96.8103 1.90339 96.2639 1.90761C95.2019 1.91585 95.746 1.97152 94.5344 1.89589C94.3382 1.9065 94.1415 1.91718 93.9453 1.92779C93.6225 1.90546 93.8825 1.87743 93.4007 1.8718C93.7778 1.92697 92.7618 1.90726 92.59 1.95644C92.572 1.94472 92.5535 1.933 92.5355 1.92128C92.4282 1.92128 92.3209 1.92128 92.2136 1.92128C92.2133 1.93062 92.2129 1.93995 92.2125 1.94928C92.0694 1.94225 91.9258 1.93548 91.7827 1.92845C91.6749 1.93776 91.5664 1.94712 91.4586 1.95644C91.2815 1.9368 91.1045 1.91684 90.9274 1.89719C90.8161 1.89585 90.7046 1.89463 90.5933 1.89329C90.6284 1.90726 90.6639 1.92098 90.6991 1.93496C90.5562 1.93028 90.4133 1.92596 90.2703 1.92128C90.4363 1.94424 90.3318 1.9708 89.8873 1.97012C89.5199 1.96955 89.9332 1.92218 89.1434 1.94212C89.0883 1.94357 88.9905 1.9772 88.2447 1.98249C87.3494 1.98882 87.7839 1.96446 87.6244 1.96361C87.5928 1.96348 87.319 1.98067 87.0631 1.98314C86.918 1.98451 86.7784 1.97074 86.7591 1.97077C86.6694 1.9714 86.6428 1.99089 86.5185 1.9916C86.2034 1.99328 85.7805 1.98347 85.4717 1.98444C85.3313 1.98486 85.1981 1.99667 85.1354 1.99681C85.0383 1.99688 84.9151 1.97916 84.8169 1.97923C84.4539 1.97962 83.9031 2.0384 83.7345 1.95644C83.3856 2.03181 82.6542 1.94106 82.7077 1.9916C81.775 1.97254 79.2883 2.03421 79.3613 1.94928C78.8331 2.0219 78.8798 1.96968 78.6586 1.97077C78.4117 1.97197 78.5393 1.9857 78.3434 1.98509C77.8843 1.98361 77.4451 1.97756 76.9882 1.97728C77.0598 1.96565 77.1314 1.95375 77.2031 1.94212C76.7238 1.9384 76.8883 1.96555 76.399 1.97077C75.4996 1.98027 75.8782 1.95895 75.7454 1.92845C75.781 1.9579 74.7197 1.95316 74.6117 1.94928C74.5495 1.94672 74.8281 1.9091 74.1807 1.92128C74.2161 1.9329 74.2511 1.94482 74.2865 1.95644C73.9903 1.94052 73.1875 1.96034 73.0504 1.95644C72.9877 1.95461 72.6523 1.86051 72.3455 1.93496C72.3085 1.92329 72.2711 1.91211 72.2341 1.90045C71.8935 1.91448 71.5524 1.92808 71.2118 1.94212C71.1576 1.92114 71.1034 1.89994 71.0492 1.87896C70.9412 1.87896 70.8331 1.87896 70.7251 1.87896C70.7968 1.89762 70.8684 1.9163 70.9401 1.93496C70.273 1.92651 69.4581 1.95612 69.3197 1.89329C69.1768 1.90496 69.0329 1.91677 68.8899 1.92845C68.797 1.90753 68.7044 1.8862 68.6115 1.86529C67.9494 1.87057 67.9382 1.88463 67.4856 1.90696C67.5033 1.89062 67.5214 1.87446 67.5391 1.85812C67.2053 1.88109 66.5954 1.90211 66.1136 1.90501C65.8845 1.90634 65.4906 1.88408 65.4365 1.88612C65.3799 1.88865 64.8455 1.97631 64.7873 1.8998C63.9968 1.93374 63.6481 1.89964 63.3273 1.90045C63.1189 1.90102 63.0227 1.91938 62.7872 1.92128C62.4503 1.92402 62.1108 1.91481 61.9164 1.91607C61.8056 1.9169 61.7847 1.93505 61.7081 1.93561C61.3455 1.93834 61.5578 1.9201 61.1758 1.92128C61.1405 1.92149 60.8605 1.94298 60.5455 1.94017C60.3695 1.93859 59.9155 1.91415 59.874 1.91412C59.6957 1.91454 59.8375 1.96382 59.2281 1.90696C59.2457 1.91629 59.2639 1.92563 59.2815 1.93496C58.5275 1.9587 58.4082 1.91701 58.2559 1.91412C58.2353 1.914 58.0524 1.93001 57.943 1.92779C57.7576 1.92398 57.6822 1.90207 57.6412 1.9011C57.4958 1.89775 57.0085 1.90745 56.6901 1.88612C56.7571 1.94897 55.6402 1.97096 55.3928 1.8998C55.1953 1.91382 54.9978 1.92809 54.8003 1.94212C54.7109 1.9304 54.6213 1.91867 54.5319 1.90696C54.4776 1.91864 54.4226 1.93044 54.3682 1.94212C54.0802 1.91641 53.7921 1.89034 53.5041 1.86464C53.4857 1.89036 53.4678 1.91639 53.4495 1.94212C53.3688 1.93919 53.2874 1.93658 53.2067 1.93365C53.1438 1.91321 53.0814 1.89224 53.0185 1.8718C52.9177 1.8757 52.8164 1.87961 52.7156 1.88352C52.6906 1.89833 52.666 1.91363 52.641 1.92845C52.0989 1.94552 52.3775 1.80425 51.3447 1.92845C51.1841 1.91677 51.0232 1.90496 50.8625 1.89329C50.681 1.95006 50.3406 1.91555 50.0663 1.92193C49.8734 1.92646 49.8836 1.94875 49.6208 1.94928C49.3581 1.94977 49.3661 1.92873 49.3458 1.92845C49.131 1.92712 48.9688 1.94589 48.8112 1.94212C48.7875 1.94156 48.7278 1.91578 48.5273 1.91412C48.3264 1.9125 48.2049 1.94007 47.9059 1.93496C47.7525 1.93235 47.7078 1.91083 47.5718 1.90891C46.9235 1.89961 46.2706 2.00874 45.7844 1.87896C45.6748 1.8954 44.8796 1.95324 44.5394 1.94993C44.0107 1.94464 44.214 1.91878 44.0037 1.91412C43.9725 1.9135 43.8108 1.92217 43.369 1.92063C43.2898 1.92035 43.3078 1.93467 43.2966 1.93496C42.7791 1.93467 41.7735 1.92333 41.2052 1.92128C41.1532 1.92134 40.8878 1.96061 40.439 1.90696C39.7714 1.94676 38.5133 1.86129 37.6327 1.92128C37.5108 1.92255 37.3629 1.90848 37.3086 1.90891C36.843 1.91335 37.0133 1.95696 35.9611 1.89329C36.0458 1.91545 35.7997 1.93534 35.4522 1.93365C34.9295 1.93112 35.3003 1.88994 34.8809 1.89329V1.92845C33.9141 1.89703 33.7208 1.94705 32.7506 1.94733C32.4016 1.94738 31.886 1.92135 31.8029 1.92128C31.7682 1.92157 31.3893 1.94972 31.353 1.94993C31.1477 1.95078 31.0313 1.93763 30.8541 1.93756C30.2686 1.93731 29.5706 1.97345 29.697 1.90696C29.536 1.92099 29.3747 1.93525 29.2137 1.94928C28.6054 1.87826 28.1507 1.97594 28.0232 1.90696C27.9146 1.92119 27.8056 1.9357 27.6969 1.94993C25.088 1.94273 22.4783 1.93565 19.8693 1.92845C19.7633 1.95055 18.628 1.94296 18.5697 1.93951C18.3021 1.92386 18.5848 1.87508 18.0385 1.88612C17.978 1.90731 17.9174 1.92874 17.857 1.94993C17.1698 1.95684 17.5001 1.93566 17.2289 1.92128C17.1156 1.9239 17.1517 1.94027 16.9984 1.94147C16.1664 1.94802 14.4614 1.94859 13.5517 1.94993C13.3688 1.95021 13.3953 1.93508 13.339 1.93496C13.1824 1.9351 12.8727 1.95448 12.5583 1.95449C10.6146 1.95435 7.85999 1.94342 5.90332 1.92714C5.77099 1.92598 5.75438 1.9079 5.665 1.90696C5.54088 1.90577 5.26361 1.92018 5.13269 1.91868C5.00961 1.91727 4.93026 1.90339 4.7986 1.90175C4.19571 1.89414 3.38455 1.91809 2.73951 1.87701C2.68285 1.87326 2.01302 1.80013 1.9945 1.79497C1.90482 1.76622 2.50544 1.72048 1.51898 1.67842C2.40056 1.64171 2.12519 1.5773 0.979989 1.54559C1.55425 1.53741 2.1285 1.52902 2.70276 1.52085C2.70358 1.51324 2.70529 1.50566 2.70611 1.49806C2.18319 1.45994 1.66377 1.44689 0.868627 1.44336C0.893422 1.43624 0.918444 1.429 0.943239 1.42188C1.64553 1.3863 2.49313 1.37992 3.02794 1.33137C2.24373 1.29544 1.45907 1.25986 0.674856 1.22394C0.713855 1.21834 0.752788 1.2126 0.791787 1.20701C1.16779 1.19242 1.98961 1.18349 2.30186 1.16989C3.4933 1.11807 1.25906 1.13117 1.62478 1.09957C2.88381 1.10071 4.14316 1.10169 5.40219 1.10283C5.44625 1.07955 0.612588 1.0155 0.652584 0.945256C1.04828 0.940536 1.44401 0.935652 1.83971 0.930932C1.6634 0.913074 1.48704 0.895397 1.31074 0.87754C1.35933 0.871883 1.40802 0.866267 1.45662 0.860611C2.12424 0.846735 2.79241 0.832815 3.46003 0.818939C1.43011 0.832888 0.486226 0.82223 0 0.681553C0.0549197 0.67798 0.109897 0.674708 0.164816 0.671135C0.604564 0.759141 2.68094 0.730352 3.78409 0.712807C3.55925 0.687028 2.58731 0.707471 2.38204 0.691971C2.3247 0.687495 2.52663 0.669213 2.39206 0.660066C2.03944 0.636255 0.539441 0.605884 0.757264 0.576723C0.897724 0.55798 3.31301 0.532427 3.78409 0.5344C2.67989 0.500721 1.54176 0.49069 0.434313 0.449755C1.13335 0.392683 1.75307 0.322631 3.02906 0.319531C3.41479 0.289589 0.716333 0.247969 0.653697 0.23163C1.12103 0.214097 1.58842 0.197074 2.05575 0.17954C1.66044 0.184219 1.26505 0.188535 0.86974 0.193214C0.868594 0.187408 0.867546 0.18144 0.866399 0.175634C1.89065 0.148436 2.82786 0.0986753 4.00014 0.102057C3.96232 0.0710547 3.26027 0.0743411 2.91992 0.0740592ZM115.101 1.83729C115.122 1.86277 114.694 1.85862 114.453 1.85812C114.489 1.86279 114.526 1.86779 114.562 1.87245C114.045 1.86759 113.083 1.85772 113.047 1.90761C112.68 1.91376 112.842 1.87022 112.723 1.86529C112.675 1.8634 112.195 1.8888 111.811 1.85812C111.72 1.85825 111.629 1.858 111.537 1.85812C111.52 1.87445 111.501 1.89064 111.484 1.90696C111.356 1.88713 111.229 1.86754 111.102 1.84771C112.434 1.84421 113.766 1.84079 115.099 1.83729H115.101ZM101.821 1.85812C101.336 1.8489 100.593 1.83486 100.743 1.87961C101.049 1.87725 101.356 1.87481 101.663 1.87245C101.715 1.86782 101.768 1.86275 101.821 1.85812ZM53.5609 1.82296C53.1557 1.77886 52.7821 1.81725 52.1555 1.80929C52.1563 1.81856 52.158 1.82802 52.1588 1.83729C52.4153 1.81496 53.0923 1.82951 53.5609 1.82296ZM127.406 1.67907C127.043 1.72914 126.978 1.69377 126.568 1.6986C126.543 1.6989 126.551 1.71025 126.542 1.71032C126.442 1.71106 126.349 1.69774 126.258 1.69795C126.083 1.69838 125.94 1.71212 125.63 1.71162C125.391 1.71117 125.388 1.68892 125.304 1.68948C125.23 1.69023 124.52 1.75068 124.063 1.72465C123.193 1.67491 126.871 1.664 127.138 1.66865C127.227 1.67211 127.317 1.67561 127.406 1.67907ZM129.719 1.70967C129.633 1.70987 129.547 1.71012 129.461 1.71032C129.72 1.67655 129.197 1.68162 128.814 1.68232C128.831 1.65033 129.638 1.66395 130 1.65432C129.906 1.67283 129.813 1.69117 129.719 1.70967ZM118.828 1.64065C119.162 1.63737 119.11 1.6771 119.095 1.68948C118.988 1.68948 118.881 1.68948 118.774 1.68948C118.792 1.67321 118.81 1.65692 118.828 1.64065ZM121.362 1.62633C121.254 1.65365 120.525 1.66575 120.179 1.668C120.167 1.66761 120.256 1.65294 120.014 1.65432C119.939 1.65486 119.217 1.71003 119.376 1.64781C120.038 1.64078 120.7 1.63336 121.362 1.62633ZM122.102 1.6426C121.964 1.65123 121.826 1.66002 121.688 1.66865C121.617 1.65575 121.545 1.64248 121.474 1.62958C121.631 1.62633 121.788 1.62307 121.945 1.61982C121.997 1.62734 122.05 1.63508 122.102 1.6426ZM15.8268 1.57684C15.7012 1.56988 15.5749 1.56296 15.4493 1.55601C15.3049 1.5794 15.1605 1.60294 15.0161 1.62633C15.6437 1.64211 16.312 1.66016 16.2043 1.59117H16.6353C16.5144 1.61969 16.5302 1.62906 16.9059 1.64716C16.9885 1.60757 17.3777 1.62789 17.8224 1.61916C17.4989 1.61685 17.1749 1.61432 16.8514 1.612V1.59117C17.5722 1.59368 16.6753 1.54967 16.2055 1.57749C16.1687 1.56823 16.132 1.55876 16.0952 1.54949C16.0059 1.55876 15.9161 1.56758 15.8268 1.57684ZM18.377 1.60614C18.4091 1.61992 18.4419 1.63338 18.4739 1.64716C18.5986 1.65555 19.2018 1.59562 19.0107 1.584C18.7996 1.59129 18.5881 1.59886 18.377 1.60614ZM67.9734 1.59117C67.884 1.58413 67.7943 1.57736 67.705 1.57033C67.3585 1.662 68.0635 1.5747 68.5658 1.64716C68.402 1.59232 69.1624 1.59483 69.2095 1.59117C69.1214 1.57262 69.0336 1.55371 68.9456 1.53517C68.6215 1.55384 68.2974 1.5725 67.9734 1.59117ZM12.2098 1.64065C12.7586 1.6279 12.4841 1.59516 13.1797 1.58465H13.1809C12.8213 1.5823 12.4613 1.57985 12.1018 1.57749C12.1379 1.59843 12.1736 1.61971 12.2098 1.64065ZM22.3582 1.57033C21.399 1.61013 21.9925 1.57751 20.9562 1.57749C21.0284 1.59852 21.1011 1.61962 21.1733 1.64065C21.6831 1.60219 22.5212 1.62754 22.3593 1.57033H22.3582ZM44.291 1.61461C44.817 1.62376 44.7139 1.60793 45.1909 1.64065C45.9009 1.60096 45.3014 1.60627 45.3 1.57033C45.1377 1.58089 44.9756 1.59167 44.8133 1.60224C44.4274 1.56918 44.7778 1.55191 44.7922 1.54819L44.7911 1.54103C44.7871 1.53568 44.7646 1.53284 44.653 1.52801C44.5323 1.55685 44.4117 1.58576 44.291 1.61461ZM46.5428 1.57033C46.3627 1.59427 46.282 1.6253 46.7555 1.64065H46.7566C46.7947 1.58712 47.2497 1.62991 47.4571 1.62633C47.5115 1.62051 47.5664 1.61457 47.6208 1.60875C47.2617 1.59585 46.9018 1.58323 46.5428 1.57033ZM54.4774 1.52085C54.4794 1.57999 54.082 1.58615 54.6422 1.64065C54.7509 1.63959 54.8598 1.63845 54.9685 1.6374C55.0398 1.62443 55.111 1.61129 55.1823 1.59833C56.562 1.70535 56.9735 1.52305 54.6422 1.59117H54.6411C54.5867 1.56777 54.5317 1.54424 54.4774 1.52085ZM65.4377 1.52801C65.7477 1.57373 64.225 1.5765 63.7138 1.56642C63.5895 1.56395 63.3681 1.53919 63.2783 1.54233C63.224 1.55161 63.169 1.5604 63.1146 1.56968C63.0459 1.53801 62.0513 1.57395 61.6591 1.59117C61.6223 1.57955 61.5857 1.56763 61.5489 1.55601C61.4057 1.56064 61.2622 1.5657 61.119 1.57033C61.137 1.55871 61.1545 1.5468 61.1725 1.53517C61.0641 1.54916 60.9557 1.56285 60.8473 1.57684C60.4216 1.59241 60.6838 1.52904 60.364 1.54884C60.0089 1.57083 60.5908 1.6089 60.58 1.63349C60.8684 1.62715 61.5242 1.61272 61.8173 1.612C61.9854 1.61162 61.7954 1.65612 62.52 1.60549C62.6788 1.61729 62.8378 1.62885 62.9966 1.64065C63.288 1.6219 63.5794 1.6034 63.8708 1.58465C63.9252 1.60097 63.9801 1.61717 64.0345 1.63349C64.0665 1.63599 64.7398 1.59886 64.7038 1.58661C64.9769 1.6178 65.5385 1.62344 66.1292 1.62502C66.1859 1.61618 66.2429 1.60718 66.2996 1.59833C65.7287 1.61747 66.1169 1.58862 65.9477 1.57163C65.8494 1.56184 65.5479 1.5428 65.4377 1.52801ZM52.0474 1.52605C52.0299 1.55708 52.0126 1.58814 51.9951 1.61916C51.6905 1.54436 51.297 1.61591 50.7 1.56317C50.6459 1.5726 50.5914 1.58173 50.5374 1.59117C50.3141 1.57039 48.1211 1.56424 48.5963 1.612C48.804 1.63277 49.2557 1.60486 49.2946 1.60549C49.4263 1.6079 49.598 1.63438 49.8202 1.63284C49.9487 1.6319 50.2194 1.60092 50.4817 1.60093C51.0684 1.60107 52.1402 1.68517 52.9116 1.60549C52.9669 1.61481 53.0222 1.62417 53.0775 1.63349C53.65 1.62778 53.4592 1.59812 53.9918 1.63349C54.3597 1.48604 51.8513 1.64032 52.3726 1.52085L52.0474 1.52605ZM36.2863 1.57033C36.2518 1.54385 35.5881 1.58493 35.744 1.5215C35.5273 1.54359 35.3103 1.56517 35.0936 1.58726C35.0953 1.59316 35.0964 1.59959 35.0981 1.60549C35.3135 1.60085 35.5297 1.59581 35.7451 1.59117C35.7459 1.60045 35.7465 1.60988 35.7473 1.61916C36.0686 1.58533 37.4073 1.60035 37.3665 1.63349C37.4381 1.61949 37.5099 1.60516 37.5815 1.59117C38.2221 1.62928 38.7734 1.58914 39.4713 1.62633C39.5254 1.61473 39.5798 1.60276 39.6339 1.59117C39.6691 1.60053 39.7045 1.61046 39.7397 1.61982C39.9938 1.62099 40.2484 1.62189 40.5025 1.62307C41.3295 1.5854 39.7222 1.53685 39.5259 1.54233C39.4999 1.54311 39.5037 1.56714 39.3421 1.57098C39.0543 1.57766 37.4428 1.5537 36.9445 1.56968C36.9402 1.55368 36.9354 1.5375 36.9311 1.5215C36.7162 1.53784 36.5012 1.55398 36.2863 1.57033ZM57.5565 1.58465C57.5928 1.60096 57.6294 1.61718 57.6657 1.63349C58.2927 1.61717 58.6876 1.63145 58.5276 1.57749H58.5265C58.2032 1.57985 57.8798 1.58229 57.5565 1.58465ZM10.0516 1.60875C10.1934 1.61216 10.3352 1.61575 10.477 1.61916C10.5508 1.60526 10.6248 1.59139 10.6986 1.57749H10.6975C10.4822 1.58799 10.2668 1.59825 10.0516 1.60875ZM57.0153 1.57749C56.824 1.5582 56.2868 1.61628 56.64 1.61916C56.9096 1.62134 57.1167 1.58791 57.0153 1.57749ZM103.494 1.57684C103.512 1.58628 103.532 1.59605 103.55 1.60549C103.752 1.57784 104.004 1.62554 104.627 1.61916V1.57033C104.484 1.57963 104.341 1.58902 104.198 1.59833C104.182 1.56581 103.881 1.55353 103.494 1.57684ZM42.4925 1.61786C42.9736 1.61583 43.4548 1.61339 43.9358 1.61135C43.9406 1.60232 43.9455 1.59304 43.9503 1.584C43.4684 1.61712 43.2742 1.58163 43.1618 1.57945H43.1641C42.8033 1.57226 42.4586 1.56685 42.1173 1.55601C42.2422 1.57647 42.3676 1.59739 42.4925 1.61786ZM40.8433 1.56056C40.9243 1.62464 41.031 1.63169 41.7698 1.58661C41.7406 1.57872 41.711 1.57106 41.6818 1.56317C41.2993 1.56788 41.0762 1.58281 41.1428 1.54949C41.0431 1.5532 40.943 1.55686 40.8433 1.56056ZM48.3769 1.58075C48.2885 1.5604 47.5884 1.58084 47.6219 1.59117C47.637 1.59525 48.5486 1.62068 48.3769 1.58075ZM109.542 1.584C109.379 1.57932 109.217 1.57501 109.055 1.57033C109.271 1.56338 109.486 1.55645 109.702 1.54949C109.649 1.5611 109.595 1.5724 109.542 1.584ZM111.322 1.49285C111.437 1.50109 111.063 1.55872 111.753 1.57359C111.25 1.57481 110.747 1.57627 110.244 1.57749C110.48 1.56818 110.716 1.55881 110.951 1.54949C110.91 1.53293 110.869 1.51592 110.828 1.49936C110.992 1.49712 111.158 1.49509 111.322 1.49285ZM113.151 1.4935C113.181 1.49507 113.321 1.52804 113.372 1.53517C113.157 1.53521 112.942 1.53513 112.727 1.53517C112.799 1.54562 112.871 1.55598 112.943 1.56642C112.691 1.57 112.439 1.57391 112.186 1.57749C112.294 1.567 112.402 1.55608 112.509 1.54559C112.294 1.54205 112.078 1.53871 111.862 1.53517C111.592 1.49135 113.018 1.48814 113.151 1.4935ZM106.139 1.54559C106.32 1.54669 106.5 1.54775 106.681 1.54884C106.645 1.53253 106.609 1.51632 106.573 1.50001C106.465 1.50001 106.356 1.50001 106.249 1.50001C106.212 1.51523 106.176 1.53037 106.139 1.54559ZM109.672 1.4948C109.756 1.50125 109.838 1.51711 109.814 1.52475C109.552 1.60351 108.836 1.43109 109.672 1.4948ZM113.685 1.50261C114.246 1.44529 114.119 1.57229 113.59 1.53517C113.563 1.53311 113.643 1.50685 113.685 1.50261ZM117.889 1.50066C117.935 1.50109 118.014 1.54223 118.447 1.50327C118.519 1.50794 118.591 1.51292 118.662 1.51759C118.493 1.53664 117.062 1.54782 117.26 1.50717C117.479 1.50654 117.662 1.49939 117.889 1.50066ZM110.784 1.3177C111.198 1.3338 111.705 1.31625 112.377 1.319H112.378C112.412 1.31925 112.471 1.33716 112.578 1.33788C112.67 1.33844 114.485 1.31901 114.344 1.34895C113.642 1.37575 113.38 1.33512 113.211 1.40169C113.177 1.38768 113.143 1.37338 113.109 1.35937C112.433 1.33506 112.24 1.38386 111.861 1.40169C111.863 1.39112 111.864 1.38036 111.866 1.36979C111.613 1.36873 111.359 1.36759 111.106 1.36653C111.142 1.37346 111.178 1.38043 111.213 1.38737C111.124 1.38737 111.033 1.38737 110.944 1.38737C110.726 1.35607 110.45 1.34909 110.784 1.3177ZM116.502 1.34895C116.287 1.35009 116.072 1.35107 115.857 1.35221C115.928 1.36505 115.999 1.37842 116.07 1.39127C115.964 1.39477 115.858 1.39819 115.752 1.40169C115.572 1.37953 115.391 1.35743 115.21 1.33528C115.677 1.33174 116.145 1.32775 116.612 1.32421C116.575 1.33242 116.538 1.34073 116.502 1.34895ZM117.477 1.36653C117.676 1.28631 119.614 1.34104 120.499 1.32421C120.034 1.37253 119.314 1.33968 118.807 1.33918C117.828 1.33828 118.504 1.36789 118.338 1.38085C118.254 1.38699 117.7 1.33561 117.477 1.36653ZM109.272 1.33137C109.76 1.33785 110.035 1.3195 110.457 1.34895C110.422 1.35481 110.385 1.36067 110.35 1.36653C110.204 1.36115 109.027 1.3441 109.272 1.33137ZM121.795 1.34569C120.852 1.31691 121.317 1.38901 120.827 1.33463C121.15 1.33117 121.472 1.32766 121.795 1.32421V1.34569ZM55.9351 1.27537C55.5376 1.27353 55.0937 1.25878 54.856 1.28905C55.1261 1.29373 55.3966 1.29869 55.6667 1.30337C55.7562 1.29411 55.8456 1.28464 55.9351 1.27537ZM67.2707 0.979766C67.1798 0.97252 66.8207 0.993439 66.7829 0.993439C66.7134 0.993401 66.7325 0.98322 66.7317 0.980417C66.2718 0.982329 66.6956 1.01497 66.3553 1.02209C66.2968 1.02325 65.4977 1.00709 65.1726 1.00841C64.6723 1.01046 64.1724 1.0085 63.9855 1.00907C63.6699 1.01001 63.084 1.03449 62.5656 1.03576C62.3522 1.03621 62.2771 1.01639 62.0623 1.01688C60.6824 1.0202 57.9665 1.04758 56.7425 1.03511C56.4401 1.03201 56.1518 1.00633 55.9919 1.00841C55.8658 1.01781 55.7394 1.02701 55.6133 1.03641C55.2255 0.951834 55.0958 1.0272 54.6778 1.03511C54.4129 1.04008 54.2885 1.015 54.2524 1.01493C54.016 1.01542 53.899 1.02726 53.7134 1.02925C53.5049 1.03143 53.2044 1.02004 53.1299 1.02209C53.0856 1.02368 53.2278 1.05658 52.4216 1.05595C51.5972 1.05529 50.7833 1.0523 49.9449 1.05074C50.2244 1.15115 50.4658 1.08241 50.808 1.07874C50.8992 1.0778 50.8417 1.09376 50.9216 1.09306C51.1474 1.09114 51.5787 1.07562 51.7657 1.07939C51.9675 1.08349 51.8995 1.12039 52.1555 1.10673C52.1669 1.10567 52.1279 1.09044 52.1866 1.08785C52.7917 1.06256 52.9908 1.08903 53.7557 1.0898C54.2642 1.09035 57.3407 1.07528 57.4463 1.08525C57.9952 1.13875 54.7529 1.13961 54.3738 1.13538C54.2416 1.13387 54.38 1.11648 54.2591 1.11324C54.2055 1.11216 53.7456 1.14444 53.2914 1.1471C52.7403 1.15034 51.6326 1.1281 51.1075 1.12887C46.5936 1.13556 42.1423 1.11627 37.6327 1.11585C37.5366 1.11585 37.41 1.13536 37.097 1.13538C31.2496 1.13503 25.1888 1.11978 19.2668 1.12887C17.9759 1.13085 16.6953 1.1491 15.3925 1.13473C15.2308 1.14881 15.0686 1.16297 14.907 1.17705C15.3205 1.16586 16.0785 1.19742 16.1475 1.19789C16.173 1.19795 16.3297 1.18207 16.5819 1.18291C16.9359 1.18404 17.0919 1.19779 17.122 1.19789C17.2124 1.19793 17.1537 1.1835 17.24 1.18357C17.8838 1.1842 18.382 1.1798 18.9728 1.17966C19.6403 1.17952 19.979 1.20698 20.4651 1.17705C20.52 1.18872 20.5749 1.20055 20.6299 1.21221C20.9931 1.16171 23.1569 1.16721 24.0331 1.16989C24.3092 1.17076 24.261 1.19073 24.3538 1.19073C24.4129 1.19065 24.3907 1.16397 25.1133 1.16924C25.4769 1.17193 25.5725 1.19134 25.7548 1.19073C25.854 1.19035 25.8383 1.1712 25.9808 1.17119C26.805 1.17119 27.4781 1.17737 28.2849 1.18096C28.5118 1.18195 28.5148 1.1981 28.5656 1.19789C28.7525 1.19715 29.0782 1.16982 29.5534 1.16989C30.3356 1.17003 31.8937 1.17026 32.5334 1.18357C32.6274 1.18554 32.7059 1.20468 32.7751 1.2044C32.8793 1.20386 32.9203 1.18375 32.9388 1.18357C33.2888 1.18321 33.0785 1.20247 33.3129 1.19789C33.4393 1.19541 33.5716 1.17185 33.8653 1.16924C34.2526 1.16582 34.1766 1.19347 34.3386 1.19073C34.3555 1.19012 34.3616 1.17117 34.5201 1.17054C35.1241 1.16829 36 1.16396 36.5714 1.16403C36.7356 1.16403 36.8581 1.17684 37.087 1.17705C37.5493 1.17747 40.1706 1.16966 40.3856 1.17705C40.4072 1.17794 40.1761 1.2059 40.547 1.20505C40.6547 1.19336 40.7623 1.18158 40.87 1.16989C41.0505 1.18865 41.2318 1.20713 41.4123 1.22589C41.4062 1.1611 42.4675 1.15115 42.4569 1.21742C42.5731 1.22011 42.6893 1.22255 42.8055 1.22524C43.0474 1.17946 43.2087 1.19679 43.6763 1.16989C43.749 1.18389 43.8219 1.19756 43.8946 1.21156C43.913 1.2022 43.9319 1.19293 43.9503 1.18357C44.1996 1.23419 44.608 1.18332 44.6585 1.18291C44.8494 1.18179 44.9931 1.19501 45.0828 1.19463C45.4176 1.1933 46.1426 1.17535 46.5339 1.18357C46.5523 1.18399 46.5351 1.20563 46.6464 1.20831C46.8466 1.21308 46.8667 1.18147 47.1341 1.21873C47.188 1.20941 47.2418 1.20005 47.2956 1.19073C47.353 1.19557 47.4108 1.20021 47.4682 1.20505C47.8067 1.20257 48.1454 1.20037 48.4838 1.19789C48.176 1.23459 48.5298 1.25474 48.8647 1.22589C48.978 1.21609 48.8781 1.19411 48.9159 1.19073C48.9726 1.18621 50.4872 1.19779 50.5875 1.21221C50.6594 1.20518 50.7316 1.19777 50.8035 1.19073C50.8398 1.20477 50.8764 1.21901 50.9127 1.23305C50.952 1.22816 50.9913 1.22296 51.0307 1.21808C51.426 1.24287 52.4523 1.18627 52.6388 1.19073C52.7382 1.19312 52.6489 1.25285 53.1254 1.24672C53.1419 1.2303 53.1591 1.21367 53.1755 1.19724C53.2843 1.19489 53.3931 1.19308 53.5018 1.19073C53.7066 1.1922 54.0046 1.22068 54.0141 1.24021C54.0781 1.22849 54.1428 1.21677 54.2068 1.20505C54.3794 1.24314 55.2951 1.2292 55.6634 1.20505C55.771 1.21656 55.8787 1.22806 55.9863 1.23956C56.1311 1.22557 56.2759 1.21188 56.4206 1.19789C56.7556 1.19368 56.403 1.21672 56.473 1.21873C56.6241 1.22274 57.3937 1.1837 57.3449 1.2324C57.45 1.23252 57.5551 1.23293 57.6601 1.23305C57.7142 1.21905 57.7686 1.20473 57.8227 1.19073C58.0032 1.23889 58.3152 1.22197 58.9552 1.23956C59.009 1.22845 59.063 1.21746 59.1167 1.20635C59.3146 1.22213 59.5124 1.23811 59.7103 1.25389C59.7509 1.23549 59.7921 1.21694 59.8328 1.19854C59.9188 1.1959 60.0051 1.19337 60.0911 1.19073C60.2661 1.23185 60.5805 1.18741 60.7404 1.2044C60.9733 1.2292 60.7926 1.2586 60.3595 1.2643C60.3919 1.29429 61.6812 1.28083 61.9798 1.27863C61.9605 1.27286 61.9413 1.26682 61.9219 1.26105C61.6177 1.26569 61.313 1.27009 61.0088 1.27472C60.7539 1.19928 61.5793 1.21931 61.9587 1.20961C61.9933 1.20868 62.1902 1.18026 62.5723 1.18291C62.7203 1.18397 63.2984 1.22552 63.4086 1.22784C64.2979 1.24689 63.644 1.18723 64.5145 1.23956C64.3335 1.19954 64.8335 1.23299 65.3541 1.22524C65.4429 1.2239 66.1925 1.19166 66.245 1.19073C66.5615 1.18552 66.2173 1.22077 66.6749 1.21156C66.7299 1.20224 66.7858 1.19288 66.8408 1.18357H67.1604C67.8068 1.26651 67.9575 1.20582 68.1872 1.19789C68.2801 1.19472 68.1612 1.21614 68.4021 1.21156C68.4928 1.20984 68.5936 1.192 68.8375 1.19073C69.6012 1.1868 69.8604 1.26385 70.5625 1.18357C70.6702 1.19519 70.7778 1.2071 70.8855 1.21873C70.9582 1.20478 71.0311 1.19035 71.1038 1.1764C71.6601 1.21691 71.4596 1.17591 71.6606 1.1764C72.1911 1.17767 73.2771 1.18533 73.3722 1.21873C73.8302 1.14208 74.3777 1.22888 74.5582 1.22589C74.6655 1.21657 74.7728 1.20721 74.8801 1.19789C75.0062 1.20725 75.1326 1.21653 75.2587 1.22589C75.1974 1.15055 75.8508 1.22476 75.9135 1.22589C75.99 1.22691 76.9914 1.20464 77.3646 1.20505C77.7381 1.20549 78.3886 1.22585 78.4459 1.22589C78.5132 1.22583 79.1478 1.2055 79.6441 1.2057C80.0791 1.20592 82.6551 1.23473 82.4928 1.20115C82.3243 1.19186 82.0842 1.18402 81.877 1.17966C81.2321 1.16627 77.4545 1.1492 76.4881 1.14385C74.5511 1.13321 72.5305 1.1349 70.5848 1.12757C70.4704 1.12715 70.4525 1.10782 70.3543 1.10738C70.2052 1.10682 69.8264 1.12604 69.6794 1.12562C69.1307 1.12392 68.4632 1.1209 68.1694 1.12041C67.5126 1.11942 67.0616 1.10733 66.5646 1.10543C66.408 1.10492 65.6222 1.12931 65.0835 1.1191C64.9859 1.11362 64.8882 1.10832 64.7906 1.10283C65.0682 1.09642 65.7964 1.07935 66.1348 1.07743C66.6381 1.07469 66.9011 1.09073 67.0869 1.09046C67.2428 1.09023 68.038 1.072 68.3999 1.07157C68.5119 1.07148 68.5355 1.09248 68.6315 1.09241C69.1533 1.09192 69.8405 1.091 70.2931 1.07092C70.1086 1.07746 71.2579 1.08983 71.322 1.0898C71.4258 1.0898 71.539 1.07092 71.7508 1.07092C72.1575 1.07096 72.1063 1.11099 72.615 1.07092C72.7408 1.08259 72.8666 1.09441 72.9925 1.10608C73.0002 1.05269 74.5922 1.12539 75.0449 1.0605C75.0568 1.05318 72.9891 1.03227 72.8176 1.0312C71.7936 1.0248 70.2781 1.03796 69.2841 1.0286C68.9855 1.02579 68.0474 0.992956 67.9734 0.993439C67.8589 0.994354 67.9616 1.01296 67.9121 1.01362C66.9005 1.02742 67.4052 0.990559 67.2707 0.979766ZM111.861 1.28254C111.554 1.28034 111.246 1.27757 110.939 1.27537C110.961 1.26374 110.984 1.25184 111.006 1.24021C111.147 1.24477 111.287 1.24933 111.428 1.25389C111.536 1.24689 111.645 1.24005 111.753 1.23305C111.789 1.24939 111.825 1.2662 111.861 1.28254ZM112.619 1.23305C112.885 1.22715 112.899 1.25203 112.96 1.25324C113.144 1.25687 113.302 1.24704 113.48 1.24738C113.275 1.30597 112.838 1.27887 112.619 1.23305ZM107.112 1.21221C107.172 1.21502 107.573 1.2781 108.029 1.21938C108.371 1.23805 108.712 1.2567 109.054 1.27537C108.474 1.24687 107.671 1.2765 107.387 1.27537C107.279 1.27492 107.258 1.2555 107.172 1.25519C106.675 1.25366 106.192 1.29729 106.142 1.23305C106.611 1.25168 107.035 1.20877 107.112 1.21221ZM110.111 1.235C110.19 1.24841 110.27 1.26197 110.349 1.27537C110.062 1.27537 109.775 1.27537 109.488 1.27537C109.566 1.2618 109.643 1.24792 109.721 1.23435C109.851 1.23452 109.981 1.23484 110.111 1.235ZM88.0086 1.19073C88.1858 1.19089 88.3637 1.19057 88.5409 1.19073C88.5312 1.18095 88.3285 1.18103 88.2536 1.17445H88.2547C88.1715 1.16698 88.2066 1.15462 88.0554 1.14906C88.0399 1.16285 88.024 1.17693 88.0086 1.19073ZM14.692 1.13473C14.3935 1.13403 11.6535 1.13424 11.8857 1.16989C12.0035 1.18772 12.9421 1.17221 13.2187 1.1725C13.5916 1.17287 14.5975 1.21105 14.692 1.13473ZM9.83441 1.12757C9.78691 1.16312 11.4997 1.16891 11.6686 1.16273C11.633 1.15764 11.5778 1.1464 11.5305 1.14385C11.2983 1.13162 10.2037 1.13728 9.83441 1.12757ZM78.0851 1.08785C78.2232 1.10583 78.3612 1.12392 78.4993 1.14189C78.463 1.1185 78.4266 1.09497 78.3902 1.07157C78.2885 1.07698 78.1868 1.08245 78.0851 1.08785ZM64.6793 1.11324C62.3772 1.11211 60.0747 1.11113 57.7726 1.10999C57.9751 1.10026 58.1781 1.09041 58.3806 1.08069C60.3643 1.08414 62.4797 1.09439 64.3953 1.07939C64.4899 1.0908 64.5847 1.10183 64.6793 1.11324ZM106.464 1.10673C105.874 1.10638 105.38 1.12365 104.739 1.09632C105.35 1.06982 105.653 1.11061 106.248 1.07157H106.249C106.32 1.08324 106.392 1.09507 106.464 1.10673ZM44.5984 1.02274C43.9814 1.05844 42.4026 0.993456 41.9012 1.03641C41.8703 1.03929 42.166 1.0574 41.6852 1.09241C42.0483 1.08524 42.3051 1.07817 42.3333 1.05074C42.4413 1.06009 42.5494 1.06939 42.6574 1.07874C42.8367 1.07165 43.017 1.06433 43.1964 1.05725C43.1769 1.08472 43.1905 1.08321 43.4659 1.06441C43.5915 1.07137 43.7177 1.07829 43.8434 1.08525C43.8964 1.07365 43.9496 1.06233 44.0026 1.05074C44.1114 1.06701 44.2202 1.0833 44.3289 1.09957C44.7529 1.08191 44.4949 1.05033 44.5984 1.02274ZM93.2938 1.09957C93.4731 1.08322 93.6524 1.06709 93.8317 1.05074C93.616 1.05074 93.4004 1.05074 93.1847 1.05074C93.221 1.06706 93.2576 1.08325 93.2938 1.09957ZM46.7577 1.02925C46.6539 1.02324 43.7981 1.04285 45.0973 1.09762C45.4351 1.09587 45.7729 1.09416 46.1107 1.09241C45.8312 1.00171 46.7523 1.08269 46.8279 1.0846C47.1895 1.09342 47.6501 1.07243 47.9126 1.07353C48.1383 1.07451 48.2727 1.09022 48.4315 1.0898C48.9725 1.0884 49.8273 1.08829 49.9449 1.05074C49.5244 1.04996 49.097 1.04915 48.6598 1.05009C48.1974 1.05107 47.7909 1.01583 46.9225 1.06441C46.7077 1.05919 46.7836 1.0308 46.7577 1.02925ZM94.3718 1.05399C94.3504 1.09151 95.4303 1.08308 95.4487 1.06832C95.4509 1.05958 95.0952 1.05926 95.0445 1.05595H95.0433C95.0243 1.05431 95.1286 1.0404 94.9632 1.03641C94.7661 1.04239 94.5688 1.04801 94.3718 1.05399ZM18.9583 1.05009C18.8048 1.02899 15.4394 1.0367 15.3402 1.04683C15.3137 1.04968 15.3508 1.05907 15.3402 1.06441C16.1267 1.03455 17.2451 1.06989 17.9917 1.07222C18.1997 1.07285 18.1381 1.05818 18.1498 1.0579H18.151C18.2693 1.05789 18.8017 1.09384 18.9583 1.05009ZM40.8221 1.05399C40.9654 1.05989 41.1087 1.06568 41.252 1.07157C41.2883 1.0599 41.3248 1.04809 41.3611 1.03641H41.36C41.1807 1.04219 41.0014 1.04822 40.8221 1.05399ZM35.9611 1.04032C36.3219 1.04146 36.6828 1.04244 37.0436 1.04358C37.0072 1.04821 36.9708 1.05261 36.9344 1.05725C37.4795 1.06964 37.7056 1.0408 37.9957 1.04488C38.027 1.04538 38.0654 1.06253 38.1817 1.06311C38.449 1.06445 39.213 1.07122 39.3054 1.05399C39.4992 1.0173 37.9622 1.03418 37.675 1.03251C37.5456 1.03173 37.3899 1.0173 37.3109 1.01688C37.2245 1.01655 37.1059 1.03638 36.8955 1.03576C36.8321 1.03548 36.1511 1.01208 35.8565 1.01558C35.8913 1.02378 35.9263 1.03212 35.9611 1.04032ZM29.4865 1.03967C29.5976 1.05816 29.8295 1.04064 29.9153 1.04358C29.9357 1.04429 29.7776 1.05976 29.9698 1.06441C30.0242 1.05383 30.0792 1.04309 30.1335 1.03251C29.9182 1.03491 29.7019 1.03727 29.4865 1.03967ZM95.5601 1.03641C95.2102 1.07019 96.423 1.06656 96.206 1.03641C96.1723 1.03247 95.5882 1.0339 95.5601 1.03641ZM110.998 0.997997C110.729 0.948857 113.925 0.996641 114.237 0.99409C114.221 1.02498 113.461 0.994009 113.859 1.03641C113.479 1.01309 112.427 1.0256 112.18 1.01883C112.03 1.01474 111.992 0.98855 111.969 0.987579C111.88 0.98458 111.096 1.01509 110.998 0.997997ZM116.88 1.01558C116.576 1.00972 116.272 1.00386 115.968 0.997997C116.327 0.994498 116.685 0.991077 117.044 0.987579C116.99 0.996913 116.935 1.00624 116.88 1.01558ZM118.556 0.987579C118.251 1.03852 117.74 0.990128 117.262 1.00125C117.254 0.971404 118.285 0.994479 118.556 0.987579ZM100.094 0.95893C99.6186 0.939218 99.4146 1.03054 99.9923 0.990835C100.01 0.989521 100.113 0.959979 100.094 0.95893ZM43.3044 0.878842C43.1198 0.925596 43.7809 0.906766 44.0026 0.92442C44.3602 0.953027 43.8345 0.976192 44.7075 0.95893C44.6719 0.968277 44.6363 0.978232 44.6006 0.987579C45.1111 0.99064 44.9444 0.925594 45.0361 0.917258C45.0666 0.914816 45.3817 0.920012 45.4403 0.915956C46.1603 0.863722 44.5266 0.894253 44.4514 0.893818C44.3702 0.893245 43.3654 0.864341 43.3044 0.878842ZM88.326 0.952419C87.3795 0.924939 87.786 0.965301 86.8148 0.962836C86.7937 0.983071 88.2033 0.970386 88.326 0.952419ZM53.6678 0.930932C52.6889 0.939031 51.8835 0.912367 50.9706 0.948512C51.0306 1.00412 53.9192 0.945332 53.6678 0.930932ZM7.67621 0.874935C11.4845 0.974049 15.8771 0.94095 19.9316 0.939396C20.3735 0.939255 20.4165 0.961325 20.5764 0.95893C20.681 0.957367 20.6633 0.940131 20.8025 0.940047C25.8339 0.937157 30.6515 0.913783 35.4711 0.92442C35.7747 0.925125 37.2525 0.963094 37.5681 0.905538C37.8053 0.861979 36.7448 0.896162 36.5681 0.895771C36.4356 0.895451 36.4294 0.875008 36.3409 0.874935C36.2476 0.874909 36.3247 0.888372 36.2162 0.888609C35.7538 0.889594 35.2489 0.884156 34.8308 0.885353C30.7305 0.896838 26.741 0.893837 22.6622 0.891864C22.1702 0.891644 22.2699 0.875089 22.2458 0.874935H22.2446C19.5975 0.873385 16.5738 0.910514 13.77 0.896422C11.7959 0.885111 9.82179 0.873875 7.84771 0.862564C7.79066 0.866623 7.73325 0.870877 7.67621 0.874935ZM46.5417 0.952419C46.2954 0.890421 46.2403 0.952299 45.3568 0.927025C45.2849 0.937603 45.2127 0.948351 45.1407 0.95893C45.6081 0.956611 46.0755 0.954737 46.5428 0.952419H46.5417ZM40.7041 0.929629C40.5543 0.84593 38.5782 0.90523 37.6884 0.88926C37.5282 0.931137 38.8181 0.912214 39.1238 0.916607C39.2762 0.918791 40.0928 0.962046 40.713 0.938094C40.7102 0.93525 40.7069 0.932474 40.7041 0.929629ZM107.651 0.874935C107.507 0.877374 107.363 0.879659 107.22 0.882098C107.579 0.891372 107.939 0.900822 108.299 0.910096C107.725 0.904116 107.151 0.897844 106.577 0.891864C106.684 0.874515 106.791 0.857125 106.898 0.839775C107.149 0.851407 107.4 0.863304 107.651 0.874935ZM105.789 0.8834C106.792 0.876881 105.745 0.923511 105.494 0.902934C105.343 0.890532 105.686 0.884105 105.789 0.8834ZM103.173 0.853449C103.642 0.822947 104.589 0.821196 104.253 0.882098C103.746 0.853565 103.42 0.877016 102.685 0.860611C102.792 0.848944 102.9 0.837117 103.007 0.82545H103.008C103.063 0.834741 103.118 0.844158 103.173 0.853449ZM11.8857 0.811777C11.8078 0.831613 12.3131 0.831277 12.4815 0.832613C13.2118 0.83853 14.1486 0.829866 14.9081 0.832613C14.8509 0.826067 14.7937 0.819625 14.7366 0.813079C13.7864 0.812672 12.8359 0.812184 11.8857 0.811777ZM17.2834 0.832613H18.8492C18.8978 0.832613 19.1258 0.815958 18.9572 0.811777C18.3997 0.818858 17.841 0.825532 17.2834 0.832613ZM53.5597 0.808521C53.3089 0.814337 53.0577 0.819634 52.8069 0.82545C52.8066 0.818508 52.8061 0.811557 52.8058 0.804615C53.057 0.805835 53.3086 0.807301 53.5597 0.808521ZM9.83441 0.797452C10.1002 0.82154 10.7341 0.817797 11.1296 0.818288C10.8571 0.797611 10.2081 0.807803 9.83441 0.797452ZM40.6083 0.783779C40.9496 0.780191 41.2141 0.786 41.1439 0.811777C40.9629 0.810678 40.7815 0.80962 40.6005 0.808521C40.603 0.800344 40.6058 0.791956 40.6083 0.783779ZM101.389 0.804615C100.814 0.806934 100.238 0.809457 99.6627 0.811777C99.6839 0.804765 99.7049 0.797302 99.7261 0.79029C100.281 0.788012 100.835 0.786057 101.39 0.783779C101.389 0.790715 101.389 0.797678 101.389 0.804615ZM8.32434 0.747967C8.71959 0.752686 9.1151 0.757573 9.51035 0.762292V0.734294H9.50923C9.11432 0.73889 8.71925 0.743371 8.32434 0.747967ZM109.269 0.713458C107.512 0.68063 109.754 0.645694 110.218 0.693924H110.219C110.259 0.698178 110.174 0.718773 110.241 0.727131C110.062 0.717828 109.884 0.708436 109.705 0.699133C109.542 0.710731 109.378 0.722696 109.215 0.734294C109.162 0.729736 109.108 0.725178 109.054 0.72062C109.125 0.718303 109.197 0.715776 109.269 0.713458ZM116.361 0.695227C117.955 0.699033 116.325 0.750234 115.536 0.709551C115.555 0.700302 116.216 0.694879 116.361 0.695227ZM112.185 0.706296C111.934 0.710972 111.683 0.715292 111.433 0.719969C111.401 0.714069 111.368 0.70829 111.336 0.702389C111.528 0.696534 111.721 0.690664 111.914 0.684809C112.004 0.691889 112.095 0.699216 112.185 0.706296ZM103.928 0.615139C103.524 0.608657 103.008 0.674065 104.305 0.656811C104.305 0.649862 104.304 0.642923 104.303 0.635975C104.251 0.637116 104.1 0.643661 104.092 0.643137C104.068 0.64132 104.096 0.617848 103.928 0.615139ZM118.232 0.467335C118.299 0.473529 118.084 0.495035 118.134 0.501193C118.179 0.506543 118.843 0.529008 118.664 0.565654C118.555 0.564108 118.445 0.562642 118.336 0.561096C118.299 0.551119 118.262 0.541122 118.226 0.531145C118.12 0.540405 118.014 0.549231 117.908 0.558492C117.73 0.533696 117.35 0.501883 117.8 0.48166C117.635 0.483774 117.469 0.486056 117.304 0.488171C117.218 0.500039 117.132 0.511463 117.046 0.523331C117.091 0.505266 117.136 0.487354 117.181 0.469288C117.531 0.468678 117.882 0.467945 118.232 0.467335ZM119.313 0.509658C119.358 0.506551 119.384 0.433163 119.854 0.509658C119.996 0.504978 120.14 0.500013 120.283 0.495333C120.319 0.511679 120.356 0.528472 120.393 0.544818C119.842 0.53217 119.782 0.564777 119.742 0.565654C119.559 0.568747 119.694 0.551612 119.576 0.551329C119.271 0.550766 118.575 0.562155 118.89 0.513564C119.004 0.496161 119.267 0.512335 119.313 0.509658ZM123.367 0.474497C123.347 0.483812 123.327 0.493181 123.307 0.502495C123.915 0.485104 124.862 0.478331 124.324 0.537005C123.5 0.541886 122.676 0.547099 121.853 0.55198C121.798 0.54494 121.743 0.537534 121.688 0.530493C122.303 0.557617 122.113 0.442683 122.648 0.4758C122.737 0.481479 122.477 0.52114 123.043 0.495333C123.023 0.485942 123.002 0.476726 122.982 0.467335C123.11 0.469655 123.239 0.472178 123.367 0.474497ZM128.597 0.488171C127.556 0.474651 128.701 0.440989 128.894 0.469288L129.019 0.49338C129.153 0.538136 128.279 0.50923 128.218 0.509658C128.126 0.510346 127.912 0.566014 127.412 0.484915C127.807 0.486055 128.202 0.487031 128.597 0.488171ZM125.196 0.474497C125.283 0.472671 125.235 0.486997 125.273 0.486869H125.274C125.831 0.483839 127.158 0.471232 127.302 0.51682C126.89 0.52062 125.047 0.530088 124.931 0.49924C125.019 0.491042 125.107 0.482695 125.196 0.474497ZM121.903 0.488822C121.941 0.491783 121.627 0.538931 121.273 0.508355C120.932 0.478895 121.7 0.475192 121.903 0.488822ZM95.0177 0.432175C94.2652 0.449926 95.254 0.467581 94.9119 0.495333C95.0556 0.492975 95.1993 0.490528 95.3429 0.488171C95.2346 0.469479 95.126 0.450867 95.0177 0.432175ZM60.6836 0.376178C60.5096 0.372957 60.5908 0.389427 60.5767 0.389852C60.4615 0.38938 60.3526 0.376045 60.3083 0.377481C59.4901 0.405351 60.0339 0.419749 60.0421 0.423059C60.0578 0.439785 59.8457 0.45931 60.1424 0.478404C60.3231 0.472466 60.504 0.46611 60.6847 0.460173C60.7744 0.469484 60.8645 0.47886 60.9542 0.488171C61.3126 0.468229 60.8458 0.463086 60.7905 0.436732C60.77 0.426304 61.1071 0.413452 60.6836 0.376178ZM93.6691 0.376178C93.547 0.405631 93.2483 0.44295 93.5422 0.472544C93.5967 0.477951 93.8183 0.480574 93.8863 0.488171C94.3703 0.44896 94.1848 0.408567 93.6691 0.376178ZM63.9276 0.323438C64.2192 0.330315 64.5113 0.337396 64.8029 0.344274C64.7979 0.361878 64.7922 0.37941 64.7873 0.397014C64.6314 0.392258 64.4755 0.387446 64.3196 0.38269C64.265 0.390723 64.2104 0.398747 64.1559 0.406781C64.3495 0.426913 64.5436 0.447203 64.7372 0.467335C64.9703 0.460304 65.2034 0.45353 65.4365 0.446499C65.3294 0.437189 65.2219 0.427811 65.1147 0.418501C65.6852 0.408214 65.5613 0.450916 66.0334 0.467335C66.1951 0.450976 66.3573 0.43486 66.519 0.418501C66.7529 0.434928 66.9867 0.45156 67.2206 0.467986C67.6136 0.46031 67.6485 0.447644 67.3843 0.428919C67.5797 0.407581 67.7937 0.440898 68.0291 0.432175C68.0484 0.43144 68.0119 0.411582 68.0291 0.411339C69.2467 0.397741 69.1821 0.450756 69.3765 0.45301C69.514 0.454533 70.0617 0.418315 70.0703 0.40613C70.0686 0.389277 68.9513 0.325122 70.7262 0.323438C69.8037 0.27864 68.7545 0.324135 69.4322 0.389852C69.1398 0.383252 67.8531 0.399633 67.7707 0.397665C67.6511 0.394691 67.6929 0.369719 67.5435 0.369016C67.4549 0.368664 67.2198 0.42593 66.519 0.376178C66.4294 0.385538 66.3391 0.394817 66.2495 0.404176C66.1656 0.396495 66.0817 0.389069 65.9978 0.381387C66.1707 0.35396 66.3438 0.326123 66.5168 0.298695C65.8319 0.328493 65.2634 0.27238 64.8463 0.319531C64.4858 0.31404 64.3106 0.309134 64.4655 0.285022C64.3572 0.285022 64.2486 0.285022 64.1403 0.285022C64.0695 0.297899 63.9984 0.310561 63.9276 0.323438ZM91.4564 0.418501C91.0984 0.391146 90.9689 0.449557 91.0243 0.45301C91.3382 0.471375 91.6417 0.432783 91.4564 0.418501ZM61.3351 0.407432C61.7304 0.422647 62.1258 0.437795 62.5211 0.45301V0.397014C62.1258 0.400472 61.7304 0.403974 61.3351 0.407432ZM95.2371 0.432175C95.67 0.381064 96.0999 0.454405 96.314 0.439337C96.3604 0.436027 96.2667 0.41143 96.1781 0.40613C96.1206 0.402782 95.2046 0.385789 95.128 0.390503C95.1643 0.404472 95.2008 0.418206 95.2371 0.432175ZM113.158 0.397014C112.996 0.4064 112.835 0.415626 112.674 0.425012C112.683 0.409376 112.692 0.393768 112.701 0.378132C112.78 0.37521 112.86 0.371938 112.939 0.369016C113.012 0.378281 113.085 0.387749 113.158 0.397014ZM111.322 0.421757C111.035 0.420495 110.746 0.419763 110.458 0.418501C111.556 0.404057 110.656 0.396681 111.322 0.376178V0.421757ZM108.409 0.389852C108.444 0.380487 108.48 0.371218 108.515 0.361854H109.379C109.197 0.329217 109.014 0.296822 108.832 0.264186C108.727 0.264105 108.621 0.263616 108.516 0.263535C108.48 0.305568 108.445 0.347819 108.409 0.389852ZM52.9105 0.305858C52.7376 0.305297 52.1383 0.333624 52.1566 0.344274C52.408 0.357173 52.6602 0.370441 52.9116 0.383341C52.9128 0.364718 52.9138 0.345967 52.915 0.327344C52.9501 0.336569 52.9855 0.345467 53.0207 0.354691C53.1637 0.347692 53.3076 0.340855 53.4506 0.333856C53.5226 0.350197 53.5947 0.366999 53.6666 0.383341C53.739 0.364668 53.8114 0.346017 53.8838 0.327344C53.1934 0.294229 53.2168 0.327043 53.0731 0.326693C53.0004 0.326508 52.9541 0.314937 52.9283 0.309113C52.9223 0.308118 52.9165 0.306853 52.9105 0.305858ZM61.6079 0.288277C60.7836 0.28363 60.3122 0.333396 59.7159 0.292184C60.0984 0.379975 62.569 0.289297 63.4398 0.362505C63.5301 0.348455 63.6202 0.334232 63.7104 0.320182C63.2366 0.3327 62.9081 0.303537 62.677 0.299346C62.4933 0.296035 62.5117 0.310627 62.4977 0.310415H62.4966C62.0666 0.304356 61.9331 0.290111 61.6079 0.288277ZM95.7405 0.321484C95.519 0.299245 95.1313 0.301403 95.1269 0.333856C95.3425 0.34325 95.5583 0.352459 95.7739 0.361854C95.7303 0.353435 95.7782 0.325277 95.7405 0.321484ZM108.074 0.299346C107.901 0.288822 107.494 0.298024 107.67 0.326042C107.704 0.33081 108.106 0.311447 107.869 0.361854C108.265 0.361071 108.172 0.305421 108.074 0.299346ZM75.6952 0.354691C75.8404 0.353758 75.9855 0.353021 76.1307 0.352087C76.1646 0.338984 76.1992 0.326123 76.2331 0.31302C76.0539 0.327046 75.8744 0.340665 75.6952 0.354691ZM97.6102 0.298695C97.8036 0.362817 98.1338 0.300687 98.4967 0.353389C98.6307 0.353796 98.7647 0.354285 98.8987 0.354691H98.8998C98.9034 0.337193 98.9073 0.319449 98.911 0.301951C98.4774 0.300893 98.0438 0.299753 97.6102 0.298695ZM66.6248 0.323438C66.7142 0.331562 66.8037 0.339405 66.8932 0.347529C67.0527 0.338048 67.2125 0.329013 67.372 0.319531C67.2857 0.312735 67.1988 0.305491 67.1125 0.298695C66.9499 0.306823 66.7874 0.31531 66.6248 0.323438ZM43.9525 0.326693C44.1129 0.331445 44.2732 0.336266 44.4336 0.341018C44.4883 0.329298 44.5437 0.317577 44.5984 0.305858C44.3832 0.312811 44.1678 0.31974 43.9525 0.326693ZM45.0327 0.333856C45.161 0.336091 45.2897 0.338782 45.418 0.341018C45.5043 0.335321 45.5912 0.329135 45.6775 0.323438C45.5573 0.317781 45.4369 0.312165 45.3167 0.306509C45.2222 0.315622 45.1273 0.324742 45.0327 0.333856ZM99.9667 0.293486C99.4978 0.285454 99.3214 0.340876 99.921 0.341018C100.174 0.341018 100.458 0.30188 99.9667 0.293486ZM110.298 0.305858C110.279 0.317549 110.26 0.329326 110.241 0.341018C110.098 0.33866 109.954 0.336213 109.811 0.333856C109.847 0.322233 109.883 0.310318 109.919 0.298695C110.045 0.300973 110.172 0.30358 110.298 0.305858ZM104.411 0.298695C104.23 0.284697 103.511 0.328515 104.159 0.339716C104.573 0.34683 104.438 0.300839 104.411 0.298695ZM105.384 0.285022C104.697 0.258176 105.213 0.394145 106.033 0.305858C105.211 0.317911 105.423 0.286886 105.384 0.285022ZM111.427 0.214701C111.444 0.215019 111.459 0.234164 111.596 0.234886C112.093 0.237422 112.75 0.245408 113.105 0.246606C113.96 0.249481 116.575 0.214113 116.883 0.270697C116.946 0.282545 116.802 0.317371 116.826 0.319531C116.902 0.324641 117.34 0.307662 117.259 0.333856C116.83 0.333652 116.4 0.333408 115.971 0.333205C116.076 0.314752 116.182 0.296312 116.287 0.277859C115.216 0.287722 115.57 0.286463 115.262 0.326693C115.081 0.311115 114.9 0.295391 114.719 0.279813C114.325 0.295473 113.93 0.311684 113.536 0.327344C113.626 0.315678 113.715 0.30385 113.805 0.292184C113.21 0.270554 113.375 0.284698 113.05 0.31302C113.049 0.301341 113.048 0.289539 113.047 0.277859C112.474 0.306282 112.362 0.27112 112.237 0.270697C111.98 0.270151 111.652 0.408018 110.672 0.270697C110.258 0.336826 110.267 0.202295 110.024 0.270697C109.325 0.196293 110.656 0.223304 111.286 0.22577H111.287C111.333 0.225919 111.259 0.213729 111.427 0.214701ZM107.831 0.283068C108.255 0.22237 106.581 0.216296 107.135 0.303904C107.217 0.306751 107.3 0.310173 107.382 0.31302C107.532 0.303093 107.682 0.292995 107.832 0.283068H107.831ZM92.1034 0.242699C90.5529 0.267642 91.4346 0.302847 91.9597 0.268744C92.0638 0.262008 92.1211 0.252366 92.1034 0.242699ZM60.4297 0.242048C60.4072 0.249275 60.3842 0.256308 60.3618 0.263535C60.8817 0.256717 61.8879 0.284652 61.8741 0.235537C61.3928 0.237531 60.9109 0.240054 60.4297 0.242048ZM64.5434 0.209492C64.4321 0.206538 63.9782 0.199788 64.03 0.217956C64.2277 0.230977 64.4259 0.244003 64.6236 0.257024C64.7156 0.248889 64.8078 0.241067 64.8998 0.232932C64.7714 0.230165 64.5741 0.210318 64.5434 0.209492Z" fill="#242424"/>
</svg>
