<svg width="193" height="2" viewBox="0 0 193 2" fill="none" xmlns="http://www.w3.org/2000/svg">
  <path d="M4.33496 0.0740592C8.37228 -0.100748 11.1294 0.0848262 14.8748 0.114429C23.1194 0.179455 33.9915 0.120851 42.4238 0.125498C48.8063 0.129021 55.2927 0.141537 61.6368 0.151542C61.9617 0.152055 62.1557 0.170816 62.3031 0.171076C63.6921 0.173331 66.0223 0.156171 67.4002 0.158705C70.2988 0.163987 75.3417 0.160924 77.9962 0.178889C79.1232 0.186494 80.2791 0.189955 80.7176 0.235537C81.1284 0.237854 81.3537 0.196954 81.4616 0.194516H81.4665C81.8131 0.187596 82.6866 0.21647 82.8801 0.214701C82.909 0.214419 82.7317 0.184241 83.1992 0.193214C83.2409 0.193989 83.2032 0.214412 83.5976 0.214701C83.7015 0.214738 85.0197 0.184046 85.3964 0.182145C86.6511 0.175955 89.6469 0.200144 91.1466 0.199725C91.3757 0.199707 91.508 0.187565 91.7501 0.187354C91.8747 0.18725 92.0612 0.200353 92.1006 0.200376C92.2693 0.199918 93.0066 0.141504 92.742 0.257024C93.51 0.249715 93.2862 0.21151 93.3025 0.186703C94.138 0.183121 94.5409 0.237201 94.7591 0.17954C98.8674 0.186499 102.976 0.193418 107.084 0.200376C107.086 0.191046 107.087 0.181709 107.088 0.172378C108.299 0.209925 108.714 0.146497 109.406 0.201027C109.832 0.189031 110.258 0.177212 110.684 0.165216C121.639 0.202205 132.57 0.157913 143.403 0.158054C143.859 0.158071 143.974 0.178092 144.727 0.178238C145.559 0.178378 146.73 0.155182 147.827 0.155449C148.789 0.15566 150.209 0.174621 151.282 0.177587C151.523 0.178218 151.698 0.165258 151.727 0.165216C151.887 0.165711 151.896 0.186112 152.051 0.186703C152.237 0.187337 152.463 0.172113 152.678 0.173029C153.479 0.176326 154.351 0.171407 154.457 0.171727C154.946 0.173626 155.056 0.193648 155.096 0.193865C155.64 0.196239 155.437 0.178514 155.573 0.17954C156.276 0.184986 156.775 0.229108 157.738 0.186703C157.712 0.20305 157.685 0.21919 157.659 0.235537C158.397 0.244764 157.91 0.201105 158.061 0.193214C158.128 0.19033 159.711 0.195695 159.833 0.19647C160.259 0.199302 160.271 0.22157 160.308 0.221863C160.399 0.222533 161.471 0.197656 162.02 0.216654C162.671 0.23918 161.907 0.283156 162.067 0.291533C162.094 0.292941 162.774 0.288776 162.867 0.302602C162.968 0.317502 162.381 0.317215 162.387 0.323438C162.394 0.327733 163.372 0.358719 163.186 0.379434C163.035 0.400211 161.706 0.373571 161.425 0.383341C161.38 0.38516 161.466 0.410402 161.425 0.411339C161.254 0.414776 158.209 0.41554 158.062 0.411339C158.222 0.399671 158.381 0.387846 158.54 0.376178C158.328 0.374998 158.115 0.374103 157.904 0.372923C158.205 0.363563 158.507 0.354284 158.808 0.344925C158.361 0.248817 157.013 0.345728 156.956 0.393759C156.932 0.415954 157.756 0.473145 156.989 0.506402C157.106 0.512099 157.223 0.517634 157.34 0.523331C157.58 0.513976 157.821 0.504689 158.061 0.495333C157.901 0.489433 157.74 0.483653 157.58 0.477753C157.638 0.471093 157.698 0.464228 157.757 0.457568C158.205 0.446869 158.655 0.436363 159.104 0.425663C159.335 0.430596 159.288 0.450503 159.446 0.454313C161.425 0.502285 160.134 0.440952 161.43 0.449755C161.615 0.460335 161.801 0.471079 161.986 0.48166C161.92 0.437916 162.494 0.465339 163.188 0.446499C163.105 0.460611 163.022 0.47471 162.94 0.488822C163.945 0.481295 165.983 0.55253 165.434 0.474497C165.665 0.481165 165.895 0.488014 166.126 0.494682C166.32 0.481913 166.515 0.469035 166.709 0.456266C166.978 0.457731 167.247 0.459359 167.516 0.460824C167.517 0.467709 167.518 0.474774 167.519 0.48166C167.305 0.4817 167.091 0.481619 166.876 0.48166C167.037 0.502728 167.198 0.52375 167.359 0.544818C167.517 0.541323 167.675 0.537896 167.833 0.5344C167.171 0.514487 168.043 0.482111 168.257 0.454313C168.816 0.444028 169.175 0.480031 169.363 0.48166C169.453 0.482269 170.489 0.418874 170.082 0.488822C170.617 0.480317 171.153 0.471282 171.687 0.462777C171.896 0.468143 172.105 0.473689 172.314 0.479055C171.86 0.511677 173.175 0.550824 172.206 0.564352C171.483 0.574496 171.305 0.543956 170.961 0.544167C170.652 0.544318 170.488 0.565389 170.151 0.566305C167.887 0.572082 166.041 0.568232 163.89 0.559143C163.466 0.557325 163.079 0.567049 162.794 0.565654C162.472 0.56403 162.875 0.538579 162.465 0.544818C162.035 0.551434 161.941 0.572311 161.827 0.572816C161.756 0.573055 161.531 0.553946 161.324 0.553934C160.475 0.553938 159.23 0.572271 159.109 0.572165C158.966 0.571904 156.57 0.555082 156.455 0.55198C156.396 0.549733 156.519 0.480494 155.992 0.554585C155.827 0.555969 155.662 0.557759 155.496 0.559143C155.523 0.545185 155.551 0.530778 155.577 0.51682C154.599 0.569734 154.935 0.540661 153.992 0.544818C151.734 0.554821 148.402 0.543144 145.932 0.548074C145.381 0.549203 145.169 0.565753 144.517 0.566956C143.91 0.567986 142.329 0.518191 142.672 0.587141C141.324 0.527389 141.106 0.630539 140.432 0.566305C140.35 0.57564 140.268 0.584969 140.187 0.594303C139.454 0.554143 139.226 0.589439 138.426 0.594303C138.082 0.596385 138.479 0.553283 137.783 0.600814C137.65 0.59728 137.517 0.593931 137.385 0.590396C137.415 0.580129 137.446 0.570062 137.477 0.559794C136.704 0.568249 136.653 0.562783 136.741 0.601465C136.368 0.594429 135.995 0.587015 135.622 0.579979C135.576 0.592675 135.53 0.605698 135.483 0.618395C135.673 0.642514 144.135 0.605926 145.317 0.594303C146.701 0.623041 149.483 0.586828 150.601 0.593652C151.048 0.596406 151.246 0.625357 151.897 0.628812C152.548 0.632261 153.367 0.606313 153.714 0.605372C154.869 0.602131 160.34 0.608065 156.619 0.643788C156.726 0.657755 156.833 0.671493 156.94 0.68546C158.418 0.637698 157.884 0.666849 159.111 0.671786C159.627 0.67389 160.854 0.642845 160.787 0.706296C159.828 0.718123 158.809 0.698218 157.975 0.699133C157.89 0.69929 156.904 0.727849 156.396 0.719969C155.938 0.712721 156.253 0.652655 155.257 0.72062C154.516 0.654141 154.087 0.714208 153.891 0.72062C153.553 0.731737 153.515 0.699048 153.177 0.695227C152.809 0.691051 152.556 0.712628 152.506 0.712807C152.001 0.7133 149.369 0.716269 149.249 0.70304C149.354 0.697227 149.46 0.691273 149.566 0.68546C148.884 0.676121 149.026 0.710051 148.847 0.714109C148.713 0.713987 148.579 0.71358 148.445 0.713458C148.498 0.706515 148.551 0.699565 148.604 0.692622C147.798 0.694108 148.414 0.717995 147.27 0.717365C146.543 0.716938 145.792 0.69069 145.72 0.692622C145.7 0.693186 145.928 0.711056 145.631 0.713458C145.14 0.717395 144.293 0.71696 144.198 0.692622C143.959 0.696057 143.978 0.719871 143.946 0.72062C143.807 0.722945 141.406 0.730929 140.976 0.73234C139.784 0.736216 138.456 0.730929 137.165 0.734945C137.033 0.735295 137.117 0.720149 136.984 0.72062C136.771 0.721404 135.673 0.74562 135.51 0.747316C135.1 0.751457 134.026 0.741665 133.856 0.748618C133.835 0.749728 134.185 0.770225 133.772 0.776616C133.313 0.783675 133.561 0.756058 133.536 0.755781C132.601 0.746269 132.01 0.765717 131.371 0.769454C131.165 0.770623 130.784 0.749642 130.492 0.755781C130.459 0.756479 130.523 0.77543 130.492 0.776616C130.051 0.786755 129.638 0.750992 129.447 0.748618C128.98 0.742934 129.233 0.769266 129.209 0.769454C128.898 0.770286 128.48 0.761035 128.007 0.762292C125.898 0.767929 124.175 0.769262 121.933 0.767501C121.652 0.767267 121.319 0.748751 121.275 0.748618C121.142 0.748759 121.179 0.77125 120.794 0.770756C119.982 0.769631 119.229 0.770528 118.426 0.770105C118.265 0.769976 118.196 0.749708 118.072 0.749269C117.659 0.748017 116.249 0.801066 116.224 0.734945C115.403 0.793558 114.858 0.742849 114.197 0.743409C112.631 0.744678 110.179 0.756879 108.619 0.749269C108.291 0.747626 108.137 0.730677 107.954 0.729736C107.627 0.728054 105.761 0.737555 105.654 0.734945C105.462 0.729801 105.576 0.654793 104.586 0.719969C104.007 0.72459 104.075 0.693626 103.955 0.691971C103.02 0.679666 102.11 0.748231 102.28 0.68546C101.191 0.702505 100.486 0.737589 100.041 0.678949C100.043 0.707411 99.5321 0.724334 98.9171 0.713458C99.5491 0.665337 99.4719 0.634987 101 0.643788C101.023 0.644184 100.978 0.664408 101.002 0.664624C101.22 0.666022 101.675 0.655702 102.047 0.656811C102.419 0.657938 102.214 0.672059 102.363 0.671786C102.498 0.671439 102.495 0.651232 102.692 0.65095C103.331 0.650173 103.897 0.644799 104.261 0.644439C104.49 0.644234 104.747 0.662003 104.925 0.66202C105.613 0.661877 107.072 0.647749 107.947 0.649648C108.13 0.650092 108.054 0.670167 108.453 0.671786C108.501 0.671806 108.671 0.651256 109.019 0.647044C109.368 0.642821 109.639 0.653039 109.864 0.65095C110.051 0.64919 109.973 0.631252 110.358 0.630115C110.679 0.629199 114.308 0.642191 114.509 0.64509C114.793 0.649251 114.928 0.674188 115.101 0.671135C115.132 0.670471 115.184 0.646197 115.29 0.644439C117.032 0.615426 120.888 0.649206 122.878 0.648997C127.039 0.648644 130.877 0.633869 135.075 0.628161C135.15 0.623888 135.225 0.619412 135.3 0.615139C134.875 0.614976 134.451 0.615302 134.027 0.615139C134.024 0.603582 134.021 0.591536 134.018 0.579979C133.445 0.578156 133.521 0.60581 133.537 0.622301C133.325 0.615308 133.113 0.608459 132.901 0.601465C132.718 0.641741 131.301 0.614425 130.571 0.614488C130.097 0.614494 129.532 0.630003 129.282 0.628812C128.753 0.626349 128.766 0.601862 128.725 0.601465C128.651 0.601013 127.915 0.622492 127.384 0.62165C126.596 0.620443 126.511 0.58208 125.433 0.614488C124.052 0.594701 122.522 0.604736 121.033 0.607977C121.317 0.572709 119.983 0.606569 119.382 0.606023C115.712 0.602571 111.201 0.587418 107.483 0.573467C107.005 0.571706 106.643 0.550641 106.377 0.551329C106.233 0.551738 106.17 0.575993 105.97 0.572816C105.935 0.572193 105.91 0.549582 105.537 0.54612C104.609 0.537457 102.296 0.575677 101.71 0.531796C98.5343 0.538591 95.3585 0.545185 92.1832 0.55198C92.1035 0.542624 92.0232 0.533339 91.9435 0.523982C91.3402 0.571813 88.955 0.54387 87.7921 0.54612C85.7454 0.550138 83.1341 0.564684 81.3409 0.566305C80.9512 0.566657 80.6317 0.553007 80.2629 0.553283C80.1043 0.553433 79.9072 0.571399 79.7421 0.571514C77.8878 0.572853 75.3762 0.554813 73.5075 0.555236C69.265 0.556152 65.2692 0.553159 60.9705 0.553934C46.4892 0.556682 32.0912 0.582593 17.7333 0.572165C17.5409 0.572024 17.5501 0.552128 17.401 0.55198C16.5204 0.550994 14.5533 0.56722 13.5587 0.566305C12.7663 0.565587 11.5085 0.534517 11.2358 0.565654C14.051 0.612792 17.0264 0.609776 19.957 0.622952C20.1648 0.623914 20.191 0.642785 20.2166 0.643137C20.6907 0.649805 20.3917 0.623499 21.0796 0.622301C21.3116 0.621976 23.4295 0.683124 23.181 0.622301C23.6919 0.646727 27.2756 0.659044 27.9673 0.65095C28.1765 0.648458 28.0282 0.630382 28.0698 0.629464C28.2509 0.625465 28.3328 0.650305 28.4947 0.65095C28.9263 0.652497 30.0238 0.631927 30.2323 0.632068C30.7122 0.632291 32.1496 0.652468 32.7833 0.647695C33.3637 0.643329 33.256 0.617558 33.7571 0.615139C34.1527 0.613319 33.7228 0.635205 34.6053 0.641835C35.0432 0.645076 36.5757 0.629467 36.948 0.629464C37.3202 0.629464 37.7342 0.644986 38.2475 0.643788C38.9868 0.642097 40.5949 0.633164 41.3475 0.628161C41.3924 0.62788 41.503 0.608205 41.6136 0.608628C41.8417 0.609534 41.7736 0.634053 41.946 0.636626C42.1192 0.639162 45.12 0.636346 45.6295 0.636626C45.9803 0.636752 46.2226 0.621533 46.4165 0.62165C46.5687 0.621791 46.5853 0.642887 46.7405 0.643137C46.7886 0.643137 47.198 0.625146 47.6069 0.625557C47.9928 0.625982 49.4574 0.64293 49.6305 0.643137C49.7412 0.643208 49.6207 0.62846 49.9479 0.628812C50.2461 0.629183 50.4426 0.648715 50.6126 0.648997C51.0068 0.649602 51.4476 0.632798 51.8658 0.632719C53.0687 0.632509 53.0071 0.656687 53.0793 0.657462C53.279 0.659586 53.3592 0.637765 53.4248 0.637277C53.7022 0.635446 54.3828 0.630962 54.6301 0.630115C54.9376 0.629088 55.0686 0.650229 55.3956 0.650299C55.6396 0.650263 56.1323 0.629798 56.6885 0.628812C57.9427 0.626487 59.4346 0.622829 60.6663 0.623604C61.0333 0.623829 61.0897 0.642644 61.202 0.643137C61.792 0.645735 62.1231 0.624629 62.2915 0.624906C63.4931 0.626821 65.6359 0.659853 66.7505 0.662671C67.205 0.66379 69.1924 0.648854 70.3133 0.651602C70.4407 0.651926 70.3212 0.666295 70.4638 0.663973C70.805 0.658396 70.7735 0.628566 70.9465 0.629464C71.0301 0.629998 71.2207 0.646639 71.464 0.648346C72.7263 0.657153 73.5946 0.644178 74.1705 0.64509C79.7012 0.653898 85.3417 0.661946 90.5068 0.664624C91.0826 0.664896 91.7968 0.646503 92.666 0.663973C92.6927 0.673362 92.7187 0.683233 92.7453 0.692622C92.7758 0.683385 92.8075 0.673861 92.8379 0.664624C93.8222 0.659619 94.1951 0.647653 95.2005 0.659415C95.2878 0.660616 95.5515 0.70346 95.7147 0.650299C96.7104 0.688894 96.1641 0.649988 96.9034 0.646393C97.6425 0.642802 98.3608 0.654777 99.0775 0.657462C99.47 0.676534 97.8261 0.720006 97.7152 0.719969C97.542 0.719799 97.3611 0.69338 97.1944 0.691971C96.7014 0.687786 96.2246 0.708964 96.1131 0.68546C95.4749 0.710467 96.2689 0.698096 96.1892 0.72062C95.7632 0.711302 95.3372 0.70194 94.9112 0.692622C94.6926 0.769071 92.3404 0.66947 92.504 0.727783C92.3167 0.716103 92.1291 0.704301 91.9418 0.692622C91.1209 0.76577 90.6379 0.714399 89.5429 0.692622C89.6217 0.701956 89.7005 0.711286 89.7793 0.72062C89.7471 0.724621 88.7924 0.738791 89.1362 0.699133C88.1452 0.751667 88.1861 0.66461 87.2977 0.727783C86.7712 0.735835 87.0875 0.699161 86.1437 0.699784C85.5839 0.700137 84.8878 0.719281 84.2622 0.72062C84.1188 0.720791 84.0561 0.699813 83.9283 0.699784C83.8003 0.699793 83.7375 0.720683 83.5827 0.721271C83.2622 0.722398 82.846 0.707522 82.6453 0.7089C82.4657 0.710102 82.2085 0.728792 81.7757 0.731689C80.2637 0.7419 80.7197 0.715181 80.4811 0.706296C80.2246 0.696858 80.04 0.731761 79.5288 0.727783C79.4775 0.72736 79.6097 0.705451 79.4429 0.706296C79.3083 0.706958 79.2404 0.730579 78.7948 0.734945C78.6155 0.736708 75.8651 0.741678 75.4435 0.742107C74.8003 0.742741 73.3664 0.723084 72.7007 0.723225C72.4443 0.72325 72.1696 0.741581 71.8972 0.741456C70.9941 0.741033 69.5488 0.739767 68.4038 0.738852C67.373 0.738002 65.5637 0.696281 64.998 0.733643C63.551 0.738499 63.1979 0.706786 63.0884 0.706296C62.7935 0.705099 62.6565 0.726118 62.2849 0.727131C57.4649 0.73946 51.1171 0.725442 46.5521 0.727131C35.9624 0.731218 25.3145 0.742888 14.6879 0.734294C14.6595 0.743694 14.6304 0.753543 14.602 0.762943C15.8577 0.769002 17.3334 0.78525 18.5732 0.788988C20.2284 0.793914 22.6841 0.754719 23.8985 0.818939C23.407 0.82454 22.6079 0.799891 22.6188 0.832613C23.4989 0.834972 24.3791 0.837415 25.2592 0.839775C25.2331 0.824626 25.2075 0.809345 25.1815 0.794197C26.1003 0.789763 27.0402 0.793125 27.9623 0.790941C28.1225 0.790579 28.0096 0.776687 28.1491 0.776616C28.3044 0.776603 28.1993 0.790829 28.2285 0.790941C28.6227 0.791071 28.7425 0.776411 28.7906 0.776616C28.9129 0.777237 28.8189 0.791051 29.1742 0.794848C29.8344 0.801916 30.3064 0.766033 30.1513 0.826101H30.7911C30.8463 0.809743 30.9029 0.792975 30.9581 0.776616C32.2691 0.842568 32.8738 0.727124 33.5984 0.818939C33.8375 0.8049 34.0769 0.790656 34.316 0.776616C34.4505 0.792952 34.5848 0.809766 34.7194 0.826101C34.7456 0.812082 34.7725 0.797798 34.7987 0.783779C36.0866 0.794131 37.4588 0.776951 38.6906 0.77857C39.5481 0.779699 39.7543 0.785484 40.5142 0.78443C42.2035 0.782042 40.5261 0.8097 41.9294 0.839775C41.8566 0.822646 41.784 0.805465 41.7112 0.788337C41.9437 0.782033 42.1764 0.775758 42.4089 0.769454C42.5708 0.783489 42.733 0.797742 42.895 0.811777C43.613 0.739024 44.0781 0.797395 44.1763 0.797452C44.2553 0.797325 44.5267 0.753857 45.3766 0.790941C45.0255 0.731199 46.0226 0.790395 46.1057 0.790941C46.1819 0.791184 47.1563 0.777367 47.5523 0.777919C47.8634 0.778345 48.5272 0.791559 48.9907 0.790941C49.3999 0.790379 49.3593 0.769665 49.3891 0.769454C49.8926 0.767767 49.5772 0.783655 49.9413 0.78443C50.3053 0.785197 50.5886 0.767904 50.6671 0.769454C50.7042 0.770514 50.575 0.789124 50.7548 0.790941C51.2407 0.795931 52.1194 0.779386 52.6759 0.779872C52.8732 0.780025 53.1225 0.796308 53.3422 0.796801C53.6787 0.797485 53.836 0.775988 54.0316 0.776616C54.0997 0.776895 54.5348 0.810334 55.0748 0.805266C55.1782 0.80397 55.4799 0.734562 55.88 0.833264C55.9108 0.819385 55.9417 0.805471 55.9726 0.791592C57.7834 0.757148 58.2872 0.869771 59.0924 0.769454C60.4073 0.78066 59.5052 0.820113 59.6495 0.826101C59.7437 0.829836 60.1712 0.818978 60.2183 0.81959C60.3016 0.820788 60.2874 0.833322 60.3786 0.833264C62.0549 0.830939 61.3109 0.807252 61.8418 0.792243C63.1041 0.75653 64.0887 0.835585 61.8931 0.811777V0.833264C62.4337 0.826574 63.8063 0.829671 63.348 0.865169C62.9863 0.893124 59.7318 0.874769 61.5756 0.914003C61.994 0.92285 62.2115 0.896675 62.9363 0.945907C63.4152 0.948524 63.4845 0.88453 64.1333 0.910096C64.0266 0.887862 63.9192 0.865916 63.8125 0.843682C64.6979 0.814668 65.791 0.853543 66.4711 0.841077C66.7021 0.836828 67.5342 0.730547 67.3407 0.836519C67.7291 0.829912 69.5567 0.849243 69.8984 0.839775C69.9801 0.837478 70.0873 0.780991 71.2706 0.800708C71.3527 0.807779 71.4348 0.815124 71.5169 0.822195C70.4358 0.842757 72.345 0.863698 71.8278 0.917258C71.6514 0.893165 70.7921 0.878589 70.6539 0.866471C70.4194 0.84562 71.1202 0.818778 70.2257 0.826101C69.6625 0.915604 71.2743 0.874641 71.0292 0.959581C72.203 0.919932 72.3209 0.957316 72.5866 0.95893C73.7238 0.965341 74.44 0.956813 75.513 0.966743C75.7741 0.949281 73.8347 0.924096 73.5918 0.931583C74.4763 0.869678 72.952 0.86681 72.3089 0.903585C72.2549 0.884877 72.2008 0.865645 72.1468 0.846937C72.9839 0.857081 73.8011 0.862281 74.6301 0.846937C74.6839 0.853917 74.7383 0.861445 74.7921 0.868424C74.6064 0.878945 74.4206 0.889157 74.235 0.899678C74.9243 0.916921 74.5115 0.862276 75.4303 0.910096C75.4586 0.889119 75.4863 0.867914 75.5146 0.846937C76.3957 0.853937 77.2772 0.861425 78.1583 0.868424C78.6169 0.826155 80.3121 0.841697 80.0017 0.896422C80.6859 0.900286 79.8416 0.871323 80.4828 0.858006C80.762 0.852234 81.307 0.850448 81.4417 0.865169C81.3828 0.917184 80.5678 0.923835 80.3208 0.959581C80.4763 0.971036 84.2649 0.933894 83.9283 0.994741C84.2311 1.00204 84.0927 0.970872 84.6392 0.962836C86.1708 0.940463 88.5425 1.0022 89.776 0.92442C88.3282 0.881126 87.8997 0.927137 86.7901 0.928978C86.0813 0.930176 81.7592 0.93717 82.723 0.882098C82.5644 0.88909 82.4055 0.896592 82.2469 0.903585C82.0864 0.887191 81.9262 0.870493 81.7658 0.8541C82.2181 0.851739 82.6708 0.849297 83.1231 0.846937C83.231 0.863275 83.3393 0.879434 83.4472 0.895771C83.4967 0.884176 83.5465 0.872857 83.596 0.861262C83.7864 0.858942 83.9776 0.856419 84.168 0.8541C84.1145 0.868139 84.0595 0.882383 84.006 0.896422C84.2995 0.898823 84.5937 0.901184 84.8872 0.903585C84.8082 0.884838 84.7297 0.865684 84.6508 0.846937C86.0321 0.842225 85.5647 0.854197 86.3305 0.88926C86.9029 0.892848 85.9368 0.856752 87.1473 0.847588C88.5554 0.836953 87.6321 0.894345 89.4553 0.882098C89.4815 0.872749 89.5084 0.863448 89.5346 0.8541C89.9356 0.863458 90.3373 0.87274 90.7382 0.882098C90.6852 0.870459 90.6309 0.858576 90.5779 0.846937C91.4056 0.851447 92.5471 0.829277 92.8214 0.874935C91.9832 0.85297 91.9904 0.932457 92.208 0.94721C92.6583 0.977276 99.3091 0.949842 100.6 0.947861C102.249 0.945325 103.496 0.97079 105.001 0.931583C103.98 0.899439 100.393 0.925827 99.7124 0.903585C99.645 0.901401 99.6637 0.828049 99.2313 0.910096C97.8358 0.89615 96.1669 0.919651 94.4234 0.917258C94.4767 0.896219 94.5306 0.875138 94.5838 0.8541C95.6552 0.898816 96.6462 0.80037 96.5066 0.882098H97.1464V0.839775H98.112V0.882098H98.9105C98.938 0.868185 98.9657 0.854339 98.9932 0.840426C99.7905 0.869583 102.509 0.791122 101.314 0.874935H102.437C102.436 0.864737 102.435 0.854532 102.434 0.844333C102.594 0.842951 102.756 0.841808 102.916 0.840426C102.864 0.849702 102.811 0.859148 102.758 0.868424C103.495 0.851736 104.195 0.900563 104.679 0.868424C104.36 0.861394 104.041 0.853968 103.722 0.846937C104.334 0.860262 105.46 0.832755 105.563 0.832613C105.871 0.832473 106.035 0.853694 106.369 0.854751C106.669 0.855623 106.628 0.839212 106.684 0.839775C108.308 0.856074 107.69 0.942909 108.448 0.840426C108.529 0.854367 108.609 0.868157 108.69 0.882098C108.797 0.870421 108.905 0.858614 109.012 0.846937C109.492 0.848036 109.972 0.849745 110.452 0.850844C110.292 0.833346 110.131 0.815602 109.971 0.798103C110.688 0.790313 111.025 0.825127 111.095 0.826101C111.292 0.828143 111.383 0.805958 111.444 0.805917C114.375 0.80782 112.595 0.827376 114.06 0.910096C114.581 0.877644 114.053 0.844792 113.979 0.811777C114.673 0.82727 114.891 0.81841 115.624 0.820241C115.814 0.820785 116.019 0.838884 116.14 0.839124C116.244 0.839276 116.569 0.820334 116.819 0.820241C117.236 0.820101 117.792 0.83094 118.363 0.830659C118.839 0.830364 120.291 0.817127 121.305 0.816986C121.737 0.816987 121.638 0.833231 121.749 0.833264C121.798 0.833071 122.133 0.813837 122.409 0.81373C124.672 0.813308 126.992 0.825802 129.267 0.82545C130.869 0.825239 132.497 0.80958 134.103 0.811126C134.444 0.811478 134.264 0.825608 134.414 0.826101C134.465 0.826128 134.528 0.802025 135.055 0.811777C135.245 0.815322 135.026 0.832419 135.214 0.833264C135.305 0.833631 135.345 0.812075 135.878 0.807219C136.846 0.798384 137.368 0.826836 137.456 0.826101C137.619 0.824467 137.572 0.806561 137.788 0.805917C138.846 0.802817 139.73 0.799583 140.675 0.798103C141.116 0.797399 144.158 0.794282 144.325 0.797452C144.698 0.804527 144.351 0.84102 144.829 0.839775C144.964 0.830456 145.099 0.821096 145.233 0.811777C145.02 0.804702 144.806 0.798016 144.593 0.790941C145.18 0.802752 145.845 0.785765 146.279 0.786383C146.36 0.786528 147.099 0.803183 147.476 0.801359C147.316 0.808277 147.155 0.815277 146.995 0.822195C147.052 0.828089 147.109 0.833881 147.165 0.839775C147.919 0.83083 148.717 0.831345 149.49 0.832613C149.768 0.833049 149.675 0.847082 149.956 0.847588C151.6 0.850611 151.185 0.791053 152.767 0.902934C152.233 0.892791 150.284 0.907308 150.001 0.903585C149.803 0.900775 149.039 0.806669 149.32 0.903585C147.741 0.90316 149.112 0.849567 147.638 0.861262C147.667 0.872994 147.697 0.88469 147.726 0.896422C147.212 0.903883 146.832 0.910147 146.519 0.88926C146.412 0.946536 144.665 0.912736 143.707 0.916607C142.321 0.922103 140.755 0.936279 139.382 0.938745C138.909 0.939569 138.641 0.917188 138.582 0.917258C138.495 0.917462 138.252 0.93725 138.079 0.937443C137.432 0.938005 135.465 0.904202 134.976 0.95893H146.516C146.032 0.932028 149.92 0.929596 150.12 0.930932C150.302 0.932129 150.15 0.951128 150.203 0.952419C150.606 0.960513 150.952 0.932942 151.08 0.932885C151.178 0.932889 151.376 0.945519 151.724 0.945256C151.787 0.945216 151.806 0.931686 151.874 0.931583C152.328 0.931583 152.776 0.932304 153.231 0.932234C153.259 0.932365 153.375 0.951675 153.489 0.951767C153.605 0.951767 153.72 0.932296 153.749 0.932234C154.113 0.93239 154.737 0.945115 155.083 0.945256C155.203 0.945245 155.12 0.930792 155.255 0.930932C155.668 0.931305 155.532 0.959735 156.044 0.952419C156.215 0.94995 156.205 0.928062 156.533 0.930932C156.765 0.933012 156.741 0.971846 156.778 0.973254C156.834 0.974704 157.632 0.944709 157.894 0.969999C157.32 1.03702 158.52 0.972885 158.462 0.944605C158.781 0.951726 159.1 0.958971 159.418 0.966092C159.526 0.958959 159.634 0.951738 159.742 0.944605C161.025 0.976876 161.81 0.95746 163.072 0.967394C163.139 0.967987 164.191 0.984045 164.147 0.99409C163.51 1.01142 162.874 1.01245 162.467 0.980417C161.797 1.04148 161.785 0.992525 160.703 1.0006C160.343 1.00333 160.314 1.01972 160.273 1.02013C158.863 1.02838 156.605 1.03535 155.655 0.986928C155.389 1.00003 156.345 1.00527 155.973 1.01493C155.762 1.02023 150.887 1.03552 152.446 0.979766C152.284 0.981312 152.122 0.983428 151.96 0.984975C151.797 1.03757 150.992 1.02507 151.084 0.972603C151.008 0.983317 150.932 0.994446 150.856 1.00516C150.705 1.01425 150.526 1.0192 150.275 1.02209C149.317 1.03307 143.616 1.01455 143.313 1.02209C143.306 1.03454 143.3 1.0474 143.293 1.05985C145.812 1.07394 148.255 1.04243 151.001 1.07808C150.921 1.06642 150.841 1.05524 150.761 1.04358C151.857 1.05993 152.953 1.07605 154.048 1.09241C152.888 1.11354 151.043 1.1313 149.826 1.1139C149.61 1.11077 149.768 1.09438 149.718 1.09241C149.588 1.08741 149.448 1.11571 148.982 1.11845C148.515 1.12119 147.342 1.10096 147.235 1.10152C147.027 1.10275 146.47 1.13509 146.117 1.13473C145.654 1.13417 145.963 1.11437 145.871 1.1139C145.486 1.11193 145.141 1.12188 144.839 1.12041C144.392 1.11821 143.461 1.08306 143.148 1.13473C143.468 1.13709 143.789 1.13953 144.109 1.14189C142.375 1.16042 141.019 1.09424 139.311 1.14515C138.922 1.20771 140.333 1.1992 139.14 1.22589C139.357 1.22499 139.574 1.22418 139.79 1.22328C139.841 1.21018 139.891 1.19667 139.942 1.18357C140.315 1.19292 140.688 1.20286 141.061 1.21221C140.955 1.20055 140.849 1.18872 140.742 1.17705C142.065 1.16825 143.401 1.15603 143.864 1.21873C143.891 1.20355 143.919 1.18833 143.946 1.17315C145.175 1.19158 147.019 1.12777 146.674 1.21221C146.733 1.20774 146.792 1.20302 146.85 1.19854C147.592 1.21577 147.275 1.181 147.554 1.17705C147.638 1.17601 149.076 1.19369 148.437 1.21873C149.845 1.23789 149.411 1.15903 149.799 1.15557C150.7 1.19466 152.321 1.13617 151.641 1.19789C151.775 1.2002 151.909 1.20274 152.043 1.20505C152.484 1.15644 152.919 1.21139 153.397 1.2298C153.559 1.23089 153.721 1.23195 153.883 1.23305C153.991 1.21669 154.1 1.19992 154.209 1.18357C155.732 1.26142 155.25 1.04894 155.946 1.22784C155.838 1.23854 155.729 1.24904 155.62 1.25975C155.363 1.26483 155.106 1.26964 154.848 1.27472C155.886 1.27944 156.924 1.28433 157.962 1.28905C159.278 1.33916 160.027 1.2852 161.49 1.32486C161.627 1.3201 161.764 1.3153 161.901 1.31053C161.762 1.35104 161.23 1.34511 162.219 1.36327C162.303 1.39191 161.636 1.39564 161.331 1.37369C161.258 1.36833 161.882 1.34583 161.181 1.34504C160.703 1.34449 161.569 1.37928 160.139 1.36653C160.192 1.37351 160.245 1.38038 160.298 1.38737C160.143 1.38716 159.988 1.38692 159.833 1.38671C159.695 1.37052 159.556 1.35473 159.418 1.33853C159.064 1.36192 158.865 1.39432 158.056 1.38737C158.274 1.3772 157.977 1.34451 157.576 1.34504V1.3802C156.606 1.38774 156.94 1.35336 156.133 1.3802C156.053 1.37092 155.972 1.36149 155.892 1.35221C155.452 1.39061 153.834 1.41693 154.129 1.35937C153.675 1.41531 152.721 1.39044 152.367 1.34569C152.34 1.35721 152.313 1.36868 152.286 1.3802C152.097 1.38256 151.907 1.38501 151.719 1.38737C151.614 1.38034 151.508 1.37356 151.403 1.36653C151.27 1.37355 151.136 1.38035 151.003 1.38737C150.922 1.37569 150.84 1.36388 150.76 1.35221C150.545 1.3662 150.33 1.38053 150.115 1.39453C149.983 1.38521 149.851 1.37585 149.72 1.36653C149.702 1.39077 148.404 1.39613 148.04 1.3802C147.932 1.38728 147.823 1.39461 147.714 1.40169C147.661 1.39011 147.609 1.37811 147.556 1.36653C147.475 1.37581 147.393 1.38525 147.313 1.39453C147.127 1.38526 146.941 1.37579 146.755 1.36653C145.997 1.42339 145.971 1.37334 145.798 1.37369C145.477 1.37436 144.385 1.40999 144.201 1.4082C144.019 1.40636 143.93 1.38605 143.783 1.38411C141.353 1.35205 142.351 1.40669 141.863 1.41536C141.601 1.42005 141.415 1.40154 141.182 1.40364C140.785 1.40716 138.783 1.43208 138.663 1.42969C138.494 1.42613 138.89 1.33626 138.343 1.35937C138.325 1.40756 137.157 1.35931 137.702 1.42643C137.221 1.42054 136.74 1.41475 136.259 1.40885C136.312 1.4657 135.719 1.42913 135.073 1.43229C134.157 1.43675 132.095 1.47397 132.17 1.41536C131.951 1.42882 131.731 1.44228 131.512 1.45573C130.011 1.43729 128.538 1.45698 127.048 1.45769C122.626 1.45987 117.828 1.4471 113.427 1.43555C113.215 1.43496 113.245 1.41579 113.093 1.41536C112.292 1.41326 110.213 1.42675 109.092 1.42253C108.733 1.42119 108.557 1.40257 108.443 1.40169C108.057 1.39867 108.148 1.42316 107.971 1.42253C107.69 1.4214 106.204 1.39824 105.692 1.39583C105.439 1.39464 105.139 1.41422 104.843 1.4082C104.817 1.40771 104.864 1.38788 104.843 1.38737C104.302 1.3849 104.627 1.4026 104.444 1.40169C103.14 1.39514 101.745 1.39478 100.331 1.39062C99.9794 1.38955 99.4417 1.37503 99.1403 1.37369C99.0265 1.37327 99.2314 1.38863 98.8345 1.38737C98.6986 1.38692 98.652 1.36722 98.4988 1.36588C97.8368 1.36046 97.6142 1.42429 97.0456 1.37304C95.947 1.37642 94.0341 1.39287 93.0314 1.39323C92.7944 1.39329 92.6784 1.38132 92.4527 1.38151C92.2925 1.38165 92.01 1.39949 91.76 1.39974C91.5098 1.39995 91.1136 1.38283 90.6324 1.38346C90.1265 1.3841 89.4979 1.39456 89.3825 1.39453C89.2446 1.39453 89.1798 1.37277 89.0419 1.37304C88.6249 1.37375 87.5077 1.39481 86.9704 1.39713C86.3933 1.39959 86.0467 1.38911 85.8494 1.38932C85.6667 1.38962 85.4534 1.40804 85.37 1.4082C85.2404 1.40844 85.209 1.38719 85.0443 1.38737C84.775 1.38774 84.4973 1.40133 84.0936 1.40169C76.8177 1.40838 69.6842 1.39657 62.6056 1.38085C61.8165 1.37909 61.3695 1.39427 60.2067 1.38737C59.7359 1.38453 59.9337 1.36167 59.5669 1.36588C59.4039 1.36781 59.4445 1.38587 59.2379 1.38671C58.3236 1.39037 57.2582 1.37406 56.8621 1.37434C56.7051 1.37446 56.5256 1.39422 56.204 1.39453C53.8028 1.39678 50.9614 1.39108 48.3773 1.39453C47.0092 1.39636 44.9381 1.40621 43.3678 1.40755C39.0291 1.41128 34.3612 1.40688 30.4042 1.40885C24.4293 1.41174 18.4825 1.42997 12.5205 1.4082C15.3098 1.45631 19.1086 1.45247 22.2138 1.45769C31.1834 1.47262 40.7339 1.44491 49.9264 1.44597C53.1249 1.44632 57.1581 1.44525 60.6597 1.45638C60.8187 1.45685 61.1483 1.44109 61.4913 1.44271C61.5699 1.44328 62.4691 1.47108 62.7726 1.47136C62.484 1.42177 63.6764 1.46602 64.0457 1.46485C64.5109 1.46329 65.4814 1.43847 66.5703 1.45248C67.5583 1.46516 67.2862 1.48449 67.3407 1.48568C67.6901 1.49341 67.812 1.46275 68.0797 1.45964C69.1736 1.44724 74.8002 1.46502 76.371 1.46615C76.7769 1.46643 76.7888 1.48561 76.8802 1.48568C77.1222 1.4858 77.4665 1.4667 77.854 1.4668C78.5534 1.46708 79.3605 1.48561 79.7454 1.48568C80.6663 1.48588 82.4129 1.46397 83.6092 1.46355C83.9454 1.46342 83.9252 1.48377 84.0771 1.48373C84.7477 1.48337 86.495 1.45985 87.3275 1.45964C88.6793 1.45929 90.0699 1.47218 91.4442 1.4655C91.5313 1.47457 91.6199 1.48377 91.7071 1.49285C91.8443 1.48334 91.9815 1.47371 92.1187 1.4642C94.443 1.47145 96.8091 1.45114 99.1205 1.45248C99.3871 1.45263 100.703 1.46996 100.924 1.47006C101.107 1.47006 101.288 1.44721 101.559 1.45052C101.938 1.45515 101.582 1.49792 102.202 1.48568C102.368 1.48233 102.207 1.46405 102.541 1.45834C102.652 1.45644 104.793 1.44929 104.915 1.45052C105.108 1.45266 105.281 1.492 105.33 1.49285C105.588 1.49722 105.577 1.46694 105.75 1.4642C106.261 1.45599 106.927 1.47631 107.012 1.47592C108.016 1.47035 109.893 1.44608 110.947 1.46029C111.091 1.46226 111.076 1.48457 111.1 1.48568C111.265 1.49033 111.369 1.46486 111.525 1.4642C112.371 1.46131 113.696 1.47871 114.546 1.48308C114.644 1.4835 114.851 1.47082 115.025 1.47201C116.01 1.4789 115.694 1.49841 115.748 1.49936C115.881 1.50145 116.116 1.47987 116.47 1.47852C117.383 1.47493 119.133 1.47813 120.111 1.47982C120.844 1.48116 120.833 1.50603 120.881 1.50652C120.984 1.50741 121.27 1.48729 121.753 1.48503C122.68 1.48061 122.575 1.50018 122.956 1.49936C122.988 1.49936 122.933 1.4805 123.356 1.47852C124.174 1.47472 126.012 1.49382 126.888 1.49285C127.224 1.49249 127.304 1.47368 127.648 1.47331C128.194 1.47268 129.426 1.49284 129.526 1.49285C129.554 1.49285 129.616 1.47136 129.776 1.47136C129.952 1.47138 130.126 1.4825 130.257 1.48243C131.006 1.48214 132.296 1.44512 131.939 1.52085C132.178 1.50215 132.418 1.48354 132.658 1.46485C134.227 1.46858 135.751 1.46084 137.305 1.45704C137.654 1.45619 137.946 1.47073 138.241 1.47006C138.536 1.46935 139.839 1.44511 140.056 1.44466C140.446 1.44389 142.651 1.44167 142.925 1.44336C143.46 1.44662 143.98 1.47813 144.198 1.47201C144.373 1.46708 144.211 1.44902 144.545 1.44401C145.122 1.43539 146.101 1.45799 146.279 1.45769C146.355 1.45754 146.214 1.44371 146.919 1.44271C147.299 1.44215 147.504 1.45773 147.642 1.45769C147.685 1.45761 147.621 1.43291 148.372 1.4362C148.892 1.43852 149.115 1.45762 149.169 1.45769C149.251 1.45775 149.449 1.43745 149.778 1.43815C150.546 1.43993 151.949 1.46307 152.679 1.46485C152.82 1.4652 152.773 1.44048 153.336 1.44271C153.738 1.44433 153.668 1.46402 153.818 1.46485C154.057 1.46605 154.414 1.44196 154.941 1.44271C155.605 1.4437 160.537 1.46885 160.792 1.47527C160.964 1.47956 161.163 1.47968 161.248 1.49024C161.175 1.50038 161.101 1.51071 161.028 1.52085C160.275 1.48536 160.578 1.52532 160.379 1.52801C160.088 1.53174 158.993 1.5268 158.729 1.53582C158.635 1.53911 158.85 1.56051 158.343 1.57163C157.8 1.5835 157.558 1.5451 157.342 1.59768C156.57 1.53932 155.83 1.60131 156.723 1.61786C157.225 1.6271 162.114 1.64783 163.113 1.65107C163.923 1.65367 165.44 1.63859 166.436 1.6426C167.02 1.64499 168.454 1.64748 168.404 1.67516C168.922 1.67865 168.374 1.65108 168.482 1.64716C168.71 1.63907 170.332 1.65834 170.639 1.65758C172.153 1.65392 174.064 1.62295 175.535 1.65823C175.466 1.6657 175.398 1.6729 175.329 1.68037C174.999 1.6941 173.467 1.67448 173.293 1.71032H180.02C179.988 1.6799 182.76 1.68026 182.892 1.69404C182.843 1.70885 182.793 1.72351 182.745 1.73832C181.173 1.68213 181.313 1.75694 180.258 1.71748C179.829 1.71695 179.959 1.74083 179.747 1.74548C177.64 1.79169 179.713 1.6956 178.1 1.71748C178.585 1.75296 177.264 1.76571 176.672 1.77022C176.533 1.77118 174.767 1.7625 174.557 1.76306C173.377 1.76624 171.35 1.78575 170.178 1.76632C169.254 1.76399 168.745 1.78912 167.906 1.79497C167.27 1.7994 167.452 1.78151 167.152 1.78129C166.524 1.7808 166.316 1.83518 165.914 1.75981C165.488 1.76921 165.061 1.7784 164.634 1.7878V1.75264C164.367 1.75264 164.1 1.75264 163.832 1.75264C163.754 1.76431 163.675 1.77614 163.596 1.7878C162.746 1.77181 163.1 1.7435 162.941 1.71032C162.758 1.70804 162.574 1.70544 162.391 1.70316C162.249 1.72863 162.106 1.75452 161.964 1.77999C161.145 1.77792 160.325 1.77555 159.506 1.77348C159.453 1.76181 159.4 1.74999 159.347 1.73832C159.345 1.74996 159.344 1.76184 159.342 1.77348C157.954 1.77588 156.565 1.77824 155.177 1.78064C154.808 1.79938 157.033 1.81402 157.201 1.81515C158.137 1.82133 160.621 1.80231 160.628 1.8438C161.211 1.81273 162.965 1.82085 163.51 1.85812C162.683 1.85589 161.854 1.8532 161.027 1.85096C161.053 1.8649 161.079 1.87935 161.106 1.89329C160.075 1.837 159.924 1.84011 158.864 1.89329C158.863 1.87457 158.862 1.85536 158.861 1.83664C158.122 1.9017 156.816 1.79164 156.778 1.8718C156.384 1.86529 155.989 1.85878 155.596 1.85226C154.747 1.86208 156.065 1.92401 152.739 1.8998C152.509 1.89811 152.556 1.87755 152.211 1.87896C152.111 1.87946 151.541 1.9094 150.454 1.90631C150.284 1.90581 150.271 1.88777 150.095 1.88547C149.688 1.88012 148.876 1.91529 149.244 1.85812C147.631 1.84144 148.299 1.88829 147.799 1.90696C147.465 1.91934 147.532 1.88561 147.243 1.89329C146.887 1.90282 147.148 1.93697 145.719 1.92128C145.879 1.91897 146.04 1.91644 146.2 1.91412C146.119 1.90484 146.038 1.8954 145.957 1.88612C145.141 1.90836 145.218 1.87632 144.833 1.92845C144.239 1.90521 143.726 1.90339 142.915 1.90761C141.338 1.91585 142.146 1.97152 140.347 1.89589C140.056 1.9065 139.764 1.91718 139.473 1.92779C138.993 1.90546 139.379 1.87743 138.664 1.8718C139.224 1.92697 137.716 1.90726 137.461 1.95644C137.434 1.94472 137.406 1.933 137.38 1.92128C137.22 1.92128 137.061 1.92128 136.902 1.92128C136.901 1.93062 136.901 1.93995 136.9 1.94928C136.688 1.94225 136.474 1.93548 136.262 1.92845C136.102 1.93776 135.941 1.94712 135.781 1.95644C135.518 1.9368 135.255 1.91684 134.992 1.89719C134.827 1.89585 134.661 1.89463 134.496 1.89329C134.548 1.90726 134.601 1.92098 134.653 1.93496C134.441 1.93028 134.229 1.92596 134.017 1.92128C134.263 1.94424 134.108 1.9708 133.448 1.97012C132.903 1.96955 133.516 1.92218 132.344 1.94212C132.262 1.94357 132.117 1.9772 131.009 1.98249C129.68 1.98882 130.325 1.96446 130.089 1.96361C130.042 1.96348 129.635 1.98067 129.255 1.98314C129.04 1.98451 128.833 1.97074 128.804 1.97077C128.671 1.9714 128.631 1.99089 128.447 1.9916C127.979 1.99328 127.351 1.98347 126.893 1.98444C126.684 1.98486 126.486 1.99667 126.393 1.99681C126.249 1.99688 126.066 1.97916 125.921 1.97923C125.382 1.97962 124.564 2.0384 124.314 1.95644C123.795 2.03181 122.71 1.94106 122.789 1.9916C121.404 1.97254 117.713 2.03421 117.821 1.94928C117.037 2.0219 117.106 1.96968 116.778 1.97077C116.411 1.97197 116.601 1.9857 116.31 1.98509C115.628 1.98361 114.976 1.97756 114.298 1.97728C114.404 1.96565 114.511 1.95375 114.617 1.94212C113.905 1.9384 114.15 1.96555 113.423 1.97077C112.088 1.98027 112.65 1.95895 112.453 1.92845C112.506 1.9579 110.93 1.95316 110.77 1.94928C110.677 1.94672 111.091 1.9091 110.13 1.92128C110.182 1.9329 110.234 1.94482 110.287 1.95644C109.847 1.94052 108.655 1.96034 108.452 1.95644C108.359 1.95461 107.861 1.86051 107.405 1.93496C107.35 1.92329 107.295 1.91211 107.24 1.90045C106.734 1.91448 106.228 1.92808 105.722 1.94212C105.642 1.92114 105.561 1.89994 105.481 1.87896C105.32 1.87896 105.16 1.87896 105 1.87896C105.106 1.89762 105.212 1.9163 105.319 1.93496C104.328 1.92651 103.119 1.95612 102.913 1.89329C102.701 1.90496 102.487 1.91677 102.275 1.92845C102.137 1.90753 102 1.8862 101.862 1.86529C100.879 1.87057 100.862 1.88463 100.19 1.90696C100.216 1.89062 100.243 1.87446 100.27 1.85812C99.774 1.88109 98.8686 1.90211 98.1533 1.90501C97.8132 1.90634 97.2283 1.88408 97.1481 1.88612C97.0641 1.88865 96.2706 1.97631 96.1842 1.8998C95.0107 1.93374 94.4929 1.89964 94.0167 1.90045C93.7073 1.90102 93.5645 1.91938 93.2149 1.92128C92.7147 1.92402 92.2106 1.91481 91.922 1.91607C91.7575 1.9169 91.7265 1.93505 91.6128 1.93561C91.0745 1.93834 91.3897 1.9201 90.8226 1.92128C90.7702 1.92149 90.3545 1.94298 89.8868 1.94017C89.6255 1.93859 88.9515 1.91415 88.8898 1.91412C88.6252 1.91454 88.8356 1.96382 87.9309 1.90696C87.9571 1.91629 87.9841 1.92563 88.0103 1.93496C86.8908 1.9587 86.7138 1.91701 86.4876 1.91412C86.4571 1.914 86.1855 1.93001 86.023 1.92779C85.7478 1.92398 85.636 1.90207 85.575 1.9011C85.3591 1.89775 84.6357 1.90745 84.163 1.88612C84.2625 1.94897 82.6043 1.97096 82.237 1.8998C81.9437 1.91382 81.6506 1.92809 81.3574 1.94212C81.2247 1.9304 81.0917 1.91867 80.9589 1.90696C80.8782 1.91864 80.7966 1.93044 80.7159 1.94212C80.2883 1.91641 79.8605 1.89034 79.433 1.86464C79.4057 1.89036 79.3792 1.91639 79.3519 1.94212C79.2322 1.93919 79.1113 1.93658 78.9915 1.93365C78.8982 1.91321 78.8055 1.89224 78.7121 1.8718C78.5624 1.8757 78.4121 1.87961 78.2624 1.88352C78.2253 1.89833 78.1887 1.91363 78.1516 1.92845C77.3469 1.94552 77.7604 1.80425 76.2272 1.92845C75.9887 1.91677 75.7499 1.90496 75.5113 1.89329C75.2418 1.95006 74.7365 1.91555 74.3292 1.92193C74.0428 1.92646 74.058 1.94875 73.6679 1.94928C73.2778 1.94977 73.2896 1.92873 73.2595 1.92845C72.9407 1.92712 72.6999 1.94589 72.4659 1.94212C72.4307 1.94156 72.3421 1.91578 72.0443 1.91412C71.7461 1.9125 71.5657 1.94007 71.1218 1.93496C70.8941 1.93235 70.8277 1.91083 70.6258 1.90891C69.6634 1.89961 68.6941 2.00874 67.9723 1.87896C67.8095 1.8954 66.6289 1.95324 66.1239 1.94993C65.3389 1.94464 65.6408 1.91878 65.3286 1.91412C65.2822 1.9135 65.0422 1.92217 64.3862 1.92063C64.2687 1.92035 64.2954 1.93467 64.2788 1.93496C63.5105 1.93467 62.0177 1.92333 61.1739 1.92128C61.0966 1.92134 60.7027 1.96061 60.0364 1.90696C59.0452 1.94676 57.1774 1.86129 55.8701 1.92128C55.6891 1.92255 55.4696 1.90848 55.389 1.90891C54.6976 1.91335 54.9505 1.95696 53.3885 1.89329C53.5141 1.91545 53.1488 1.93534 52.6329 1.93365C51.8569 1.93112 52.4074 1.88994 51.7848 1.89329V1.92845C50.3493 1.89703 50.0624 1.94705 48.622 1.94733C48.1039 1.94738 47.3385 1.92135 47.215 1.92128C47.1636 1.92157 46.601 1.94972 46.5471 1.94993C46.2423 1.95078 46.0695 1.93763 45.8064 1.93756C44.9372 1.93731 43.901 1.97345 44.0886 1.90696C43.8497 1.92099 43.6101 1.93525 43.3711 1.94928C42.468 1.87826 41.793 1.97594 41.6037 1.90696C41.4424 1.92119 41.2806 1.9357 41.1193 1.94993C37.246 1.94273 33.3716 1.93565 29.4982 1.92845C29.3409 1.95055 27.6553 1.94296 27.5688 1.93951C27.1715 1.92386 27.5912 1.87508 26.7802 1.88612C26.6904 1.90731 26.6005 1.92874 26.5107 1.94993C25.4906 1.95684 25.9809 1.93566 25.5783 1.92128C25.4101 1.9239 25.4637 1.94027 25.236 1.94147C24.0008 1.94802 21.4696 1.94859 20.119 1.94993C19.8475 1.95021 19.8869 1.93508 19.8033 1.93496C19.5707 1.9351 19.111 1.95448 18.6443 1.95449C15.7587 1.95435 11.6691 1.94342 8.76416 1.92714C8.5677 1.92598 8.54304 1.9079 8.41035 1.90696C8.22608 1.90577 7.81444 1.92018 7.62007 1.91868C7.43734 1.91727 7.31953 1.90339 7.12408 1.90175C6.22901 1.89414 5.02476 1.91809 4.06713 1.87701C3.98301 1.87326 2.98856 1.80013 2.96107 1.79497C2.82793 1.76622 3.71962 1.72048 2.25511 1.67842C3.56391 1.64171 3.15509 1.5773 1.45491 1.54559C2.30746 1.53741 3.16001 1.52902 4.01257 1.52085C4.01378 1.51324 4.01631 1.50566 4.01753 1.49806C3.2412 1.45994 2.47005 1.44689 1.28958 1.44336C1.32639 1.43624 1.36354 1.429 1.40035 1.42188C2.44297 1.3863 3.70134 1.37992 4.49533 1.33137C3.33108 1.29544 2.16616 1.25986 1.0019 1.22394C1.0598 1.21834 1.1176 1.2126 1.1755 1.20701C1.73371 1.19242 2.9538 1.18349 3.41738 1.16989C5.18621 1.11807 1.86921 1.13117 2.41217 1.09957C4.28134 1.10071 6.151 1.10169 8.02017 1.10283C8.08559 1.07955 0.909458 1.0155 0.968836 0.945256C1.55629 0.940536 2.1438 0.935652 2.73126 0.930932C2.46951 0.913074 2.20768 0.895397 1.94594 0.87754C2.01809 0.871883 2.09037 0.866267 2.16252 0.860611C3.15369 0.846735 4.14565 0.832815 5.13681 0.818939C2.12316 0.832888 0.721859 0.82223 0 0.681553C0.0815346 0.67798 0.163154 0.674708 0.244689 0.671135C0.897545 0.759141 3.98017 0.730352 5.61792 0.712807C5.28412 0.687028 3.84116 0.707471 3.53642 0.691971C3.45129 0.687495 3.75108 0.669213 3.5513 0.660066C3.02779 0.636255 0.800863 0.605884 1.12425 0.576723C1.33278 0.55798 4.91855 0.532427 5.61792 0.5344C3.9786 0.500721 2.28892 0.49069 0.644788 0.449755C1.68258 0.392683 2.60264 0.322631 4.49698 0.319531C5.06965 0.289589 1.06348 0.247969 0.970489 0.23163C1.6643 0.214097 2.35819 0.197074 3.052 0.17954C2.46512 0.184219 1.87811 0.188535 1.29123 0.193214C1.28953 0.187408 1.28797 0.18144 1.28627 0.175634C2.8069 0.148436 4.19828 0.0986753 5.93866 0.102057C5.88252 0.0710547 4.84024 0.0743411 4.33496 0.0740592ZM170.88 1.83729C170.912 1.86277 170.277 1.85862 169.918 1.85812C169.972 1.86279 170.026 1.86779 170.08 1.87245C169.314 1.86759 167.885 1.85772 167.832 1.90761C167.286 1.91376 167.527 1.87022 167.351 1.86529C167.28 1.8634 166.567 1.8888 165.997 1.85812C165.861 1.85825 165.725 1.858 165.59 1.85812C165.564 1.87445 165.537 1.89064 165.511 1.90696C165.322 1.88713 165.132 1.86754 164.943 1.84771C166.921 1.84421 168.899 1.84079 170.877 1.83729H170.88ZM151.165 1.85812C150.445 1.8489 149.342 1.83486 149.564 1.87961C150.019 1.87725 150.475 1.87481 150.93 1.87245C151.008 1.86782 151.087 1.86275 151.165 1.85812ZM79.5173 1.82296C78.9157 1.77886 78.3612 1.81725 77.4308 1.80929C77.432 1.81856 77.4346 1.82802 77.4358 1.83729C77.8166 1.81496 78.8216 1.82951 79.5173 1.82296ZM189.149 1.67907C188.611 1.72914 188.513 1.69377 187.905 1.6986C187.868 1.6989 187.879 1.71025 187.866 1.71032C187.717 1.71106 187.58 1.69774 187.445 1.69795C187.185 1.69838 186.973 1.71212 186.512 1.71162C186.157 1.71117 186.153 1.68892 186.028 1.68948C185.918 1.69023 184.865 1.75068 184.186 1.72465C182.894 1.67491 188.355 1.664 188.751 1.66865C188.884 1.67211 189.017 1.67561 189.149 1.67907ZM192.583 1.70967C192.456 1.70987 192.328 1.71012 192.2 1.71032C192.584 1.67655 191.808 1.68162 191.239 1.68232C191.265 1.65033 192.463 1.66395 193 1.65432C192.861 1.67283 192.722 1.69117 192.583 1.70967ZM176.414 1.64065C176.91 1.63737 176.832 1.6771 176.811 1.68948C176.652 1.68948 176.492 1.68948 176.333 1.68948C176.36 1.67321 176.387 1.65692 176.414 1.64065ZM180.175 1.62633C180.015 1.65365 178.933 1.66575 178.42 1.668C178.402 1.66761 178.534 1.65294 178.175 1.65432C178.064 1.65486 176.991 1.71003 177.227 1.64781C178.21 1.64078 179.193 1.63336 180.175 1.62633ZM181.275 1.6426C181.07 1.65123 180.864 1.66002 180.66 1.66865C180.554 1.65575 180.448 1.64248 180.342 1.62958C180.575 1.62633 180.809 1.62307 181.042 1.61982C181.119 1.62734 181.197 1.63508 181.275 1.6426ZM23.4967 1.57684C23.3102 1.56988 23.1228 1.56296 22.9363 1.55601C22.7219 1.5794 22.5076 1.60294 22.2931 1.62633C23.2249 1.64211 24.2171 1.66016 24.0572 1.59117H24.697C24.5175 1.61969 24.5409 1.62906 25.0988 1.64716C25.2214 1.60757 25.7993 1.62789 26.4595 1.61916C25.9791 1.61685 25.4981 1.61432 25.0178 1.612V1.59117C26.088 1.59368 24.7565 1.54967 24.0589 1.57749C24.0042 1.56823 23.9498 1.55876 23.8952 1.54949C23.7626 1.55876 23.6293 1.56758 23.4967 1.57684ZM27.2828 1.60614C27.3304 1.61992 27.3791 1.63338 27.4266 1.64716C27.6117 1.65555 28.5073 1.59562 28.2235 1.584C27.9102 1.59129 27.5962 1.59886 27.2828 1.60614ZM100.914 1.59117C100.782 1.58413 100.648 1.57736 100.516 1.57033C100.001 1.662 101.048 1.5747 101.794 1.64716C101.551 1.59232 102.68 1.59483 102.749 1.59117C102.619 1.57262 102.488 1.55371 102.358 1.53517C101.877 1.55384 101.395 1.5725 100.914 1.59117ZM18.1268 1.64065C18.9415 1.6279 18.5341 1.59516 19.5668 1.58465H19.5685C19.0347 1.5823 18.5002 1.57985 17.9664 1.57749C18.0202 1.59843 18.0731 1.61971 18.1268 1.64065ZM33.1934 1.57033C31.7693 1.61013 32.6505 1.57751 31.1119 1.57749C31.2191 1.59852 31.327 1.61962 31.4343 1.64065C32.191 1.60219 33.4353 1.62754 33.195 1.57033H33.1934ZM65.7552 1.61461C66.5361 1.62376 66.3829 1.60793 67.091 1.64065C68.1452 1.60096 67.2551 1.60627 67.2531 1.57033C67.0122 1.58089 66.7714 1.59167 66.5306 1.60224C65.9576 1.56918 66.4778 1.55191 66.4992 1.54819L66.4975 1.54103C66.4916 1.53568 66.4583 1.53284 66.2925 1.52801C66.1134 1.55685 65.9343 1.58576 65.7552 1.61461ZM69.0982 1.57033C68.8307 1.59427 68.7109 1.6253 69.4139 1.64065H69.4156C69.4721 1.58712 70.1476 1.62991 70.4555 1.62633C70.5362 1.62051 70.6178 1.61457 70.6985 1.60875C70.1655 1.59585 69.6312 1.58323 69.0982 1.57033ZM80.8779 1.52085C80.8809 1.57999 80.2909 1.58615 81.1226 1.64065C81.284 1.63959 81.4457 1.63845 81.607 1.6374C81.7129 1.62443 81.8186 1.61129 81.9245 1.59833C83.9728 1.70535 84.5837 1.52305 81.1226 1.59117H81.121C81.0403 1.56777 80.9586 1.54424 80.8779 1.52085ZM97.1497 1.52801C97.6101 1.57373 95.3494 1.5765 94.5904 1.56642C94.406 1.56395 94.0772 1.53919 93.944 1.54233C93.8633 1.55161 93.7817 1.5604 93.701 1.56968C93.599 1.53801 92.1224 1.57395 91.5401 1.59117C91.4854 1.57955 91.4311 1.56763 91.3764 1.55601C91.1639 1.56064 90.9508 1.5657 90.7382 1.57033C90.7649 1.55871 90.7909 1.5468 90.8176 1.53517C90.6567 1.54916 90.4957 1.56285 90.3348 1.57684C89.7028 1.59241 90.0921 1.52904 89.6173 1.54884C89.0902 1.57083 89.9541 1.6089 89.938 1.63349C90.3661 1.62715 91.3398 1.61272 91.7749 1.612C92.0245 1.61162 91.7424 1.65612 92.8181 1.60549C93.0539 1.61729 93.2899 1.62885 93.5257 1.64065C93.9583 1.6219 94.391 1.6034 94.8235 1.58465C94.9043 1.60097 94.9859 1.61717 95.0666 1.63349C95.1141 1.63599 96.1137 1.59886 96.0602 1.58661C96.4658 1.6178 97.2994 1.62344 98.1764 1.62502C98.2607 1.61618 98.3452 1.60718 98.4294 1.59833C97.5818 1.61747 98.1582 1.58862 97.907 1.57163C97.761 1.56184 97.3134 1.5428 97.1497 1.52801ZM77.2704 1.52605C77.2444 1.55708 77.2187 1.58814 77.1927 1.61916C76.7406 1.54436 76.1563 1.61591 75.2699 1.56317C75.1897 1.5726 75.1087 1.58173 75.0285 1.59117C74.6971 1.57039 71.4414 1.56424 72.1468 1.612C72.4551 1.63277 73.1258 1.60486 73.1835 1.60549C73.379 1.6079 73.634 1.63438 73.9638 1.63284C74.1546 1.6319 74.5566 1.60092 74.9459 1.60093C75.8169 1.60107 77.4081 1.68517 78.5534 1.60549C78.6355 1.61481 78.7176 1.62417 78.7997 1.63349C79.6496 1.62778 79.3664 1.59812 80.1571 1.63349C80.7033 1.48604 76.9793 1.64032 77.7532 1.52085L77.2704 1.52605ZM53.8712 1.57033C53.8199 1.54385 52.8347 1.58493 53.0661 1.5215C52.7444 1.54359 52.4222 1.56517 52.1005 1.58726C52.103 1.59316 52.1047 1.59959 52.1072 1.60549C52.4269 1.60085 52.748 1.59581 53.0677 1.59117C53.0689 1.60045 53.0698 1.60988 53.071 1.61916C53.548 1.58533 55.5355 1.60035 55.4749 1.63349C55.5812 1.61949 55.6878 1.60516 55.794 1.59117C56.7451 1.62928 57.5636 1.58914 58.5997 1.62633C58.6799 1.61473 58.7608 1.60276 58.8411 1.59117C58.8933 1.60053 58.9459 1.61046 58.9981 1.61982C59.3754 1.62099 59.7534 1.62189 60.1306 1.62307C61.3584 1.5854 58.9722 1.53685 58.6807 1.54233C58.6422 1.54311 58.6477 1.56714 58.4079 1.57098C57.9806 1.57766 55.5881 1.5537 54.8483 1.56968C54.842 1.55368 54.8348 1.5375 54.8285 1.5215C54.5094 1.53784 54.1903 1.55398 53.8712 1.57033ZM85.4493 1.58465C85.5031 1.60096 85.5575 1.61718 85.6113 1.63349C86.5423 1.61717 87.1285 1.63145 86.891 1.57749H86.8894C86.4094 1.57985 85.9293 1.58229 85.4493 1.58465ZM14.9227 1.60875C15.1332 1.61216 15.3438 1.61575 15.5543 1.61916C15.6638 1.60526 15.7737 1.59139 15.8833 1.57749H15.8816C15.562 1.58799 15.2423 1.59825 14.9227 1.60875ZM84.6458 1.57749C84.3618 1.5582 83.5642 1.61628 84.0887 1.61916C84.4889 1.62134 84.7964 1.58791 84.6458 1.57749ZM153.648 1.57684C153.676 1.58628 153.705 1.59605 153.732 1.60549C154.032 1.57784 154.406 1.62554 155.331 1.61916V1.57033C155.119 1.57963 154.907 1.58902 154.695 1.59833C154.67 1.56581 154.224 1.55353 153.648 1.57684ZM63.0851 1.61786C63.7992 1.61583 64.5136 1.61339 65.2278 1.61135C65.2348 1.60232 65.2422 1.59304 65.2493 1.584C64.5339 1.61712 64.2455 1.58163 64.0787 1.57945H64.082C63.5464 1.57226 63.0347 1.56685 62.5279 1.55601C62.7135 1.57647 62.8996 1.59739 63.0851 1.61786ZM60.6365 1.56056C60.7568 1.62464 60.9152 1.63169 62.0121 1.58661C61.9687 1.57872 61.9249 1.57106 61.8815 1.56317C61.3135 1.56788 60.9823 1.58281 61.0813 1.54949C60.9333 1.5532 60.7845 1.55686 60.6365 1.56056ZM71.8211 1.58075C71.6899 1.5604 70.6505 1.58084 70.7002 1.59117C70.7226 1.59525 72.076 1.62068 71.8211 1.58075ZM162.627 1.584C162.386 1.57932 162.145 1.57501 161.905 1.57033C162.225 1.56338 162.545 1.55645 162.865 1.54949C162.786 1.5611 162.706 1.5724 162.627 1.584ZM165.271 1.49285C165.441 1.50109 164.885 1.55872 165.911 1.57359C165.164 1.57481 164.417 1.57627 163.67 1.57749C164.02 1.56818 164.37 1.55881 164.72 1.54949C164.659 1.53293 164.598 1.51592 164.537 1.49936C164.781 1.49712 165.026 1.49509 165.271 1.49285ZM167.986 1.4935C168.031 1.49507 168.238 1.52804 168.315 1.53517C167.995 1.53521 167.675 1.53513 167.356 1.53517C167.463 1.54562 167.569 1.55598 167.676 1.56642C167.302 1.57 166.928 1.57391 166.554 1.57749C166.714 1.567 166.873 1.55608 167.033 1.54559C166.713 1.54205 166.393 1.53871 166.073 1.53517C165.671 1.49135 167.788 1.48814 167.986 1.4935ZM157.576 1.54559C157.844 1.54669 158.112 1.54775 158.38 1.54884C158.327 1.53253 158.273 1.51632 158.219 1.50001C158.059 1.50001 157.898 1.50001 157.738 1.50001C157.685 1.51523 157.63 1.53037 157.576 1.54559ZM162.821 1.4948C162.945 1.50125 163.068 1.51711 163.032 1.52475C162.642 1.60351 161.58 1.43109 162.821 1.4948ZM168.779 1.50261C169.611 1.44529 169.423 1.57229 168.637 1.53517C168.598 1.53311 168.717 1.50685 168.779 1.50261ZM175.02 1.50066C175.088 1.50109 175.206 1.54223 175.849 1.50327C175.955 1.50794 176.062 1.51292 176.168 1.51759C175.917 1.53664 173.793 1.54782 174.086 1.50717C174.412 1.50654 174.684 1.49939 175.02 1.50066ZM164.472 1.3177C165.086 1.3338 165.839 1.31625 166.836 1.319H166.838C166.888 1.31925 166.976 1.33716 167.136 1.33788C167.272 1.33844 169.966 1.31901 169.756 1.34895C168.714 1.37575 168.325 1.33512 168.075 1.40169C168.024 1.38768 167.973 1.37338 167.923 1.35937C166.92 1.33506 166.634 1.38386 166.071 1.40169C166.073 1.39112 166.075 1.38036 166.078 1.36979C165.702 1.36873 165.326 1.36759 164.95 1.36653C165.003 1.37346 165.056 1.38043 165.109 1.38737C164.976 1.38737 164.842 1.38737 164.709 1.38737C164.385 1.35607 163.976 1.34909 164.472 1.3177ZM172.96 1.34895C172.641 1.35009 172.322 1.35107 172.003 1.35221C172.108 1.36505 172.214 1.37842 172.319 1.39127C172.162 1.39477 172.005 1.39819 171.848 1.40169C171.579 1.37953 171.311 1.35743 171.042 1.33528C171.736 1.33174 172.43 1.32775 173.124 1.32421C173.07 1.33242 173.015 1.34073 172.96 1.34895ZM174.409 1.36653C174.704 1.28631 177.58 1.34104 178.894 1.32421C178.204 1.37253 177.135 1.33968 176.383 1.33918C174.929 1.33828 175.933 1.36789 175.687 1.38085C175.562 1.38699 174.74 1.33561 174.409 1.36653ZM162.227 1.33137C162.952 1.33785 163.359 1.3195 163.986 1.34895C163.934 1.35481 163.88 1.36067 163.827 1.36653C163.61 1.36115 161.864 1.3441 162.227 1.33137ZM180.818 1.34569C179.419 1.31691 180.109 1.38901 179.382 1.33463C179.861 1.33117 180.34 1.32766 180.818 1.32421V1.34569ZM83.0421 1.27537C82.452 1.27353 81.7929 1.25878 81.4401 1.28905C81.8411 1.29373 82.2427 1.29869 82.6437 1.30337C82.7765 1.29411 82.9093 1.28464 83.0421 1.27537ZM99.8711 0.979766C99.7362 0.97252 99.2031 0.993439 99.1469 0.993439C99.0437 0.993401 99.0721 0.98322 99.0709 0.980417C98.3881 0.982329 99.0173 1.01497 98.5121 1.02209C98.4252 1.02325 97.2389 1.00709 96.7563 1.00841C96.0136 1.01046 95.2713 1.0085 94.9938 1.00907C94.5253 1.01001 93.6554 1.03449 92.8859 1.03576C92.569 1.03621 92.4575 1.01639 92.1386 1.01688C90.09 1.0202 86.058 1.04758 84.2408 1.03511C83.7919 1.03201 83.3639 1.00633 83.1264 1.00841C82.9392 1.01781 82.7516 1.02701 82.5643 1.03641C81.9886 0.951834 81.796 1.0272 81.1755 1.03511C80.7822 1.04008 80.5975 1.015 80.544 1.01493C80.193 1.01542 80.0193 1.02726 79.7438 1.02925C79.4342 1.03143 78.9881 1.02004 78.8774 1.02209C78.8118 1.02368 79.0228 1.05658 77.8259 1.05595C76.602 1.05529 75.3937 1.0523 74.149 1.05074C74.564 1.15115 74.9223 1.08241 75.4303 1.07874C75.5657 1.0778 75.4804 1.09376 75.5989 1.09306C75.9342 1.09114 76.5745 1.07562 76.8521 1.07939C77.1518 1.08349 77.0508 1.12039 77.4308 1.10673C77.4477 1.10567 77.3899 1.09044 77.4771 1.08785C78.3754 1.06256 78.6709 1.08903 79.8066 1.0898C80.5614 1.09035 85.1289 1.07528 85.2856 1.08525C86.1005 1.13875 81.2871 1.13961 80.7242 1.13538C80.5279 1.13387 80.7334 1.11648 80.5539 1.11324C80.4743 1.11216 79.7916 1.14444 79.1172 1.1471C78.299 1.15034 76.6546 1.1281 75.875 1.12887C69.1736 1.13556 62.5651 1.11627 55.8701 1.11585C55.7274 1.11585 55.5395 1.13536 55.0748 1.13538C46.3937 1.13503 37.3956 1.11978 28.6038 1.12887C26.6872 1.13085 24.7862 1.1491 22.852 1.13473C22.6119 1.14881 22.3711 1.16297 22.1311 1.17705C22.745 1.16586 23.8704 1.19742 23.9729 1.19789C24.0107 1.19795 24.2434 1.18207 24.6177 1.18291C25.1433 1.18404 25.375 1.19779 25.4195 1.19789C25.5538 1.19793 25.4666 1.1835 25.5948 1.18357C26.5506 1.1842 27.2901 1.1798 28.1673 1.17966C29.1583 1.17952 29.6611 1.20698 30.3828 1.17705C30.4643 1.18872 30.5458 1.20055 30.6274 1.21221C31.1667 1.16171 34.3791 1.16721 35.6799 1.16989C36.0899 1.17076 36.0182 1.19073 36.1561 1.19073C36.2438 1.19065 36.2108 1.16397 37.2836 1.16924C37.8234 1.17193 37.9653 1.19134 38.2359 1.19073C38.3832 1.19035 38.36 1.1712 38.5716 1.17119C39.7952 1.17119 40.7944 1.17737 41.9922 1.18096C42.3291 1.18195 42.3335 1.1981 42.4089 1.19789C42.6865 1.19715 43.17 1.16982 43.8754 1.16989C45.0368 1.17003 47.3499 1.17026 48.2996 1.18357C48.4392 1.18554 48.5557 1.20468 48.6584 1.2044C48.8131 1.20386 48.8741 1.18375 48.9014 1.18357C49.4211 1.18321 49.1088 1.20247 49.4569 1.19789C49.6445 1.19541 49.841 1.17185 50.277 1.16924C50.8519 1.16582 50.7391 1.19347 50.9796 1.19073C51.0047 1.19012 51.0138 1.17117 51.2491 1.17054C52.1457 1.16829 53.4461 1.16396 54.2945 1.16403C54.5382 1.16403 54.72 1.17684 55.06 1.17705C55.7463 1.17747 59.6378 1.16966 59.957 1.17705C59.9891 1.17794 59.6461 1.2059 60.1968 1.20505C60.3566 1.19336 60.5164 1.18158 60.6762 1.16989C60.9442 1.18865 61.2134 1.20713 61.4814 1.22589C61.4723 1.1611 63.0479 1.15115 63.0322 1.21742C63.2047 1.22011 63.3772 1.22255 63.5497 1.22524C63.9089 1.17946 64.1483 1.19679 64.8426 1.16989C64.9505 1.18389 65.0587 1.19756 65.1666 1.21156C65.1939 1.2022 65.222 1.19293 65.2493 1.18357C65.6194 1.23419 66.2258 1.18332 66.3008 1.18291C66.5841 1.18179 66.7975 1.19501 66.9307 1.19463C67.4277 1.1933 68.5041 1.17535 69.0849 1.18357C69.1122 1.18399 69.0867 1.20563 69.2519 1.20831C69.5492 1.21308 69.579 1.18147 69.9761 1.21873C70.056 1.20941 70.1358 1.20005 70.2158 1.19073C70.301 1.19557 70.3869 1.20021 70.472 1.20505C70.9746 1.20257 71.4773 1.20037 71.9799 1.19789C71.5228 1.23459 72.0481 1.25474 72.5453 1.22589C72.7136 1.21609 72.5652 1.19411 72.6213 1.19073C72.7055 1.18621 74.954 1.19779 75.103 1.21221C75.2097 1.20518 75.3169 1.19777 75.4237 1.19073C75.4775 1.20477 75.5319 1.21901 75.5857 1.23305C75.6442 1.22816 75.7025 1.22296 75.761 1.21808C76.3478 1.24287 77.8715 1.18627 78.1483 1.19073C78.2959 1.19312 78.1634 1.25285 78.8708 1.24672C78.8953 1.2303 78.9208 1.21367 78.9452 1.19724C79.1067 1.19489 79.2682 1.19308 79.4296 1.19073C79.7336 1.1922 80.176 1.22068 80.1902 1.24021C80.2852 1.22849 80.3812 1.21677 80.4762 1.20505C80.7325 1.24314 82.092 1.2292 82.6387 1.20505C82.7985 1.21656 82.9583 1.22806 83.1182 1.23956C83.333 1.22557 83.5481 1.21188 83.763 1.19789C84.2602 1.19368 83.7367 1.21672 83.8407 1.21873C84.065 1.22274 85.2076 1.1837 85.1352 1.2324C85.2911 1.23252 85.4472 1.23293 85.6031 1.23305C85.6833 1.21905 85.7642 1.20473 85.8445 1.19073C86.1124 1.23889 86.5757 1.22197 87.5259 1.23956C87.6056 1.22845 87.6859 1.21746 87.7656 1.20635C88.0594 1.22213 88.3531 1.23811 88.6468 1.25389C88.7072 1.23549 88.7683 1.21694 88.8287 1.19854C88.9564 1.1959 89.0845 1.19337 89.2122 1.19073C89.472 1.23185 89.9387 1.18741 90.1761 1.2044C90.522 1.2292 90.2537 1.2586 89.6107 1.2643C89.6588 1.29429 91.5729 1.28083 92.0162 1.27863C91.9874 1.27286 91.9591 1.26682 91.9303 1.26105C91.4787 1.26569 91.0262 1.27009 90.5746 1.27472C90.1961 1.19928 91.4216 1.21931 91.9848 1.20961C92.0363 1.20868 92.3286 1.18026 92.8958 1.18291C93.1156 1.18397 93.9738 1.22552 94.1374 1.22784C95.4576 1.24689 94.4868 1.18723 95.7792 1.23956C95.5105 1.19954 96.2529 1.23299 97.0257 1.22524C97.1576 1.2239 98.2704 1.19166 98.3484 1.19073C98.8183 1.18552 98.3073 1.22077 98.9866 1.21156C99.0683 1.20224 99.1512 1.19288 99.2329 1.18357H99.7074C100.667 1.26651 100.891 1.20582 101.232 1.19789C101.37 1.19472 101.193 1.21614 101.551 1.21156C101.685 1.20984 101.835 1.192 102.197 1.19073C103.331 1.1868 103.716 1.26385 104.758 1.18357C104.918 1.19519 105.078 1.2071 105.238 1.21873C105.346 1.20478 105.454 1.19035 105.562 1.1764C106.388 1.21691 106.09 1.17591 106.388 1.1764C107.176 1.17767 108.788 1.18533 108.93 1.21873C109.609 1.14208 110.422 1.22888 110.69 1.22589C110.85 1.21657 111.009 1.20721 111.168 1.19789C111.355 1.20725 111.543 1.21653 111.73 1.22589C111.639 1.15055 112.609 1.22476 112.702 1.22589C112.816 1.22691 114.303 1.20464 114.857 1.20505C115.411 1.20549 116.377 1.22585 116.462 1.22589C116.562 1.22583 117.504 1.2055 118.241 1.2057C118.887 1.20592 122.711 1.23473 122.47 1.20115C122.22 1.19186 121.864 1.18402 121.556 1.17966C120.598 1.16627 114.99 1.1492 113.555 1.14385C110.68 1.13321 107.68 1.1349 104.791 1.12757C104.621 1.12715 104.595 1.10782 104.449 1.10738C104.228 1.10682 103.665 1.12604 103.447 1.12562C102.632 1.12392 101.641 1.1209 101.205 1.12041C100.23 1.11942 99.5607 1.10733 98.8229 1.10543C98.5903 1.10492 97.4237 1.12931 96.624 1.1191C96.4791 1.11362 96.3341 1.10832 96.1892 1.10283C96.6013 1.09642 97.6824 1.07935 98.1847 1.07743C98.932 1.07469 99.3224 1.09073 99.5983 1.09046C99.8297 1.09023 101.01 1.072 101.548 1.07157C101.714 1.07148 101.749 1.09248 101.891 1.09241C102.666 1.09192 103.686 1.091 104.358 1.07092C104.084 1.07746 105.791 1.08983 105.886 1.0898C106.04 1.0898 106.208 1.07092 106.522 1.07092C107.126 1.07096 107.05 1.11099 107.805 1.07092C107.992 1.08259 108.179 1.09441 108.366 1.10608C108.377 1.05269 110.741 1.12539 111.413 1.0605C111.43 1.05318 108.361 1.03227 108.106 1.0312C106.586 1.0248 104.336 1.03796 102.86 1.0286C102.417 1.02579 101.024 0.992956 100.914 0.993439C100.744 0.994354 100.897 1.01296 100.823 1.01362C99.3216 1.02742 100.071 0.990559 99.8711 0.979766ZM166.071 1.28254C165.615 1.28034 165.158 1.27757 164.702 1.27537C164.735 1.26374 164.768 1.25184 164.801 1.24021C165.01 1.24477 165.219 1.24933 165.428 1.25389C165.589 1.24689 165.75 1.24005 165.911 1.23305C165.964 1.24939 166.018 1.2662 166.071 1.28254ZM167.195 1.23305C167.591 1.22715 167.611 1.25203 167.703 1.25324C167.975 1.25687 168.211 1.24704 168.475 1.24738C168.17 1.30597 167.521 1.27887 167.195 1.23305ZM159.02 1.21221C159.109 1.21502 159.705 1.2781 160.382 1.21938C160.889 1.23805 161.396 1.2567 161.903 1.27537C161.042 1.24687 159.85 1.2765 159.428 1.27537C159.268 1.27492 159.237 1.2555 159.109 1.25519C158.371 1.25366 157.655 1.29729 157.58 1.23305C158.277 1.25168 158.906 1.20877 159.02 1.21221ZM163.472 1.235C163.59 1.24841 163.708 1.26197 163.826 1.27537C163.4 1.27537 162.974 1.27537 162.548 1.27537C162.663 1.2618 162.778 1.24792 162.893 1.23435C163.086 1.23452 163.279 1.23484 163.472 1.235ZM130.659 1.19073C130.922 1.19089 131.186 1.19057 131.449 1.19073C131.435 1.18095 131.134 1.18103 131.023 1.17445H131.024C130.901 1.16698 130.953 1.15462 130.728 1.14906C130.705 1.16285 130.682 1.17693 130.659 1.19073ZM21.812 1.13473C21.3688 1.13403 17.301 1.13424 17.6457 1.16989C17.8205 1.18772 19.2141 1.17221 19.6247 1.1725C20.1783 1.17287 21.6716 1.21105 21.812 1.13473ZM14.6003 1.12757C14.5298 1.16312 17.0726 1.16891 17.3233 1.16273C17.2705 1.15764 17.1885 1.1464 17.1183 1.14385C16.7736 1.13162 15.1486 1.13728 14.6003 1.12757ZM115.926 1.08785C116.131 1.10583 116.336 1.12392 116.541 1.14189C116.487 1.1185 116.433 1.09497 116.379 1.07157C116.228 1.07698 116.077 1.08245 115.926 1.08785ZM96.0238 1.11324C92.6062 1.11211 89.1878 1.11113 85.7701 1.10999C86.0707 1.10026 86.3722 1.09041 86.6728 1.08069C89.6177 1.08414 92.7583 1.09439 95.6023 1.07939C95.7426 1.0908 95.8835 1.10183 96.0238 1.11324ZM158.057 1.10673C157.182 1.10638 156.449 1.12365 155.496 1.09632C156.404 1.06982 156.854 1.11061 157.737 1.07157H157.738C157.844 1.08324 157.951 1.09507 158.057 1.10673ZM66.2115 1.02274C65.2955 1.05844 62.9516 0.993456 62.2072 1.03641C62.1613 1.03929 62.6003 1.0574 61.8864 1.09241C62.4255 1.08524 62.8068 1.07817 62.8487 1.05074C63.009 1.06009 63.1694 1.06939 63.3298 1.07874C63.596 1.07165 63.8637 1.06433 64.13 1.05725C64.1011 1.08472 64.1213 1.08321 64.5301 1.06441C64.7166 1.07137 64.904 1.07829 65.0905 1.08525C65.1693 1.07365 65.2482 1.06233 65.327 1.05074C65.4884 1.06701 65.6499 1.0833 65.8114 1.09957C66.4408 1.08191 66.0578 1.05033 66.2115 1.02274ZM138.505 1.09957C138.772 1.08322 139.038 1.06709 139.304 1.05074C138.984 1.05074 138.664 1.05074 138.343 1.05074C138.397 1.06706 138.452 1.08325 138.505 1.09957ZM69.4172 1.02925C69.2631 1.02324 65.0233 1.04285 66.9522 1.09762C67.4537 1.09587 67.9552 1.09416 68.4567 1.09241C68.0417 1.00171 69.4091 1.08269 69.5214 1.0846C70.0583 1.09342 70.742 1.07243 71.1317 1.07353C71.4669 1.07451 71.6665 1.09022 71.9022 1.0898C72.7053 1.0884 73.9744 1.08829 74.149 1.05074C73.5248 1.04996 72.8902 1.04915 72.2411 1.05009C71.5547 1.05107 70.9511 1.01583 69.6619 1.06441C69.343 1.05919 69.4557 1.0308 69.4172 1.02925ZM140.106 1.05399C140.074 1.09151 141.677 1.08308 141.705 1.06832C141.708 1.05958 141.18 1.05926 141.104 1.05595H141.103C141.075 1.05431 141.229 1.0404 140.984 1.03641C140.691 1.04239 140.398 1.04801 140.106 1.05399ZM28.1458 1.05009C27.918 1.02899 22.9215 1.0367 22.7743 1.04683C22.735 1.04968 22.79 1.05907 22.7743 1.06441C23.9419 1.03455 25.6024 1.06989 26.7108 1.07222C27.0196 1.07285 26.928 1.05818 26.9455 1.0579H26.9472C27.1229 1.05789 27.9133 1.09384 28.1458 1.05009ZM60.6051 1.05399C60.8178 1.05989 61.0306 1.06568 61.2433 1.07157C61.2973 1.0599 61.3514 1.04809 61.4053 1.03641H61.4037C61.1375 1.04219 60.8713 1.04822 60.6051 1.05399ZM53.3885 1.04032C53.9241 1.04146 54.4598 1.04244 54.9955 1.04358C54.9415 1.04821 54.8874 1.05261 54.8335 1.05725C55.6426 1.06964 55.9782 1.0408 56.409 1.04488C56.4555 1.04538 56.5125 1.06253 56.6852 1.06311C57.0819 1.06445 58.2163 1.07122 58.3533 1.05399C58.6411 1.0173 56.3593 1.03418 55.9329 1.03251C55.7408 1.03173 55.5096 1.0173 55.3923 1.01688C55.264 1.01655 55.088 1.03638 54.7756 1.03576C54.6816 1.03548 53.6705 1.01208 53.2331 1.01558C53.2847 1.02378 53.3368 1.03212 53.3885 1.04032ZM43.7762 1.03967C43.941 1.05816 44.2853 1.04064 44.4127 1.04358C44.443 1.04429 44.2083 1.05976 44.4937 1.06441C44.5744 1.05383 44.656 1.04309 44.7367 1.03251C44.417 1.03491 44.0959 1.03727 43.7762 1.03967ZM141.87 1.03641C141.351 1.07019 143.151 1.06656 142.829 1.03641C142.779 1.03247 141.912 1.0339 141.87 1.03641ZM164.79 0.997997C164.39 0.948857 169.134 0.996641 169.597 0.99409C169.575 1.02498 168.445 0.994009 169.037 1.03641C168.472 1.01309 166.911 1.0256 166.544 1.01883C166.322 1.01474 166.265 0.98855 166.231 0.987579C166.099 0.98458 164.935 1.01509 164.79 0.997997ZM173.522 1.01558C173.071 1.00972 172.62 1.00386 172.168 0.997997C172.701 0.994498 173.233 0.991077 173.765 0.987579C173.684 0.996913 173.603 1.00624 173.522 1.01558ZM176.011 0.987579C175.557 1.03852 174.798 0.990128 174.09 1.00125C174.077 0.971404 175.608 0.994479 176.011 0.987579ZM148.601 0.95893C147.895 0.939218 147.592 1.03054 148.45 0.990835C148.476 0.989521 148.63 0.959979 148.601 0.95893ZM64.2903 0.878842C64.0164 0.925596 64.9979 0.906766 65.327 0.92442C65.8579 0.953027 65.0774 0.976192 66.3735 0.95893C66.3206 0.968277 66.2677 0.978232 66.2148 0.987579C66.9726 0.99064 66.7251 0.925594 66.8612 0.917258C66.9066 0.914816 67.3744 0.920012 67.4614 0.915956C68.5303 0.863722 66.1049 0.894253 65.9932 0.893818C65.8727 0.893245 64.381 0.864341 64.2903 0.878842ZM131.13 0.952419C129.725 0.924939 130.329 0.965301 128.887 0.962836C128.855 0.983071 130.948 0.970386 131.13 0.952419ZM79.676 0.930932C78.2228 0.939031 77.0271 0.912367 75.6717 0.948512C75.7607 1.00412 80.0493 0.945332 79.676 0.930932ZM11.3962 0.874935C17.05 0.974049 23.5714 0.94095 29.5908 0.939396C30.2469 0.939255 30.3107 0.961325 30.5481 0.95893C30.7034 0.957367 30.6771 0.940131 30.8837 0.940047C38.3534 0.937157 45.5057 0.913783 52.661 0.92442C53.1117 0.925125 55.3057 0.963094 55.7742 0.905538C56.1263 0.861979 54.5519 0.896162 54.2895 0.895771C54.0928 0.895451 54.0836 0.875008 53.9522 0.874935C53.8138 0.874909 53.9282 0.888372 53.7671 0.888609C53.0806 0.889594 52.3311 0.884156 51.7104 0.885353C45.6229 0.896838 39.7001 0.893837 33.6447 0.891864C32.9143 0.891644 33.0622 0.875089 33.0264 0.874935H33.0247C29.0948 0.873385 24.6057 0.910514 20.4431 0.896422C17.5123 0.885111 14.5816 0.873875 11.6508 0.862564C11.5661 0.866623 11.4809 0.870877 11.3962 0.874935ZM69.0965 0.952419C68.7308 0.890421 68.6491 0.952299 67.3374 0.927025C67.2306 0.937603 67.1234 0.948351 67.0166 0.95893C67.7105 0.956611 68.4043 0.954737 69.0982 0.952419H69.0965ZM60.4299 0.929629C60.2076 0.84593 57.2738 0.90523 55.9527 0.88926C55.715 0.931137 57.6299 0.912214 58.0838 0.916607C58.31 0.918791 59.5224 0.962046 60.4431 0.938094C60.439 0.93525 60.434 0.932474 60.4299 0.929629ZM159.82 0.874935C159.607 0.877374 159.393 0.879659 159.18 0.882098C159.714 0.891372 160.248 0.900822 160.782 0.910096C159.93 0.904116 159.078 0.897844 158.226 0.891864C158.385 0.874515 158.544 0.857125 158.702 0.839775C159.075 0.851407 159.447 0.863304 159.82 0.874935ZM157.056 0.8834C158.546 0.876881 156.991 0.923511 156.617 0.902934C156.394 0.890532 156.903 0.884105 157.056 0.8834ZM153.172 0.853449C153.868 0.822947 155.275 0.821196 154.776 0.882098C154.023 0.853565 153.538 0.877016 152.448 0.860611C152.607 0.848944 152.766 0.837117 152.926 0.82545H152.927C153.009 0.834741 153.09 0.844158 153.172 0.853449ZM17.6457 0.811777C17.5301 0.831613 18.2803 0.831277 18.5302 0.832613C19.6145 0.83853 21.0052 0.829866 22.1328 0.832613C22.0479 0.826067 21.963 0.819625 21.8782 0.813079C20.4675 0.812672 19.0563 0.812184 17.6457 0.811777ZM25.6593 0.832613H27.9838C28.0559 0.832613 28.3944 0.815958 28.1442 0.811777C27.3164 0.818858 26.487 0.825532 25.6593 0.832613ZM79.5156 0.808521C79.1433 0.814337 78.7703 0.819634 78.398 0.82545C78.3975 0.818508 78.3968 0.811557 78.3963 0.804615C78.7692 0.805835 79.1427 0.807301 79.5156 0.808521ZM14.6003 0.797452C14.9949 0.82154 15.936 0.817797 16.5231 0.818288C16.1186 0.797611 15.1551 0.807803 14.6003 0.797452ZM60.2877 0.783779C60.7944 0.780191 61.1871 0.786 61.0829 0.811777C60.8142 0.810678 60.5449 0.80962 60.2761 0.808521C60.2798 0.800344 60.284 0.791956 60.2877 0.783779ZM150.523 0.804615C149.669 0.806934 148.815 0.809457 147.961 0.811777C147.992 0.804765 148.023 0.797302 148.055 0.79029C148.878 0.788012 149.702 0.786057 150.525 0.783779C150.524 0.790715 150.524 0.797678 150.523 0.804615ZM12.3584 0.747967C12.9452 0.752686 13.5324 0.757573 14.1192 0.762292V0.734294H14.1176C13.5313 0.73889 12.9447 0.743371 12.3584 0.747967ZM162.222 0.713458C159.614 0.68063 162.942 0.645694 163.631 0.693924H163.632C163.693 0.698178 163.566 0.718773 163.665 0.727131C163.4 0.717828 163.135 0.708436 162.87 0.699133C162.628 0.710731 162.385 0.722696 162.143 0.734294C162.063 0.729736 161.983 0.725178 161.903 0.72062C162.009 0.718303 162.116 0.715776 162.222 0.713458ZM172.752 0.695227C175.117 0.699033 172.698 0.750234 171.527 0.709551C171.555 0.700302 172.536 0.694879 172.752 0.695227ZM166.552 0.706296C166.18 0.710972 165.807 0.715292 165.434 0.719969C165.387 0.714069 165.338 0.70829 165.291 0.702389C165.577 0.696534 165.863 0.690664 166.149 0.684809C166.283 0.691889 166.418 0.699216 166.552 0.706296ZM154.293 0.615139C153.693 0.608657 152.927 0.674065 154.853 0.656811C154.852 0.649862 154.851 0.642923 154.85 0.635975C154.773 0.637116 154.548 0.643661 154.536 0.643137C154.501 0.64132 154.542 0.617848 154.293 0.615139ZM175.53 0.467335C175.629 0.473529 175.31 0.495035 175.384 0.501193C175.45 0.506543 176.436 0.529008 176.171 0.565654C176.009 0.564108 175.846 0.562642 175.683 0.561096C175.629 0.551119 175.574 0.541122 175.52 0.531145C175.363 0.540405 175.205 0.549231 175.048 0.558492C174.784 0.533696 174.22 0.501883 174.888 0.48166C174.642 0.483774 174.396 0.486056 174.151 0.488171C174.023 0.500039 173.896 0.511463 173.769 0.523331C173.835 0.505266 173.902 0.487354 173.969 0.469288C174.489 0.468678 175.009 0.467945 175.53 0.467335ZM177.133 0.509658C177.2 0.506551 177.239 0.433163 177.937 0.509658C178.149 0.504978 178.361 0.500013 178.573 0.495333C178.628 0.511679 178.682 0.528472 178.737 0.544818C177.92 0.53217 177.831 0.564777 177.771 0.565654C177.499 0.568747 177.7 0.551612 177.525 0.551329C177.071 0.550766 176.039 0.562155 176.507 0.513564C176.675 0.496161 177.066 0.512335 177.133 0.509658ZM183.153 0.474497C183.123 0.483812 183.093 0.493181 183.064 0.502495C183.967 0.485104 185.372 0.478331 184.573 0.537005C183.35 0.541886 182.127 0.547099 180.904 0.55198C180.823 0.54494 180.741 0.537534 180.66 0.530493C181.572 0.557617 181.291 0.442683 182.085 0.4758C182.218 0.481479 181.831 0.52114 182.672 0.495333C182.642 0.485942 182.611 0.476726 182.581 0.467335C182.771 0.469655 182.962 0.472178 183.153 0.474497ZM190.917 0.488171C189.371 0.474651 191.071 0.440989 191.358 0.469288L191.543 0.49338C191.742 0.538136 190.445 0.50923 190.355 0.509658C190.218 0.510346 189.9 0.566014 189.158 0.484915C189.744 0.486055 190.331 0.487031 190.917 0.488171ZM185.868 0.474497C185.997 0.472671 185.926 0.486997 185.982 0.486869H185.983C186.811 0.483839 188.781 0.471232 188.994 0.51682C188.382 0.52062 185.646 0.530088 185.474 0.49924C185.605 0.491042 185.736 0.482695 185.868 0.474497ZM180.979 0.488822C181.035 0.491783 180.569 0.538931 180.043 0.508355C179.537 0.478895 180.678 0.475192 180.979 0.488822ZM141.065 0.432175C139.948 0.449926 141.416 0.467581 140.908 0.495333C141.121 0.492975 141.334 0.490528 141.548 0.488171C141.387 0.469479 141.226 0.450867 141.065 0.432175ZM90.0918 0.376178C89.8336 0.372957 89.954 0.389427 89.9331 0.389852C89.762 0.38938 89.6004 0.376045 89.5346 0.377481C88.32 0.405351 89.1272 0.419749 89.1395 0.423059C89.1628 0.439785 88.8478 0.45931 89.2883 0.478404C89.5566 0.472466 89.8251 0.46611 90.0935 0.460173C90.2266 0.469484 90.3604 0.47886 90.4935 0.488171C91.0256 0.468229 90.3326 0.463086 90.2505 0.436732C90.22 0.426304 90.7206 0.413452 90.0918 0.376178ZM139.063 0.376178C138.881 0.405631 138.438 0.44295 138.874 0.472544C138.955 0.477951 139.284 0.480574 139.385 0.488171C140.104 0.44896 139.828 0.408567 139.063 0.376178ZM94.9079 0.323438C95.3408 0.330315 95.7745 0.337396 96.2074 0.344274C96.2 0.361878 96.1916 0.37941 96.1842 0.397014C95.9528 0.392258 95.7213 0.387446 95.4898 0.38269C95.4088 0.390723 95.3278 0.398747 95.2468 0.406781C95.5343 0.426913 95.8224 0.447203 96.1098 0.467335C96.4559 0.460304 96.802 0.45353 97.1481 0.446499C96.989 0.437189 96.8294 0.427811 96.6703 0.418501C97.5172 0.408214 97.3334 0.450916 98.0343 0.467335C98.2743 0.450976 98.5151 0.43486 98.7551 0.418501C99.1023 0.434928 99.4495 0.45156 99.7967 0.467986C100.38 0.46031 100.432 0.447644 100.04 0.428919C100.33 0.407581 100.648 0.440898 100.997 0.432175C101.026 0.43144 100.971 0.411582 100.997 0.411339C102.805 0.397741 102.709 0.450756 102.997 0.45301C103.202 0.454533 104.015 0.418315 104.027 0.40613C104.025 0.389277 102.366 0.325122 105.001 0.323438C103.632 0.27864 102.074 0.324135 103.08 0.389852C102.646 0.383252 100.736 0.399633 100.613 0.397665C100.436 0.394691 100.498 0.369719 100.276 0.369016C100.145 0.368664 99.7956 0.42593 98.7551 0.376178C98.6221 0.385538 98.488 0.394817 98.355 0.404176C98.2305 0.396495 98.1059 0.389069 97.9814 0.381387C98.2381 0.35396 98.4951 0.326123 98.7518 0.298695C97.735 0.328493 96.891 0.27238 96.2718 0.319531C95.7366 0.31404 95.4765 0.309134 95.7064 0.285022C95.5456 0.285022 95.3844 0.285022 95.2236 0.285022C95.1186 0.297899 95.0129 0.310561 94.9079 0.323438ZM135.778 0.418501C135.246 0.391146 135.054 0.449557 135.136 0.45301C135.602 0.471375 136.053 0.432783 135.778 0.418501ZM91.059 0.407432C91.6459 0.422647 92.2329 0.437795 92.8197 0.45301V0.397014C92.2329 0.400472 91.6458 0.403974 91.059 0.407432ZM141.39 0.432175C142.033 0.381064 142.671 0.454405 142.989 0.439337C143.058 0.436027 142.919 0.41143 142.788 0.40613C142.702 0.402782 141.342 0.385789 141.228 0.390503C141.282 0.404472 141.337 0.418206 141.39 0.432175ZM167.995 0.397014C167.756 0.4064 167.517 0.415626 167.278 0.425012C167.291 0.409376 167.304 0.393768 167.318 0.378132C167.436 0.37521 167.553 0.371938 167.671 0.369016C167.779 0.378281 167.888 0.387749 167.995 0.397014ZM165.271 0.421757C164.844 0.420495 164.415 0.419763 163.988 0.418501C165.618 0.404057 164.281 0.396681 165.271 0.376178V0.421757ZM160.946 0.389852C160.998 0.380487 161.05 0.371218 161.103 0.361854H162.386C162.116 0.329217 161.844 0.296822 161.574 0.264186C161.418 0.264105 161.261 0.263616 161.104 0.263535C161.052 0.305568 160.999 0.347819 160.946 0.389852ZM78.5517 0.305858C78.295 0.305297 77.4054 0.333624 77.4325 0.344274C77.8057 0.357173 78.1801 0.370441 78.5534 0.383341C78.5551 0.364718 78.5566 0.345967 78.5583 0.327344C78.6106 0.336569 78.6632 0.345467 78.7154 0.354691C78.9277 0.347692 79.1413 0.340855 79.3536 0.333856C79.4605 0.350197 79.5674 0.366999 79.6743 0.383341C79.7818 0.364668 79.8893 0.346017 79.9967 0.327344C78.9718 0.294229 79.0064 0.327043 78.7931 0.326693C78.6852 0.326508 78.6165 0.314937 78.5782 0.309113C78.5693 0.308118 78.5606 0.306853 78.5517 0.305858ZM91.464 0.288277C90.2402 0.28363 89.5405 0.333396 88.6551 0.292184C89.223 0.379975 92.8908 0.289297 94.1837 0.362505C94.3177 0.348455 94.4515 0.334232 94.5855 0.320182C93.882 0.3327 93.3944 0.303537 93.0512 0.299346C92.7785 0.296035 92.8059 0.310627 92.785 0.310415H92.7834C92.145 0.304356 91.9468 0.290111 91.464 0.288277ZM142.138 0.321484C141.809 0.299245 141.233 0.301403 141.227 0.333856C141.547 0.34325 141.867 0.352459 142.187 0.361854C142.123 0.353435 142.194 0.325277 142.138 0.321484ZM160.448 0.299346C160.191 0.288822 159.587 0.298024 159.848 0.326042C159.899 0.33081 160.496 0.311447 160.144 0.361854C160.732 0.361071 160.594 0.305421 160.448 0.299346ZM112.378 0.354691C112.594 0.353758 112.809 0.353021 113.025 0.352087C113.075 0.338984 113.127 0.326123 113.177 0.31302C112.911 0.327046 112.644 0.340665 112.378 0.354691ZM144.914 0.298695C145.201 0.362817 145.691 0.300687 146.23 0.353389C146.429 0.353796 146.628 0.354285 146.827 0.354691H146.828C146.834 0.337193 146.839 0.319449 146.845 0.301951C146.201 0.300893 145.557 0.299753 144.914 0.298695ZM98.9122 0.323438C99.0449 0.331562 99.1778 0.339405 99.3106 0.347529C99.5474 0.338048 99.7847 0.329013 100.022 0.319531C99.8934 0.312735 99.7644 0.305491 99.6363 0.298695C99.3949 0.306823 99.1536 0.31531 98.9122 0.323438ZM65.2526 0.326693C65.4906 0.331445 65.7287 0.336266 65.9668 0.341018C66.048 0.329298 66.1302 0.317577 66.2115 0.305858C65.8919 0.312811 65.5721 0.31974 65.2526 0.326693ZM66.8563 0.333856C67.0467 0.336091 67.2379 0.338782 67.4283 0.341018C67.5564 0.335321 67.6854 0.329135 67.8135 0.323438C67.6351 0.317781 67.4563 0.312165 67.2779 0.306509C67.1375 0.315622 66.9966 0.324742 66.8563 0.333856ZM148.412 0.293486C147.716 0.285454 147.454 0.340876 148.344 0.341018C148.72 0.341018 149.141 0.30188 148.412 0.293486ZM163.75 0.305858C163.722 0.317549 163.693 0.329326 163.665 0.341018C163.453 0.33866 163.24 0.336213 163.027 0.333856C163.081 0.322233 163.134 0.310318 163.188 0.298695C163.375 0.300973 163.563 0.30358 163.75 0.305858ZM155.01 0.298695C154.742 0.284697 153.674 0.328515 154.637 0.339716C155.251 0.34683 155.051 0.300839 155.01 0.298695ZM156.455 0.285022C155.435 0.258176 156.2 0.394145 157.418 0.305858C156.197 0.317911 156.512 0.286886 156.455 0.285022ZM165.426 0.214701C165.452 0.215019 165.474 0.234164 165.678 0.234886C166.415 0.237422 167.39 0.245408 167.918 0.246606C169.187 0.249481 173.068 0.214113 173.526 0.270697C173.62 0.282545 173.406 0.317371 173.441 0.319531C173.554 0.324641 174.205 0.307662 174.085 0.333856C173.447 0.333652 172.809 0.333408 172.172 0.333205C172.328 0.314752 172.485 0.296312 172.641 0.277859C171.052 0.287722 171.577 0.286463 171.12 0.326693C170.851 0.311115 170.582 0.295391 170.313 0.279813C169.728 0.295473 169.143 0.311684 168.558 0.327344C168.69 0.315678 168.823 0.30385 168.956 0.292184C168.074 0.270554 168.318 0.284698 167.835 0.31302C167.834 0.301341 167.833 0.289539 167.832 0.277859C166.981 0.306282 166.814 0.27112 166.628 0.270697C166.247 0.270151 165.76 0.408018 164.305 0.270697C163.691 0.336826 163.704 0.202295 163.343 0.270697C162.305 0.196293 164.281 0.223304 165.216 0.22577H165.218C165.287 0.225919 165.177 0.213729 165.426 0.214701ZM160.088 0.283068C160.717 0.22237 158.232 0.216296 159.054 0.303904C159.177 0.306751 159.299 0.310173 159.421 0.31302C159.644 0.303093 159.867 0.292995 160.089 0.283068H160.088ZM136.738 0.242699C134.436 0.267642 135.745 0.302847 136.525 0.268744C136.679 0.262008 136.764 0.252366 136.738 0.242699ZM89.7148 0.242048C89.6815 0.249275 89.6473 0.256308 89.614 0.263535C90.3859 0.256717 91.8797 0.284652 91.8592 0.235537C91.1448 0.237531 90.4293 0.240054 89.7148 0.242048ZM95.8221 0.209492C95.6569 0.206538 94.9831 0.199788 95.06 0.217956C95.3535 0.230977 95.6477 0.244003 95.9412 0.257024C96.0778 0.248889 96.2146 0.241067 96.3512 0.232932C96.1606 0.230165 95.8677 0.210318 95.8221 0.209492Z" fill="#242424"/>
</svg>
