<svg width="124" height="2" viewBox="0 0 124 2" fill="none" xmlns="http://www.w3.org/2000/svg">
  <g clip-path="url(#clip0_1262_125)">
    <path d="M2.78516 0.0740591C5.37908 -0.100748 7.15053 0.0848261 9.55685 0.114429C14.8539 0.179455 21.8391 0.120851 27.2567 0.125498C31.3574 0.129021 35.5249 0.141537 39.6008 0.151542C39.8096 0.152055 39.9342 0.170816 40.0289 0.171076C40.9214 0.173331 42.4185 0.156171 43.3038 0.158705C45.1661 0.163987 48.4061 0.160924 50.1116 0.178889C50.8356 0.186494 51.5783 0.189955 51.86 0.235537C52.124 0.237854 52.2687 0.196954 52.338 0.194516H52.3412C52.5638 0.187596 53.1251 0.21647 53.2494 0.214701C53.2679 0.214419 53.1541 0.184241 53.4544 0.193214C53.4812 0.193989 53.457 0.214412 53.7104 0.214701C53.7772 0.214738 54.624 0.184046 54.8661 0.182145C55.6722 0.175955 57.597 0.200144 58.5605 0.199725C58.7077 0.199707 58.7927 0.187565 58.9482 0.187354C59.0283 0.18725 59.1481 0.200353 59.1734 0.200376C59.2818 0.199918 59.7556 0.141504 59.5856 0.257024C60.079 0.249715 59.9352 0.21151 59.9457 0.186703C60.4824 0.183121 60.7413 0.237201 60.8815 0.17954C63.521 0.186499 66.1608 0.193418 68.8004 0.200376C68.8012 0.191046 68.8017 0.181709 68.8025 0.172378C69.5805 0.209925 69.8476 0.146497 70.2917 0.201027C70.5654 0.189031 70.8391 0.177212 71.1128 0.165216C78.1517 0.202205 85.1748 0.157913 92.1343 0.158054C92.4276 0.158071 92.5012 0.178092 92.9851 0.178238C93.5199 0.178378 94.2721 0.155182 94.9768 0.155449C95.595 0.15566 96.5075 0.174621 97.1969 0.177587C97.3518 0.178218 97.4643 0.165258 97.4826 0.165216C97.5856 0.165711 97.591 0.186112 97.6908 0.186703C97.8104 0.187337 97.9553 0.172113 98.0934 0.173029C98.6081 0.176326 99.1688 0.171407 99.2363 0.171727C99.5511 0.173626 99.6215 0.193648 99.6474 0.193865C99.9969 0.196239 99.8662 0.178514 99.9533 0.17954C100.406 0.184986 100.726 0.229108 101.345 0.186703C101.328 0.20305 101.311 0.21919 101.294 0.235537C101.768 0.244764 101.455 0.201105 101.552 0.193214C101.595 0.19033 102.612 0.195695 102.691 0.19647C102.964 0.199302 102.972 0.22157 102.996 0.221863C103.054 0.222533 103.743 0.197656 104.096 0.216654C104.514 0.23918 104.023 0.283156 104.126 0.291533C104.143 0.292941 104.58 0.288776 104.64 0.302602C104.705 0.317502 104.328 0.317215 104.332 0.323438C104.336 0.327733 104.964 0.358719 104.845 0.379434C104.748 0.400211 103.894 0.373571 103.714 0.383341C103.685 0.38516 103.74 0.410402 103.714 0.411339C103.604 0.414776 101.647 0.41554 101.553 0.411339C101.655 0.399671 101.758 0.387846 101.86 0.376178C101.724 0.374998 101.587 0.374103 101.451 0.372923C101.645 0.363563 101.839 0.354284 102.032 0.344925C101.745 0.248817 100.879 0.345728 100.842 0.393759C100.827 0.415954 101.356 0.473145 100.864 0.506402C100.939 0.512099 101.014 0.517634 101.089 0.523331C101.243 0.513976 101.398 0.504689 101.552 0.495333C101.449 0.489433 101.346 0.483653 101.243 0.477753C101.281 0.471093 101.319 0.464228 101.357 0.457568C101.645 0.446869 101.934 0.436363 102.222 0.425663C102.371 0.430596 102.34 0.450503 102.442 0.454313C103.714 0.502285 102.884 0.440952 103.717 0.449755C103.836 0.460335 103.955 0.471079 104.074 0.48166C104.032 0.437916 104.4 0.465339 104.846 0.446499C104.793 0.460611 104.74 0.47471 104.687 0.488822C105.333 0.481295 106.642 0.55253 106.29 0.474497C106.437 0.481165 106.586 0.488014 106.734 0.494682C106.858 0.481913 106.984 0.469035 107.108 0.456266C107.281 0.457731 107.454 0.459359 107.627 0.460824C107.628 0.467709 107.628 0.474774 107.629 0.48166C107.491 0.4817 107.354 0.481619 107.216 0.48166C107.319 0.502728 107.423 0.52375 107.526 0.544818C107.628 0.541323 107.729 0.537896 107.831 0.5344C107.405 0.514487 107.966 0.482111 108.103 0.454313C108.462 0.444028 108.693 0.480031 108.813 0.48166C108.872 0.482269 109.537 0.418874 109.275 0.488822C109.619 0.480317 109.963 0.471282 110.307 0.462777C110.441 0.468143 110.575 0.473689 110.709 0.479055C110.418 0.511677 111.263 0.550824 110.64 0.564352C110.176 0.574496 110.061 0.543956 109.841 0.544167C109.642 0.544318 109.536 0.565389 109.32 0.566305C107.865 0.572082 106.679 0.568232 105.297 0.559143C105.025 0.557325 104.776 0.567049 104.593 0.565654C104.386 0.56403 104.645 0.538579 104.382 0.544818C104.105 0.551434 104.045 0.572311 103.972 0.572816C103.926 0.573055 103.782 0.553946 103.649 0.553934C103.103 0.553938 102.303 0.572271 102.225 0.572165C102.134 0.571904 100.594 0.555082 100.521 0.55198C100.483 0.549733 100.562 0.480494 100.223 0.554585C100.117 0.555969 100.011 0.557759 99.9045 0.559143C99.9217 0.545185 99.9393 0.530778 99.9565 0.51682C99.3279 0.569734 99.5438 0.540661 98.9378 0.544818C97.4869 0.554821 95.3465 0.543144 93.7595 0.548074C93.4051 0.549203 93.2695 0.565753 92.8502 0.566956C92.4606 0.567986 91.4446 0.518191 91.6648 0.587141C90.7986 0.527389 90.6591 0.630539 90.2255 0.566305C90.1731 0.57564 90.1206 0.584969 90.0683 0.594303C89.5973 0.554143 89.4512 0.589439 88.937 0.594303C88.7158 0.596385 88.9708 0.553283 88.5238 0.600814C88.4385 0.59728 88.3531 0.593931 88.2678 0.590396C88.2875 0.580129 88.3076 0.570062 88.3273 0.559794C87.8305 0.568249 87.7979 0.562783 87.8546 0.601465C87.6149 0.594429 87.3752 0.587015 87.1355 0.579979C87.1057 0.592675 87.076 0.605698 87.0462 0.618395C87.1679 0.642514 92.6051 0.605926 93.3643 0.594303C94.2537 0.623041 96.0408 0.586828 96.7592 0.593652C97.0467 0.596406 97.1737 0.625357 97.592 0.628812C98.0102 0.632261 98.5366 0.606313 98.7594 0.605372C99.5014 0.602131 103.017 0.608065 100.626 0.643788C100.694 0.657755 100.763 0.671493 100.832 0.68546C101.782 0.637698 101.438 0.666849 102.226 0.671786C102.558 0.67389 103.347 0.642845 103.304 0.706296C102.687 0.718123 102.033 0.698218 101.497 0.699133C101.443 0.69929 100.809 0.727849 100.482 0.719969C100.188 0.712721 100.391 0.652655 99.7505 0.72062C99.2744 0.654141 98.9988 0.714208 98.873 0.72062C98.6557 0.731737 98.6314 0.699048 98.4142 0.695227C98.178 0.691051 98.0154 0.712628 97.9829 0.712807C97.6584 0.7133 95.9678 0.716269 95.8903 0.70304C95.9582 0.697227 96.0264 0.691273 96.0943 0.68546C95.656 0.676121 95.7472 0.710051 95.6322 0.714109C95.5463 0.713987 95.46 0.71358 95.3741 0.713458C95.4081 0.706515 95.4421 0.699565 95.4761 0.692622C94.958 0.694108 95.3544 0.717995 94.6188 0.717365C94.1518 0.716938 93.6694 0.69069 93.6235 0.692622C93.6101 0.693186 93.7567 0.711056 93.5662 0.713458C93.2508 0.717395 92.7063 0.71696 92.6452 0.692622C92.4915 0.696057 92.5039 0.719871 92.4838 0.72062C92.3941 0.722945 90.8516 0.730929 90.5749 0.73234C89.8092 0.736216 88.9561 0.730929 88.1265 0.734945C88.0418 0.735295 88.0958 0.720149 88.0107 0.72062C87.8735 0.721404 87.1684 0.74562 87.0632 0.747316C86.8003 0.751457 86.1097 0.741665 86.001 0.748618C85.9871 0.749728 86.2118 0.770225 85.9468 0.776616C85.6522 0.783675 85.811 0.756058 85.7949 0.755781C85.1941 0.746269 84.8146 0.765717 84.4045 0.769454C84.2716 0.770623 84.0267 0.749642 83.8394 0.755781C83.8179 0.756479 83.8596 0.77543 83.8394 0.776616C83.5562 0.786755 83.2908 0.750992 83.168 0.748618C82.868 0.742934 83.0307 0.769266 83.0151 0.769454C82.8153 0.770286 82.5465 0.761035 82.2428 0.762292C80.8876 0.767929 79.781 0.769262 78.3402 0.767501C78.1599 0.767267 77.9461 0.748751 77.9175 0.748618C77.8319 0.748759 77.8557 0.77125 77.6083 0.770756C77.0871 0.769631 76.6034 0.770528 76.0872 0.770105C75.9835 0.769976 75.9391 0.749708 75.8599 0.749269C75.5941 0.748017 74.6882 0.801066 74.6724 0.734945C74.145 0.793558 73.7945 0.742849 73.3701 0.743409C72.3642 0.744678 70.7889 0.756879 69.7861 0.749269C69.5754 0.747626 69.4764 0.730677 69.3591 0.729736C69.149 0.728054 67.9499 0.737555 67.8815 0.734945C67.7579 0.729801 67.8312 0.654793 67.1954 0.719969C66.8229 0.72459 66.8667 0.693626 66.7896 0.691971C66.1888 0.679666 65.6043 0.748231 65.7135 0.68546C65.0142 0.702505 64.5608 0.737589 64.2753 0.678949C64.2766 0.707411 63.9481 0.724334 63.553 0.713458C63.959 0.665337 63.9094 0.634987 64.8914 0.643788C64.9062 0.644184 64.8773 0.664408 64.8924 0.664624C65.0326 0.666022 65.3249 0.655702 65.5638 0.656811C65.8028 0.657938 65.671 0.672059 65.7667 0.671786C65.8538 0.671439 65.8515 0.651232 65.978 0.65095C66.3888 0.650173 66.7522 0.644799 66.9861 0.644439C67.1334 0.644234 67.2987 0.662003 67.4131 0.66202C67.8552 0.661877 68.7922 0.647749 69.3549 0.649648C69.4721 0.650092 69.4234 0.670167 69.6799 0.671786C69.7104 0.671806 69.8196 0.651256 70.0432 0.647044C70.2676 0.642821 70.4418 0.653039 70.586 0.65095C70.7065 0.64919 70.6565 0.631252 70.9036 0.630115C71.1096 0.629199 73.4414 0.642191 73.5708 0.64509C73.753 0.649251 73.8399 0.674188 73.9511 0.671135C73.9707 0.670471 74.0043 0.646197 74.0722 0.644439C75.1915 0.615426 77.6689 0.649206 78.9478 0.648997C81.6209 0.648644 84.0871 0.633869 86.7839 0.628161C86.8319 0.623888 86.8802 0.619412 86.9283 0.615139C86.6557 0.614976 86.383 0.615302 86.1104 0.615139C86.1087 0.603582 86.1068 0.591536 86.1051 0.579979C85.7367 0.578156 85.7856 0.60581 85.796 0.622301C85.6597 0.615308 85.5233 0.608459 85.387 0.601465C85.2694 0.641741 84.3593 0.614425 83.8904 0.614488C83.5854 0.614494 83.2226 0.630003 83.0618 0.628812C82.722 0.626349 82.7306 0.601862 82.7038 0.601465C82.6565 0.601013 82.1837 0.622492 81.8424 0.62165C81.3365 0.620443 81.2814 0.58208 80.589 0.614488C79.7018 0.594701 78.7186 0.604736 77.7624 0.607977C77.9444 0.572709 77.0878 0.606569 76.7012 0.606023C74.3434 0.602571 71.4452 0.587418 69.0564 0.573467C68.7494 0.571706 68.5168 0.550641 68.3457 0.551329C68.2533 0.551738 68.2128 0.575993 68.0844 0.572816C68.0618 0.572193 68.0456 0.549582 67.8061 0.54612C67.2097 0.537457 65.724 0.575677 65.3471 0.531796C63.307 0.538591 61.2666 0.545185 59.2265 0.55198C59.1753 0.542624 59.1237 0.533339 59.0725 0.523982C58.6849 0.571813 57.1525 0.54387 56.4053 0.54612C55.0903 0.550138 53.4126 0.564684 52.2605 0.566305C52.0101 0.566657 51.8048 0.553007 51.5679 0.553283C51.466 0.553433 51.3393 0.571399 51.2333 0.571514C50.0419 0.572853 48.4283 0.554813 47.2276 0.555236C44.5018 0.556152 41.9346 0.553159 39.1728 0.553934C29.8687 0.556682 20.6182 0.582593 11.3934 0.572165C11.2698 0.572024 11.2757 0.552128 11.1799 0.55198C10.6141 0.550994 9.3503 0.56722 8.71131 0.566305C8.20218 0.565587 7.39405 0.534517 7.21889 0.565654C9.02758 0.612792 10.9392 0.609776 12.8221 0.622952C12.9556 0.623914 12.9724 0.642785 12.9889 0.643137C13.2935 0.649805 13.1014 0.623499 13.5434 0.622301C13.6924 0.621976 15.0531 0.683124 14.8935 0.622301C15.2217 0.646727 17.5242 0.659044 17.9686 0.65095C18.1031 0.648458 18.0077 0.630382 18.0345 0.629464C18.1508 0.625465 18.2035 0.650305 18.3075 0.65095C18.5847 0.652497 19.2899 0.631927 19.4239 0.632068C19.7322 0.632291 20.6557 0.652468 21.0629 0.647695C21.4358 0.643329 21.3665 0.617558 21.6885 0.615139C21.9427 0.613319 21.6665 0.635205 22.2334 0.641835C22.5148 0.645076 23.4994 0.629467 23.7386 0.629464C23.9777 0.629464 24.2437 0.644986 24.5735 0.643788C25.0485 0.642097 26.0817 0.633164 26.5652 0.628161C26.5941 0.62788 26.6651 0.608205 26.7362 0.608628C26.8828 0.609534 26.839 0.634053 26.9497 0.636626C27.061 0.639162 28.989 0.636346 29.3164 0.636626C29.5417 0.636752 29.6974 0.621533 29.822 0.62165C29.9198 0.621791 29.9305 0.642887 30.0302 0.643137C30.0611 0.643137 30.3241 0.625146 30.5868 0.625557C30.8348 0.625982 31.7757 0.64293 31.887 0.643137C31.9581 0.643208 31.8807 0.62846 32.0909 0.628812C32.2824 0.629183 32.4087 0.648715 32.5179 0.648997C32.7712 0.649602 33.0544 0.632798 33.3231 0.632719C34.096 0.632509 34.0564 0.656687 34.1028 0.657462C34.2311 0.659586 34.2826 0.637765 34.3248 0.637277C34.503 0.635446 34.9403 0.630962 35.0991 0.630115C35.2967 0.629088 35.3808 0.650229 35.5909 0.650299C35.7477 0.650263 36.0643 0.629798 36.4216 0.628812C37.2274 0.626487 38.186 0.622829 38.9773 0.623604C39.2131 0.623829 39.2494 0.642644 39.3215 0.643137C39.7006 0.645735 39.9133 0.624629 40.0215 0.624906C40.7935 0.626821 42.1702 0.659853 42.8863 0.662671C43.1784 0.66379 44.4552 0.648854 45.1754 0.651602C45.2573 0.651926 45.1805 0.666295 45.2721 0.663973C45.4913 0.658396 45.4711 0.628566 45.5822 0.629464C45.6359 0.629998 45.7584 0.646639 45.9147 0.648346C46.7257 0.657153 47.2836 0.644178 47.6536 0.64509C51.207 0.653898 54.831 0.661946 58.1494 0.664624C58.5194 0.664896 58.9783 0.646503 59.5367 0.663973C59.5539 0.673362 59.5705 0.683233 59.5877 0.692622C59.6072 0.683385 59.6276 0.673861 59.6472 0.664624C60.2795 0.659619 60.5191 0.647653 61.1651 0.659415C61.2212 0.660616 61.3906 0.70346 61.4954 0.650299C62.1352 0.688894 61.7842 0.649988 62.2592 0.646393C62.734 0.642802 63.1956 0.654777 63.656 0.657462C63.9082 0.676534 62.852 0.720006 62.7807 0.719969C62.6695 0.719799 62.5533 0.69338 62.4461 0.691971C62.1294 0.687786 61.823 0.708964 61.7514 0.68546C61.3414 0.710467 61.8515 0.698096 61.8003 0.72062C61.5266 0.711302 61.2529 0.70194 60.9792 0.692622C60.8388 0.769071 59.3275 0.66947 59.4326 0.727783C59.3123 0.716103 59.1918 0.704301 59.0714 0.692622C58.544 0.76577 58.2337 0.714399 57.5302 0.692622C57.5808 0.701956 57.6314 0.711286 57.6821 0.72062C57.6613 0.724621 57.048 0.738791 57.2688 0.699133C56.6321 0.751667 56.6584 0.66461 56.0877 0.727783C55.7494 0.735835 55.9526 0.699161 55.3462 0.699784C54.9865 0.700137 54.5393 0.719281 54.1374 0.72062C54.0452 0.720791 54.005 0.699813 53.9228 0.699784C53.8406 0.699793 53.8003 0.720683 53.7008 0.721271C53.4949 0.722398 53.2275 0.707522 53.0985 0.7089C52.9832 0.710102 52.8179 0.728792 52.5398 0.731689C51.5684 0.7419 51.8613 0.715181 51.7081 0.706296C51.5433 0.696858 51.4247 0.731761 51.0963 0.727783C51.0633 0.72736 51.1482 0.705451 51.041 0.706296C50.9546 0.706958 50.9109 0.730579 50.6246 0.734945C50.5094 0.736708 48.7424 0.741678 48.4715 0.742107C48.0582 0.742741 47.137 0.723084 46.7093 0.723225C46.5445 0.72325 46.368 0.741581 46.193 0.741456C45.6128 0.741033 44.6842 0.739767 43.9485 0.738852C43.2863 0.738002 42.1239 0.696281 41.7603 0.733643C40.8307 0.738499 40.6038 0.706786 40.5335 0.706296C40.344 0.705099 40.256 0.726118 40.0172 0.727131C36.9204 0.73946 32.8421 0.725442 29.9091 0.727131C23.1054 0.731218 16.2642 0.742888 9.43682 0.734294C9.41852 0.743694 9.39987 0.753543 9.38158 0.762943C10.1884 0.769002 11.1365 0.78525 11.933 0.788988C12.9965 0.793914 14.5742 0.754719 15.3545 0.818939C15.0387 0.82454 14.5253 0.799891 14.5323 0.832613C15.0978 0.834972 15.6632 0.837415 16.2287 0.839775C16.2119 0.824626 16.1955 0.809345 16.1788 0.794197C16.7691 0.789763 17.373 0.793125 17.9654 0.790941C18.0683 0.790579 17.9958 0.776687 18.0855 0.776616C18.1852 0.776603 18.1177 0.790829 18.1364 0.790941C18.3897 0.791071 18.4667 0.776411 18.4976 0.776616C18.5762 0.777237 18.5158 0.791051 18.744 0.794848C19.1682 0.801916 19.4715 0.766033 19.3718 0.826101H19.7829C19.8184 0.809743 19.8547 0.792975 19.8902 0.776616C20.7325 0.842568 21.121 0.727124 21.5866 0.818939C21.7401 0.8049 21.894 0.790656 22.0476 0.776616C22.134 0.792952 22.2203 0.809766 22.3067 0.826101C22.3236 0.812082 22.3409 0.797798 22.3577 0.783779C23.1852 0.794131 24.0668 0.776951 24.8582 0.77857C25.4092 0.779699 25.5416 0.785484 26.0298 0.78443C27.1152 0.782042 26.0375 0.8097 26.9391 0.839775C26.8924 0.822646 26.8457 0.805465 26.7989 0.788337C26.9483 0.782033 27.0978 0.775758 27.2472 0.769454C27.3512 0.783489 27.4554 0.797742 27.5595 0.811777C28.0208 0.739024 28.3196 0.797395 28.3827 0.797452C28.4334 0.797325 28.6078 0.753857 29.1539 0.790941C28.9283 0.731199 29.5689 0.790395 29.6223 0.790941C29.6712 0.791184 30.2973 0.777367 30.5517 0.777919C30.7516 0.778345 31.1781 0.791559 31.4759 0.790941C31.7388 0.790379 31.7127 0.769665 31.7319 0.769454C32.0553 0.767767 31.8527 0.783655 32.0867 0.78443C32.3205 0.785197 32.5025 0.767904 32.553 0.769454C32.5768 0.770514 32.4938 0.789124 32.6093 0.790941C32.9215 0.795931 33.486 0.779386 33.8436 0.779872C33.9703 0.780025 34.1305 0.796308 34.2717 0.796801C34.4879 0.797485 34.589 0.775988 34.7146 0.776616C34.7583 0.776895 35.0379 0.810334 35.3849 0.805266C35.4513 0.80397 35.6451 0.734562 35.9022 0.833264C35.922 0.819385 35.9418 0.805471 35.9617 0.791592C37.1251 0.757148 37.4488 0.869771 37.9661 0.769454C38.8109 0.78066 38.2313 0.820113 38.324 0.826101C38.3845 0.829836 38.6592 0.818978 38.6895 0.81959C38.743 0.820788 38.7338 0.833322 38.7925 0.833264C39.8694 0.830939 39.3915 0.807252 39.7326 0.792243C40.5436 0.75653 41.1762 0.835585 39.7655 0.811777V0.833264C40.1129 0.826574 40.9947 0.829671 40.7002 0.865169C40.4679 0.893124 38.3769 0.874769 39.5615 0.914003C39.8303 0.92285 39.9701 0.896675 40.4358 0.945907C40.7434 0.948524 40.788 0.88453 41.2048 0.910096C41.1363 0.887862 41.0673 0.865916 40.9987 0.843682C41.5676 0.814668 42.2699 0.853543 42.7068 0.841077C42.8552 0.836828 43.3899 0.730547 43.2655 0.836519C43.5151 0.829912 44.6893 0.849243 44.9088 0.839775C44.9613 0.837478 45.0302 0.780991 45.7904 0.800708C45.8432 0.807779 45.8959 0.815124 45.9487 0.822195C45.2541 0.842757 46.4807 0.863698 46.1484 0.917258C46.0351 0.893165 45.483 0.878589 45.3942 0.866471C45.2436 0.84562 45.6938 0.818778 45.1191 0.826101C44.7573 0.915604 45.7928 0.874641 45.6353 0.959581C46.3895 0.919932 46.4653 0.957316 46.636 0.95893C47.3666 0.965341 47.8268 0.956813 48.5161 0.966743C48.6839 0.949281 47.4378 0.924096 47.2818 0.931583C47.8501 0.869678 46.8707 0.86681 46.4575 0.903585C46.4228 0.884877 46.3881 0.865645 46.3534 0.846937C46.8912 0.857081 47.4162 0.862281 47.9489 0.846937C47.9835 0.853917 48.0184 0.861445 48.053 0.868424C47.9337 0.878945 47.8143 0.889157 47.695 0.899678C48.1379 0.916921 47.8727 0.862276 48.463 0.910096C48.4812 0.889119 48.499 0.867914 48.5172 0.846937C49.0832 0.853937 49.6496 0.861425 50.2157 0.868424C50.5104 0.826155 51.5995 0.841697 51.4 0.896422C51.8397 0.900286 51.2972 0.871323 51.7092 0.858006C51.8885 0.852234 52.2387 0.850448 52.3252 0.865169C52.2874 0.917184 51.7638 0.923835 51.6051 0.959581C51.705 0.971036 54.1391 0.933894 53.9228 0.994741C54.1174 1.00204 54.0284 0.970872 54.3796 0.962836C55.3636 0.940463 56.8874 1.0022 57.6799 0.92442C56.7498 0.881126 56.4744 0.927137 55.7615 0.928978C55.3061 0.930176 52.5292 0.93717 53.1485 0.882098C53.0465 0.88909 52.9445 0.896592 52.8426 0.903585C52.7395 0.887191 52.6365 0.870493 52.5334 0.8541C52.824 0.851739 53.1149 0.849297 53.4055 0.846937C53.4748 0.863275 53.5444 0.879434 53.6137 0.895771C53.6455 0.884176 53.6775 0.872857 53.7093 0.861262C53.8317 0.858942 53.9545 0.856419 54.0769 0.8541C54.0425 0.868139 54.0071 0.882383 53.9728 0.896422C54.1613 0.898823 54.3504 0.901184 54.5389 0.903585C54.4882 0.884838 54.4378 0.865684 54.387 0.846937C55.2745 0.842225 54.9742 0.854197 55.4663 0.88926C55.834 0.892848 55.2133 0.856752 55.991 0.847588C56.8957 0.836953 56.3025 0.894345 57.4739 0.882098C57.4907 0.872749 57.508 0.863448 57.5248 0.8541C57.7824 0.863458 58.0405 0.87274 58.2981 0.882098C58.2641 0.870459 58.2292 0.858576 58.1951 0.846937C58.7269 0.851447 59.4603 0.829277 59.6365 0.874935C59.098 0.85297 59.1026 0.932457 59.2425 0.94721C59.5318 0.977276 63.8048 0.949842 64.6343 0.947861C65.6935 0.945325 66.4945 0.97079 67.462 0.931583C66.8057 0.899439 64.5012 0.925827 64.0639 0.903585C64.0207 0.901401 64.0327 0.828049 63.7548 0.910096C62.8583 0.89615 61.786 0.919651 60.6658 0.917258C60.7 0.896219 60.7347 0.875138 60.7689 0.8541C61.4573 0.898816 62.0939 0.80037 62.0042 0.882098H62.4153V0.839775H63.0357V0.882098H63.5487C63.5664 0.868185 63.5842 0.854339 63.6018 0.840426C64.1141 0.869583 65.8605 0.791122 65.0932 0.874935H65.8145C65.8137 0.864737 65.8131 0.854532 65.8123 0.844333C65.9156 0.842951 66.0192 0.841808 66.1225 0.840426C66.0886 0.849702 66.0544 0.859148 66.0205 0.868424C66.4943 0.851736 66.9436 0.900563 67.2548 0.868424C67.0498 0.861394 66.8448 0.853968 66.6398 0.846937C67.0331 0.860262 67.7566 0.832755 67.8231 0.832613C68.021 0.832473 68.1261 0.853694 68.3404 0.854751C68.5334 0.855623 68.5073 0.839212 68.5433 0.839775C69.5865 0.856074 69.1894 0.942909 69.6767 0.840426C69.7284 0.854367 69.7801 0.868157 69.8318 0.882098C69.9008 0.870421 69.9699 0.858614 70.0389 0.846937C70.3472 0.848036 70.6559 0.849745 70.9641 0.850844C70.8613 0.833346 70.7578 0.815602 70.655 0.798103C71.1159 0.790313 71.3318 0.825127 71.3773 0.826101C71.504 0.828143 71.5623 0.805958 71.6015 0.805917C73.4843 0.80782 72.341 0.827376 73.2819 0.910096C73.6169 0.877644 73.2775 0.844792 73.2299 0.811777C73.6759 0.82727 73.8159 0.81841 74.2868 0.820241C74.4092 0.820785 74.541 0.838884 74.6182 0.839124C74.6855 0.839276 74.8943 0.820334 75.0548 0.820241C75.3227 0.820101 75.68 0.83094 76.0469 0.830659C76.3524 0.830364 77.2856 0.817127 77.9366 0.816986C78.2145 0.816987 78.1505 0.833231 78.2223 0.833264C78.2539 0.833071 78.4689 0.813837 78.6461 0.81373C80.1002 0.813308 81.5909 0.825802 83.0523 0.82545C84.0817 0.825239 85.1278 0.80958 86.1593 0.811126C86.3788 0.811478 86.2631 0.825608 86.359 0.826101C86.3919 0.826128 86.4324 0.802025 86.7711 0.811777C86.8931 0.815322 86.7526 0.832419 86.8731 0.833264C86.9317 0.833631 86.9573 0.812075 87.3001 0.807219C87.9221 0.798384 88.2569 0.826836 88.3135 0.826101C88.4184 0.824467 88.3881 0.806561 88.527 0.805917C89.2069 0.802817 89.7748 0.799583 90.3816 0.798103C90.665 0.797399 92.6197 0.794282 92.727 0.797452C92.9664 0.804527 92.7434 0.84102 93.051 0.839775C93.1372 0.830456 93.2239 0.821096 93.3102 0.811777C93.1733 0.804702 93.036 0.798016 92.8991 0.790941C93.276 0.802752 93.7034 0.785765 93.9826 0.786383C94.0342 0.786528 94.5094 0.803183 94.7516 0.801359C94.6487 0.808277 94.5455 0.815277 94.4425 0.822195C94.4789 0.828089 94.5155 0.833881 94.5519 0.839775C95.0362 0.83083 95.5487 0.831345 96.0454 0.832613C96.2243 0.833049 96.164 0.847082 96.3449 0.847588C97.4011 0.850611 97.1347 0.791053 98.1507 0.902934C97.8076 0.892791 96.5556 0.907308 96.3736 0.903585C96.2462 0.900775 95.7559 0.806669 95.936 0.903585C94.922 0.90316 95.8028 0.849567 94.8557 0.861262C94.8745 0.872994 94.8933 0.88469 94.912 0.896422C94.5816 0.903883 94.3374 0.910147 94.1366 0.88926C94.0677 0.946536 92.9455 0.912736 92.3297 0.916607C91.4393 0.922103 90.4331 0.936279 89.551 0.938745C89.2472 0.939569 89.0749 0.917188 89.0368 0.917258C88.981 0.917462 88.825 0.93725 88.7139 0.937443C88.2986 0.938005 87.0346 0.904202 86.7201 0.95893H94.1345C93.8238 0.932028 96.3219 0.929596 96.4501 0.930932C96.5669 0.932129 96.4696 0.951128 96.5032 0.952419C96.7627 0.960513 96.9846 0.932942 97.0673 0.932885C97.1301 0.932889 97.2572 0.945519 97.4805 0.945256C97.5214 0.945216 97.5333 0.931686 97.5771 0.931583C97.8686 0.931583 98.1567 0.932304 98.4492 0.932234C98.467 0.932365 98.5411 0.951675 98.6149 0.951767C98.689 0.951767 98.763 0.932296 98.7817 0.932234C99.0157 0.93239 99.4164 0.945115 99.6389 0.945256C99.7161 0.945245 99.6629 0.930792 99.7494 0.930932C100.015 0.931305 99.9276 0.959735 100.256 0.952419C100.366 0.94995 100.359 0.928062 100.57 0.930932C100.72 0.933012 100.704 0.971846 100.728 0.973254C100.764 0.974704 101.277 0.944709 101.445 0.969999C101.076 1.03702 101.847 0.972885 101.81 0.944605C102.014 0.951726 102.22 0.958971 102.424 0.966092C102.493 0.958959 102.563 0.951738 102.632 0.944605C103.457 0.976876 103.961 0.95746 104.772 0.967394C104.815 0.967987 105.491 0.984045 105.462 0.99409C105.053 1.01142 104.645 1.01245 104.383 0.980417C103.952 1.04148 103.945 0.992525 103.249 1.0006C103.018 1.00333 103 1.01972 102.973 1.02013C102.068 1.02838 100.617 1.03535 100.006 0.986928C99.8354 1.00003 100.45 1.00527 100.21 1.01493C100.075 1.02023 96.9429 1.03552 97.9447 0.979766C97.8406 0.981312 97.7364 0.983428 97.6324 0.984975C97.5279 1.03757 97.0107 1.02507 97.0694 0.972603C97.0205 0.983317 96.9717 0.994446 96.9228 1.00516C96.8259 1.01425 96.7107 1.0192 96.55 1.02209C95.9341 1.03307 92.2717 1.01455 92.0769 1.02209C92.0725 1.03454 92.0686 1.0474 92.0642 1.05985C93.6821 1.07394 95.252 1.04243 97.0163 1.07808C96.9651 1.06642 96.9134 1.05524 96.8623 1.04358C97.5662 1.05993 98.2701 1.07605 98.974 1.09241C98.2288 1.11354 97.0431 1.1313 96.261 1.1139C96.1227 1.11077 96.2239 1.09438 96.192 1.09241C96.1087 1.08741 96.0186 1.11571 95.7193 1.11845C95.4193 1.12119 94.6656 1.10096 94.5965 1.10152C94.4632 1.10275 94.1049 1.13509 93.8785 1.13473C93.5811 1.13417 93.7791 1.11437 93.7202 1.1139C93.473 1.11193 93.251 1.12188 93.0574 1.12041C92.7698 1.11821 92.1717 1.08306 91.9707 1.13473C92.1762 1.13709 92.3824 1.13953 92.5879 1.14189C91.4739 1.16042 90.6027 1.09424 89.5053 1.14515C89.2559 1.20771 90.1621 1.1992 89.3959 1.22589C89.535 1.22499 89.6742 1.22418 89.8133 1.22328C89.846 1.21018 89.8784 1.19667 89.911 1.18357C90.1507 1.19292 90.3905 1.20286 90.6302 1.21221C90.5618 1.20055 90.4935 1.18872 90.4252 1.17705C91.2751 1.16825 92.1335 1.15603 92.4306 1.21873C92.4482 1.20355 92.4663 1.18833 92.4838 1.17315C93.2731 1.19158 94.4578 1.12777 94.2364 1.21221C94.2738 1.20774 94.3117 1.20302 94.349 1.19854C94.8256 1.21577 94.6223 1.181 94.8015 1.17705C94.8555 1.17601 95.7791 1.19369 95.3688 1.21873C96.2735 1.23789 95.9947 1.15903 96.244 1.15557C96.8231 1.19466 97.8645 1.13617 97.4274 1.19789C97.5134 1.2002 97.5994 1.20274 97.6855 1.20505C97.9688 1.15644 98.2484 1.21139 98.5554 1.2298C98.6595 1.23089 98.7637 1.23195 98.8677 1.23305C98.9375 1.21669 99.0073 1.19992 99.077 1.18357C100.056 1.26142 99.7461 1.04894 100.193 1.22784C100.124 1.23854 100.054 1.24904 99.9841 1.25975C99.8189 1.26483 99.6533 1.26964 99.4881 1.27472C100.155 1.27944 100.822 1.28433 101.488 1.28905C102.334 1.33916 102.815 1.2852 103.755 1.32486C103.843 1.3201 103.932 1.3153 104.02 1.31053C103.93 1.35104 103.588 1.34511 104.223 1.36327C104.278 1.39191 103.849 1.39564 103.653 1.37369C103.606 1.36833 104.007 1.34583 103.556 1.34504C103.25 1.34449 103.806 1.37928 102.887 1.36653C102.921 1.37351 102.955 1.38038 102.989 1.38737C102.89 1.38716 102.79 1.38692 102.691 1.38671C102.602 1.37052 102.513 1.35473 102.424 1.33853C102.197 1.36192 102.069 1.39432 101.549 1.38737C101.689 1.3772 101.498 1.34451 101.241 1.34504V1.3802C100.617 1.38774 100.832 1.35336 100.313 1.3802C100.262 1.37092 100.21 1.36149 100.158 1.35221C99.876 1.39061 98.8364 1.41693 99.026 1.35937C98.7344 1.41531 98.1214 1.39044 97.8937 1.34569C97.8764 1.35721 97.8589 1.36868 97.8416 1.3802C97.7204 1.38256 97.5985 1.38501 97.4773 1.38737C97.4098 1.38034 97.3419 1.37356 97.2744 1.36653C97.1887 1.37355 97.103 1.38035 97.0173 1.38737C96.9655 1.37569 96.9131 1.36388 96.8612 1.35221C96.7231 1.3662 96.585 1.38053 96.4469 1.39453C96.3624 1.38521 96.2776 1.37585 96.1931 1.36653C96.1814 1.39077 95.3478 1.39613 95.1138 1.3802C95.0442 1.38728 94.9742 1.39461 94.9046 1.40169C94.8706 1.39011 94.8366 1.37811 94.8026 1.36653C94.7507 1.37581 94.6983 1.38525 94.6465 1.39453C94.5271 1.38526 94.4078 1.37579 94.2885 1.36653C93.801 1.42339 93.7847 1.37334 93.6735 1.37369C93.4671 1.37436 92.7654 1.40999 92.6473 1.4082C92.5301 1.40636 92.4732 1.38605 92.3786 1.38411C90.8173 1.35205 91.4586 1.40669 91.1454 1.41536C90.9765 1.42005 90.857 1.40154 90.7077 1.40364C90.4524 1.40716 89.1662 1.43208 89.0889 1.42969C88.9809 1.42613 89.2348 1.33626 88.8839 1.35937C88.8722 1.40756 88.1217 1.35931 88.4717 1.42643C88.1627 1.42054 87.8534 1.41475 87.5444 1.40885C87.5784 1.4657 87.1976 1.42913 86.7828 1.43229C86.1941 1.43675 84.8691 1.47397 84.9175 1.41536C84.7767 1.42882 84.6356 1.44228 84.4948 1.45573C83.5303 1.43729 82.584 1.45698 81.6267 1.45769C78.7855 1.45987 75.7029 1.4471 72.8751 1.43555C72.7393 1.43496 72.7584 1.41579 72.6605 1.41536C72.1459 1.41326 70.8102 1.42675 70.0899 1.42253C69.8593 1.42119 69.7467 1.40257 69.6735 1.40169C69.4255 1.39867 69.4834 1.42316 69.3697 1.42253C69.1893 1.4214 68.235 1.39824 67.906 1.39583C67.7433 1.39464 67.5505 1.41422 67.36 1.4082C67.3437 1.40771 67.3735 1.38788 67.36 1.38737C67.0128 1.3849 67.2213 1.4026 67.104 1.40169C66.2662 1.39514 65.3701 1.39478 64.4612 1.39062C64.2355 1.38955 63.89 1.37503 63.6964 1.37369C63.6233 1.37327 63.7549 1.38863 63.4999 1.38737C63.4126 1.38692 63.3826 1.36722 63.2842 1.36588C62.8589 1.36046 62.7159 1.42429 62.3505 1.37304C61.6447 1.37642 60.4157 1.39287 59.7715 1.39323C59.6192 1.39329 59.5447 1.38132 59.3997 1.38151C59.2967 1.38165 59.1152 1.39949 58.9546 1.39974C58.7938 1.39995 58.5393 1.38283 58.2302 1.38346C57.9051 1.3841 57.5013 1.39456 57.4271 1.39453C57.3385 1.39453 57.2969 1.37277 57.2083 1.37304C56.9403 1.37375 56.2226 1.39481 55.8773 1.39713C55.5066 1.39959 55.2839 1.38911 55.1571 1.38932C55.0398 1.38962 54.9027 1.40804 54.8491 1.4082C54.7659 1.40844 54.7457 1.38719 54.6398 1.38737C54.4669 1.38774 54.2884 1.40133 54.0291 1.40169C49.3544 1.40838 44.7712 1.39657 40.2233 1.38085C39.7163 1.37909 39.4291 1.39427 38.682 1.38737C38.3795 1.38453 38.5066 1.36167 38.2709 1.36588C38.1662 1.36781 38.1923 1.38587 38.0596 1.38671C37.4722 1.39037 36.7877 1.37406 36.5331 1.37434C36.4323 1.37446 36.317 1.39422 36.1104 1.39453C34.5676 1.39678 32.742 1.39108 31.0818 1.39453C30.2028 1.39636 28.8721 1.40621 27.8632 1.40755C25.0757 1.41128 22.0766 1.40688 19.5343 1.40885C15.6955 1.41174 11.8748 1.42997 8.04424 1.4082C9.83636 1.45631 12.277 1.45247 14.2721 1.45769C20.0349 1.47262 26.171 1.44491 32.0771 1.44597C34.1321 1.44632 36.7233 1.44525 38.9731 1.45638C39.0752 1.45685 39.287 1.44109 39.5074 1.44271C39.5578 1.44328 40.1356 1.47108 40.3306 1.47136C40.1451 1.42177 40.9113 1.46602 41.1485 1.46485C41.4474 1.46329 42.071 1.43847 42.7705 1.45248C43.4054 1.46516 43.2305 1.48449 43.2655 1.48568C43.49 1.49341 43.5684 1.46275 43.7403 1.45964C44.4432 1.44724 48.0582 1.46502 49.0674 1.46615C49.3281 1.46643 49.3358 1.48561 49.3946 1.48568C49.55 1.4858 49.7712 1.4667 50.0202 1.4668C50.4696 1.46708 50.9881 1.48561 51.2354 1.48568C51.8271 1.48588 52.9492 1.46397 53.7178 1.46355C53.9338 1.46342 53.9208 1.48377 54.0184 1.48373C54.4493 1.48337 55.5719 1.45985 56.1068 1.45964C56.9753 1.45929 57.8687 1.47218 58.7517 1.4655C58.8077 1.47457 58.8646 1.48377 58.9206 1.49285C59.0088 1.48334 59.0969 1.47371 59.1851 1.4642C60.6784 1.47145 62.1986 1.45114 63.6836 1.45248C63.8549 1.45263 64.7003 1.46996 64.8425 1.47006C64.96 1.47006 65.0762 1.44721 65.2504 1.45052C65.494 1.45515 65.2652 1.49792 65.6636 1.48568C65.7699 1.48233 65.6668 1.46405 65.8814 1.45834C65.9524 1.45644 67.3283 1.44929 67.4067 1.45052C67.5303 1.45266 67.6414 1.492 67.6733 1.49285C67.8388 1.49722 67.8319 1.46694 67.9432 1.4642C68.2711 1.45599 68.6995 1.47631 68.7536 1.47592C69.3987 1.47035 70.6046 1.44608 71.2817 1.46029C71.3745 1.46226 71.3647 1.48457 71.3805 1.48568C71.4865 1.49033 71.5528 1.46486 71.6535 1.4642C72.1966 1.46131 73.048 1.47871 73.5942 1.48308C73.6573 1.4835 73.7902 1.47082 73.9022 1.47201C74.5347 1.4789 74.3318 1.49841 74.3664 1.49936C74.452 1.50145 74.603 1.47987 74.8306 1.47852C75.4171 1.47493 76.5411 1.47813 77.1696 1.47982C77.6406 1.48116 77.6337 1.50603 77.6646 1.50652C77.7307 1.50741 77.9144 1.48729 78.2244 1.48503C78.8205 1.48061 78.7529 1.50018 78.9977 1.49936C79.0184 1.49936 78.9828 1.4805 79.2548 1.47852C79.7804 1.47472 80.961 1.49382 81.5237 1.49285C81.7401 1.49249 81.791 1.47368 82.0123 1.47331C82.3631 1.47268 83.1544 1.49284 83.219 1.49285C83.2365 1.49285 83.2764 1.47136 83.3794 1.47136C83.4927 1.47138 83.6041 1.4825 83.6885 1.48243C84.1696 1.48214 84.9985 1.44512 84.7688 1.52085C84.9228 1.50215 85.0769 1.48354 85.2309 1.46485C86.2388 1.46858 87.2182 1.46084 88.2168 1.45704C88.4412 1.45619 88.6286 1.47073 88.818 1.47006C89.0075 1.46935 89.8446 1.44511 89.9843 1.44466C90.2347 1.44389 91.6511 1.44167 91.8273 1.44336C92.1714 1.44662 92.5051 1.47813 92.6452 1.47201C92.7575 1.46708 92.6539 1.44902 92.8683 1.44401C93.239 1.43539 93.8682 1.45799 93.9826 1.45769C94.0309 1.45754 93.9408 1.44371 94.3936 1.44271C94.6377 1.44215 94.7692 1.45773 94.8578 1.45769C94.8854 1.45761 94.8443 1.43291 95.3273 1.4362C95.6613 1.43852 95.8043 1.45762 95.8393 1.45769C95.8921 1.45775 96.0194 1.43745 96.2302 1.43815C96.7238 1.43993 97.6255 1.46307 98.0944 1.46485C98.1851 1.4652 98.1548 1.44048 98.5161 1.44271C98.7745 1.44433 98.73 1.46402 98.8263 1.46485C98.9798 1.46605 99.2088 1.44196 99.5476 1.44271C99.9742 1.4437 103.143 1.46885 103.307 1.47527C103.417 1.47956 103.545 1.47968 103.6 1.49024C103.553 1.50038 103.506 1.51071 103.459 1.52085C102.974 1.48536 103.169 1.52532 103.041 1.52801C102.855 1.53174 102.151 1.5268 101.981 1.53582C101.921 1.53911 102.059 1.56051 101.734 1.57163C101.385 1.5835 101.229 1.5451 101.09 1.59768C100.594 1.53932 100.119 1.60131 100.693 1.61786C101.015 1.6271 104.156 1.64783 104.798 1.65107C105.319 1.65367 106.293 1.63859 106.933 1.6426C107.308 1.64499 108.229 1.64748 108.197 1.67516C108.53 1.67865 108.178 1.65108 108.247 1.64716C108.394 1.63907 109.436 1.65834 109.633 1.65758C110.606 1.65392 111.834 1.62295 112.779 1.65823C112.735 1.6657 112.691 1.6729 112.647 1.68037C112.435 1.6941 111.451 1.67448 111.338 1.71032H115.66C115.64 1.6799 117.421 1.68026 117.506 1.69404C117.474 1.70885 117.442 1.72351 117.411 1.73832C116.401 1.68213 116.491 1.75694 115.813 1.71748C115.538 1.71695 115.621 1.74083 115.485 1.74548C114.131 1.79169 115.463 1.6956 114.427 1.71748C114.739 1.75296 113.89 1.76571 113.509 1.77022C113.42 1.77118 112.286 1.7625 112.151 1.76306C111.392 1.76624 110.09 1.78575 109.337 1.76632C108.743 1.76399 108.416 1.78912 107.878 1.79497C107.468 1.7994 107.586 1.78151 107.393 1.78129C106.989 1.7808 106.856 1.83518 106.598 1.75981C106.324 1.76921 106.049 1.7784 105.775 1.7878V1.75264C105.604 1.75264 105.432 1.75264 105.26 1.75264C105.21 1.76431 105.159 1.77614 105.108 1.7878C104.562 1.77181 104.79 1.7435 104.688 1.71032C104.57 1.70804 104.452 1.70544 104.334 1.70316C104.243 1.72863 104.151 1.75452 104.06 1.77999C103.533 1.77792 103.007 1.77555 102.48 1.77348C102.446 1.76181 102.412 1.74999 102.378 1.73832C102.377 1.74996 102.376 1.76184 102.375 1.77348C101.483 1.77588 100.591 1.77824 99.6995 1.78064C99.4623 1.79938 100.891 1.81402 101 1.81515C101.601 1.82133 103.197 1.80231 103.202 1.8438C103.576 1.81273 104.703 1.82085 105.053 1.85812C104.521 1.85589 103.989 1.8532 103.458 1.85096C103.475 1.8649 103.491 1.87935 103.509 1.89329C102.846 1.837 102.749 1.84011 102.068 1.89329C102.068 1.87457 102.067 1.85536 102.066 1.83664C101.591 1.9017 100.752 1.79164 100.728 1.8718C100.475 1.86529 100.221 1.85878 99.9682 1.85226C99.4229 1.86208 100.27 1.92401 98.1327 1.8998C97.9853 1.89811 98.0154 1.87755 97.7938 1.87896C97.7292 1.87946 97.3634 1.9094 96.6647 1.90631C96.5556 1.90581 96.5471 1.88777 96.4342 1.88547C96.1725 1.88012 95.6509 1.91529 95.8871 1.85812C94.8508 1.84144 95.2803 1.88829 94.9587 1.90696C94.7445 1.91934 94.7873 1.88561 94.6018 1.89329C94.3728 1.90282 94.5406 1.93697 93.6225 1.92128C93.7254 1.91897 93.8286 1.91644 93.9316 1.91412C93.8797 1.90484 93.8273 1.8954 93.7754 1.88612C93.2512 1.90836 93.3004 1.87632 93.0531 1.92845C92.672 1.90521 92.3422 1.90339 91.8209 1.90761C90.808 1.91585 91.327 1.97152 90.1713 1.89589C89.9841 1.9065 89.7965 1.91718 89.6094 1.92779C89.3015 1.90546 89.5495 1.87743 89.09 1.8718C89.4496 1.92697 88.4805 1.90726 88.3167 1.95644C88.2995 1.94472 88.2818 1.933 88.2646 1.92128C88.1623 1.92128 88.0599 1.92128 87.9576 1.92128C87.9573 1.93062 87.9569 1.93995 87.9566 1.94928C87.82 1.94225 87.6831 1.93548 87.5465 1.92845C87.4437 1.93776 87.3402 1.94712 87.2374 1.95644C87.0685 1.9368 86.8997 1.91684 86.7307 1.89719C86.6246 1.89585 86.5182 1.89463 86.4121 1.89329C86.4456 1.90726 86.4795 1.92098 86.513 1.93496C86.3767 1.93028 86.2403 1.92596 86.104 1.92128C86.2623 1.94424 86.1626 1.9708 85.7386 1.97012C85.3883 1.96955 85.7824 1.92218 85.0291 1.94212C84.9765 1.94357 84.8833 1.9772 84.1718 1.98249C83.3179 1.98882 83.7324 1.96446 83.5802 1.96361C83.5501 1.96348 83.2889 1.98067 83.0448 1.98314C82.9064 1.98451 82.7732 1.97074 82.7548 1.97077C82.6693 1.9714 82.6439 1.99089 82.5254 1.9916C82.2248 1.99328 81.8214 1.98347 81.5269 1.98444C81.3929 1.98486 81.2659 1.99667 81.2061 1.99681C81.1134 1.99688 80.9959 1.97916 80.9023 1.97923C80.5561 1.97962 80.0306 2.0384 79.8698 1.95644C79.537 2.03181 78.8394 1.94106 78.8905 1.9916C78.0008 1.97254 75.6289 2.03421 75.6985 1.94928C75.1947 2.0219 75.2392 1.96968 75.0282 1.97077C74.7927 1.97197 74.9145 1.9857 74.7276 1.98509C74.2897 1.98361 73.8707 1.97756 73.4349 1.97728C73.5032 1.96565 73.5715 1.95375 73.6399 1.94212C73.1827 1.9384 73.3396 1.96555 72.8729 1.97077C72.015 1.98027 72.3761 1.95895 72.2494 1.92845C72.2834 1.9579 71.2711 1.95316 71.1681 1.94928C71.1087 1.94672 71.3745 1.9091 70.757 1.92128C70.7907 1.9329 70.8242 1.94482 70.8579 1.95644C70.5754 1.94052 69.8097 1.96034 69.6788 1.95644C69.6191 1.95461 69.2991 1.86051 69.0064 1.93496C68.9712 1.92329 68.9355 1.91211 68.9002 1.90045C68.5753 1.91448 68.25 1.92808 67.9251 1.94212C67.8734 1.92114 67.8217 1.89994 67.77 1.87896C67.667 1.87896 67.5639 1.87896 67.4609 1.87896C67.5293 1.89762 67.5976 1.9163 67.6659 1.93496C67.0296 1.92651 66.2523 1.95612 66.1204 1.89329C65.984 1.90496 65.8467 1.91677 65.7104 1.92845C65.6217 1.90753 65.5334 1.8862 65.4448 1.86529C64.8133 1.87057 64.8026 1.88463 64.3709 1.90696C64.3877 1.89062 64.405 1.87446 64.4219 1.85812C64.1035 1.88109 63.5218 1.90211 63.0622 1.90501C62.8437 1.90634 62.4679 1.88408 62.4164 1.88612C62.3624 1.88865 61.8526 1.97631 61.7971 1.8998C61.0431 1.93374 60.7105 1.89964 60.4045 1.90045C60.2057 1.90102 60.114 1.91938 59.8894 1.92128C59.568 1.92402 59.2441 1.91481 59.0587 1.91607C58.953 1.9169 58.9331 1.93505 58.8601 1.93561C58.5142 1.93834 58.7167 1.9201 58.3523 1.92128C58.3187 1.92149 58.0516 1.94298 57.7511 1.94017C57.5832 1.93859 57.1502 1.91415 57.1106 1.91412C56.9405 1.91454 57.0757 1.96382 56.4945 1.90696C56.5113 1.91629 56.5286 1.92563 56.5455 1.93496C55.8262 1.9587 55.7125 1.91701 55.5672 1.91412C55.5476 1.914 55.3731 1.93001 55.2687 1.92779C55.0918 1.92398 55.02 1.90207 54.9808 1.9011C54.8421 1.89775 54.3773 1.90745 54.0737 1.88612C54.1376 1.94897 53.0722 1.97096 52.8362 1.8998C52.6478 1.91382 52.4595 1.92809 52.2711 1.94212C52.1858 1.9304 52.1003 1.91867 52.0151 1.90696C51.9632 1.91864 51.9108 1.93044 51.8589 1.94212C51.5842 1.91641 51.3094 1.89034 51.0346 1.86464C51.0172 1.89036 51.0001 1.91639 50.9826 1.94212C50.9057 1.93919 50.828 1.93658 50.751 1.93365C50.691 1.91321 50.6315 1.89224 50.5715 1.8718C50.4753 1.8757 50.3788 1.87961 50.2826 1.88352C50.2588 1.89833 50.2352 1.91363 50.2114 1.92845C49.6944 1.94552 49.96 1.80425 48.975 1.92845C48.8217 1.91677 48.6683 1.90496 48.515 1.89329C48.3419 1.95006 48.0172 1.91555 47.7556 1.92193C47.5716 1.92646 47.5813 1.94875 47.3307 1.94928C47.08 1.94977 47.0876 1.92873 47.0683 1.92845C46.8634 1.92712 46.7088 1.94589 46.5584 1.94212C46.5358 1.94156 46.4789 1.91578 46.2876 1.91412C46.096 1.9125 45.98 1.94007 45.6948 1.93496C45.5486 1.93235 45.5059 1.91083 45.3762 1.90891C44.7578 1.89961 44.1351 2.00874 43.6713 1.87896C43.5668 1.8954 42.8082 1.95324 42.4837 1.94993C41.9794 1.94464 42.1734 1.91878 41.9728 1.91412C41.943 1.9135 41.7888 1.92217 41.3673 1.92063C41.2918 1.92035 41.3089 1.93467 41.2983 1.93496C40.8047 1.93467 39.8455 1.92333 39.3034 1.92128C39.2538 1.92134 39.0007 1.96061 38.5726 1.90696C37.9358 1.94676 36.7357 1.86129 35.8958 1.92128C35.7796 1.92255 35.6385 1.90848 35.5867 1.90891C35.1425 1.91335 35.305 1.95696 34.3014 1.89329C34.3821 1.91545 34.1474 1.93534 33.816 1.93365C33.3174 1.93112 33.6711 1.88994 33.271 1.89329V1.92845C32.3488 1.89703 32.1644 1.94705 31.239 1.94733C30.9061 1.94738 30.4144 1.92135 30.335 1.92128C30.302 1.92157 29.9406 1.94972 29.9059 1.94993C29.7101 1.95078 29.599 1.93763 29.43 1.93756C28.8716 1.93731 28.2058 1.97345 28.3264 1.90696C28.1728 1.92099 28.0189 1.93525 27.8654 1.94928C27.2851 1.87826 26.8515 1.97594 26.7299 1.90696C26.6262 1.92119 26.5223 1.9357 26.4186 1.94993C23.93 1.94273 21.4408 1.93565 18.9522 1.92845C18.8511 1.95055 17.7682 1.94296 17.7126 1.93951C17.4574 1.92386 17.727 1.87508 17.2059 1.88612C17.1483 1.90731 17.0905 1.92874 17.0328 1.94993C16.3774 1.95684 16.6924 1.93566 16.4337 1.92128C16.3257 1.9239 16.3601 1.94027 16.2138 1.94147C15.4202 1.94802 13.7939 1.94859 12.9262 1.94993C12.7517 1.95021 12.7771 1.93508 12.7233 1.93496C12.5739 1.9351 12.2785 1.95448 11.9787 1.95449C10.1247 1.95435 7.49722 1.94342 5.63086 1.92714C5.50464 1.92598 5.48879 1.9079 5.40354 1.90696C5.28515 1.90577 5.02068 1.92018 4.8958 1.91868C4.7784 1.91727 4.70271 1.90339 4.57713 1.90175C4.00206 1.89414 3.22834 1.91809 2.61308 1.87701C2.55903 1.87326 1.92011 1.80013 1.90245 1.79497C1.81691 1.76622 2.38981 1.72048 1.44888 1.67842C2.28977 1.64171 2.0271 1.5773 0.934759 1.54559C1.48252 1.53741 2.03026 1.52902 2.57802 1.52085C2.5788 1.51324 2.58043 1.50566 2.58121 1.49806C2.08243 1.45994 1.58698 1.44689 0.828536 1.44336C0.852187 1.43624 0.876054 1.429 0.899705 1.42188C1.56958 1.3863 2.37807 1.37992 2.88819 1.33137C2.14017 1.29544 1.39173 1.25986 0.643709 1.22394C0.680908 1.21834 0.718044 1.2126 0.755243 1.20701C1.11389 1.19242 1.89778 1.18349 2.19562 1.16989C3.33207 1.11807 1.20095 1.13117 1.54979 1.09957C2.75071 1.10071 3.95194 1.10169 5.15286 1.10283C5.19489 1.07955 0.584315 1.0155 0.622464 0.945256C0.999897 0.940536 1.37736 0.935652 1.7548 0.930932C1.58663 0.913074 1.41841 0.895397 1.25024 0.87754C1.2966 0.871883 1.34304 0.866267 1.38939 0.860611C2.0262 0.846735 2.66353 0.832815 3.30034 0.818939C1.3641 0.832888 0.463785 0.82223 0 0.681553C0.052385 0.67798 0.104824 0.674708 0.157209 0.671135C0.576661 0.759141 2.55721 0.730352 3.60944 0.712807C3.39498 0.687028 2.4679 0.707471 2.2721 0.691971C2.21741 0.687495 2.41002 0.669213 2.28166 0.660066C1.94531 0.636255 0.514544 0.605884 0.722314 0.576723C0.856291 0.55798 3.1601 0.532427 3.60944 0.5344C2.5562 0.500721 1.4706 0.49069 0.414268 0.449755C1.08104 0.392683 1.67216 0.322631 2.88925 0.319531C3.25719 0.289589 0.683272 0.247969 0.623527 0.23163C1.06929 0.214097 1.51511 0.197074 1.96087 0.17954C1.58381 0.184219 1.20666 0.188535 0.829598 0.193214C0.828505 0.187408 0.827505 0.18144 0.826412 0.175634C1.80339 0.148436 2.69734 0.0986752 3.81552 0.102057C3.77944 0.0710546 3.10979 0.074341 2.78516 0.0740591ZM109.788 1.83729C109.809 1.86277 109.401 1.85862 109.17 1.85812C109.205 1.86279 109.24 1.86779 109.274 1.87245C108.782 1.86759 107.864 1.85772 107.83 1.90761C107.479 1.91376 107.634 1.87022 107.521 1.86529C107.475 1.8634 107.017 1.8888 106.651 1.85812C106.564 1.85825 106.476 1.858 106.389 1.85812C106.373 1.87445 106.355 1.89064 106.338 1.90696C106.217 1.88713 106.095 1.86754 105.974 1.84771C107.245 1.84421 108.516 1.84079 109.786 1.83729H109.788ZM97.1214 1.85812C96.6588 1.8489 95.9505 1.83486 96.0932 1.87961C96.3856 1.87725 96.6782 1.87481 96.9706 1.87245C97.0209 1.86782 97.0711 1.86275 97.1214 1.85812ZM51.0888 1.82296C50.7023 1.77886 50.346 1.81725 49.7483 1.80929C49.7491 1.81856 49.7507 1.82802 49.7515 1.83729C49.9961 1.81496 50.6419 1.82951 51.0888 1.82296ZM121.526 1.67907C121.18 1.72914 121.117 1.69377 120.726 1.6986C120.703 1.6989 120.71 1.71025 120.702 1.71032C120.606 1.71106 120.517 1.69774 120.431 1.69795C120.264 1.69838 120.128 1.71212 119.832 1.71162C119.603 1.71117 119.601 1.68892 119.521 1.68948C119.45 1.69023 118.773 1.75068 118.337 1.72465C117.507 1.67491 121.016 1.664 121.27 1.66865C121.355 1.67211 121.441 1.67561 121.526 1.67907ZM123.732 1.70967C123.65 1.70987 123.568 1.71012 123.486 1.71032C123.733 1.67655 123.234 1.68162 122.869 1.68232C122.885 1.65033 123.655 1.66395 124 1.65432C123.911 1.67283 123.822 1.69117 123.732 1.70967ZM113.344 1.64065C113.663 1.63737 113.613 1.6771 113.599 1.68948C113.497 1.68948 113.394 1.68948 113.292 1.68948C113.309 1.67321 113.326 1.65692 113.344 1.64065ZM115.76 1.62633C115.658 1.65365 114.962 1.66575 114.632 1.668C114.621 1.66761 114.706 1.65294 114.475 1.65432C114.404 1.65486 113.714 1.71003 113.866 1.64781C114.498 1.64078 115.129 1.63336 115.76 1.62633ZM116.467 1.6426C116.335 1.65123 116.203 1.66002 116.072 1.66865C116.004 1.65575 115.936 1.64248 115.868 1.62958C116.017 1.62633 116.167 1.62307 116.317 1.61982C116.367 1.62734 116.417 1.63508 116.467 1.6426ZM15.0964 1.57684C14.9765 1.56988 14.8561 1.56296 14.7363 1.55601C14.5985 1.5794 14.4608 1.60294 14.3231 1.62633C14.9217 1.64211 15.5592 1.66016 15.4564 1.59117H15.8675C15.7522 1.61969 15.7672 1.62906 16.1257 1.64716C16.2044 1.60757 16.5757 1.62789 16.9999 1.61916C16.6912 1.61685 16.3822 1.61432 16.0736 1.612V1.59117C16.7612 1.59368 15.9057 1.54967 15.4575 1.57749C15.4224 1.56823 15.3875 1.55876 15.3524 1.54949C15.2672 1.55876 15.1815 1.56758 15.0964 1.57684ZM17.5289 1.60614C17.5594 1.61992 17.5907 1.63338 17.6213 1.64716C17.7402 1.65555 18.3156 1.59562 18.1333 1.584C17.9319 1.59129 17.7302 1.59886 17.5289 1.60614ZM64.8361 1.59117C64.7509 1.58413 64.6653 1.57736 64.5801 1.57033C64.2497 1.662 64.9221 1.5747 65.4012 1.64716C65.245 1.59232 65.9703 1.59483 66.0152 1.59117C65.9312 1.57262 65.8475 1.55371 65.7635 1.53517C65.4544 1.55384 65.1452 1.5725 64.8361 1.59117ZM11.6462 1.64065C12.1697 1.6279 11.9079 1.59516 12.5714 1.58465H12.5725C12.2296 1.5823 11.8861 1.57985 11.5432 1.57749C11.5777 1.59843 11.6117 1.61971 11.6462 1.64065ZM21.3263 1.57033C20.4113 1.61013 20.9775 1.57751 19.989 1.57749C20.0579 1.59852 20.1272 1.61962 20.1961 1.64065C20.6823 1.60219 21.4817 1.62754 21.3274 1.57033H21.3263ZM42.2468 1.61461C42.7486 1.62376 42.6502 1.60793 43.1051 1.64065C43.7824 1.60096 43.2105 1.60627 43.2092 1.57033C43.0545 1.58089 42.8998 1.59167 42.745 1.60224C42.3769 1.56918 42.7112 1.55191 42.7248 1.54819L42.7238 1.54103C42.72 1.53568 42.6986 1.53284 42.5921 1.52801C42.477 1.55685 42.3619 1.58576 42.2468 1.61461ZM44.3947 1.57033C44.2229 1.59427 44.1459 1.6253 44.5976 1.64065C44.6339 1.58712 45.0689 1.62991 45.2668 1.62633C45.3186 1.62051 45.371 1.61457 45.4229 1.60875C45.0804 1.59585 44.7371 1.58323 44.3947 1.57033ZM51.963 1.52085C51.9649 1.57999 51.5859 1.58615 52.1202 1.64065C52.2239 1.63959 52.3278 1.63845 52.4315 1.6374C52.4995 1.62443 52.5674 1.61129 52.6354 1.59833C53.9514 1.70535 54.344 1.52305 52.1202 1.59117C52.0683 1.56777 52.0149 1.54424 51.963 1.52085ZM62.4175 1.52801C62.7132 1.57373 61.2607 1.5765 60.7731 1.56642C60.6546 1.56395 60.4434 1.53919 60.3578 1.54233C60.3059 1.55161 60.2535 1.5604 60.2017 1.56968C60.1361 1.53801 59.1874 1.57395 58.8133 1.59117C58.7782 1.57955 58.7433 1.56763 58.7082 1.55601C58.5716 1.56064 58.4347 1.5657 58.2981 1.57033C58.3153 1.55871 58.332 1.5468 58.3491 1.53517C58.2458 1.54916 58.1423 1.56285 58.039 1.57684C57.6329 1.59241 57.883 1.52904 57.578 1.54884C57.2393 1.57083 57.7943 1.6089 57.784 1.63349C58.0591 1.62715 58.6847 1.61272 58.9642 1.612C59.1245 1.61162 58.9433 1.65612 59.6344 1.60549C59.7859 1.61729 59.9376 1.62885 60.0891 1.64065C60.367 1.6219 60.645 1.6034 60.9229 1.58465C60.9748 1.60097 61.0272 1.61717 61.0791 1.63349C61.1096 1.63599 61.7518 1.59886 61.7174 1.58661C61.978 1.6178 62.5136 1.62344 63.0771 1.62502C63.1312 1.61618 63.1855 1.60718 63.2396 1.59833C62.6951 1.61747 63.0654 1.58862 62.904 1.57163C62.8102 1.56184 62.5226 1.5428 62.4175 1.52801ZM49.6453 1.52605C49.6286 1.55708 49.612 1.58814 49.5953 1.61916C49.3048 1.54436 48.9295 1.61591 48.36 1.56317C48.3084 1.5726 48.2564 1.58173 48.2049 1.59117C47.9919 1.57039 45.9002 1.56424 46.3534 1.612C46.5515 1.63277 46.9824 1.60486 47.0194 1.60549C47.1451 1.6079 47.3089 1.63438 47.5208 1.63284C47.6434 1.6319 47.9016 1.60092 48.1518 1.60093C48.7114 1.60107 49.7337 1.68517 50.4695 1.60549C50.5223 1.61481 50.575 1.62417 50.6278 1.63349C51.1738 1.62778 50.9919 1.59812 51.4999 1.63349C51.8508 1.48604 49.4582 1.64032 49.9554 1.52085L49.6453 1.52605ZM34.6116 1.57033C34.5786 1.54385 33.9456 1.58493 34.0943 1.5215C33.8876 1.54359 33.6806 1.56517 33.4739 1.58726C33.4755 1.59316 33.4766 1.59959 33.4782 1.60549C33.6836 1.60085 33.8899 1.59581 34.0953 1.59117C34.0961 1.60045 34.0967 1.60988 34.0975 1.61916C34.4039 1.58533 35.6808 1.60035 35.6419 1.63349C35.7102 1.61949 35.7787 1.60516 35.8469 1.59117C36.458 1.62928 36.9839 1.58914 37.6495 1.62633C37.7011 1.61473 37.753 1.60276 37.8046 1.59117C37.8382 1.60053 37.872 1.61046 37.9055 1.61982C38.1479 1.62099 38.3908 1.62189 38.6332 1.62307C39.422 1.5854 37.8889 1.53685 37.7016 1.54233C37.6769 1.54311 37.6804 1.56714 37.5263 1.57098C37.2518 1.57766 35.7146 1.5537 35.2393 1.56968C35.2353 1.55368 35.2307 1.5375 35.2266 1.5215C35.0216 1.53784 34.8166 1.55398 34.6116 1.57033ZM54.9001 1.58465C54.9347 1.60096 54.9696 1.61718 55.0042 1.63349C55.6023 1.61717 55.979 1.63145 55.8263 1.57749H55.8253C55.5169 1.57985 55.2084 1.58229 54.9001 1.58465ZM9.58765 1.60875C9.7229 1.61216 9.85818 1.61575 9.99342 1.61916C10.0638 1.60526 10.1344 1.59139 10.2048 1.57749H10.2037C9.9984 1.58799 9.79299 1.59825 9.58765 1.60875ZM54.3838 1.57749C54.2014 1.5582 53.6889 1.61628 54.0259 1.61916C54.283 1.62134 54.4806 1.58791 54.3838 1.57749ZM98.7169 1.57684C98.7347 1.58628 98.7533 1.59605 98.7711 1.60549C98.9637 1.57784 99.2041 1.62554 99.7982 1.61916V1.57033C99.6619 1.57963 99.5256 1.58902 99.3893 1.59833C99.3736 1.56581 99.0867 1.55353 98.7169 1.57684ZM40.5314 1.61786C40.9902 1.61583 41.4492 1.61339 41.908 1.61135C41.9125 1.60232 41.9173 1.59304 41.9218 1.584C41.4622 1.61712 41.2769 1.58163 41.1698 1.57945H41.1719C40.8277 1.57226 40.499 1.56685 40.1734 1.55601C40.2926 1.57647 40.4122 1.59739 40.5314 1.61786ZM38.9582 1.56056C39.0355 1.62464 39.1372 1.63169 39.842 1.58661C39.8141 1.57872 39.7859 1.57106 39.7581 1.56317C39.3931 1.56788 39.1804 1.58281 39.2439 1.54949C39.1488 1.5532 39.0533 1.55686 38.9582 1.56056ZM46.1442 1.58075C46.0598 1.5604 45.3921 1.58084 45.424 1.59117C45.4384 1.59525 46.3079 1.62068 46.1442 1.58075ZM104.486 1.584C104.331 1.57932 104.176 1.57501 104.022 1.57033C104.227 1.56338 104.433 1.55645 104.639 1.54949C104.588 1.5611 104.537 1.5724 104.486 1.584ZM106.184 1.49285C106.294 1.50109 105.937 1.55872 106.595 1.57359C106.116 1.57481 105.636 1.57627 105.156 1.57749C105.381 1.56818 105.606 1.55881 105.831 1.54949C105.791 1.53293 105.752 1.51592 105.713 1.49936C105.87 1.49712 106.027 1.49509 106.184 1.49285ZM107.929 1.4935C107.958 1.49507 108.091 1.52804 108.14 1.53517C107.935 1.53521 107.729 1.53513 107.524 1.53517C107.592 1.54562 107.661 1.55598 107.73 1.56642C107.489 1.57 107.249 1.57391 107.009 1.57749C107.111 1.567 107.214 1.55608 107.317 1.54559C107.111 1.54205 106.905 1.53871 106.7 1.53517C106.441 1.49135 107.802 1.48814 107.929 1.4935ZM101.241 1.54559C101.413 1.54669 101.585 1.54775 101.757 1.54884C101.723 1.53253 101.688 1.51632 101.654 1.50001C101.551 1.50001 101.448 1.50001 101.345 1.50001C101.31 1.51523 101.275 1.53037 101.241 1.54559ZM104.61 1.4948C104.69 1.50125 104.769 1.51711 104.746 1.52475C104.496 1.60351 103.813 1.43109 104.61 1.4948ZM108.438 1.50261C108.973 1.44529 108.852 1.57229 108.347 1.53517C108.322 1.53311 108.398 1.50685 108.438 1.50261ZM112.448 1.50066C112.492 1.50109 112.567 1.54223 112.98 1.50327C113.049 1.50794 113.117 1.51292 113.185 1.51759C113.024 1.53664 111.659 1.54782 111.848 1.50717C112.057 1.50654 112.232 1.49939 112.448 1.50066ZM105.671 1.3177C106.066 1.3338 106.549 1.31625 107.19 1.319C107.222 1.31925 107.28 1.33716 107.383 1.33788C107.47 1.33844 109.201 1.31901 109.066 1.34895C108.397 1.37575 108.147 1.33512 107.986 1.40169C107.953 1.38768 107.921 1.37338 107.888 1.35937C107.244 1.33506 107.06 1.38386 106.698 1.40169C106.7 1.39112 106.701 1.38036 106.703 1.36979C106.461 1.36873 106.22 1.36759 105.978 1.36653C106.012 1.37346 106.046 1.38043 106.08 1.38737C105.995 1.38737 105.909 1.38737 105.823 1.38737C105.615 1.35607 105.352 1.34909 105.671 1.3177ZM111.125 1.34895C110.92 1.35009 110.715 1.35107 110.51 1.35221C110.577 1.36505 110.645 1.37842 110.713 1.39127C110.612 1.39477 110.511 1.39819 110.41 1.40169C110.238 1.37953 110.065 1.35743 109.893 1.33528C110.338 1.33174 110.784 1.32775 111.23 1.32421C111.195 1.33242 111.16 1.34073 111.125 1.34895ZM112.055 1.36653C112.245 1.28631 114.093 1.34104 114.937 1.32421C114.494 1.37253 113.807 1.33968 113.324 1.33918C112.39 1.33828 113.035 1.36789 112.876 1.38085C112.796 1.38699 112.268 1.33561 112.055 1.36653ZM104.229 1.33137C104.695 1.33785 104.956 1.3195 105.359 1.34895C105.325 1.35481 105.291 1.36067 105.257 1.36653C105.117 1.36115 103.995 1.3441 104.229 1.33137ZM116.174 1.34569C115.274 1.31691 115.718 1.38901 115.25 1.33463C115.558 1.33117 115.866 1.32766 116.174 1.32421V1.34569ZM53.3535 1.27537C52.9744 1.27353 52.5509 1.25878 52.3242 1.28905C52.5818 1.29373 52.8398 1.29869 53.0975 1.30337C53.1828 1.29411 53.2681 1.28464 53.3535 1.27537ZM64.1659 0.979766C64.0792 0.97252 63.7367 0.993439 63.7006 0.993439C63.6343 0.993401 63.6525 0.98322 63.6518 0.980417C63.2131 0.982329 63.6173 1.01497 63.2927 1.02209C63.2369 1.02325 62.4747 1.00709 62.1646 1.00841C61.6875 1.01046 61.2106 1.0085 61.0323 1.00907C60.7313 1.01001 60.1724 1.03449 59.678 1.03576C59.4744 1.03621 59.4027 1.01639 59.1978 1.01688C57.8816 1.0202 55.2911 1.04758 54.1236 1.03511C53.8352 1.03201 53.5602 1.00633 53.4077 1.00841C53.2873 1.01781 53.1668 1.02701 53.0465 1.03641C52.6766 0.951834 52.5529 1.0272 52.1542 1.03511C51.9015 1.04008 51.7828 1.015 51.7485 1.01493C51.5229 1.01542 51.4114 1.02726 51.2343 1.02925C51.0354 1.03143 50.7488 1.02004 50.6777 1.02209C50.6355 1.02368 50.7711 1.05658 50.0022 1.05595C49.2158 1.05529 48.4395 1.0523 47.6398 1.05074C47.9064 1.15115 48.1366 1.08241 48.463 1.07874C48.55 1.0778 48.4952 1.09376 48.5713 1.09306C48.7867 1.09114 49.1981 1.07562 49.3765 1.07939C49.569 1.08349 49.5042 1.12039 49.7483 1.10673C49.7592 1.10567 49.722 1.09044 49.778 1.08785C50.3552 1.06256 50.5451 1.08903 51.2747 1.0898C51.7597 1.09035 54.6942 1.07528 54.7949 1.08525C55.3185 1.13875 52.2259 1.13961 51.8642 1.13538C51.7381 1.13387 51.8701 1.11648 51.7548 1.11324C51.7037 1.11216 51.2651 1.14444 50.8318 1.1471C50.3061 1.15034 49.2496 1.1281 48.7487 1.12887C44.4432 1.13556 40.1973 1.11627 35.8958 1.11585C35.8041 1.11585 35.6834 1.13536 35.3849 1.13538C29.8074 1.13503 24.0262 1.11978 18.3776 1.12887C17.1462 1.13085 15.9248 1.1491 14.6821 1.13473C14.5279 1.14881 14.3732 1.16297 14.219 1.17705C14.6134 1.16586 15.3364 1.19742 15.4023 1.19789C15.4266 1.19795 15.5761 1.18207 15.8165 1.18291C16.1543 1.18404 16.3031 1.19779 16.3317 1.19789C16.418 1.19793 16.3619 1.1835 16.4443 1.18357C17.0584 1.1842 17.5336 1.1798 18.0971 1.17966C18.7339 1.17952 19.0569 1.20698 19.5205 1.17705C19.5729 1.18872 19.6253 1.20055 19.6777 1.21221C20.0242 1.16171 22.0881 1.16721 22.9239 1.16989C23.1873 1.17076 23.1412 1.19073 23.2298 1.19073C23.2862 1.19065 23.265 1.16397 23.9543 1.16924C24.301 1.17193 24.3922 1.19134 24.5661 1.19073C24.6607 1.19035 24.6458 1.1712 24.7817 1.17119C25.5679 1.17119 26.2098 1.17737 26.9795 1.18096C27.1959 1.18195 27.1987 1.1981 27.2472 1.19789C27.4255 1.19715 27.7362 1.16982 28.1894 1.16989C28.9355 1.17003 30.4217 1.17026 31.0319 1.18357C31.1215 1.18554 31.1964 1.20468 31.2624 1.2044C31.3618 1.20386 31.4009 1.18375 31.4185 1.18357C31.7524 1.18321 31.5518 1.20247 31.7754 1.19789C31.8959 1.19541 32.0222 1.17185 32.3023 1.16924C32.6717 1.16582 32.5992 1.19347 32.7537 1.19073C32.7699 1.19012 32.7757 1.17117 32.9269 1.17054C33.503 1.16829 34.3385 1.16396 34.8835 1.16403C35.0401 1.16403 35.1569 1.17684 35.3753 1.17705C35.8163 1.17747 38.3165 1.16966 38.5216 1.17705C38.5422 1.17794 38.3218 1.2059 38.6756 1.20505C38.7783 1.19336 38.881 1.18158 38.9837 1.16989C39.1559 1.18865 39.3288 1.20713 39.501 1.22589C39.4952 1.1611 40.5075 1.15115 40.4974 1.21742C40.6082 1.22011 40.719 1.22255 40.8298 1.22524C41.0606 1.17946 41.2144 1.19679 41.6605 1.16989C41.7298 1.18389 41.7994 1.19756 41.8687 1.21156C41.8862 1.2022 41.9043 1.19293 41.9218 1.18357C42.1596 1.23419 42.5492 1.18332 42.5974 1.18291C42.7794 1.18179 42.9165 1.19501 43.0021 1.19463C43.3214 1.1933 44.013 1.17535 44.3862 1.18357C44.4037 1.18399 44.3873 1.20563 44.4935 1.20831C44.6845 1.21308 44.7036 1.18147 44.9587 1.21873C45.0101 1.20941 45.0614 1.20005 45.1127 1.19073C45.1675 1.19557 45.2227 1.20021 45.2774 1.20505C45.6002 1.20257 45.9233 1.20037 46.2461 1.19789C45.9525 1.23459 46.29 1.25474 46.6094 1.22589C46.7175 1.21609 46.6222 1.19411 46.6583 1.19073C46.7123 1.18621 48.157 1.19779 48.2527 1.21221C48.3213 1.20518 48.3902 1.19777 48.4587 1.19073C48.4933 1.20477 48.5282 1.21901 48.5628 1.23305C48.6004 1.22816 48.6379 1.22296 48.6754 1.21808C49.0525 1.24287 50.0315 1.18627 50.2093 1.19073C50.3041 1.19312 50.219 1.25285 50.6735 1.24672C50.6892 1.2303 50.7056 1.21367 50.7213 1.19724C50.825 1.19489 50.9288 1.19308 51.0325 1.19073C51.2278 1.1922 51.512 1.22068 51.5211 1.24021C51.5822 1.22849 51.6439 1.21677 51.7049 1.20505C51.8696 1.24314 52.743 1.2292 53.0943 1.20505C53.197 1.21656 53.2997 1.22806 53.4023 1.23956C53.5404 1.22557 53.6786 1.21188 53.8166 1.19789C54.1361 1.19368 53.7998 1.21672 53.8665 1.21873C54.0107 1.22274 54.7448 1.1837 54.6983 1.2324C54.7984 1.23252 54.8987 1.23293 54.9989 1.23305C55.0504 1.21905 55.1024 1.20473 55.154 1.19073C55.3261 1.23889 55.6238 1.22197 56.2342 1.23956C56.2855 1.22845 56.337 1.21746 56.3883 1.20635C56.577 1.22213 56.7657 1.23811 56.9544 1.25389C56.9932 1.23549 57.0325 1.21694 57.0713 1.19854C57.1534 1.1959 57.2356 1.19337 57.3177 1.19073C57.4846 1.23185 57.7845 1.18741 57.937 1.2044C58.1592 1.2292 57.9868 1.2586 57.5737 1.2643C57.6046 1.29429 58.8344 1.28083 59.1192 1.27863C59.1007 1.27286 59.0825 1.26682 59.064 1.26105C58.7739 1.26569 58.4831 1.27009 58.193 1.27472C57.9498 1.19928 58.7372 1.21931 59.0991 1.20961C59.1321 1.20868 59.3199 1.18026 59.6843 1.18291C59.8255 1.18397 60.377 1.22552 60.4821 1.22784C61.3303 1.24689 60.7066 1.18723 61.5369 1.23956C61.3643 1.19954 61.8412 1.23299 62.3378 1.22524C62.4225 1.2239 63.1375 1.19166 63.1876 1.19073C63.4895 1.18552 63.1611 1.22077 63.5976 1.21156C63.6501 1.20224 63.7034 1.19288 63.7559 1.18357H64.0607C64.6772 1.26651 64.821 1.20582 65.0401 1.19789C65.1287 1.19472 65.0153 1.21614 65.2451 1.21156C65.3316 1.20984 65.4278 1.192 65.6604 1.19073C66.3888 1.1868 66.6361 1.26385 67.3058 1.18357C67.4085 1.19519 67.5112 1.2071 67.6139 1.21873C67.6832 1.20478 67.7528 1.19035 67.8221 1.1764C68.3527 1.21691 68.1615 1.17591 68.3532 1.1764C68.8592 1.17767 69.8951 1.18533 69.9858 1.21873C70.4226 1.14208 70.9449 1.22888 71.1171 1.22589C71.2194 1.21657 71.3217 1.20721 71.4241 1.19789C71.5443 1.20725 71.665 1.21653 71.7852 1.22589C71.7267 1.15055 72.35 1.22476 72.4098 1.22589C72.4828 1.22691 73.438 1.20464 73.7939 1.20505C74.1502 1.20549 74.7707 1.22585 74.8253 1.22589C74.8896 1.22583 75.4949 1.2055 75.9683 1.2057C76.3831 1.20592 78.8403 1.23473 78.6854 1.20115C78.5247 1.19186 78.2957 1.18402 78.098 1.17966C77.4829 1.16627 73.8797 1.1492 72.9579 1.14385C71.1103 1.13321 69.1829 1.1349 67.3271 1.12757C67.2179 1.12715 67.2009 1.10782 67.1072 1.10738C66.9649 1.10682 66.6036 1.12604 66.4635 1.12562C65.94 1.12392 65.3033 1.1209 65.0231 1.12041C64.3966 1.11942 63.9664 1.10733 63.4924 1.10543C63.343 1.10492 62.5934 1.12931 62.0797 1.1191C61.9866 1.11362 61.8934 1.10832 61.8003 1.10283C62.0651 1.09642 62.7597 1.07935 63.0824 1.07743C63.5625 1.07469 63.8134 1.09073 63.9906 1.09046C64.1393 1.09023 64.8978 1.072 65.243 1.07157C65.3498 1.07148 65.3723 1.09248 65.4639 1.09241C65.9616 1.09192 66.6171 1.091 67.0488 1.07092C66.8728 1.07746 67.9691 1.08983 68.0303 1.0898C68.1292 1.0898 68.2372 1.07092 68.4392 1.07092C68.8271 1.07096 68.7783 1.11099 69.2635 1.07092C69.3835 1.08259 69.5036 1.09441 69.6236 1.10608C69.631 1.05269 71.1495 1.12539 71.5813 1.0605C71.5926 1.05318 69.6204 1.03227 69.4568 1.0312C68.48 1.0248 67.0345 1.03796 66.0864 1.0286C65.8015 1.02579 64.9067 0.992956 64.8361 0.993439C64.727 0.994354 64.8249 1.01296 64.7777 1.01362C63.8128 1.02742 64.2942 0.990559 64.1659 0.979766ZM106.698 1.28254C106.405 1.28034 106.112 1.27757 105.819 1.27537C105.84 1.26374 105.862 1.25184 105.883 1.24021C106.017 1.24477 106.151 1.24933 106.285 1.25389C106.389 1.24689 106.492 1.24005 106.595 1.23305C106.63 1.24939 106.664 1.2662 106.698 1.28254ZM107.421 1.23305C107.675 1.22715 107.688 1.25203 107.747 1.25324C107.922 1.25687 108.073 1.24704 108.243 1.24738C108.047 1.30597 107.63 1.27887 107.421 1.23305ZM102.168 1.21221C102.225 1.21502 102.608 1.2781 103.043 1.21938C103.369 1.23805 103.695 1.2567 104.021 1.27537C103.467 1.24687 102.701 1.2765 102.43 1.27537C102.328 1.27492 102.308 1.2555 102.225 1.25519C101.752 1.25366 101.291 1.29729 101.243 1.23305C101.691 1.25168 102.095 1.20877 102.168 1.21221ZM105.029 1.235C105.104 1.24841 105.18 1.26197 105.256 1.27537C104.982 1.27537 104.709 1.27537 104.435 1.27537C104.509 1.2618 104.583 1.24792 104.657 1.23435C104.781 1.23452 104.905 1.23484 105.029 1.235ZM83.9466 1.19073C84.1157 1.19089 84.2854 1.19057 84.4544 1.19073C84.4451 1.18095 84.2518 1.18103 84.1803 1.17445H84.1814C84.102 1.16698 84.1356 1.15462 83.9913 1.14906C83.9765 1.16285 83.9614 1.17693 83.9466 1.19073ZM14.0139 1.13473C13.7292 1.13403 11.1157 1.13424 11.3371 1.16989C11.4495 1.18772 12.3448 1.17221 12.6086 1.1725C12.9643 1.17287 13.9237 1.21105 14.0139 1.13473ZM9.38052 1.12757C9.33521 1.16312 10.9689 1.16891 11.13 1.16273C11.096 1.15764 11.0434 1.1464 10.9983 1.14385C10.7768 1.13162 9.73279 1.13728 9.38052 1.12757ZM74.4812 1.08785C74.6129 1.10583 74.7446 1.12392 74.8763 1.14189C74.8416 1.1185 74.8069 1.09497 74.7722 1.07157C74.6752 1.07698 74.5782 1.08245 74.4812 1.08785ZM61.6941 1.11324C59.4983 1.11211 57.302 1.11113 55.1062 1.10999C55.2993 1.10026 55.493 1.09041 55.6861 1.08069C57.5782 1.08414 59.596 1.09439 61.4232 1.07939C61.5134 1.0908 61.6039 1.10183 61.6941 1.11324ZM101.55 1.10673C100.987 1.10638 100.517 1.12365 99.9045 1.09632C100.488 1.06982 100.777 1.11061 101.344 1.07157C101.412 1.08324 101.482 1.09507 101.55 1.10673ZM42.54 1.02274C41.9515 1.05844 40.4456 0.993456 39.9673 1.03641C39.9378 1.03929 40.2199 1.0574 39.7612 1.09241C40.1076 1.08524 40.3526 1.07817 40.3795 1.05074C40.4825 1.06009 40.5855 1.06939 40.6886 1.07874C40.8596 1.07165 41.0316 1.06433 41.2027 1.05725C41.1841 1.08472 41.1971 1.08321 41.4597 1.06441C41.5796 1.07137 41.7 1.07829 41.8198 1.08525C41.8704 1.07365 41.9212 1.06233 41.9717 1.05074C42.0755 1.06701 42.1792 1.0833 42.283 1.09957C42.6874 1.08191 42.4413 1.05033 42.54 1.02274ZM88.988 1.09957C89.159 1.08322 89.33 1.06709 89.501 1.05074C89.2953 1.05074 89.0896 1.05074 88.8839 1.05074C88.9185 1.06706 88.9534 1.08325 88.988 1.09957ZM44.5997 1.02925C44.5006 1.02324 41.7767 1.04285 43.0159 1.09762C43.3381 1.09587 43.6603 1.09416 43.9825 1.09241C43.7159 1.00171 44.5945 1.08269 44.6666 1.0846C45.0115 1.09342 45.4508 1.07243 45.7012 1.07353C45.9165 1.07451 46.0448 1.09022 46.1962 1.0898C46.7122 1.0884 47.5276 1.08829 47.6398 1.05074C47.2387 1.04996 46.831 1.04915 46.414 1.05009C45.9729 1.05107 45.5852 1.01583 44.7569 1.06441C44.552 1.05919 44.6244 1.0308 44.5997 1.02925ZM90.0162 1.05399C89.9957 1.09151 91.0258 1.08308 91.0434 1.06832C91.0454 1.05958 90.7062 1.05926 90.6578 1.05595H90.6567C90.6386 1.05431 90.738 1.0404 90.5803 1.03641C90.3923 1.04239 90.2041 1.04801 90.0162 1.05399ZM18.0833 1.05009C17.9369 1.02899 14.7268 1.0367 14.6322 1.04683C14.607 1.04968 14.6423 1.05907 14.6322 1.06441C15.3824 1.03455 16.4492 1.06989 17.1613 1.07222C17.3597 1.07285 17.3009 1.05818 17.3122 1.0579C17.4251 1.05789 17.9339 1.09384 18.0833 1.05009ZM38.938 1.05399C39.0746 1.05989 39.2114 1.06568 39.348 1.07157C39.3827 1.0599 39.4175 1.04809 39.4521 1.03641C39.2811 1.04219 39.109 1.04822 38.938 1.05399ZM34.3014 1.04032C34.6455 1.04146 34.9897 1.04244 35.3339 1.04358C35.2992 1.04821 35.2645 1.05261 35.2298 1.05725C35.7497 1.06964 35.9653 1.0408 36.2421 1.04488C36.2719 1.04538 36.3086 1.06253 36.4195 1.06311C36.6744 1.06445 37.4032 1.07122 37.4913 1.05399C37.6761 1.0173 36.2101 1.03418 35.9362 1.03251C35.8128 1.03173 35.6642 1.0173 35.5888 1.01688C35.5064 1.01655 35.3934 1.03638 35.1926 1.03576C35.1322 1.03548 34.4826 1.01208 34.2015 1.01558C34.2347 1.02378 34.2682 1.03212 34.3014 1.04032ZM28.1256 1.03967C28.2315 1.05816 28.4528 1.04064 28.5346 1.04358C28.554 1.04429 28.4033 1.05976 28.5866 1.06441C28.6385 1.05383 28.6909 1.04309 28.7428 1.03251C28.5373 1.03491 28.3311 1.03727 28.1256 1.03967ZM91.1496 1.03641C90.8159 1.07019 91.9728 1.06656 91.7657 1.03641C91.7336 1.03247 91.1764 1.0339 91.1496 1.03641ZM105.875 0.997997C105.618 0.948857 108.667 0.996641 108.964 0.99409C108.949 1.02498 108.224 0.994009 108.604 1.03641C108.241 1.01309 107.238 1.0256 107.002 1.01883C106.86 1.01474 106.823 0.98855 106.802 0.987579C106.717 0.98458 105.968 1.01509 105.875 0.997997ZM111.486 1.01558C111.196 1.00972 110.906 1.00386 110.616 0.997997C110.958 0.994498 111.3 0.991077 111.642 0.987579C111.59 0.996913 111.538 1.00624 111.486 1.01558ZM113.085 0.987579C112.793 1.03852 112.306 0.990128 111.85 1.00125C111.842 0.971404 112.826 0.994479 113.085 0.987579ZM95.4739 0.95893C95.0209 0.939218 94.8262 1.03054 95.3773 0.990835C95.394 0.989521 95.4928 0.959979 95.4739 0.95893ZM41.3057 0.878842C41.1297 0.925596 41.7603 0.906766 41.9717 0.92442C42.3128 0.953027 41.8114 0.976192 42.6441 0.95893C42.6101 0.968277 42.5762 0.978232 42.5421 0.987579C43.029 0.99064 42.87 0.925594 42.9575 0.917258C42.9866 0.914816 43.2872 0.920012 43.3431 0.915956C44.0299 0.863722 42.4715 0.894253 42.3998 0.893818C42.3223 0.893245 41.3639 0.864341 41.3057 0.878842ZM84.2494 0.952419C83.3466 0.924939 83.7344 0.965301 82.8079 0.962836C82.7879 0.983071 84.1324 0.970386 84.2494 0.952419ZM51.1908 0.930932C50.2571 0.939031 49.4889 0.912367 48.6181 0.948512C48.6753 1.00412 51.4306 0.945332 51.1908 0.930932ZM7.32192 0.874935C10.9544 0.974049 15.1443 0.94095 19.0117 0.939396C19.4332 0.939255 19.4742 0.961325 19.6267 0.95893C19.7265 0.957367 19.7097 0.940131 19.8424 0.940047C24.6415 0.937157 29.2368 0.913783 33.834 0.92442C34.1236 0.925125 35.5332 0.963094 35.8342 0.905538C36.0604 0.861979 35.0489 0.896162 34.8803 0.895771C34.7539 0.895451 34.748 0.875008 34.6636 0.874935C34.5747 0.874909 34.6481 0.888372 34.5446 0.888609C34.1036 0.889594 33.622 0.884156 33.2232 0.885353C29.3122 0.896838 25.5068 0.893837 21.6163 0.891864C21.147 0.891644 21.242 0.875089 21.219 0.874935C18.694 0.873385 15.8088 0.910514 13.1344 0.896422C11.2515 0.885111 9.36848 0.873875 7.48551 0.862564C7.43109 0.866623 7.37634 0.870877 7.32192 0.874935ZM44.3936 0.952419C44.1587 0.890421 44.1062 0.952299 43.2634 0.927025C43.1948 0.937603 43.1259 0.948351 43.0573 0.95893C43.5031 0.956611 43.9489 0.954737 44.3947 0.952419H44.3936ZM38.8254 0.929629C38.6826 0.84593 36.7977 0.90523 35.9489 0.88926C35.7962 0.931137 37.0265 0.912214 37.3181 0.916607C37.4634 0.918791 38.2424 0.962046 38.8339 0.938094C38.8313 0.93525 38.8281 0.932474 38.8254 0.929629ZM102.682 0.874935C102.545 0.877374 102.408 0.879659 102.271 0.882098C102.614 0.891372 102.957 0.900822 103.3 0.910096C102.753 0.904116 102.206 0.897844 101.658 0.891864C101.76 0.874515 101.862 0.857125 101.964 0.839775C102.203 0.851407 102.443 0.863304 102.682 0.874935ZM100.906 0.8834C101.864 0.876881 100.865 0.923511 100.625 0.902934C100.481 0.890532 100.808 0.884105 100.906 0.8834ZM98.411 0.853449C98.8582 0.822947 99.7622 0.821196 99.4413 0.882098C98.958 0.853565 98.6464 0.877016 97.9457 0.860611C98.048 0.848944 98.1505 0.837117 98.2527 0.82545H98.2538C98.3061 0.834741 98.3586 0.844158 98.411 0.853449ZM11.3371 0.811777C11.2629 0.831613 11.7449 0.831277 11.9054 0.832613C12.6021 0.83853 13.4956 0.829866 14.22 0.832613C14.1655 0.826067 14.1109 0.819625 14.0564 0.813079C13.1501 0.812672 12.2434 0.812184 11.3371 0.811777ZM16.4857 0.832613H17.9792C18.0256 0.832613 18.2431 0.815958 18.0823 0.811777C17.5504 0.818858 17.0176 0.825532 16.4857 0.832613ZM51.0878 0.808521C50.8485 0.814337 50.6089 0.819634 50.3697 0.82545C50.3694 0.818508 50.3689 0.811557 50.3686 0.804615C50.6082 0.805835 50.8482 0.807301 51.0878 0.808521ZM9.38052 0.797452C9.63401 0.82154 10.2387 0.817797 10.6159 0.818288C10.356 0.797611 9.73695 0.807803 9.38052 0.797452ZM38.7341 0.783779C39.0596 0.780191 39.3119 0.786 39.245 0.811777C39.0723 0.810678 38.8993 0.80962 38.7266 0.808521C38.729 0.800344 38.7317 0.791956 38.7341 0.783779ZM96.7093 0.804615C96.1606 0.806934 95.6115 0.809457 95.0628 0.811777C95.0831 0.804765 95.1031 0.797302 95.1234 0.79029C95.6522 0.788012 96.1815 0.786057 96.7104 0.783779C96.7097 0.790715 96.7099 0.797678 96.7093 0.804615ZM7.94014 0.747967C8.31715 0.752686 8.6944 0.757573 9.07141 0.762292V0.734294H9.07035C8.69366 0.73889 8.31682 0.743371 7.94014 0.747967ZM104.226 0.713458C102.55 0.68063 104.688 0.645694 105.131 0.693924H105.132C105.17 0.698178 105.089 0.718773 105.153 0.727131C104.983 0.717828 104.812 0.708436 104.642 0.699133C104.486 0.710731 104.33 0.722696 104.175 0.734294C104.123 0.729736 104.072 0.725178 104.021 0.72062C104.089 0.718303 104.157 0.715776 104.226 0.713458ZM110.991 0.695227C112.511 0.699033 110.956 0.750234 110.204 0.709551C110.222 0.700302 110.852 0.694879 110.991 0.695227ZM107.008 0.706296C106.768 0.710972 106.529 0.715292 106.29 0.719969C106.259 0.714069 106.228 0.70829 106.197 0.702389C106.381 0.696534 106.565 0.690664 106.748 0.684809C106.835 0.691889 106.921 0.699216 107.008 0.706296ZM99.1312 0.615139C98.7458 0.608657 98.2537 0.674065 99.4913 0.656811C99.4906 0.649862 99.4898 0.642923 99.4891 0.635975C99.4395 0.637116 99.2952 0.643661 99.2873 0.643137C99.2648 0.64132 99.2912 0.617848 99.1312 0.615139ZM112.775 0.467335C112.839 0.473529 112.634 0.495035 112.682 0.501193C112.724 0.506543 113.358 0.529008 113.188 0.565654C113.083 0.564108 112.978 0.562642 112.874 0.561096C112.839 0.551119 112.804 0.541122 112.769 0.531145C112.668 0.540405 112.567 0.549231 112.466 0.558492C112.296 0.533696 111.934 0.501883 112.363 0.48166C112.205 0.483774 112.047 0.486056 111.89 0.488171C111.808 0.500039 111.726 0.511463 111.644 0.523331C111.687 0.505266 111.73 0.487354 111.773 0.469288C112.107 0.468678 112.441 0.467945 112.775 0.467335ZM113.806 0.509658C113.849 0.506551 113.874 0.433163 114.322 0.509658C114.458 0.504978 114.595 0.500013 114.731 0.495333C114.766 0.511679 114.801 0.528472 114.836 0.544818C114.311 0.53217 114.254 0.564777 114.216 0.565654C114.041 0.568747 114.17 0.551612 114.058 0.551329C113.766 0.550766 113.103 0.562155 113.403 0.513564C113.511 0.496161 113.763 0.512335 113.806 0.509658ZM117.673 0.474497C117.654 0.483812 117.635 0.493181 117.616 0.502495C118.196 0.485104 119.099 0.478331 118.586 0.537005C117.8 0.541886 117.014 0.547099 116.229 0.55198C116.177 0.54494 116.124 0.537534 116.072 0.530493C116.658 0.557617 116.477 0.442683 116.987 0.4758C117.072 0.481479 116.824 0.52114 117.364 0.495333C117.345 0.485942 117.325 0.476726 117.306 0.467335C117.428 0.469655 117.551 0.472178 117.673 0.474497ZM122.662 0.488171C121.669 0.474651 122.761 0.440989 122.945 0.469288L123.064 0.49338C123.192 0.538136 122.358 0.50923 122.3 0.509658C122.213 0.510346 122.008 0.566014 121.531 0.484915C121.908 0.486055 122.285 0.487031 122.662 0.488171ZM119.418 0.474497C119.501 0.472671 119.455 0.486997 119.491 0.486869C120.023 0.483839 121.289 0.471232 121.426 0.51682C121.033 0.52062 119.275 0.530088 119.165 0.49924C119.249 0.491042 119.333 0.482695 119.418 0.474497ZM116.277 0.488822C116.313 0.491783 116.014 0.538931 115.675 0.508355C115.35 0.478895 116.083 0.475192 116.277 0.488822ZM90.6323 0.432175C89.9145 0.449926 90.8577 0.467581 90.5314 0.495333C90.6684 0.492975 90.8055 0.490528 90.9425 0.488171C90.8392 0.469479 90.7356 0.450867 90.6323 0.432175ZM57.8828 0.376178C57.7169 0.372957 57.7943 0.389427 57.7808 0.389852C57.6709 0.38938 57.5671 0.376045 57.5248 0.377481C56.7444 0.405351 57.2631 0.419749 57.271 0.423059C57.2859 0.439785 57.0836 0.45931 57.3666 0.478404C57.539 0.472466 57.7115 0.46611 57.8839 0.460173C57.9694 0.469484 58.0554 0.47886 58.1409 0.488171C58.4828 0.468229 58.0375 0.463086 57.9848 0.436732C57.9652 0.426304 58.2868 0.413452 57.8828 0.376178ZM89.3459 0.376178C89.2295 0.405631 88.9445 0.44295 89.2249 0.472544C89.2769 0.477951 89.4883 0.480574 89.5531 0.488171C90.0147 0.44896 89.8378 0.408567 89.3459 0.376178ZM60.9771 0.323438C61.2552 0.330315 61.5339 0.337396 61.812 0.344274C61.8073 0.361878 61.8018 0.37941 61.7971 0.397014C61.6484 0.392258 61.4997 0.387446 61.351 0.38269C61.2989 0.390723 61.2469 0.398747 61.1948 0.406781C61.3795 0.426913 61.5646 0.447203 61.7493 0.467335C61.9717 0.460304 62.194 0.45353 62.4164 0.446499C62.3142 0.437189 62.2116 0.427811 62.1094 0.418501C62.6535 0.408214 62.5354 0.450916 62.9857 0.467335C63.14 0.450976 63.2947 0.43486 63.4489 0.418501C63.672 0.434928 63.895 0.45156 64.1181 0.467986C64.493 0.46031 64.5263 0.447644 64.2742 0.428919C64.4606 0.407581 64.6647 0.440898 64.8893 0.432175C64.9077 0.43144 64.8729 0.411582 64.8893 0.411339C66.0507 0.397741 65.989 0.450756 66.1745 0.45301C66.3057 0.454533 66.8281 0.418315 66.8363 0.40613C66.8347 0.389277 65.769 0.325122 67.462 0.323438C66.582 0.27864 65.5813 0.324135 66.2277 0.389852C65.9487 0.383252 64.7214 0.399633 64.6428 0.397665C64.5288 0.394691 64.5686 0.369719 64.4261 0.369016C64.3416 0.368664 64.1174 0.42593 63.4489 0.376178C63.3634 0.385538 63.2773 0.394817 63.1918 0.404176C63.1118 0.396495 63.0318 0.389069 62.9518 0.381387C63.1167 0.35396 63.2818 0.326123 63.4468 0.298695C62.7935 0.328493 62.2512 0.27238 61.8534 0.319531C61.5095 0.31404 61.3424 0.309134 61.4901 0.285022C61.3868 0.285022 61.2833 0.285022 61.18 0.285022C61.1125 0.297899 61.0446 0.310561 60.9771 0.323438ZM87.2353 0.418501C86.8938 0.391146 86.7704 0.449557 86.8232 0.45301C87.1226 0.471375 87.4121 0.432783 87.2353 0.418501ZM58.5042 0.407432C58.8813 0.422647 59.2584 0.437795 59.6355 0.45301V0.397014C59.2584 0.400472 58.8813 0.403974 58.5042 0.407432ZM90.8416 0.432175C91.2545 0.381064 91.6645 0.454405 91.8687 0.439337C91.913 0.436027 91.8236 0.41143 91.7391 0.40613C91.6842 0.402782 90.8105 0.385789 90.7375 0.390503C90.7721 0.404472 90.8069 0.418206 90.8416 0.432175ZM107.935 0.397014C107.781 0.4064 107.628 0.415626 107.474 0.425012C107.482 0.409376 107.491 0.393768 107.499 0.378132C107.575 0.37521 107.651 0.371938 107.727 0.369016C107.796 0.378281 107.866 0.387749 107.935 0.397014ZM106.184 0.421757C105.91 0.420495 105.635 0.419763 105.36 0.418501C106.407 0.404057 105.549 0.396681 106.184 0.376178V0.421757ZM103.406 0.389852C103.439 0.380487 103.473 0.371218 103.506 0.361854H104.331C104.157 0.329217 103.983 0.296822 103.809 0.264186C103.709 0.264105 103.608 0.263616 103.508 0.263535C103.474 0.305568 103.44 0.347819 103.406 0.389852ZM50.4685 0.305858C50.3035 0.305297 49.732 0.333624 49.7494 0.344274C49.9892 0.357173 50.2297 0.370441 50.4695 0.383341C50.4706 0.364718 50.4716 0.345967 50.4727 0.327344C50.5063 0.336569 50.5401 0.345467 50.5736 0.354691C50.71 0.347692 50.8473 0.340855 50.9837 0.333856C51.0523 0.350197 51.1211 0.366999 51.1897 0.383341C51.2588 0.364668 51.3278 0.346017 51.3969 0.327344C50.7383 0.294229 50.7606 0.327043 50.6236 0.326693C50.5542 0.326508 50.5101 0.314937 50.4855 0.309113C50.4798 0.308118 50.4742 0.306853 50.4685 0.305858ZM58.7645 0.288277C57.9782 0.28363 57.5286 0.333396 56.9597 0.292184C57.3246 0.379975 59.6812 0.289297 60.5118 0.362505C60.5979 0.348455 60.6839 0.334232 60.7699 0.320182C60.318 0.3327 60.0047 0.303537 59.7842 0.299346C59.609 0.296035 59.6266 0.310627 59.6132 0.310415H59.6121C59.202 0.304356 59.0746 0.290111 58.7645 0.288277ZM91.3217 0.321484C91.1104 0.299245 90.7407 0.301403 90.7364 0.333856C90.942 0.34325 91.1479 0.352459 91.3536 0.361854C91.312 0.353435 91.3576 0.325277 91.3217 0.321484ZM103.086 0.299346C102.921 0.288822 102.532 0.298024 102.7 0.326042C102.733 0.33081 103.117 0.311447 102.89 0.361854C103.268 0.361071 103.18 0.305421 103.086 0.299346ZM72.2016 0.354691C72.3401 0.353758 72.4785 0.353021 72.617 0.352087C72.6493 0.338984 72.6824 0.326123 72.7147 0.31302C72.5438 0.327046 72.3725 0.340665 72.2016 0.354691ZM93.1052 0.298695C93.2896 0.362817 93.6046 0.300687 93.9507 0.353389C94.0785 0.353796 94.2064 0.354285 94.3342 0.354691C94.3377 0.337193 94.3424 0.319449 94.3458 0.301951C93.9323 0.300893 93.5187 0.299753 93.1052 0.298695ZM63.5498 0.323438C63.6351 0.331562 63.7205 0.339405 63.8058 0.347529C63.9579 0.338048 64.1104 0.329013 64.2625 0.319531C64.1802 0.312735 64.0974 0.305491 64.015 0.298695C63.8599 0.306823 63.7049 0.31531 63.5498 0.323438ZM41.9239 0.326693C42.0769 0.331445 42.2299 0.336266 42.3828 0.341018C42.435 0.329298 42.4878 0.317577 42.54 0.305858C42.3347 0.312811 42.1292 0.31974 41.9239 0.326693ZM42.9543 0.333856C43.0767 0.336091 43.1995 0.338782 43.3218 0.341018C43.4041 0.335321 43.487 0.329135 43.5693 0.323438C43.4547 0.317781 43.3398 0.312165 43.2252 0.306509C43.135 0.315622 43.0445 0.324742 42.9543 0.333856ZM95.3528 0.293486C94.9056 0.285454 94.7373 0.340876 95.3093 0.341018C95.5504 0.341018 95.8214 0.30188 95.3528 0.293486ZM105.207 0.305858C105.189 0.317549 105.171 0.329326 105.153 0.341018C105.016 0.33866 104.879 0.336213 104.743 0.333856C104.777 0.322233 104.812 0.310318 104.846 0.298695C104.966 0.300973 105.087 0.30358 105.207 0.305858ZM99.5922 0.298695C99.4195 0.284697 98.7335 0.328515 99.3521 0.339716C99.7467 0.34683 99.618 0.300839 99.5922 0.298695ZM100.521 0.285022C99.8651 0.258176 100.357 0.394145 101.139 0.305858C100.355 0.317911 100.557 0.286886 100.521 0.285022ZM106.284 0.214701C106.301 0.215019 106.315 0.234164 106.446 0.234886C106.92 0.237422 107.546 0.245408 107.885 0.246606C108.7 0.249481 111.194 0.214113 111.488 0.270697C111.549 0.282545 111.411 0.317371 111.434 0.319531C111.506 0.324641 111.924 0.307662 111.847 0.333856C111.437 0.333652 111.028 0.333408 110.618 0.333205C110.719 0.314752 110.819 0.296312 110.92 0.277859C109.899 0.287722 110.236 0.286463 109.943 0.326693C109.77 0.311115 109.597 0.295391 109.424 0.279813C109.048 0.295473 108.672 0.311684 108.296 0.327344C108.381 0.315678 108.467 0.30385 108.552 0.292184C107.985 0.270554 108.142 0.284698 107.832 0.31302C107.831 0.301341 107.83 0.289539 107.83 0.277859C107.283 0.306282 107.176 0.27112 107.056 0.270697C106.811 0.270151 106.499 0.408018 105.564 0.270697C105.17 0.336826 105.178 0.202295 104.946 0.270697C104.279 0.196293 105.549 0.223304 106.149 0.22577C106.194 0.225919 106.124 0.213729 106.284 0.214701ZM102.854 0.283068C103.258 0.22237 101.662 0.216296 102.19 0.303904C102.269 0.306751 102.348 0.310173 102.426 0.31302C102.569 0.303093 102.712 0.292995 102.855 0.283068H102.854ZM87.8525 0.242699C86.3736 0.267642 87.2146 0.302847 87.7154 0.268744C87.8147 0.262008 87.8693 0.252366 87.8525 0.242699ZM57.6406 0.242048C57.6192 0.249275 57.5972 0.256308 57.5758 0.263535C58.0718 0.256717 59.0315 0.284652 59.0183 0.235537C58.5593 0.237531 58.0996 0.240054 57.6406 0.242048ZM61.5645 0.209492C61.4583 0.206538 61.0254 0.199788 61.0748 0.217956C61.2634 0.230977 61.4524 0.244003 61.641 0.257024C61.7287 0.248889 61.8166 0.241067 61.9044 0.232932C61.7819 0.230165 61.5937 0.210318 61.5645 0.209492Z" fill="#9A9A9A"/>
  </g>
  <defs>
    <clipPath id="clip0_1262_125">
      <rect width="124" height="2" fill="white"/>
    </clipPath>
  </defs>
</svg>
