<svg width="1140" height="2" viewBox="0 0 1140 2" fill="none" xmlns="http://www.w3.org/2000/svg">
  <path d="M1045.23 1.80665C1047.81 1.89684 1039.19 1.83772 1044.91 1.97241C1043.72 1.98151 1042.52 1.9909 1041.32 2C1041.02 1.95012 1040.71 1.90035 1040.41 1.85047C1042.01 1.83578 1043.61 1.8211 1045.23 1.80641C1045.23 1.80649 1045.23 1.80657 1045.23 1.80665ZM1047.42 1.18193C1045.95 1.3242 1041.28 1.36214 1046.32 1.49343C1046.72 1.4446 1047.14 1.39579 1047.54 1.34696C1049.29 1.38483 1051.06 1.42269 1052.82 1.46035C1053.46 1.44174 1054.09 1.4231 1054.72 1.40469C1055.53 1.48954 1056.33 1.57463 1057.14 1.65968C1056.42 1.64727 1055.7 1.63463 1054.98 1.62221C1052.14 1.69112 1049.63 1.70996 1045.8 1.72279C1046.14 1.74287 1046.47 1.76277 1046.81 1.78285C1044.86 1.7487 1042.93 1.71446 1041 1.68031C1042.67 1.64679 1044.55 1.60951 1046.1 1.57827C1043.61 1.44522 1039.23 1.51927 1036.96 1.54702C1033.86 1.5849 1034.56 1.52163 1032.27 1.54812C1031.91 1.55226 1031.86 1.60184 1031.14 1.60268C1027.49 1.60661 1020.45 1.58033 1024.57 1.46463C1030.55 1.47953 1035.67 1.38662 1041.59 1.42056C1040.03 1.28677 1043.14 1.24125 1047.42 1.18193ZM936.669 1.60793C938.503 1.54295 942.275 1.56917 944.795 1.61428C944.798 1.61428 944.801 1.61428 944.804 1.61428C945.353 1.62421 946.597 1.71056 944.804 1.70705C941.849 1.70102 940.39 1.56509 938.832 1.65737C938.133 1.64019 937.4 1.6249 936.669 1.60793ZM930.223 1.61599C928.408 1.58266 929.23 1.48024 931.505 1.50796C931.505 1.50788 931.505 1.5078 931.505 1.50771C932.456 1.51931 930.589 1.60026 933.998 1.51809C934.695 1.58202 935.381 1.64018 936.07 1.70204C935.234 1.70308 934.472 1.70475 933.596 1.70558C934.186 1.6005 932.038 1.64905 930.223 1.61599ZM1021.54 1.52248C1021.26 1.61702 1022.44 1.61642 1024.45 1.68202C1022.54 1.67892 1020.68 1.67561 1018.75 1.6725C1019.71 1.62243 1020.61 1.57255 1021.54 1.52248ZM1066.53 1.53713C1066.53 1.53713 1066.53 1.53713 1066.54 1.53713C1067.16 1.52223 1067.79 1.50727 1068.4 1.49258C1068.78 1.52632 1069.14 1.55991 1069.52 1.59365C1071.72 1.56198 1073.95 1.53031 1076.16 1.49844C1075.89 1.6015 1071.92 1.58473 1069.74 1.65676C1066.49 1.62571 1064.94 1.56588 1064.73 1.47854C1065.32 1.49799 1065.92 1.51768 1066.53 1.53713ZM532.79 1.12626C532.049 1.15482 531.316 1.1834 530.575 1.21195C531.561 1.22499 532.539 1.23493 533.533 1.25004C536.134 1.12586 536.373 1.2357 539.787 1.22807C550.245 1.20447 547.471 1.01161 556.911 1.2941C549.332 1.28066 552.244 1.4134 547.674 1.51565C546.728 1.43782 551.256 1.2623 548.188 1.22587C542.901 1.30823 537.807 1.38495 531.952 1.43814C532.123 1.45159 532.293 1.46509 532.465 1.47854C533.394 1.47006 534.315 1.46152 535.244 1.45303C534.242 1.48905 533.262 1.52475 532.243 1.56118C533.531 1.47943 530.248 1.52511 530.688 1.43118C530.883 1.38937 532.334 1.33137 533.19 1.29142C530.981 1.26969 528.716 1.24978 526.481 1.22868C527.639 1.19536 528.796 1.16202 529.945 1.12871C530.89 1.12767 531.828 1.12693 532.773 1.1259C532.779 1.12602 532.784 1.12614 532.79 1.12626ZM56.9988 1.56093C59.8158 1.46365 64.9132 1.44755 67.5852 1.55581C64.066 1.55746 60.542 1.55928 56.9988 1.56093ZM1064.52 1.40652C1064.83 1.42306 1065.14 1.43942 1065.45 1.45596C1064.06 1.48659 1062.66 1.517 1061.27 1.54763C1061.01 1.49984 1060.74 1.45203 1060.46 1.40445C1061.81 1.40507 1063.17 1.4059 1064.52 1.40652ZM974.734 1.45974C975.769 1.45685 975.86 1.45842 977.149 1.46524C977.148 1.4652 977.147 1.46516 977.145 1.46511C977.655 1.46766 981.939 1.49558 981.462 1.53237C979.333 1.53299 977.066 1.53237 974.897 1.53237C974.831 1.50817 974.816 1.48415 974.734 1.45974ZM999.467 1.48123C999.47 1.48131 999.473 1.48139 999.476 1.48147C1000.24 1.48706 1000.97 1.49844 1001.76 1.50051C998.911 1.55843 998.462 1.45452 995.882 1.48391C993.303 1.51351 991.713 1.57084 989.533 1.4285C990.343 1.40718 991.217 1.37668 992.053 1.35184C995.707 1.40875 996.695 1.35519 999.637 1.29911C999.58 1.35995 999.524 1.42038 999.467 1.48123ZM579.321 1.41421C580.023 1.34385 580.805 1.41289 580.887 1.41373C580.885 1.41381 580.884 1.41389 580.882 1.41397C587.097 1.3488 580.073 1.45292 585.939 1.46389C585.066 1.48148 584.208 1.50005 583.343 1.51785C582.005 1.48391 580.626 1.44546 579.321 1.41421ZM781.238 1.42081C781.295 1.4413 781.364 1.46183 781.421 1.48233C777.902 1.47756 777.006 1.55823 774.089 1.48477C776.469 1.46324 778.852 1.44188 781.238 1.42056C781.238 1.42064 781.238 1.42072 781.238 1.42081ZM956.934 1.3107C960.83 1.27158 963.721 1.25435 967.484 1.31644C967.487 1.31652 967.49 1.3166 967.493 1.31668C967.71 1.32051 966.661 1.36338 966.944 1.37418C967.72 1.36776 968.522 1.35791 969.308 1.35025C969.414 1.38458 969.516 1.41891 969.622 1.45303C967.41 1.4433 965.202 1.43358 962.99 1.42386C963.316 1.44393 963.651 1.46384 963.978 1.48391C962.1 1.49426 960.232 1.50457 958.36 1.51492C959.011 1.45864 959.661 1.40234 960.304 1.34586C959.18 1.33406 958.056 1.3227 956.934 1.3107ZM722.566 1.19657C723.187 1.21893 722.037 1.25642 723.001 1.27567C723.966 1.29468 725.745 1.25296 725.328 1.31607C724.028 1.32455 722.664 1.33428 721.342 1.34317C725.597 1.45698 729.855 1.354 729.92 1.49453C725.825 1.4581 722.465 1.47503 718.514 1.51394C718.677 1.40239 722.63 1.30593 720.141 1.20121C720.94 1.19976 721.781 1.19765 722.557 1.19682C722.56 1.19674 722.563 1.19665 722.566 1.19657ZM1121.55 0.00766718C1123.97 0.0161536 1129.53 -0.0293734 1132.61 0.0356199C1133.36 0.0516366 1135.89 0.259113 1135.88 0.286462C1135.81 0.378568 1132.72 0.391105 1136.02 0.451127C1134.91 0.45175 1133.83 0.455208 1132.73 0.456864C1132.93 0.518752 1133.13 0.580476 1133.31 0.642157C1134.66 0.632843 1136 0.623482 1137.35 0.61396C1137.41 0.634452 1137.48 0.654989 1137.55 0.675481C1132.71 0.675895 1135.57 0.754985 1133.06 0.828671C1135.37 0.86592 1137.69 0.902989 1140 0.940238C1138.67 0.935685 1137.1 0.932313 1135.93 0.926933C1135.77 1.03186 1138.57 1.00685 1139.05 1.02629C1141.74 1.13619 1128.01 1.08073 1126.91 1.23344C1129.09 1.25041 1131.39 1.26697 1133.63 1.28373C1132.98 1.30256 1132.33 1.32141 1131.69 1.34024C1126.62 1.23492 1120.95 1.1976 1115.1 1.132C1114.57 1.13634 1114.04 1.1408 1113.52 1.14494C1113.68 1.19232 1113.82 1.23952 1113.98 1.2869C1113.18 1.29249 1112.38 1.29803 1111.58 1.30362C1113.93 1.14757 1110.67 1.1497 1106.76 1.05449C1108.84 0.999649 1111.42 1.0329 1111.24 0.930717C1104.1 1.00933 1095.73 0.89823 1088.63 0.986989C1086.88 1.00893 1086.88 1.14074 1082.79 1.12858C1082.92 1.11409 1082.95 1.08794 1083.04 1.06889C1075.96 1.13202 1071.68 1.16976 1064.4 1.10539C1064.82 1.15277 1065.23 1.20034 1065.65 1.24772C1067.2 1.22412 1068.75 1.20015 1070.29 1.17655C1071.35 1.25479 1069.78 1.28931 1074.42 1.28849C1078.22 1.28787 1075.96 1.25332 1076.99 1.23014C1078.39 1.19849 1079.63 1.26075 1081.14 1.22538C1082.31 1.19827 1081.04 1.13371 1084.09 1.15007C1082.87 1.23369 1081.61 1.32004 1080.38 1.40469C1079.64 1.38586 1078.9 1.36673 1078.16 1.34769C1078.91 1.32533 1079.65 1.30327 1080.4 1.28092C1077.75 1.32107 1075.26 1.35894 1072.53 1.40054C1073.42 1.27966 1070.61 1.32498 1069.08 1.33927C1066.71 1.3616 1068.74 1.2784 1067.19 1.29227C1065.63 1.30635 1063.95 1.39929 1061.15 1.37943C1062.65 1.32562 1060.61 1.27737 1061.01 1.2277C1061.4 1.17803 1064.37 1.16704 1061.52 1.11284C1056.05 1.15403 1062 1.34317 1058.28 1.37381C1053.74 1.41065 1052.67 1.10234 1054.02 1.03606C1055.07 0.983898 1058.77 0.994389 1059.79 0.942435C1053.28 0.848676 1053.2 1.03377 1052.08 1.06999C1048.02 1.20183 1050.75 0.849946 1045.95 0.977224C1046.04 0.91142 1046.11 0.852235 1046.2 0.789123C1045.37 0.801126 1044.82 0.817079 1043.83 0.826596C1046.77 0.95481 1044.36 0.949315 1043.12 0.949515C1041.18 0.949929 1044.18 1.01247 1043.67 1.02861C1042.28 1.07182 1040.08 1.0522 1041.43 1.10869C1040.82 1.0824 1040.17 1.05604 1039.55 1.02996C1037.28 1.06271 1031.96 1.33736 1037.02 1.2819C1036.55 1.38394 1034.91 1.33489 1033.64 1.31937C1032.36 1.30386 1032.38 1.36885 1031.26 1.35684C1026.81 1.30882 1029.72 1.19766 1030.43 1.11052C1024.55 1.17054 1030.29 1.21025 1021.85 1.2504C1021.03 1.3214 1024.93 1.39715 1021.69 1.43814C1021.1 1.3148 1018.68 1.2262 1013.93 1.18522C1013.46 1.21358 1013 1.24219 1012.54 1.27054C1009.96 1.1567 1011.28 1.03832 1006.5 1.17948C1009.06 0.919724 1007.29 1.08591 1003.03 0.980153C1002.16 0.958834 1004.16 0.904941 1002.95 0.877619C1002.4 0.865298 1001.07 0.905978 999.737 0.874568C999.084 0.859045 996.036 0.758886 993.932 0.806456C995.476 0.932303 991.476 1.03936 994.906 1.14348C988.566 1.11781 984.154 1.17823 991.235 1.00664C989.629 0.968556 988.023 0.930633 986.421 0.892755C985.305 0.922768 984.18 0.952544 983.057 0.98235C982.874 0.878919 983.109 0.849904 978.611 0.868098C980.562 0.843686 982.476 0.818868 984.383 0.794249C984.448 0.773363 984.714 0.751655 984.65 0.731386C982.355 0.771112 975.583 0.788209 973.968 0.815733C972.342 0.843262 975.483 0.850796 975.015 0.877497C971.113 1.09768 971.424 0.935286 968.632 0.973073C966.994 0.995428 970.905 1.0197 970.029 1.02922C966.778 1.06412 965.274 0.947101 962.403 0.945609C963.422 1.01203 964.435 1.07948 965.432 1.14653C962.415 1.14301 959.063 1.14242 956.275 1.16374C955.181 1.17206 956.008 1.22146 955.829 1.22477C954.941 1.24174 951.34 1.26863 950.959 1.26884C948.093 1.26923 948.012 1.20081 945.234 1.19706C946.324 1.19127 947.35 1.18605 948.418 1.18046C948.903 1.06953 949.399 0.958606 949.885 0.847469C947.146 0.839398 944.468 0.831494 941.656 0.823423C943.703 0.860467 945.701 0.897335 947.698 0.934379C944.6 1.024 941.402 1.11383 938.232 1.20365C936.58 1.1486 934.938 1.09355 933.291 1.0385C928.82 1.05302 929.722 1.27651 927.605 1.08073C926.291 1.09728 924.978 1.11383 923.666 1.13017C923.853 1.10224 924.039 1.07425 924.226 1.04631C922.645 1.06349 921.066 1.08056 919.488 1.09795C921.147 1.19687 922.775 1.30097 924.422 1.397C921.31 1.4185 921.253 1.33458 920.789 1.31363C919.56 1.25816 917.124 1.33298 916.151 1.28165C915.821 1.26403 918.859 1.20878 917.812 1.14506C917.607 1.13271 913.54 0.898484 910.955 0.952567C911.004 0.994999 911.204 1.04703 911.309 1.09318C907.841 1.11896 906.033 0.897469 906.501 0.835385C904.615 0.878848 901.865 0.88248 901.479 0.950369C900.518 0.952025 899.566 0.953596 898.606 0.955252C899.605 0.789909 895.606 0.820143 895.345 0.962332C896.99 0.965851 898.64 0.969555 900.289 0.973073C899.045 1.14735 904.043 1.25255 893.636 1.09111C891.648 1.00045 897.17 1.10346 895.55 1.03557C892.735 0.996055 890.097 1.02912 887.432 0.965994C884.12 0.887138 888.188 0.811293 880.483 0.911675C897.492 1.16316 878.152 1.08156 870.177 1.15959C867.957 0.911205 861.134 0.832533 851.825 0.906426C852.795 0.975555 855.726 0.939939 857.419 0.962698C859.111 0.985463 857.279 1.02647 859.388 1.05876C861.497 1.09104 865.989 1.13493 868.135 1.18376C866.313 1.22288 857.372 1.31538 863.285 1.20426C858.87 1.13577 856.8 1.06538 851.356 1.05254C849.728 1.16037 849.844 1.22752 844.554 1.23063C847.681 1.08078 841.674 0.976641 842.997 0.821836C846.745 0.857892 844.65 1.00835 846.819 1.08037C847.041 1.08757 850.541 1.04985 851.356 1.05254C847.821 0.917377 846.602 0.867068 848.774 0.706241C846.276 0.720316 844.726 0.700125 844.498 0.776916C843.978 0.743602 843.456 0.71026 842.945 0.676946C842.134 0.677775 841.404 0.680859 840.546 0.680241C841.729 0.796077 839.436 0.724769 837.809 0.777282C836.175 0.829857 838.391 0.921297 833.854 0.922539C835.364 0.949654 836.757 0.972919 838.189 0.998585C835.312 1.02839 832.343 1.05838 829.433 1.08818C831.481 1.15896 835.933 1.26409 835.812 1.35721C834.462 1.32205 829.853 1.38384 829.35 1.38638C827.399 1.3959 828.462 1.33718 828.315 1.33573C825.251 1.30719 822.735 1.32718 821.575 1.2382C819.28 1.27835 817.552 1.25546 815.125 1.25773C813.789 1.25897 814.049 1.32433 813.268 1.31192C808.082 1.22914 813.011 1.14467 803.03 1.30545C804.237 1.35099 805.429 1.39756 806.638 1.44351C805.51 1.46069 804.39 1.47796 803.263 1.49514C802.511 1.48686 801.761 1.47852 800.995 1.47024C801.011 1.37152 801.031 1.27259 801.047 1.17387C800.209 1.16849 799.369 1.16326 798.532 1.15788C799.964 1.14815 801.421 1.13843 802.836 1.12871C802.966 1.11133 803.086 1.09396 803.216 1.07658C801.114 1.04968 798.962 1.02253 796.836 0.995411C796.795 1.02975 796.754 1.06434 796.713 1.09868C791.911 1.05087 791.797 1.02179 787.246 1.11638C783.742 1.11534 780.896 1.25893 778.878 1.31937C778.153 1.30012 777.428 1.28063 776.697 1.26139C776.233 1.28995 775.765 1.31839 775.301 1.34696C774.383 1.30722 773.452 1.26747 772.535 1.22794C772.024 1.31814 771.757 1.3463 775.34 1.37796C774.102 1.49014 767.84 1.44065 765.218 1.40298C763.253 1.3744 765.434 1.28083 765.188 1.26945C764.366 1.23078 761.129 1.26414 760.45 1.25773C757.577 1.23103 755.566 1.2357 752.978 1.215C752.474 1.21086 751.066 1.15156 750.947 1.1497C750.016 1.13956 747.722 1.11074 747.462 1.10991C734.026 1.06564 748.372 1.32292 735.897 1.29581C736.27 1.32974 736.614 1.36344 736.979 1.39737C736.037 1.39944 735.089 1.4014 734.143 1.40347C732.938 1.37512 734.396 1.32355 732.003 1.36514C732.158 1.32334 732.315 1.28151 732.479 1.23991C731.438 1.26247 730.435 1.28485 729.37 1.30741C727.698 1.16232 721.61 1.12937 722.043 0.959036C722.19 0.90108 726.506 0.841612 724.225 0.779724C722.372 0.767541 723.626 0.836758 722.87 0.84039C717.413 0.865642 717.733 0.768621 715.505 0.794493C715.155 0.836074 714.786 0.878469 714.428 0.920464C713.589 0.908258 712.747 0.89605 711.9 0.883844C711.705 0.911787 711.501 0.93976 711.306 0.967703C712.096 0.969565 712.986 0.971455 713.711 0.973318C712.696 1.08155 703.423 1.13016 706.959 1.03789C708.399 1.00043 711.038 1.01635 709.37 0.888483C706.887 0.906903 704.073 0.925724 701.466 0.944144C701.385 0.916615 701.309 0.889036 701.228 0.861507C697.688 0.879327 700.908 0.989394 700.902 1.04839C700.091 1.05004 699.272 1.05149 698.462 1.05315C698.119 1.02647 697.792 0.998554 697.433 0.972707C697.4 1.01516 696.946 1.11382 694.533 1.07719C692.982 1.05335 695.424 0.94626 692.467 0.961111C692.688 1.02733 693.756 1.10799 690.464 1.12932C690.137 1.0602 689.685 0.996883 689.432 0.924248C685.341 0.990646 683.48 0.883914 678.688 0.961111C675.648 1.00996 671.49 1.18337 669.53 0.916192C667.312 0.909158 668.014 0.975693 667.354 0.990651C664.237 1.06144 661.92 0.934751 661.34 0.927299C657.639 0.879534 655.981 0.923388 652.97 0.863582C653.133 0.913051 653.222 0.959878 653.353 1.00811C656.112 0.934005 657.509 0.937483 661.384 0.953421C660.084 0.963354 658.785 0.973516 657.487 0.983449C657.699 1.02359 657.909 1.06375 658.113 1.10368C670.097 0.945546 667.299 1.19539 657.256 1.25004C656.39 1.17574 655.493 1.10165 654.636 1.02715C648.841 1.13974 646.116 1.042 639.575 1.0186C638.797 1.01593 635.969 1.05872 634.748 1.06084C634.769 1.06112 634.789 1.06141 634.809 1.06169C634.05 1.13185 635.079 1.16414 635.202 1.22684C634.54 1.23471 633.877 1.24254 633.215 1.2504C631.737 1.2026 632.256 1.16334 629.348 1.17472C629.741 1.22232 630.128 1.26994 630.52 1.31754C627.333 1.31919 625.249 1.26748 622.286 1.28983C622.784 1.27182 623.276 1.25376 623.774 1.23576C617.325 1.1898 622.456 0.90994 617.585 1.04924C617.275 1.02483 616.973 1.00017 616.663 0.975759C618.67 0.969757 620.678 0.963939 622.677 0.957937C622.718 0.923385 622.762 0.88898 622.795 0.854427C620.648 0.864776 618.491 0.875448 616.346 0.885798C617.912 0.862615 619.488 0.839403 621.055 0.816221C618.566 0.799664 616.077 0.783097 613.59 0.766541C616.231 0.893599 612.807 0.909137 613.451 1.03496C609.044 0.930226 605.598 0.792166 598.761 0.880549C597.406 0.898155 598.142 0.986082 594.298 0.879084C595.228 1.01899 590.412 1.08464 591.031 1.21769C592.369 1.21128 593.757 1.20724 595.055 1.19938C593.577 1.15323 593.332 1.02626 595.577 0.988576C598.442 0.940558 602.622 1.02855 602.451 0.887628C603.592 0.89425 604.653 0.898156 605.761 0.903741C605.304 0.9387 604.858 0.973879 604.41 1.00884C607.562 0.95403 609.544 0.971853 611.061 1.05998C607.3 1.08026 603.561 1.10033 599.792 1.1204C600.347 1.1264 600.909 1.13244 601.463 1.13823C598.613 1.22826 601.553 1.31355 596.238 1.3328C596.27 1.29162 596.297 1.25041 596.329 1.20902C594.394 1.31914 589.098 1.31854 590.788 1.44522C589.188 1.40631 588.862 1.3817 587.957 1.44998C583.738 1.35373 581.029 1.23202 582.53 1.08672C580.964 1.1101 579.397 1.13352 577.839 1.1569C578.744 1.19663 579.651 1.23618 580.556 1.27591C577.831 1.27343 575.087 1.27099 572.37 1.26871C572.109 1.15116 577.615 1.23305 576.026 1.12797C575.708 1.10688 574.242 1.15206 573.857 1.14018C569.795 1.01165 576.172 1.10451 574.974 1.00603C568.921 0.975604 573.765 0.810591 565.428 0.949271C565.207 0.915333 564.971 0.880712 564.767 0.846981C561.873 0.844944 562.107 0.921602 559.619 0.936088C558.061 0.9451 556.106 0.810489 554.385 0.902154C554.078 0.919054 556.973 1.08358 550.888 1.07634C546.165 1.07073 548.131 0.954459 545.578 0.913262C543.025 0.872072 537.172 1.03329 535.457 0.850521C536.792 0.874728 538.497 0.887788 539.983 0.907647C540.587 0.872051 541.175 0.83684 541.771 0.801451C538.373 0.847399 534.868 0.793245 532.586 0.878107C528.062 0.748329 522.999 0.868762 524.369 1.01531C525.859 0.994179 524.238 0.930278 526.308 0.970998C526.52 1.00515 526.743 1.03914 526.955 1.07329C523.432 1.06915 520.984 1.07011 522.591 0.965994C522.044 0.96351 521.503 0.961032 520.956 0.958548C520.858 1.03389 520.771 1.10951 520.673 1.18485C520.021 1.19334 519.365 1.20176 518.712 1.21024C517.986 1.1937 517.258 1.17695 516.524 1.1602C517.512 1.04097 519.195 1.03704 513.626 0.970388C513.61 1.01158 513.586 1.0526 513.57 1.09379C508.909 1.04143 508.775 0.941651 502.93 0.945365C507.411 0.802356 509.88 1.05586 509.861 0.768982C510.988 0.787818 512.125 0.806906 513.252 0.825742C513.423 0.784138 513.593 0.742474 513.757 0.70087C507.696 0.722815 497.67 0.996424 493.626 0.815C493.137 0.83714 492.646 0.856386 492.149 0.880183C488.185 0.770687 486.472 1.01651 482.446 0.874934C482.03 0.860075 482.901 0.629121 477.655 0.637397C477.786 0.667414 477.854 0.717935 477.96 0.755799C476.825 0.737384 475.694 0.718113 474.566 0.699283C474.361 0.727008 474.147 0.754722 473.942 0.782653C475.881 0.793416 477.814 0.804359 479.751 0.815122C478.141 0.82464 476.521 0.834168 474.91 0.843685C477.012 0.888999 477.959 0.88948 476.693 0.962088C474.871 0.966434 473.037 0.971046 471.222 0.975393C471.035 0.993996 470.849 1.01282 470.663 1.03142C471.54 1.08689 472.43 1.14113 473.315 1.19743C468.573 1.1521 464.473 1.14964 460.836 1.04057C460.216 1.02215 462.408 0.949891 458.186 1.01506C458.12 0.976791 458.007 0.945713 457.934 0.910332C452.762 1.01755 451.061 0.985548 445.656 0.908135C449.156 0.980373 446.034 0.933391 445.142 0.972097C444.531 0.998764 446.915 0.994824 446.645 1.02275C446.376 1.05049 443.277 1.16247 445.926 1.17594C452.418 0.946398 454.186 1.22084 462.499 1.11052C461.22 1.14012 459.931 1.16978 458.651 1.19938C459.253 1.21944 459.793 1.23764 460.445 1.25895C455.807 1.21404 458.062 1.24322 456.156 1.2786C454.247 1.31399 450.775 1.34406 448.445 1.35379C447.711 1.35685 448.485 1.30536 446.828 1.30057C445.701 1.29726 442.615 1.37358 441.902 1.2836C441.435 1.22503 446.396 1.06375 439.536 1.06413C438.245 1.00671 441.535 1.02455 441.605 1.01763C442.203 0.949322 437.984 0.897965 436.059 0.950125C435.902 0.954625 437.43 1.00785 435.769 1.02873C431.825 1.07862 429.544 1.01758 426.986 0.934989C426.708 1.03186 423.383 1.14755 419.234 1.11174C419.022 1.13946 418.82 1.16742 418.607 1.19535C419.252 1.18068 419.896 1.1662 420.54 1.15153C421.242 1.16892 421.985 1.18157 422.671 1.20207C418.502 1.22589 417.91 1.35939 415.907 1.40823C409.05 1.57509 413.206 1.22213 414.443 1.1613C415.335 1.18593 416.196 1.21342 417.079 1.2393C416.981 1.20556 416.882 1.17156 416.792 1.13762C406.527 1.13865 415.23 0.918608 410.016 0.855892C408.672 1.02188 404.838 1.03788 400.005 0.932548C399.468 0.933376 398.93 0.933588 398.393 0.934623C398.304 0.958826 398.305 0.995821 398.159 1.01177C392.317 1.03992 391.269 0.784289 390.716 0.760071C388.253 0.652664 386.332 0.801276 385.605 0.80255C382.541 0.807724 381.65 0.741737 378.727 0.770081C375.582 0.800707 377.733 0.85134 376.776 0.896661C376.008 0.932653 373.524 0.939063 372.497 0.976369C372.905 0.945857 373.358 0.915936 373.765 0.885309C370.494 0.843713 367.888 0.803169 364.207 0.793029C360.061 1.01628 356.521 0.63968 357.956 0.945121C361.444 0.966026 363.389 1.00083 365.251 1.07866C362.967 1.08859 360.679 1.09827 358.39 1.1082C357.722 1.07468 357.248 1.04201 356.457 1.00786C354.745 1.07905 350.77 1.0485 349.206 1.06938C341.882 1.16728 344.141 1.28871 337.447 1.08464C342.269 1.06476 342.271 0.965641 347.052 0.979299C346.021 0.908512 343.589 0.923178 345.162 0.838315C340.532 0.859217 342.028 0.934983 340.224 1.00225C338.655 1.06023 335.561 1.06348 335.736 1.13884C335.42 1.09741 335.175 1.0573 334.859 1.01592C331.892 1.01633 328.919 1.01636 325.94 1.01677C327.21 0.973519 328.478 0.930187 329.746 0.88714C328.788 0.870804 327.828 0.854529 326.868 0.838192C319.556 0.97273 306.829 0.726157 308.86 1.06413C305.301 1.0749 304.843 1.03251 302.917 0.968557C302.707 0.994215 302.502 1.01556 302.292 1.04411C300.026 1.01725 298.283 1.11359 296.278 1.08855C294.273 1.0637 293.774 0.972706 293.482 1.12565C292.181 1.08178 290.887 1.04534 289.592 1.00457C288.811 1.03931 288.03 1.07366 287.256 1.1082C286.033 1.08999 284.806 1.07185 283.58 1.05364C282.927 1.12665 278.103 1.09518 275.97 1.14421C273.945 1.06551 274.004 0.817713 269.229 0.862117C269.352 0.923575 269.474 0.984854 269.597 1.04631C268.497 1.03348 267.419 1.02069 266.336 1.00786C266.271 0.987803 266.215 0.967743 266.15 0.947684C266.7 0.953892 267.243 0.960067 267.793 0.966482C267.315 0.932536 266.848 0.898748 266.379 0.864802C264.736 0.915091 263.09 0.965385 261.435 1.01567C263.665 1.05375 265.893 1.09185 268.116 1.12993C265.326 1.17505 263.381 1.13004 260.946 1.18034C258.828 1.09549 259.61 1.0466 260.471 0.95452C259.684 0.962382 258.887 0.969972 258.099 0.977834C258.618 0.885742 257.289 0.83087 261.889 0.838315C261.573 0.812048 261.25 0.787005 260.942 0.759705C260.188 0.763844 259.698 0.741642 258.87 0.751771C256.611 0.779507 254.876 0.941261 255.03 0.997975C255.114 1.02768 257.344 0.970869 257.254 1.01287C257.033 1.11528 251.921 1.0693 259.294 1.17216C256.849 1.23736 256.302 1.18819 253.598 1.16935C253.81 1.20348 254.016 1.23739 254.219 1.27152C252.966 1.2558 251.709 1.24013 250.453 1.2244C252.201 1.0491 242.933 0.983251 251.275 0.829892C248.812 0.822028 246.353 0.814123 243.889 0.805845C244.396 0.787842 244.904 0.770019 245.411 0.752015C246.524 0.761535 247.628 0.770899 248.739 0.780212C247.433 0.747312 246.123 0.714606 244.814 0.681706C241.72 0.722482 240.503 0.785195 239.083 0.862605C242.692 0.919095 241.513 0.841932 244.321 0.826596C244.223 0.87562 244.352 0.920713 244.107 0.972219C242.659 0.870674 237.918 0.944548 236.815 0.949515C233.462 0.964598 236.092 0.864825 233.848 0.862727C231.583 0.860658 229.021 0.920042 227.204 0.821103C227.237 0.876558 227.381 0.933933 227.511 0.984425C224.067 1.00264 224.752 0.937128 224.396 0.928642C218.697 0.789139 215.597 0.906914 209.029 0.921196C209.863 0.938373 210.706 0.953879 211.548 0.970022C206.592 1.08776 209.935 1.05171 214.228 1.09062C210.204 1.07882 207.892 1.1791 205.038 1.2089C202.188 1.23866 197.265 1.18716 195.482 1.14701C199.581 1.08244 204.016 1.12502 208.549 1.10722C208.033 1.05073 207.532 1.00292 207 0.940848C204.238 1.05942 202.634 0.980137 201.722 0.964407C199.042 0.918272 199.125 1.02004 197.503 0.910577C197.569 0.948232 197.618 0.979893 197.683 1.01506C192.177 0.999334 186.346 0.932762 182.769 1.07182C182.444 0.98138 182.198 0.894244 181.824 0.801939C179.505 0.870021 177.514 0.800303 175.554 0.816221C173.601 0.832158 174.346 0.90525 172.047 0.933403C171.621 0.938577 170.734 0.892828 169.685 0.926567C168.627 0.960484 164.712 1.21267 164.242 0.99236C162.261 0.991324 160.379 0.983268 158.437 0.979543C160.329 0.967125 162.228 0.955097 164.111 0.942679C162.499 0.889284 160.895 0.836048 159.278 0.782653C159.072 0.83026 158.865 0.878727 158.667 0.925713C154.402 0.983667 151.305 0.905831 146.975 0.924248C146.252 0.927352 147.959 1.02147 144.749 0.997486C141.534 0.973478 139.149 0.797802 133.64 0.865657C133.362 0.869176 131.73 1.00372 129.751 0.910577C129.301 0.889466 131.196 0.85823 130.163 0.830502C129.13 0.802766 124.506 0.779959 124.142 0.713931C124.191 0.737314 124.48 0.761542 124.62 0.785339C123.83 0.796512 123.031 0.807695 122.231 0.818662C122.157 0.777478 122.077 0.736233 122.003 0.695255C117.472 0.791085 115.23 0.947409 108.579 0.895685C110.447 0.955498 112.312 1.01555 114.165 1.07536C114.674 1.03335 115.185 0.991045 115.686 0.949027C118.723 0.96579 121.801 0.982432 124.919 0.999195C125.429 0.951382 125.931 0.903705 126.441 0.855892C127.263 0.8621 128.077 0.868116 128.898 0.874323C128.693 0.908888 128.486 0.94327 128.272 0.977834C129.899 0.96935 131.525 0.960685 133.138 0.9522C129.857 1.15623 123.94 0.934846 124.366 1.10551C123.633 1.07903 122.899 1.05237 122.165 1.02568C121.845 1.10844 120.339 1.08462 117.779 1.07158C118.368 1.11236 119.018 1.15258 119.559 1.19377C117.06 1.13623 112.612 1.14182 110.006 1.11967C108.862 1.10995 110.005 1.04995 109.665 1.04289C107.921 1.00605 104.578 1.11074 103.877 1.10246C99.6888 1.05319 96.9598 0.854714 92.3587 0.985524C97.1058 1.01781 94.5229 1.00418 96.2103 1.07683C96.7385 1.09961 102.856 1.14712 95.1937 1.12602C94.3099 1.12338 80.3169 0.986246 84.9172 0.881159C82.6491 0.914691 80.8668 0.953462 78.8482 0.989064C73.874 0.712118 75.5942 0.972289 77.0412 1.11552C76.2253 1.11614 75.4485 1.1176 74.6071 1.1176C76.3983 0.967119 67.2796 0.957776 64.1599 1.03374C63.1174 1.05899 66.0325 1.10716 63.6216 1.12993C62.4732 1.11937 61.1689 1.10571 59.9525 1.09392C61.7165 1.18912 58.2544 1.22581 58.3021 1.32267C56.0865 1.23636 54.3868 1.05343 55.6071 0.954276C53.7728 0.994423 51.9256 1.03452 50.0847 1.07487C50.9396 1.09785 51.8048 1.12062 52.6582 1.1436C46.652 1.08274 38.8721 1.22122 37.6921 1.01775C36.9093 1.0192 36.1176 1.02045 35.3336 1.0219C35.0911 1.05626 34.8567 1.09068 34.6141 1.12504C31.065 1.09524 27.5116 1.06525 23.9377 1.03545C27.1185 1.01413 27.8745 0.965219 31.1975 1.00493C29.9175 0.965415 28.6121 0.925681 27.3533 0.886164C22.3347 0.992552 21.6573 1.06247 14.0512 1.03081C13.7097 1.02936 7.9448 0.940143 7.74464 0.93145C6.83964 0.891712 8.21338 0.833982 7.81042 0.813902C6.69546 0.757602 -0.127151 0.616238 0.00189632 0.594918C1.7128 0.33329 24.5365 0.329822 30.5841 0.316368C94.0587 0.176868 156.546 0.363501 219.72 0.331626C220.368 0.331132 220.086 0.29251 220.362 0.290856C222.077 0.281156 223.759 0.341349 224.392 0.343832C225.743 0.34895 224.999 0.293337 225.986 0.293298C236.118 0.293919 246.036 0.326621 256.236 0.3171C256.903 0.316479 256.222 0.360974 257.393 0.353109C257.997 0.348802 259.888 0.280538 261.249 0.279504C265.992 0.275987 270.002 0.297872 275.087 0.296837C277.86 0.29622 282.011 0.302022 285.095 0.300988C286.457 0.300548 287.875 0.269318 289.219 0.268274C291.125 0.266826 290.735 0.330134 291.028 0.334067C292.314 0.351243 292.492 0.281757 293.711 0.28341C295.978 0.286722 296.101 0.333115 298.972 0.329184C301.012 0.326287 305.738 0.289657 308.366 0.278894C314.49 0.332705 322.167 0.311342 327.827 0.293542C331.177 0.28299 331.485 0.347945 332.849 0.347738C337.631 0.34648 341.34 0.263519 345.891 0.260828C351.934 0.257323 357.269 0.31218 363.084 0.316124C364.027 0.316744 363.811 0.257229 364.735 0.255702C368.161 0.250113 372.51 0.239281 375.605 0.247768C379.031 0.257094 380.293 0.343481 383.637 0.325889C384.617 0.320665 384.904 0.24492 386.545 0.235195C389.167 0.219902 392.036 0.286697 393.86 0.294152C396.36 0.304087 394.187 0.226921 397.556 0.23727C397.695 0.237717 398.199 0.292878 398.922 0.290246C401.027 0.282795 400.819 0.239356 403.897 0.243495C404.183 0.244067 408.295 0.296627 408.707 0.296837C411.116 0.297665 415.958 0.316067 417.38 0.304894C422.46 0.265153 418.462 0.182187 422.779 0.362264C424.68 0.318188 426.563 0.273513 428.575 0.230679C427.233 0.270626 432.679 0.328271 433.06 0.324546C436.222 0.294526 434.34 0.22446 438.345 0.236049C433.045 0.397912 443.539 0.256912 445.896 0.252772C457.212 0.232701 467.38 0.273093 478.753 0.272058C482.554 0.271634 487.642 0.237419 491.653 0.238247C492.588 0.238296 491.882 0.276602 492.705 0.277429C493.526 0.277997 492.615 0.234995 493.552 0.23727C499.385 0.252178 503.927 0.333317 509.291 0.231899C509.551 0.246563 509.543 0.258149 509.974 0.274256C514.354 0.183398 522.779 0.305583 525.943 0.322349C530.892 0.348414 532.155 0.287 535.748 0.299401C540.502 0.315959 547.652 0.435938 544.46 0.23788C547.725 0.231673 550.867 0.229959 554.163 0.248378C554.53 0.250466 554.277 0.300807 554.424 0.301842C555.354 0.30907 555.656 0.263997 556.285 0.261927C557.988 0.25636 555.208 0.310328 557.637 0.295251C558.918 0.287179 559.645 0.247866 563.202 0.247035C584.642 0.242689 607.911 0.256768 629.906 0.263392C631.417 0.263806 630.422 0.215123 632.318 0.218228C638.901 0.229001 650.642 0.31093 656.324 0.299767C662.001 0.288591 660.721 0.217399 664.277 0.18759C664.964 0.181794 664.4 0.222368 665.022 0.222989C669.215 0.226718 674.145 0.290002 677.525 0.299523C679.755 0.305902 679.577 0.242074 681.125 0.237514C683.433 0.230891 685.81 0.295378 687.043 0.297448C692.836 0.30654 696.844 0.2546 702.254 0.281091C702.043 0.267044 701.904 0.25404 701.726 0.2402C708.103 0.242476 714.487 0.244759 720.898 0.247035C720.596 0.234202 720.304 0.221259 720.002 0.208219C727.525 0.215262 726.672 0.354349 726.008 0.0606431C726.556 0.0502961 727.137 0.0383028 727.66 0.0287843C727.435 0.18008 732.046 0.2908 737.788 0.329307C738.21 0.332204 741.046 0.184687 740.738 0.358968C741.477 0.316331 741.919 0.286939 742.545 0.249476C743.765 0.302241 745.002 0.354382 746.224 0.406939C746.884 0.399076 747.553 0.391488 748.213 0.383625C748.311 0.349473 748.236 0.314012 748.448 0.280481C751.511 0.275307 757.811 0.317528 760.245 0.313194C766.308 0.302224 772.407 0.209887 777.074 0.309654C779.349 0.299483 777.088 0.232451 780.474 0.240932C780.857 0.274869 781.217 0.307397 781.616 0.342367C784.387 0.190736 784.965 0.282977 788.77 0.314659C791.344 0.336183 793.032 0.299124 795.49 0.306358C796.113 0.308221 796.025 0.352727 796.451 0.351278C797.874 0.346688 801.972 0.285432 802.957 0.283777C811.983 0.267635 819.78 0.274506 828.472 0.290856C829.406 0.292512 828.195 0.24859 829.162 0.250453C830.718 0.253377 829.803 0.320869 830.704 0.32418C833.221 0.333036 833.241 0.261868 836.757 0.258143C848.144 0.245939 861.404 0.299401 873.472 0.304161C873.844 0.304161 873.822 0.262463 874.227 0.262049C876.865 0.26001 879.541 0.316376 881.946 0.315757C885.937 0.314929 888.945 0.256349 892.909 0.256556C900.644 0.256763 907.685 0.286758 915.532 0.288415C922.008 0.289864 927.658 0.284302 934.833 0.284509C965.979 0.285337 997.806 0.15298 1029.23 0.223355C1030.03 0.225216 1029.71 0.262058 1029.95 0.260462C1032.25 0.244525 1032.46 0.194816 1033.28 0.298913C1036.22 0.278397 1037.15 0.20019 1040.72 0.205778C1042.62 0.208707 1041.2 0.329921 1044.42 0.26742C1047.34 0.210919 1044.11 0.144488 1052.81 0.212369C1053.04 0.214235 1054.17 0.28812 1055.99 0.268885C1057.8 0.249842 1055.73 0.196936 1060.06 0.180998C1070.12 0.143745 1082.99 0.207612 1094.97 0.187956C1095.75 0.186714 1102.88 0.147214 1104.26 0.128999C1106.97 0.0936063 1106.4 0.0387007 1109.92 0.0252445C1112.65 0.0148952 1114.9 0.0770903 1118.12 0.0646712C1118.5 0.0631618 1119.12 -0.000813246 1121.55 0.00766718ZM520.965 1.25028C520.295 1.31305 519.089 1.54409 515.04 1.47378C514.657 1.46716 516.728 1.30827 514.492 1.28299C516.68 1.26623 518.811 1.2608 520.965 1.25004C520.965 1.25012 520.965 1.2502 520.965 1.25028ZM1139.22 1.48086C1136.15 1.46927 1133.08 1.45779 1130.03 1.44619C1132.13 1.41825 1134.25 1.39036 1136.35 1.36221C1137.31 1.40174 1138.26 1.44133 1139.22 1.48086ZM762.309 1.37112C762.312 1.37112 762.315 1.37112 762.318 1.37112C759.123 1.40093 755.932 1.43079 752.747 1.4606C753.082 1.43866 753.418 1.41662 753.752 1.39468C756.268 1.36012 758.787 1.32561 761.301 1.29105C761.636 1.31775 761.974 1.34443 762.309 1.37112ZM787.425 1.13884C789.459 1.16492 788.961 1.2089 790.081 1.25175C790.081 1.25166 790.081 1.25158 790.081 1.2515C790.377 1.26266 791.754 1.27242 792.287 1.27408C792.091 1.24655 791.837 1.21938 791.624 1.19206C796.377 1.12541 805.701 1.36225 793.639 1.45767C793.82 1.4229 793.992 1.38831 794.172 1.35355C788.183 1.36327 781.54 1.28786 787.425 1.13884ZM472.987 1.35037C467.899 1.46422 466.282 1.48822 460.11 1.41019C460.982 1.37792 461.854 1.34566 462.725 1.31339C463.743 1.3463 464.754 1.37898 465.771 1.41189C465.774 1.41189 465.777 1.41189 465.78 1.41189C465.984 1.37733 466.188 1.3427 466.383 1.30814C468.583 1.32221 470.779 1.3363 472.987 1.35037ZM982.399 1.22111C983.788 1.44847 983.448 1.31631 979.344 1.36759C977.927 1.38539 979.308 1.42517 978.426 1.43179C973.669 1.46797 973.295 1.31564 974.354 1.23637C977.033 1.23098 979.786 1.22608 982.391 1.22111C982.393 1.22111 982.396 1.22111 982.399 1.22111ZM1104.69 1.17387C1104.69 1.17387 1104.69 1.17387 1104.69 1.17387C1104.82 1.22933 1102.93 1.24424 1105.06 1.29679C1103.44 1.29658 1101.83 1.29614 1100.21 1.29593C1100.68 1.29077 1101.17 1.28584 1101.64 1.28068C1101.22 1.26163 1100.8 1.24235 1100.38 1.22331C1099.81 1.28705 1099.31 1.25 1097.56 1.22868C1098.04 1.29677 1098.52 1.36492 1098.99 1.43301C1096.98 1.41273 1094.95 1.39238 1092.95 1.3721C1092.92 1.35494 1092.9 1.33775 1092.87 1.32059C1092.11 1.34252 1091.37 1.36469 1090.61 1.38663C1090.4 1.36614 1090.21 1.34584 1090 1.32535C1089.09 1.34087 1088.18 1.35638 1087.26 1.3721C1086.99 1.32247 1088.99 1.30103 1085.44 1.31363C1086.53 1.26272 1087.62 1.21196 1088.72 1.16105C1094.06 1.16519 1099.48 1.16952 1104.69 1.17387ZM945.514 1.29105C951.31 1.28153 949.68 1.3175 948.336 1.43008C947.398 1.38373 946.451 1.3374 945.514 1.29105ZM644.065 1.19084C642.37 1.26763 640.668 1.34365 638.933 1.41775C635.485 1.4606 632.014 1.32063 634.622 1.26578C637.753 1.19997 641.016 1.27363 644.065 1.19084ZM565.275 1.22501C569.507 1.26062 565.526 1.35187 564.571 1.40506C563.401 1.31957 561.768 1.32711 559.146 1.31717C561.608 1.31163 564.576 1.21897 565.275 1.22477C565.275 1.22485 565.275 1.22493 565.275 1.22501ZM712.174 1.27714C713.867 1.27484 715.553 1.25339 717.07 1.27945C716.612 1.35288 713.58 1.28608 715.749 1.39493C714.664 1.39679 713.579 1.3986 712.504 1.40066C713.187 1.35557 712.268 1.32186 712.178 1.27738C712.177 1.2773 712.175 1.27722 712.174 1.27714ZM888.753 1.37759C885.427 1.29066 884.798 1.32786 881.457 1.38809C880.986 1.31731 884.968 1.19875 887.472 1.17265C887.896 1.24095 888.321 1.30929 888.753 1.37759ZM101.414 1.34134C102.215 1.25112 108.101 1.23936 111.009 1.26603C110.662 1.27941 110.314 1.29297 109.967 1.30655C107.128 1.31814 104.269 1.32975 101.414 1.34134ZM557.898 1.31107C558.337 1.31371 558.753 1.31568 559.146 1.31717C558.709 1.31816 558.287 1.31662 557.898 1.31107ZM380.66 0.919487C382.058 0.834426 377.901 0.805848 382.948 0.839169C382.948 0.839088 382.948 0.839006 382.948 0.838925C386.284 0.860865 387.019 0.866723 390.103 0.873347C388.993 0.982619 382.735 1.02168 391.359 1.04424C391.472 1.04434 391.247 0.979316 392.623 0.988209C393.048 0.990974 394.407 1.04434 396.472 1.05986C397.14 1.06483 402.153 1.08129 395.318 1.08232C395.522 1.15849 395.155 1.23559 395.171 1.30948C392.501 1.33096 390.447 1.18181 387.616 1.18547C383.411 1.19126 381.265 1.34209 380.455 1.14421C384.001 1.09559 390.069 1.09442 390.859 1.21342C394.275 1.21487 395.253 1.11737 392.501 1.06914C380.695 1.13041 389.269 0.924422 378.906 1.00225C378.783 1.02977 378.356 1.05938 378.422 1.08525C375.253 0.988405 380.161 0.949911 380.66 0.919487ZM405.316 1.12993C403.287 1.18809 401.263 1.24672 399.238 1.30509C399.238 1.21029 400.356 1.12522 403.555 1.07182C404.139 1.09126 404.732 1.11069 405.316 1.12993ZM233.707 1.15483C233.413 1.20636 232.613 1.25359 232.05 1.30265C231.449 1.25918 216.842 1.21748 224.275 1.17485C225.366 1.16864 231.896 1.25977 233.707 1.15483ZM911.917 1.29996C910.195 1.26539 908.512 1.23077 906.773 1.19621C909.431 1.17428 912.037 1.15178 914.677 1.12944C913.753 1.18627 912.839 1.24313 911.917 1.29996ZM615.907 1.10039C616.637 1.10232 614.211 1.1732 617.089 1.16203C614.943 1.20736 612.935 1.24573 610.839 1.28837C610.211 1.25483 609.577 1.22144 608.949 1.18791C608.46 1.20943 607.961 1.23083 607.472 1.25236C607.766 1.20351 608.027 1.1558 608.337 1.10612C611.867 1.21086 612.676 1.09211 615.907 1.10039ZM720.95 0.909356C721.586 1.01552 716.466 1.07865 721.503 1.09563C720.548 1.16537 719.01 1.20196 716.066 1.20817C715.593 1.18149 715.122 1.15501 714.649 1.12834C714.584 1.19972 713.827 1.22625 712.174 1.27714C712.172 1.27705 712.171 1.27697 712.169 1.27689C707.699 1.28206 707.968 1.25826 706.894 1.14091C711.622 1.20715 711.765 1.09993 714.993 1.03618C717.21 0.992343 720.109 1.0122 720.95 0.909356ZM249.431 1.15361C246.074 1.24322 249.092 1.32681 243.125 1.23161C243.51 1.20884 243.897 1.18626 244.281 1.16349C246 1.15998 247.717 1.15671 249.431 1.15361ZM737.52 1.27323C737.135 1.10889 734.006 0.980972 733.453 1.24833C736.532 1.30276 735.024 1.15132 737.52 1.27323ZM566.719 0.967703C572.633 0.975371 571.514 1.16085 569.084 1.25358C568.708 1.21984 568.334 1.18604 567.966 1.15251C566.93 1.16782 565.894 1.18317 564.858 1.19828C565.478 1.12149 566.099 1.04449 566.719 0.967703ZM841.795 1.0927C837.301 1.21006 846.647 1.15797 843.507 1.23124C840.998 1.28981 837.701 1.17156 838.948 1.09746C839.815 1.09539 840.781 1.09394 841.786 1.0927C841.789 1.0927 841.792 1.0927 841.795 1.0927ZM815.607 1.12626C816.348 1.25166 815.278 1.21511 818.848 1.19254C819.863 1.18613 827.987 1.23322 824.576 1.12932C821.673 1.12932 818.612 1.12751 815.607 1.12626ZM498.347 1.15117C498.294 1.09656 504.52 0.976656 505.323 1.00664C505.323 1.00656 505.323 1.00648 505.323 1.0064C507.484 1.08815 500.908 1.09977 503.759 1.21195C497.449 1.11324 495.557 1.35201 495.998 1.0374C499.718 1.0236 497.957 1.08845 498.347 1.15117ZM23.9855 1.08427C23.9826 1.08427 23.9797 1.08427 23.9768 1.08427C24.3961 1.08684 27.837 1.16698 27.4182 1.19474C23.2803 1.17094 24.0185 1.11819 20.1535 1.20487C19.9415 1.17695 19.7598 1.14987 19.5313 1.12175C21.0663 1.10519 21.9168 1.07165 23.9855 1.08427ZM217.903 1.04473C219.426 1.03044 222.201 1.08962 223.929 1.0861C218.428 1.31337 211.814 1.10144 217.903 1.04473ZM1047.43 1.18168C1047.43 1.18176 1047.42 1.18184 1047.42 1.18193C1047.42 1.1818 1047.42 1.18168 1047.42 1.18156C1047.43 1.1816 1047.43 1.18164 1047.43 1.18168ZM336.082 1.18107C335.887 1.16632 335.776 1.1535 335.736 1.14225C335.736 1.1412 335.736 1.14014 335.736 1.13908C335.842 1.15289 335.955 1.16686 336.082 1.18107ZM485.383 1.16764C482.783 1.09149 491.447 0.970418 494.243 0.999317C494.047 1.03408 494.017 1.06559 493.561 1.10551C491.303 1.0155 485.816 1.18048 485.383 1.16764ZM682.807 1.13969C675.966 1.13762 684.869 0.836932 685.237 1.07683C685.224 1.08148 682.984 1.13928 682.807 1.13969ZM539.357 1.13615C541.102 1.04512 537.595 1.02094 543.203 1.03667C543.529 1.06025 543.855 1.08389 544.182 1.10747C542.574 1.11698 540.965 1.12663 539.357 1.13615ZM637.978 0.744935C629.367 0.795644 621.108 0.885104 626.728 1.13615C627.381 1.12809 628.043 1.12029 628.695 1.11223C628.794 0.989747 631.202 1.0566 634.731 1.06059C635.236 1.01197 637.182 1.00072 637.549 0.959402C638.256 0.879527 636.016 0.82337 637.978 0.744935ZM1001.69 0.944266C1001.55 0.965172 1001.41 0.986187 1001.27 1.00689C999.908 1.03048 998.543 1.05396 997.183 1.07756C997.403 1.03744 997.623 0.997324 997.843 0.957205C999.121 0.952861 1000.4 0.948489 1001.68 0.944144C1001.68 0.944185 1001.68 0.944226 1001.69 0.944266ZM413.741 0.871516C412.956 1.10162 415.702 1.05924 421.253 0.942924C418.755 0.919121 416.245 0.895319 413.741 0.871516ZM776.415 0.838192C776.594 0.903564 776.77 0.968734 776.957 1.03411C779.894 0.966007 779.349 0.891145 777.941 0.804625C777.429 0.815791 776.927 0.827026 776.415 0.838192ZM818.826 0.810362C817.604 0.796724 818.228 0.849505 818.1 0.848446C815.01 0.82071 814.575 0.796498 810.793 0.836239C810.33 0.850104 809.875 0.864684 809.412 0.878962C811.159 1.01594 812.426 0.941285 816.132 1.02178C815.464 0.974791 814.799 0.927741 814.131 0.880549C816.19 0.890482 818.244 0.900278 820.309 0.91021C820.554 0.895721 820.799 0.881366 821.044 0.866878C820.309 0.848255 819.552 0.827327 818.826 0.810362ZM1017.53 1.00371C1019.58 1.00909 1021.55 1.01469 1023.54 1.02007C1023.62 0.986333 1023.69 0.952368 1023.76 0.918633C1021.69 0.946983 1019.66 0.975361 1017.53 1.00371ZM372.497 0.976369C372.337 0.988337 372.181 1.00038 372.042 1.01262C372.055 0.997698 372.23 0.986048 372.497 0.976369ZM18.6912 0.899225C16.4125 0.875632 13.1198 0.891123 10.6058 0.886164C10.8061 0.970798 17.1832 0.947403 19.4095 0.998707C19.7678 0.983521 19.6546 0.909153 18.6912 0.899225ZM574.9 0.975149C575.471 0.932929 576.041 0.890909 576.604 0.84869C577.983 0.853244 579.365 0.858052 580.752 0.862605C580.793 0.828039 580.833 0.793173 580.874 0.758607C574.764 0.803514 576.173 0.703839 573.148 0.605538C573.735 0.72867 574.313 0.851809 574.9 0.975149ZM1081.3 0.784484C1076.88 0.807873 1075.32 0.851558 1077.81 0.955252C1079.37 0.931457 1080.94 0.90764 1082.5 0.883844C1082.1 0.850735 1081.7 0.817593 1081.3 0.784484ZM292.156 0.898248C288.471 0.936994 288.41 0.79783 284.799 0.875544C286.733 0.901204 288.665 0.927151 290.586 0.952811C291.105 0.934667 291.637 0.916393 292.156 0.898248ZM473.288 0.516065C471.717 0.467652 468.828 0.697782 464.452 0.527905C463.41 0.578606 462.757 0.627034 461.861 0.676701C461.339 0.622678 460.747 0.567965 460.249 0.514356C460.247 0.514356 460.244 0.514356 460.241 0.514356C456.27 0.532571 458.845 0.600325 458.755 0.657659C458.713 0.681427 455.765 0.641696 456.686 0.693424C458.278 0.782221 464.215 0.73116 464.231 0.839413C462.147 0.804034 458.071 0.833598 459.276 0.905816C460.597 0.985085 464.436 0.852241 466.877 0.918022C463.378 0.745004 470.605 0.798448 471.425 0.931327C475.682 0.829286 471.763 0.78766 467.424 0.792418C470.077 0.690584 466.172 0.745602 465.528 0.660955C468.257 0.609858 477.675 0.652452 473.288 0.516065ZM673.857 0.703678C670.928 0.710244 666.347 0.652038 664.325 0.737978C663.15 0.788048 667.762 0.82682 664.582 0.90545C667.451 0.897784 668.107 0.867068 667.616 0.798155C668.272 0.789881 668.926 0.78181 669.578 0.773743C669.878 0.787188 670.187 0.800456 670.488 0.813902C670.829 0.785548 671.173 0.75742 671.507 0.729067C672.198 0.734651 672.897 0.740243 673.588 0.746034C673.67 0.731777 673.808 0.719369 673.857 0.703678ZM186.09 0.90252C186.902 0.901693 187.705 0.900869 188.515 0.899835C188.426 0.883051 188.32 0.865573 188.217 0.848324C188.144 0.834693 188.07 0.821063 187.997 0.807432C188.468 0.856131 192.326 0.937072 193.945 0.885065C194.764 0.858975 192.895 0.766352 196.37 0.750184C193.847 0.754948 191.541 0.767588 189.098 0.775451C189.317 0.747922 189.527 0.720099 189.746 0.69257C189.745 0.692529 189.743 0.692488 189.742 0.692448C188.932 0.68624 188.112 0.679735 187.301 0.673528C186.895 0.749905 186.496 0.826143 186.09 0.90252ZM774.032 0.708926C771.262 0.76295 770.337 0.791004 771.643 0.878352C771.646 0.878392 771.649 0.878433 771.652 0.878474C772.683 0.839774 773.715 0.80109 774.747 0.762391C774.511 0.74459 774.276 0.726727 774.032 0.708926ZM348.574 0.688053C342.643 1.01984 355.995 0.81645 353.452 0.703434C353.338 0.698259 349.131 0.72469 348.574 0.688053ZM565.632 0.865657C567.255 0.862966 568.882 0.860536 570.514 0.857845C570.139 0.817069 569.755 0.776435 569.379 0.735658C568.131 0.778918 566.88 0.822397 565.632 0.865657ZM1062.17 0.633857C1060.5 0.542782 1056.09 0.509786 1053.92 0.608834C1055.05 0.620425 1056.19 0.632031 1057.33 0.643622C1055.18 0.655002 1053.05 0.667528 1050.89 0.678288C1050.78 0.80517 1053.26 0.73156 1057.03 0.766541C1057.63 0.772182 1061.28 0.929678 1062.53 0.810972C1062.79 0.786573 1058.91 0.769983 1061.61 0.699039C1060.42 0.693456 1059.42 0.694694 1058.29 0.691593C1058.21 0.661373 1058.13 0.631119 1058.04 0.6009C1059.44 0.611841 1060.79 0.622915 1062.17 0.633857ZM656.746 0.713565C652.707 0.706563 652.21 0.757261 651.37 0.846859C653.246 0.836717 655.125 0.826729 657.003 0.816587C656.914 0.782317 656.836 0.74804 656.746 0.713565ZM1026.07 0.604806C1023.88 0.59015 1024.81 0.663081 1023.93 0.676946C1020.62 0.729097 1018.32 0.676974 1014.96 0.709659C1015.18 0.695584 1015.38 0.682428 1015.6 0.668767C1015.59 0.668767 1015.59 0.668767 1015.59 0.668767C999.76 0.6073 1008.05 0.772698 1017.55 0.74579C1017.77 0.772905 1017.99 0.800054 1018.21 0.826963C1022.44 0.779565 1026.24 0.733958 1026.07 0.604806ZM401.109 0.676701C400.931 0.659729 402.451 0.55187 399.598 0.602364C397.338 0.759844 401.044 0.681681 401.971 0.74225C401.199 0.75736 400.41 0.77206 399.645 0.78717C404.262 0.831671 404.932 0.794226 403.252 0.679143C403.132 0.671409 401.289 0.69362 401.109 0.676701ZM370.633 0.599069C369.985 0.831099 375.855 0.726761 375.644 0.65473C374.833 0.651858 374.202 0.691145 373.341 0.673772C372.472 0.656388 372.243 0.60219 370.633 0.599069ZM538.221 0.655828C538.049 0.654794 536.328 0.557274 536.499 0.633613C538.627 0.814311 542.923 0.698001 542.172 0.635078C540.752 0.63819 539.805 0.665304 538.221 0.655584C538.221 0.655666 538.221 0.655747 538.221 0.655828ZM1088.73 0.579172C1088.65 0.572698 1084.33 0.533501 1083.78 0.569895C1083.32 0.610871 1083.09 0.654786 1082.75 0.697208C1085.12 0.657881 1089.94 0.687839 1088.73 0.579172C1088.73 0.579172 1088.73 0.579172 1088.73 0.579172Z" fill="#9A9A9A"/>
</svg>
