<svg width="18" height="18" viewBox="0 0 18 18" fill="none" xmlns="http://www.w3.org/2000/svg">
<g clip-path="url(#clip0_2911_7692)">
<path d="M17.2656 2.85793L13.263 5.37332V4.61178C13.263 3.59639 12.4104 2.76562 11.3683 2.76562H1.89472C0.852624 2.76562 0 3.59639 0 4.61178V11.9964C0 13.0118 0.852624 13.8425 1.89472 13.8425H11.3683C12.4104 13.8425 13.263 13.0118 13.263 11.9964V11.2349L17.2656 13.7502C17.7156 13.981 17.9998 13.5887 17.9998 13.3579V3.22716C17.9998 2.99639 17.7393 2.58101 17.2656 2.85793ZM12.3157 11.9964C12.3157 12.5041 11.8894 12.9195 11.3683 12.9195H1.89472C1.37367 12.9195 0.94736 12.5041 0.94736 11.9964V4.61178C0.94736 4.10409 1.37367 3.6887 1.89472 3.6887H11.3683C11.8894 3.6887 12.3157 4.10409 12.3157 4.61178V11.9964ZM17.0525 12.5272L13.263 10.1502V6.45793L17.0525 4.08101V12.5272Z" fill="black" fill-opacity="0.65"/>
</g>
<defs>
<clipPath id="clip0_2911_7692">
<rect width="18" height="18" fill="white"/>
</clipPath>
</defs>
</svg>
