<svg width="338" height="360" viewBox="0 0 338 360" fill="none" xmlns="http://www.w3.org/2000/svg">
<g opacity="0.08">
<path d="M48.4602 155.814C48.9602 157.58 48.1742 158.97 47.1402 160.45C46.3462 159.63 45.8962 157.97 46.2982 156.85C47.1522 155.907 47.0232 156.17 48.4602 155.814Z" fill="#2F4A3E"/>
<path d="M266.842 135.954C268.126 136.901 269.518 137.797 270.436 139.088C270.492 139.507 270.531 139.579 270.496 139.995L269.965 140.177C268.337 139.293 267.422 138.658 266.319 137.189L265.875 136.845C266.051 136.264 266.143 136.381 266.842 135.954Z" fill="#2F4A3E"/>
<path d="M129.134 47.6155C126.802 50.6425 123.087 52.8515 119.933 55.0285C119.633 54.5875 119.571 54.4615 119.344 53.9765L119.805 53.3635C122.386 52.7025 125.011 50.6315 127.061 48.9855C127.634 48.5265 128.319 47.7755 128.948 47.4785L129.134 47.6155Z" fill="#2F4A3E"/>
<path fill-rule="evenodd" clip-rule="evenodd" d="M167.051 1.04105C173.838 -2.20995 194.098 2.97104 201.561 5.41904C209.878 8.59004 217.579 13.3291 225.215 17.8511C227.992 19.4951 231.306 20.99 233.639 23.177C241.492 30.538 248.87 38.249 255.853 46.444C256.887 47.659 259.003 48.817 260.154 50.04C262.432 52.231 264.325 55.675 266.737 57.544L267.019 58.1971C267.423 58.3551 267.708 58.413 267.967 58.415C267.708 58.412 267.424 58.3551 267.021 58.1971L266.739 57.544C266.769 57.133 266.858 55.957 266.655 55.66C262.809 50.058 257.144 45.806 252.654 40.716C250.999 38.839 248.24 37.179 247.248 34.846C249.56 35.584 259.553 46.1871 262.27 48.6581L263.345 47.768C264.84 48.035 266.054 49.3651 266.993 50.5331L266.674 50.983C267.015 51.671 267.118 51.715 267.705 52.238C268.409 52.702 268.601 52.748 268.934 53.479C268.48 54.286 268.618 54.0281 267.419 54.3901C267.995 55.2241 269.368 57.1771 269.493 58.1631H269.491C269.919 59.5861 270.521 60.2991 271.612 61.3171C272.194 62.7171 274.29 64.6361 275.444 65.8821C277.924 69.7561 279.763 71.838 282.082 75.161L280.86 76.6841C280.914 77.0591 280.85 76.92 280.982 77.13C281.678 78.92 282.181 79.6131 283.505 81.0431C283.803 83.3601 283.731 83.945 285.155 85.746C285.783 86.947 286.398 88.5911 287.382 89.2961L287.383 89.295C286.4 88.589 285.786 86.947 285.158 85.746C283.734 83.946 283.807 83.3591 283.51 81.0431C282.186 79.6131 281.681 78.921 280.986 77.131L280.985 77.13C280.852 76.92 280.917 77.0591 280.863 76.6841L282.085 75.161C283.943 77.8 285.858 81.089 287.799 83.561L288.189 84.044L289.376 85.173C289.681 85.455 289.992 85.728 290.306 85.974L290.623 86.212L291.045 86.608C295.329 90.79 297.003 97.5641 298.281 103.002C296.496 102.219 293.959 97.8141 293.255 96.0331C293.163 95.1561 290.582 90.268 289.646 88.23L289.482 87.862C290.227 89.598 293.157 95.0981 293.255 96.0331C292.127 94.4801 289.569 90.405 288.283 89.372L288.162 89.282C289.403 90.139 292.088 94.4301 293.253 96.0331C293.957 97.8141 296.494 102.219 298.279 103.002C299.034 104.802 299.771 106.72 300.743 108.395C302.376 111.208 307.221 118.842 307.958 121.732C307.549 123.495 307.877 124.088 308.789 125.543C309.716 127.958 311.124 131.607 312.445 133.753C313.339 136.777 313.734 139.194 315.223 142.064L316.12 143.709C315.701 143.911 315.312 144.068 314.944 144.354C314.625 145.86 315.679 146.565 315.793 147.649L316.786 149.083L317.694 150.408L317.695 150.407L316.788 149.083L315.793 147.649L315.795 147.647C315.68 146.565 314.629 145.859 314.947 144.355L314.946 144.354C315.314 144.069 315.701 143.911 316.12 143.709L316.509 143.714L316.123 143.709L315.227 142.064L315.719 141.416L315.308 140.281C315.438 140.652 315.574 141.03 315.719 141.416L315.227 142.064C313.737 139.194 313.339 136.777 312.445 133.753L312.899 132.687L312.946 131.881C311.963 129.905 310.709 128.226 309.696 126.048L308.793 125.543C307.88 124.088 307.552 123.494 307.961 121.732C309.437 122.902 309.697 123.707 310.496 125.39C312.283 127.366 312.556 128.099 313.512 130.619L313.862 131.544C315.977 136.984 323.247 154.177 322.348 156.87C321.693 156.4 320.271 154.806 319.989 154.112C320.016 152.722 318.93 151.33 318.099 150.243H318.097C318.928 151.33 320.014 152.723 319.987 154.113L319.492 154.199C320.6 158.5 323.44 161.85 324.938 165.99C326.936 171.52 327.887 177.77 329.377 183.47C330.086 186.19 331.597 188.63 332.352 191.34C333.909 196.89 337.319 216.32 335.665 221.23C334.413 224.94 335.584 230.85 333.999 235.68C333.125 238.35 331.662 240.78 330.302 243.22C328.715 246.06 327.218 248.94 325.412 251.65C322.66 255.78 319.354 259.59 316.218 263.43C313.239 267.07 310.311 270.86 307.186 274.37C305.285 276.51 303.005 278.3 301.163 280.47C298.891 280.64 298.076 281.35 297.35 283.51C292.822 286.09 294.043 286.06 290.696 288.66L290.675 289.07C289.813 290.1 288.08 291.69 287.451 292.61C285.388 295.63 283.2 297.54 280.679 300.09C278.133 302.68 275.834 307.23 271.94 307.93C269.348 311.18 266.32 314.3 263.84 317.54C260.633 321.73 257.527 325.62 253.91 329.48C252.678 330.79 251.925 333.43 250.651 334.82C249.169 336.74 245.182 340.05 244.525 342.1C245.097 341.63 245.214 341.5 245.878 341.21L246.109 341.25L245.776 341.33L246.233 341.32C245.783 342.15 243.435 345.28 242.715 345.76C242.505 345.53 242.319 345.32 242.058 345.15C240.703 345.83 240.531 347.61 239.437 347.5C239.531 346.87 239.857 345.48 239.583 345.04C238.698 346.12 238.025 346.93 237.293 348.13C236.25 349.84 234.913 354.39 233.532 355.47H233.534C231.2 355.65 230.04 358.63 228.59 358.66C228.577 358.45 228.523 358.2 228.595 358.05C229.19 356.78 228.816 354.33 230.516 354.08L230.684 354.07C228.788 354.17 229.206 356.74 228.592 358.05C228.184 356.55 228.642 355.51 228.039 354.27L227.247 354.1C226.353 355.13 227.143 357.47 225.687 360L225.465 359.79C225.22 357.65 224.869 354.08 225.109 352.01L225.959 351.62L225.106 352.01C225.853 347.93 225.369 346.7 225.507 342.89C225.658 338.73 228.703 331.5 230.397 327.5C231.162 325.73 233.036 323.61 233.704 321.93C236.029 316.07 239.526 311.15 243.316 306.16C245.191 303.69 246.318 301.44 248.749 299.2L249.534 300.08C248.86 300.82 248.32 301.41 247.719 302.22C247.059 302.98 246.8 303.03 246.641 303.92L247.059 303.97L246.643 303.92C246.802 303.03 247.059 302.98 247.719 302.22L248.298 302.57L247.722 302.22C248.323 301.41 248.863 300.82 249.537 300.08C250.049 299.83 250.723 299.14 251.167 298.73C250.723 299.13 250.047 299.83 249.534 300.08L248.749 299.2C249.285 298.48 249.818 297.68 250.333 296.93C251.861 293.98 258.395 285.93 261.022 283.8L261.142 283.59C261.885 282.41 264.649 279.63 265.601 278.52L265.688 278.39C266.176 277.72 267.408 277.17 268.111 276.82C268.862 275.44 268.885 275.15 269.064 273.64C271.051 271.46 274.399 268.11 275.921 265.85C275.922 265.85 275.922 265.85 275.923 265.85C275.974 264.98 275.943 265.23 275.324 264.33L275.5 263.54L275.971 264.37L275.502 263.54L276.463 262.48H276.462C277.451 260.89 278.639 258.34 279.66 256.95C282.699 252.8 284.205 250.8 286.401 246.19L286.557 245.87C286.71 245.55 286.851 245.23 286.983 244.9C287.833 242.77 290.461 236.62 289.529 234.77C288.79 233.29 289.033 232.45 289.244 230.54C291.067 231.38 290.507 232.73 291.449 233.29V233.28C290.51 232.73 291.067 231.38 289.247 230.54C289.347 229.13 288.908 225.88 289.592 224.74C290.131 225.13 290.264 226.02 290.461 226.71C290.72 225.87 290.742 225.51 290.842 224.63C290.861 222.53 289.719 219.29 289.267 217.25C286.437 204.43 278.526 194.27 271.528 183.46C266.183 175.2 261.719 167.56 254.735 160.28C252.58 157.89 250.993 156.27 248.45 154.325C247.775 153.869 246.696 152.844 246.051 152.269C243.795 150.224 241.313 148.763 238.854 146.446L237.135 145.162C228.722 136.746 217.121 132.29 205.929 129.303C204.795 128.86 203.376 128.48 202.287 127.957C196.921 125.38 191.868 124.754 186.185 123.475C186.206 124.628 186.368 124.367 185.847 125.201C184.924 125.433 184.317 125.246 183.374 125.088L180.704 124.468C178.529 124.558 175.833 123.863 173.706 123.326C160.592 122.359 147.41 123.72 134.769 127.346C133.82 127.624 130.106 128.635 129.465 129.09C126.907 131.827 119.681 135.065 116.141 136.983C114.693 137.768 102.593 145.33 102.588 145.33C102.748 144.545 103.091 143.935 103.735 143.438C108.301 139.916 113.506 137.379 118.427 134.435C121.361 132.68 124.27 131.208 127.372 129.794C127.375 129.789 127.987 128.843 128.048 128.749L127.919 128.712C125.121 128.049 116.544 134.118 113.892 135.316C103.783 139.883 96.2869 147.152 87.6669 153.864C85.3109 155.699 82.7949 159.72 80.6489 161.92C77.5139 165.37 75.621 169.69 72.835 173.23C69.857 177.02 67.1829 180.36 64.7319 184.54C63.7369 186.24 61.768 187.93 60.802 189.68C58.291 194.4 56.61 199.66 54.249 204.49C53.762 205.49 54.0379 206.08 53.2399 207.19C52.5909 207.78 52.248 207.99 51.906 208.76L51.393 209.74C50.342 211.79 48.4039 213.85 48.5859 215.53L48.971 215.54L48.5889 215.53C48.4069 213.85 50.344 211.79 51.395 209.74L51.9069 208.77L51.906 208.76C52.248 207.99 52.5909 207.78 53.2399 207.19C53.3009 207.91 53.4759 208.81 53.2559 209.43H53.257L51.3579 214.12H51.361L51.119 215.48C50.759 215.36 50.512 215.3 50.288 215.29C50.511 215.3 50.7569 215.36 51.1149 215.48C50.5789 218.17 47.264 225.61 45.914 228.28C46.291 230.76 47.3439 237.22 49.0009 239.07C50.5049 242.62 52.8789 246.25 54.4879 249.98C54.9289 250.82 57.106 255.16 57.543 255.63C57.854 256.26 58.199 257.16 58.729 257.56C59.047 258.46 59.27 259.23 59.775 260.03L58.687 260.53L59.1779 260.91C59.5699 261.24 59.6709 261.51 59.5339 262.37L60.049 262.84L60.051 262.83L59.5369 262.37C59.7199 261.22 59.481 261.13 58.69 260.53L59.778 260.03C61.108 262.06 60.1959 261.1 60.3339 262.7H60.3309C62.1599 264.24 62.804 265.07 63.88 267.21L64.056 267.41C64.906 268.44 65.3679 269.62 66.1509 270.73C67.7059 272.95 69.3499 275.21 71.0659 277.3C72.8049 279.42 75.3869 281.35 77.1049 283.43C81.1869 288.38 85.3249 293.23 89.0109 298.49C90.5539 300.7 92.7889 303.09 94.2059 305.3C96.5279 308.92 98.6929 312.64 100.574 316.51C101.193 317.78 103.198 319.69 103.859 321.16C105.397 324.58 105.222 330.88 106.748 334.22C106.775 335.24 107.003 337.3 106.436 337.96C105.59 341.44 108.778 352.79 107.402 354.31C106.719 353.5 106.826 352.06 106.456 350.76L105.805 350.88C105.249 351.53 105.22 353.18 104.955 354.28L104.57 354.46H104.568L104.21 354.18C103.724 352.65 104.558 349.57 104.82 347.84C104.038 346.86 103.903 346.69 102.885 345.92L102.419 346.22C102.842 348.03 103.397 349.76 103.634 351.58C102.332 350.05 101.312 347.89 100.724 347.27L100.416 347.51C100.577 349 101.008 349.67 100.588 351.12L100.303 351.22C99.4499 350.34 99.197 349.23 98.804 348.06C98.693 347.9 98.325 346.88 98.231 346.63L97.812 346.81L97.7239 347.05C97.3559 346.47 96.9709 344.43 97.4509 343.81L97.4979 343.76C96.9449 344.3 97.3439 346.45 97.7239 347.05C98.3049 348.7 98.2549 350.03 96.7839 351.2L96.4349 351.07C96.1829 349.55 95.9439 348.37 95.3109 346.95C94.5539 345.27 91.833 342.56 91.88 340.87L92.705 340.45C92.71 339.83 92.557 339.86 92.106 339.23L91.8049 339.24L91.2949 340.42C90.2369 339.96 88.4479 335.68 87.7029 334.3C85.3729 331.14 82.229 329.72 81.096 324.38L80.8679 323.98C79.5899 321.87 76.343 318.24 74.536 317.01L73.4699 317.24L73.525 316.99C73.314 316.22 71.535 314.78 70.835 314.14L71.538 314L70.833 314.14H70.835C71.535 314.78 73.314 316.22 73.525 316.99L73.4699 317.24C71.9749 317.15 67.559 312.3 66.494 311.02H66.491C64.327 308.84 61.8699 306.67 59.7449 304.49C59.0899 303.82 58.3189 301.75 57.2689 300.61L37.3469 279.44C36.1429 278.15 34.2249 276.29 32.5919 275.02C19.1389 264.65 5.29093 249.15 1.11293 232.36C0.531926 230.03 -0.228048 220.2 0.0649523 218.33C1.32495 210.31 3.92798 202.15 5.25398 194.09C5.90198 189.91 7.81297 186.22 8.00697 182.08C8.05197 181.13 9.58197 176.84 10.059 175.89C11.292 175.32 11.499 175.37 11.892 174.11L11.6489 173.82L10.1539 174.5L9.82093 174.1C9.56393 173.06 9.82194 170.87 10.4379 170.18C12.7199 167.62 13.3179 168.52 14.2899 164.81C16.3749 156.87 19.2439 149.061 22.1099 141.369C23.5439 137.52 26.2889 133.309 27.7249 129.346C28.8029 126.78 28.816 123.06 30.164 120.609C33.725 114.134 37.375 107.697 41.767 101.746C42.273 101.061 43.585 99.216 43.754 98.459L42.515 98.485C42.803 97.086 45.8639 92.4091 46.7849 91.0801C48.7759 88.2081 50.3049 84.0201 53.2949 82.2181C55.2929 77.3531 58.8139 74.678 61.5189 70.613C73.5349 52.557 89.1039 37.835 105.175 23.472C110.702 18.532 126.941 9.36402 133.862 7.17502L135.259 6.51401C138.492 5.00701 141.585 3.76104 145.144 2.85404L145.503 3.03202L145.572 2.76206C145.869 2.72006 145.726 2.69302 145.996 2.86802C145.206 3.40902 135.56 7.78002 134.685 7.99302L134.686 7.99406C131.887 8.55906 122.67 14.9061 119.119 16.4651C117.244 17.2881 106.433 24.908 105.315 26.141L104.575 26.8691C100.057 29.8991 73.2709 57.8671 71.1019 62.2621C71.1039 62.2611 71.1059 62.26 71.1079 62.258C73.2899 57.85 100.053 29.906 104.576 26.87L105.315 26.141L105.793 26.493C106.62 25.653 111.299 22.649 112.472 21.872C115.89 20.096 119.078 17.9461 122.452 16.1011C134.741 9.38205 144.183 6.33407 158.188 4.49107C160.289 4.21407 162.345 3.47102 164.433 3.30302C167.525 3.05402 177.964 5.43305 179.638 4.73405C182.474 3.55205 195.223 6.90703 198.376 7.89103C199.122 7.90403 199.748 8.05406 200.326 8.04606C199.749 8.05306 199.124 7.90403 198.379 7.89103L199.084 7.22605C200.043 6.86605 200.288 6.67502 200.753 6.69102C200.286 6.67402 200.042 6.86505 199.081 7.22605C195.577 4.70205 180.139 2.02905 175.035 1.63505C173.095 1.48505 168.674 1.80505 167.09 1.34305L167.051 1.04105ZM231.12 350.57C230.989 350.85 230.917 351.13 230.928 351.45H230.929C230.918 351.13 230.99 350.85 231.12 350.57ZM227.296 348.36C227.046 349.31 226.767 349.94 226.993 350.88C227.399 351.12 227.202 351.1 227.613 351.11C227.205 351.1 227.4 351.12 226.995 350.88C226.77 349.94 227.046 349.31 227.296 348.36ZM233.284 348.15C232.58 348.92 231.82 349.52 231.358 350.17L231.506 349.98C231.972 349.4 232.651 348.84 233.284 348.15ZM234.138 346.35L233.693 347.1L233.88 347.25L233.881 347.24L233.695 347.1L234.14 346.35L234.401 346.3L234.138 346.35ZM231.858 342.67C231.481 343.25 231.158 343.8 231.175 344.48C231.176 344.48 231.177 344.48 231.178 344.48C231.156 343.57 231.736 342.89 232.246 342.08H232.244L231.858 342.67ZM244.012 337.9C243.455 338.65 242.93 339.42 242.427 340.21C242.678 339.81 242.936 339.42 243.2 339.04C243.464 338.65 243.734 338.27 244.012 337.9ZM227.927 338.87C226.844 340.24 226.833 340.56 227.337 342.25C227.338 342.25 227.338 342.25 227.338 342.25C226.836 340.56 226.848 340.24 227.927 338.87ZM246.481 334.3C246.277 334.6 245.956 335.37 245.789 335.73L246.453 336.62V336.61L245.793 335.73C245.959 335.37 246.28 334.6 246.483 334.3L246.928 334.26L246.481 334.3ZM83.541 326.53C83.148 328.06 84.925 329.44 85.684 330.78C86.072 331.47 86.858 332.53 87.734 332.55C86.859 332.52 86.0739 331.47 85.6859 330.78C84.9269 329.44 83.149 328.06 83.541 326.53ZM233.631 325.15C232.94 325.89 232.355 326.31 232.292 327.27L232.425 327.72H232.427L232.294 327.27C232.357 326.31 232.941 325.89 233.631 325.15ZM257.502 304.46C256.69 304.91 256.484 305.28 255.921 306L252.834 309.87C251.308 311.4 249.932 312.81 248.481 314.43C248.483 314.42 248.485 314.42 248.488 314.42C249.937 312.81 251.313 311.4 252.837 309.87L253.565 309.76L252.834 309.87L255.921 306L256.252 306.38L255.923 306C256.486 305.28 256.69 304.91 257.502 304.46ZM82.5969 293C82.7389 293.08 82.8769 293.15 83.0109 293.19C82.8779 293.15 82.7379 293.08 82.5969 293ZM78.916 289.21C79.072 289.86 79.0359 289.91 79.4829 290.43C79.6189 290.49 79.761 290.57 79.905 290.68C79.761 290.57 79.62 290.49 79.484 290.43C79.038 289.91 79.072 289.86 78.916 289.21ZM283.569 282.59C281.939 283.68 281.332 284.48 280.091 286.18C278.693 287.49 278.266 288.26 277.188 289.86C277.19 289.86 277.19 289.86 277.192 289.86C278.268 288.26 278.697 287.49 280.093 286.18C281.334 284.48 281.94 283.68 283.571 282.59H283.569ZM262.569 283.68C262.251 283.9 261.935 284.13 261.642 284.36L260.897 286.43L261.02 286.44L260.899 286.43L261.644 284.36C262.231 283.9 262.901 283.45 263.518 283.01L262.569 283.68ZM282.429 255.87C281.76 256.04 281.257 256.93 280.868 257.53C280.373 258.79 277.984 261.76 277.064 263.39C277.983 261.76 280.375 258.79 280.87 257.53C281.259 256.93 281.761 256.04 282.429 255.87ZM26.3359 262.09C26.1889 262.12 25.9139 262.15 25.7999 262.22L26.017 262.68L26.5339 262.7H26.5319L26.02 262.68L25.804 262.22C25.917 262.15 26.1879 262.12 26.3359 262.09ZM321.905 252.63C321.168 253.32 320.438 254.1 320.237 255.01C320.277 254.83 320.338 254.65 320.416 254.48C320.495 254.31 320.591 254.14 320.699 253.98C320.807 253.81 320.928 253.66 321.058 253.5C321.122 253.43 321.189 253.35 321.257 253.28C321.463 253.05 321.684 252.84 321.905 252.63ZM324.943 246.92C324.431 247.95 323.205 249.97 323.294 250.91L323.413 251.02L323.296 250.91C323.207 249.97 324.43 247.95 324.943 246.92ZM286.658 248.38C286.704 248.59 286.78 249.02 286.864 249.22C286.781 249.01 286.706 248.59 286.66 248.38L286.919 248L286.658 248.38ZM49.145 246.72C49.421 247.37 49.7179 248.03 49.9689 248.68H49.971C49.72 248.03 49.4229 247.37 49.1489 246.72L49.5529 245.55L49.145 246.72ZM287.571 246.65L287.966 247.37H287.968L287.574 246.65L288.207 245.86H288.205L287.571 246.65ZM48.8519 244.43C48.7989 244.96 48.8489 245.57 48.9609 246.09C48.9109 245.86 48.8739 245.61 48.8519 245.36C48.8419 245.23 48.8349 245.11 48.8319 244.98C48.8289 244.79 48.8339 244.61 48.8519 244.43ZM327.126 240.5C326.746 241.46 326.416 242.35 326.075 243.41C326.53 242 326.963 240.88 327.526 239.51L327.126 240.5ZM16.4359 240.62C17.0299 241.77 17.6209 243.27 18.8209 243.77C17.6239 243.27 17.033 241.77 16.44 240.62C16.439 240.62 16.4379 240.62 16.4359 240.62ZM314.298 243.31C314.425 243.42 314.561 243.56 314.699 243.6C314.561 243.56 314.427 243.42 314.3 243.31L315.114 242.63H315.116L314.298 243.31ZM13.1069 238.93L13.195 239.64L13.109 238.93L13.4879 238.89L13.1069 238.93ZM291.673 227.6C291.533 228.47 291.526 229.33 290.908 229.82C291.528 229.33 291.534 228.48 291.674 227.6H291.673ZM330.243 208.8C329.699 209.84 329.799 210.78 329.802 211.97L329.785 212.52C329.682 215.04 330.887 218.68 332.168 220.82H332.171C330.891 218.68 329.686 215.04 329.789 212.52L331.12 212.04L329.787 212.52L329.802 211.97C329.799 210.78 329.702 209.84 330.244 208.81L330.243 208.8ZM47.5629 210.78L47.1489 211.74C46.6829 212.67 45.9329 213.85 46.2379 214.84H46.239C45.936 213.85 46.685 212.67 47.151 211.74L47.565 210.78L47.9 210.76L47.5629 210.78ZM50.6829 214.04C50.4579 214.05 50.3549 214.16 49.7219 214.43V214.44C50.3549 214.16 50.4589 214.05 50.6829 214.04ZM42.38 209.04L42.3779 209.18L42.382 209.04H42.38ZM12.3619 204.57C12.0799 205.32 11.489 206.65 11.512 207.39L11.9199 207.54L11.515 207.39C11.492 206.65 12.0789 205.33 12.3619 204.57ZM26.971 193.65C26.11 195.48 25.5399 196.62 25.1699 198.61L24.8369 200.54L25.301 200.86L24.8389 200.54L25.1719 198.61C25.5409 196.63 26.1099 195.48 26.9669 193.67C26.9679 193.66 26.97 193.66 26.971 193.65ZM59.0889 184.72C58.4149 185.19 58.333 185.71 57.867 186.61C57.506 187.12 56.68 188.21 56.421 188.71C55.303 190.19 54.3959 191.33 53.4869 192.96C53.1949 193.37 52.9359 193.77 52.6979 194.16C52.8569 193.9 53.0249 193.63 53.2069 193.37C53.2969 193.23 53.3899 193.1 53.4869 192.96L53.817 193.65L53.4899 192.96C54.3989 191.33 55.303 190.19 56.421 188.71C56.68 188.21 57.506 187.12 57.867 186.61L58.2689 186.8L57.8699 186.61C58.3659 185.65 58.4249 185.12 59.2319 184.63L59.0889 184.72ZM324.932 188.83C325.32 190.01 325.634 191.3 326.75 191.97C325.636 191.3 325.319 190.01 324.932 188.83ZM23.903 172.79C23.402 173.86 22.9359 175.33 22.4879 176.49C21.4819 179.11 19.1039 183.15 18.6829 185.81L18.8839 185.93L18.6859 185.81C19.1069 183.15 21.485 179.11 22.491 176.49C22.938 175.33 23.405 173.86 23.905 172.8L23.903 172.79ZM301.082 181.67C301.607 182.69 301.962 183.61 302.815 184.36C301.964 183.61 301.61 182.69 301.085 181.67L301.392 181.17L301.391 181.16L301.082 181.67ZM301.75 170.8C302.051 173.28 303.865 176.85 304.367 179.25C304.759 179.66 304.527 179.52 305.111 179.66C304.529 179.52 304.761 179.66 304.369 179.25C303.868 176.86 302.06 173.29 301.755 170.81C301.753 170.8 301.752 170.8 301.75 170.8ZM170.671 31.034C169.761 30.958 167.829 31.27 166.858 31.433C163.452 32.003 160.036 32.586 156.646 33.246C155.017 33.559 154.164 34.6031 152.629 35.0251C152.259 34.5511 152.295 34.526 151.76 34.282C149.862 34.593 147.55 36.697 145.397 37.493L145.16 37.578C143.676 38.656 142.361 39.602 140.806 40.576C139.454 41.422 137.656 42.196 136.512 43.165L136.513 43.167C135.823 43.438 134.122 45.3021 131.773 46.3251L131.717 46.0411C133.45 43.9601 134.024 43.873 136.118 42.264C137.674 41.561 140.686 39.731 141.969 38.636L141.906 38.194C138.24 39.283 121.988 50.367 119.802 53.363L119.341 53.9761C119.567 54.4611 119.63 54.5871 119.93 55.0281C108.034 61.6991 98.9229 76.615 90.3129 86.985C88.2639 89.644 86.7289 92.5801 84.7459 95.3061C83.3159 97.2711 81.271 98.936 79.851 100.846C74.635 107.865 68.7 114.311 63.827 121.582C62.751 123.189 61.392 125.36 60.783 127.205L60.671 127.569L61.302 127.624L61.549 127.436C63.943 125.574 66.813 118.332 69.314 117.786C69.384 118.416 68.906 118.985 68.52 119.48C65.252 123.671 57.7369 137.103 55.8499 142.312C55.5359 142.79 52.0939 146.747 51.5759 147.233L51.3759 148.159L51.676 148.23L51.379 148.159L51.578 147.233C52.096 146.747 55.5379 142.789 55.8519 142.312C55.9249 143.375 56.0439 143.661 56.5609 144.592C56.0589 145.857 55.371 144.986 54.557 146.662L53.8989 146.619L53.3439 146.309H53.3419L53.8969 146.619C52.7839 149.41 48.9589 152.431 48.4559 155.814C47.0189 156.17 47.149 155.908 46.294 156.85C45.893 157.97 46.3429 159.63 47.1359 160.45L46.872 162.82L45.94 164.48C45.243 165.15 41.9249 171.4 41.3179 172.65C40.2229 175.14 38.095 176.66 37.043 179.02L37.2169 179.39L37.6929 179.43L37.2199 179.39L37.0469 179.02C38.0979 176.66 40.228 175.14 41.322 172.65L42.007 173.16C42.894 172.26 45.331 168.29 46.372 166.83C46.335 165.8 46.396 165.4 45.94 164.48L46.872 162.82L47.421 163.16C48.119 163.12 49.2419 162.56 49.6749 162.04C53.2169 157.82 56.6449 153.193 60.2969 149.082L60.2979 149.08C60.0859 148.879 59.791 148.524 59.588 148.295C59.699 147.409 59.9209 147.479 60.7369 146.757C61.2839 145.766 61.917 145.361 62.793 144.648C63.531 143.754 67.2209 140.316 68.2379 139.319C68.5749 139.703 68.6659 139.816 69.0629 140.132L69.064 140.131C68.669 139.816 68.578 139.703 68.241 139.319C68.465 138.644 71.231 136.186 71.879 135.563C77.252 130.403 82.6499 125.3 88.8969 121.198C90.3159 120.265 91.262 119.176 92.906 118.494C94.609 117.201 96.3379 116.037 98.2479 115.069C102.258 113.036 116.19 107.718 118.322 105.281C118.436 105.151 118.54 105.013 118.663 104.892C120.879 102.687 145.479 98.3551 149.959 97.9341C154.011 97.5541 158.312 97.781 162.401 97.72C163.153 98.01 164.231 98.1941 164.327 99.1371C165.422 99.3721 166.536 99.501 167.654 99.523C166.537 99.501 165.424 99.3711 164.329 99.1371C164.233 98.1941 163.155 98.01 162.403 97.72C164.824 97.52 167.82 97.1861 170.205 96.7621C170.771 96.7091 171.245 96.6691 171.679 96.6631H171.683C172.638 96.6511 173.41 96.807 174.591 97.37H174.588C176.992 98.12 181.074 97.519 183.514 97.829C187.474 98.332 192.173 99.0621 196.049 99.9211L196.621 100.656C196.424 100.935 196.223 101.074 196.027 101.151C196.224 101.074 196.425 100.936 196.623 100.656L196.051 99.9211C198.576 100.33 200.457 101.019 202.905 101.551C202.525 101.553 202.248 101.529 202.015 101.526C202.247 101.529 202.523 101.553 202.902 101.551C206.138 102.408 227.005 110.375 227.225 110.33C227.196 110.258 227.154 110.185 227.102 110.109C227.076 110.071 227.047 110.033 227.016 109.994C226.921 109.878 226.802 109.758 226.661 109.634C226.473 109.469 226.247 109.297 225.986 109.12C225.206 108.59 224.125 108.013 222.897 107.424C220.237 106.147 216.886 104.811 214.394 103.763C212.861 103.118 211.653 102.581 211.133 102.235C213.896 100.935 226.502 107.934 228.777 109.984C230.974 110.426 234.451 111.549 236.42 112.702C237.646 113.421 238.759 114.657 240.187 115.172C243.421 116.368 246.066 118.867 248.922 120.795C249.584 121.242 250.702 121.836 251.336 122.24L251.575 122.4L251.868 122.586C255.114 124.732 265.008 133.579 266.84 135.954C266.141 136.381 266.049 136.264 265.873 136.845L266.317 137.189C267.419 138.658 268.335 139.293 269.963 140.177C271.498 141.395 273.283 143.518 274.851 144.983C280.267 150.05 285.204 155.257 289.954 160.98C291.576 163.42 292.681 165.12 294.019 167.76H294.021C292.683 165.12 291.578 163.42 289.956 160.98C290.746 160.87 290.88 160.76 291.606 160.39C289.453 156.22 288.908 152.932 287.384 148.611C286.273 145.463 283.966 142.24 283.2 138.967C281.569 138.126 278.672 131.753 278.084 129.791L277.386 128.482C273.345 119.988 270.052 113.401 264.758 105.483C262.351 101.883 258.971 98.144 256.634 94.628C257.443 94.592 257.148 94.7501 257.66 94.3531C256.149 90.7801 248.776 83.2871 246.113 79.7651C243.998 76.9671 240.522 74.141 238.226 71.018V71.016C237.486 69.157 235.018 66.709 233.45 65.461L234.651 64.492L234.015 63.858C232.533 62.34 231.062 60.566 229.662 59.006C231.262 60.788 232.955 62.852 234.651 64.492L233.45 65.461C231.979 64.489 230.149 62.91 228.746 61.766L228.747 61.764C227.706 61.203 227.098 60.59 226.222 59.802C226.456 59.456 226.675 59.308 226.888 59.285L226.964 59.282C226.727 59.275 226.483 59.413 226.22 59.802C226.005 59.66 225.784 59.2131 225.63 58.9601C224.216 57.5451 223.226 57.181 222.054 55.962L222.07 55.522L223.24 55.1451C218.881 52.6871 215.901 50.302 211.89 47.373C209.778 45.83 207.328 44.605 205.203 42.937C203.266 41.475 201.607 40.3721 199.457 39.2931C197.489 38.3051 191.553 36.419 190.113 35.035C190.186 35.028 190.268 35.026 190.356 35.029C193.1 35.101 203.003 39.5501 205.579 40.7931C206.428 41.1691 207.271 41.557 208.108 41.958C210.122 42.78 213.854 45.6151 216.486 46.8011L216.485 46.799C213.853 45.612 210.124 42.779 208.112 41.958L208.726 41.561C198.585 33.578 183.01 32.062 170.671 31.034ZM61.934 178.98L61.5939 179.37L61.989 179.26L62.275 178.9L61.934 178.98ZM39.405 172.02C38.969 172.99 38.706 173.13 38.877 174.05L39.125 174.23L38.8809 174.05C38.7109 173.13 38.9709 172.99 39.4069 172.02H39.405ZM295.116 169.2C295.644 170.27 296.161 171.48 296.924 172.39V172.38C296.163 171.47 295.646 170.27 295.119 169.2L295.701 168.81L295.116 169.2ZM73.2949 169.08C72.6619 169.77 71.924 170.59 72.153 171.6C71.926 170.59 72.6629 169.77 73.2949 169.08ZM59.382 168.07C58.961 168.51 58.598 168.91 58.288 169.47L58.109 169.82L58.5689 170L58.111 169.82C58.573 168.83 59.165 168.3 59.918 167.53L59.382 168.07ZM288.489 166.5C288.668 167.34 288.741 167.6 289.699 167.88L289.698 167.87C288.744 167.6 288.671 167.34 288.492 166.5L288.671 166.45L288.489 166.5ZM63.4149 163.24C62.7589 163.99 61.6239 165.23 61.0659 165.99L61.5289 166.2L61.0689 165.99C61.6259 165.23 62.7609 163.99 63.4169 163.24L64.241 162.29L63.4149 163.24ZM42.59 162.25C41.995 162.98 41.6909 163.31 41.8989 164.29C41.8999 164.29 41.9 164.29 41.901 164.29C41.695 163.31 41.997 162.98 42.59 162.25ZM306.202 158.62C306.305 158.7 306.454 158.77 306.741 158.89C306.551 158.81 306.42 158.75 306.325 158.7C306.277 158.67 306.236 158.64 306.202 158.62ZM248.16 151.947C248.254 152.864 248.312 152.958 248.909 153.664C250.915 154.966 252.616 157.08 254.897 158.68L254.898 158.67C252.618 157.08 250.916 154.966 248.911 153.664C248.314 152.959 248.256 152.864 248.162 151.949L248.16 151.947ZM301.458 148.783C301.905 150.752 303.164 151.886 303.481 153.9C304.229 155.394 304.836 156.35 305.651 157.76H305.653C304.838 156.35 304.232 155.394 303.484 153.9C303.167 151.886 301.909 150.752 301.462 148.785C301.461 148.785 301.46 148.784 301.458 148.783ZM55.481 136.106C54.712 136.651 54.034 137.672 53.713 138.512C52.344 140.251 49.1789 147.47 48.8319 149.379L48.913 149.662C49.646 148.965 53.662 140.548 54.002 139.375V139.373L53.713 138.512C54.055 137.616 54.804 136.515 55.635 136.003L55.481 136.106ZM91.369 147.442C90.896 147.571 90.6659 147.987 90.1859 148.491L90.562 149.091L90.5629 149.088L90.189 148.491C90.668 147.988 90.898 147.572 91.369 147.442ZM299.478 145.677C299.79 146.355 299.915 146.875 300.551 147.209L300.55 147.207C299.917 146.873 299.792 146.354 299.481 145.678L299.478 145.677ZM38.2139 141.812C37.4179 143.133 36.103 145.23 35.767 146.683L35.9459 146.813L35.7689 146.683C36.1049 145.23 37.419 143.134 38.216 141.813L38.2139 141.812ZM240.169 146.252C240.303 146.347 240.428 146.455 240.555 146.575C240.365 146.395 240.179 146.24 239.959 146.122L240.169 146.252ZM98.385 141.784C97.738 142.481 97.4829 142.519 97.3549 143.344L97.3569 143.343C97.4849 142.519 97.741 142.481 98.387 141.784C98.76 141.551 99.0769 141.353 99.3699 141.177L98.385 141.784ZM308.797 136.654C309.677 138.517 310.888 142.708 312.81 143.262L312.809 143.261C310.888 142.704 309.679 138.516 308.799 136.654H308.797ZM100.199 140.703C100.064 140.776 99.93 140.851 99.793 140.929L100.199 140.703C100.334 140.631 100.472 140.56 100.613 140.49L100.199 140.703ZM83.546 138.483C82.48 139.398 81.3229 140.284 80.8439 140.633L80.8449 140.634C81.3239 140.285 82.48 139.398 83.546 138.483ZM284.648 138.018C284.72 138.05 284.797 138.081 284.879 138.111L284.878 138.11C284.796 138.08 284.72 138.05 284.648 138.018ZM27.5219 133.938C26.7609 134.77 26.064 135.507 26.109 136.655L26.1099 136.654C26.0649 135.507 26.7619 134.77 27.5219 133.938ZM280.086 130.503L280.089 130.506L280.352 131.346C281.072 132.691 281.889 134.281 283.025 135.33L283.3 134.853C283.514 133.289 281.22 130.618 280.221 129.223L280.086 130.503ZM35.1179 118.139C33.0689 121.499 31.8169 124.12 30.4619 127.223L29.0399 130.531L29.5609 131.244L29.562 131.243L29.041 130.53C30.945 126.083 32.2199 123.021 34.6229 118.965C34.7829 118.694 34.9469 118.419 35.1179 118.139ZM81.3779 129.122L81.7589 129.548L81.76 129.546L81.382 129.121C81.381 129.121 81.3789 129.121 81.3779 129.122ZM54.856 128.82C54.813 128.985 54.7869 129.155 54.7839 129.331L54.7849 129.33C54.7869 129.213 54.799 129.099 54.82 128.987C54.83 128.931 54.841 128.875 54.856 128.82ZM248.631 125.047C249.605 126.193 252.63 128.453 254.019 128.969L254.018 128.967C252.627 128.449 249.605 126.192 248.631 125.047ZM278.466 127.279L278.452 128.116H278.455L278.469 127.279L278.754 127.144L278.466 127.279ZM59.171 122.254C57.699 123.541 56.9309 125.094 55.9749 126.789L55.978 126.787C56.933 125.094 57.7009 123.542 59.1699 122.257L59.171 122.254ZM88.7189 123.309C88.8779 123.737 88.898 123.546 88.809 123.915L88.812 123.911C88.9 123.547 88.88 123.735 88.721 123.309H88.7189ZM181.065 123.584L181.626 123.556C181.455 123.564 181.269 123.574 181.065 123.584ZM89.963 122.295L90.1469 122.911L90.1459 122.913L90.148 122.91L89.965 122.294L89.963 122.295ZM58.705 122.746L59.059 122.895L59.0579 122.892L58.7039 122.744L58.705 122.746ZM245.969 121.417C246.771 121.942 246.91 122.016 247.826 122.288L247.825 122.287C246.911 122.016 246.77 121.941 245.969 121.417ZM58.901 122.523L59.1469 122.695V122.692L58.9 122.519L58.901 122.523ZM102.862 122.361L103.164 122.517L103.165 122.516L102.862 122.361ZM104.024 121.487C103.857 121.546 103.726 121.594 103.608 121.653C103.786 121.563 103.992 121.502 104.307 121.387L104.024 121.487ZM234.443 115.319C235.032 116.032 236.052 116.118 236.951 116.103C238.887 117.046 240.607 118.036 242.472 119.1L243.467 119.796C244.036 120.193 244.996 120.909 245.576 121.207C244.996 120.908 244.037 120.193 243.47 119.796L243.471 119.795L242.475 119.1L243.452 118.77L242.875 118.38C241.721 117.563 241.111 116.926 239.586 116.348L239.217 116.216L237.794 115.483L236.953 116.103C236.054 116.118 235.032 116.032 234.443 115.319ZM237.421 118.949C237.771 119.551 238.375 119.782 238.998 120.119C239.943 120.517 240.303 120.734 241.339 120.798L241.338 120.797C240.305 120.733 239.945 120.516 239.001 120.119C238.378 119.782 237.773 119.551 237.423 118.949C237.562 118.935 237.682 118.928 237.786 118.927C237.681 118.928 237.561 118.935 237.421 118.949ZM226.775 118.751C227.099 119.367 227.631 119.711 228.244 120.001L228.88 120.282C228.008 119.91 227.207 119.572 226.775 118.751ZM93.1489 120.082C93.2859 120.101 93.416 120.109 93.541 120.109C93.417 120.109 93.2869 120.101 93.1509 120.082H93.1489ZM94.6389 118.657C94.3489 118.717 94.1329 118.747 93.9199 118.741C94.2049 118.75 94.4929 118.693 94.9569 118.589L94.6389 118.657ZM116.086 114.812C115.241 115.214 114.032 115.748 113.253 116.194C112.921 116.338 112.085 116.674 111.806 116.827L112.019 117.467L112.021 117.465L111.808 116.827C112.087 116.674 112.923 116.338 113.255 116.194L113.566 116.024C114.33 115.618 115.346 115.164 116.086 114.812ZM183.677 112.726L183.687 113.331L185.956 113.606L183.689 113.331L183.679 112.726H183.677ZM118.429 113.141C118.567 113.036 118.692 112.942 118.807 112.858L118.429 113.141ZM155.436 111.223C154.678 111.271 150.747 112.268 149.451 112.451C148.455 112.707 148.319 112.562 147.739 113.249C148.025 113.335 148.192 113.366 148.339 113.353C148.193 113.365 148.026 113.335 147.741 113.249C148.321 112.562 148.457 112.707 149.453 112.451C150.748 112.268 154.673 111.273 155.436 111.223ZM127.467 108.282C126.363 109.304 122.529 111.311 121.076 111.738L121.352 112.181L121.354 112.18L121.079 111.738C122.532 111.311 126.363 109.305 127.469 108.283L128.613 107.945L127.467 108.282ZM117.796 106.211C118.391 106.334 119.68 106.56 120.184 106.765L120.185 106.764C119.68 106.559 118.394 106.334 117.8 106.211H117.796ZM121.287 105.096C120.005 105.321 119.917 106.226 118.193 106.225C120.042 106.227 120.011 105.187 121.582 105.059L121.287 105.096ZM137.752 105.215C137.036 105.325 136.675 105.306 136.281 105.847L136.613 106.204L136.614 106.203L136.283 105.847C136.733 105.229 137.14 105.342 138.082 105.159L137.752 105.215ZM195.968 101.17C195.38 101.366 194.829 101.073 194.493 102.405C195.199 102.804 197.246 103.034 198.818 103.051C197.246 103.034 195.2 102.804 194.495 102.405C194.831 101.075 195.381 101.364 195.968 101.17ZM175.484 99.4421C176.487 99.4241 177.53 99.494 178.595 99.779C179.761 100.046 182.248 100.206 183.462 100.221L183.463 100.22C182.249 100.205 179.763 100.045 178.597 99.7781C177.532 99.4921 176.487 99.4241 175.484 99.4421ZM169.664 99.448H169.661C170.244 99.628 170.881 99.681 171.561 99.674C170.882 99.681 170.245 99.628 169.664 99.448ZM258.573 80.6421C259.136 82.0281 259.813 82.469 261.126 83.157C261.126 83.156 261.125 83.155 261.124 83.154C259.815 82.467 259.138 82.026 258.576 80.644C258.575 80.643 258.574 80.6431 258.573 80.6421ZM61.0839 76.7541C60.7299 77.1721 60.5219 77.481 60.1339 78.097C59.3919 78.915 58.8729 79.316 58.6309 80.383L58.906 80.497L58.9069 80.495L58.635 80.383C58.877 79.316 59.395 78.914 60.138 78.097L60.4769 77.568C60.7809 77.111 61.0139 76.821 61.5009 76.286L61.5 76.285L61.0839 76.7541ZM97.0209 72.0171C96.0619 72.7991 95.1199 73.603 94.1979 74.428C92.7689 75.763 92.155 76.6 90.979 78.136L91.5449 78.5L90.981 78.136C92.158 76.6 92.7719 75.763 94.2009 74.428L94.8959 73.813C95.5929 73.204 96.3 72.606 97.017 72.021C97.018 72.02 97.0199 72.0181 97.0209 72.0171ZM266.429 69.66C267.219 70.489 268.086 71.381 268.938 72.274C269.506 72.87 270.068 73.4671 270.595 74.0461C269.013 72.3091 267.125 70.415 265.671 68.855C265.913 69.115 266.167 69.384 266.429 69.66ZM99.8569 68.654C98.7289 69.837 98.065 70.505 97.156 71.846L97.2189 72.3271L97.2199 72.3251L97.1589 71.846C98.0669 70.505 98.7299 69.836 99.8569 68.654ZM67.244 68.539C66.311 69.863 65.474 71.201 65.083 71.849C65.53 71.108 66.56 69.4671 67.65 67.9731L67.244 68.539ZM105.697 64.766C104.552 66.098 102.475 67.8961 101.909 68.9731C102.023 68.7581 102.198 68.514 102.412 68.25C102.484 68.162 102.559 68.072 102.639 67.98C103.598 66.878 105.105 65.517 105.912 64.505L105.697 64.766ZM264.616 67.704C264.711 68.723 264.7 68.4261 265.38 69.3771V69.375C264.702 68.427 264.713 68.722 264.618 67.704H264.616ZM71.7249 68.737L71.8649 68.972L71.866 68.971L71.728 68.737L72.504 67.845L72.5029 67.844L71.7249 68.737ZM70.5109 65.001C69.9049 65.194 68.9839 66.208 68.0599 67.422L68.4699 66.897C69.2499 65.925 69.9949 65.166 70.5109 65.001ZM228.837 60.4521L228.839 60.453L229.378 60.0121L229.377 60.011L228.837 60.4521ZM228.657 60.391C228.663 60.393 228.67 60.395 228.675 60.397C228.669 60.394 228.662 60.3931 228.655 60.3901L228.657 60.391ZM89.8189 42.177C90.3259 43.085 89.7179 43.5481 90.3489 44.3401L90.351 44.3381C89.722 43.5471 90.3299 43.083 89.8209 42.175L89.8189 42.177ZM233.123 39.784C233.789 40.619 233.496 40.339 234.666 40.797L234.665 40.7961C234.374 40.6821 234.173 40.613 234.026 40.562C233.584 40.408 233.623 40.41 233.123 39.784ZM97.5059 36.928C96.7849 37.522 96.738 37.4581 96.583 37.8251L96.364 38.373L96.898 38.399L96.367 38.373C96.784 37.343 96.5479 37.719 97.5089 36.928L97.9899 36.902L97.5059 36.928ZM136.223 28.847C134.786 29.195 130.961 31.499 129.658 32.253L129.764 32.709L129.766 32.707L129.66 32.253C131.004 31.475 135.033 29.047 136.355 28.819L136.223 28.847ZM220.851 31.055C221.369 31.764 222.069 32.026 222.861 32.449L222.287 32.152C221.732 31.867 221.24 31.587 220.851 31.055ZM113.282 23.0671C110.364 23.8331 103.433 29.3121 102.831 32.1891C102.832 32.1881 102.832 32.186 102.833 32.185C103.44 29.308 110.363 23.8351 113.282 23.0671ZM139.416 27.152C138.863 27.407 138.314 27.689 138.053 28.175L138.287 28.3041L138.288 28.303L138.056 28.175C138.403 27.527 139.261 27.242 139.961 26.901L139.416 27.152ZM199.662 25.852C201.053 26.586 204.004 27.95 205.523 28.031L205.522 28.0301C204.002 27.9461 201.055 26.586 199.666 25.852H199.662ZM167.285 22.841C166.85 22.848 166.585 22.884 165.994 23.009L166.172 23.363L165.996 23.009C166.586 22.884 166.851 22.848 167.285 22.841ZM173.238 21.995C172.796 22.026 172.415 22.117 171.974 22.445C172.503 22.052 172.946 22 173.512 21.983L173.238 21.995ZM213.695 15.208C214.48 15.905 215.999 17.3191 217.03 17.4551L217.029 17.454C215.998 17.316 214.482 15.905 213.697 15.208H213.695ZM171.523 16.66C172.356 16.793 173.25 16.897 174.131 16.899C173.251 16.896 172.358 16.793 171.526 16.66L171.438 16.385H171.434L171.523 16.66ZM149.294 7.82706C147.891 8.19706 145.946 8.61903 144.713 9.29203C143.774 9.67803 143.351 9.85305 142.464 10.385L142.442 10.66L142.444 10.659L142.466 10.385C143.353 9.85305 143.776 9.67803 144.715 9.29203L145.224 9.94401H145.226L144.715 9.29203C145.946 8.62003 147.889 8.19704 149.292 7.82804L149.294 7.82706ZM152.25 7.11301C151.472 7.33101 149.554 7.81102 149.31 7.83402C149.592 7.80702 152.121 7.16702 152.523 7.03202L152.25 7.11301ZM155.437 6.38706C154.808 6.38606 154.344 6.54306 153.57 6.72806L153.861 6.93406C154.499 7.34506 154.904 7.29202 155.808 7.30302C154.776 7.29102 154.395 7.36106 153.572 6.72806C154.345 6.54306 154.81 6.38706 155.437 6.38706Z" fill="#2F4A3E"/>
<path d="M106.75 334.22C107.067 335.85 108.008 338.85 108.083 340.02L107.789 340.14C107.035 339.41 106.866 338.89 106.438 337.96C107.004 337.29 106.777 335.24 106.75 334.22Z" fill="#2F4A3E"/>
<path d="M190.091 280.94C188.62 282.17 187.912 280.4 185.527 283.1C183.392 283.28 181.175 283.39 179.099 283.9C178.927 283.88 178.632 283.76 178.453 283.69L178.805 283.29L178.707 283.57C179.59 282.56 187.653 281.16 189.496 280.76L189.991 280.57L190.091 280.94Z" fill="#2F4A3E"/>
<path d="M140.179 209.01L140.859 210.14L140.221 210.59L139.724 210.16C139.418 209.32 139.406 209.71 139.631 208.95L140.179 209.01Z" fill="#2F4A3E"/>
<path d="M196.306 198.03C196.8 198.96 197.53 201 197.609 202.05C196.428 201.42 196.051 199.27 196.306 198.03Z" fill="#2F4A3E"/>
<path fill-rule="evenodd" clip-rule="evenodd" d="M186.097 133.817C186.298 134.644 186.158 134.863 185.916 135.719L185.918 135.72C187.675 136.368 191.647 136.331 193.993 136.973C195.082 136.867 197.148 136.655 198.216 136.921L197.608 137.308L197.425 138.182L197.427 138.184L197.61 137.308L198.218 136.921C201.229 137.341 207.364 139.052 209.352 139.163L209.949 139.315C213.083 140.171 218.369 142.466 220.885 144.009L220.991 144.372C218.077 145.011 212.909 139.34 209.613 140.581L208.335 140.433L208.423 140.675C216.22 144.285 223.913 147.311 231.401 151.791C234.248 153.494 236.814 156.21 239.583 157.66L239.926 157.48L240.096 156.37C243.396 157.08 258.413 176.28 260.989 180.17C263.497 183.96 265.952 189.18 267.277 193.66C267.699 195.08 269.181 199.86 269.731 200.85L270.048 201.6C270.36 202.33 270.634 203.04 270.695 203.86H270.693C270.72 204.2 270.704 204.57 270.85 204.84L270.914 205.39C271.056 206.82 271.154 209.14 270.913 210.22L270.239 210.86H270.237L270.513 211.38C271.106 211.5 271.237 211.53 271.724 211.94C271.997 213.14 271.27 215.87 271.007 217.18C271.007 217.18 271.008 217.18 271.009 217.18L271.052 217.48C271.328 219.21 271.727 220.24 273.387 221.02L273.417 221.52C272.921 221.87 272.718 222.01 272.271 222.45C272.252 223.25 272.637 223.63 273.097 224.31C272.602 229.9 271.071 235.11 269.105 240.3C268.707 241.35 268.423 243.16 268.214 244.29H268.213C268.367 244.62 268.521 245 268.723 245.28L269.681 244.06C270.212 245.92 268.095 249.86 267.209 251.8C265.397 256.53 261.947 261.31 258.343 264.83H258.345L257.121 266.27C255.193 268.52 251.307 275.63 249.677 277.38C242.925 284.63 226 297.82 217.232 300.74H217.23C215.042 303.59 206.796 304.44 202.079 307.35C200.035 308.2 192.19 310.56 189.742 310.81L189.523 310.82C186.5 311.73 181.019 312.36 177.91 311.73L177.591 311.66C177.545 311.65 177.498 311.64 177.453 311.63C177.737 311.15 177.816 311.14 177.801 310.61L176.969 310.37C177.124 310.34 177.286 310.32 177.454 310.3L177.971 310.24C177.617 310.27 177.279 310.32 176.969 310.37C174.63 311.16 172.039 310.86 169.606 310.98C156.495 311.63 144.56 306.81 132.158 303.5C129.323 302.74 126.277 303.3 123.554 302C121.3 301 120.745 299.39 119.127 298.38C116.496 296.81 113.458 295.91 110.756 294.48C109.274 293.7 108.312 292.14 106.731 291.38C106.694 290.44 106.859 290.52 106.369 290.05H106.367C106.856 290.52 106.691 290.44 106.729 291.38C104.895 291.4 102.476 290.45 101.208 289.25C99.2777 287.42 88.8288 277.78 88.6038 275.91L89.1247 275.48C91.2797 278.79 102.05 290.16 106.176 290.07C102.047 290.15 91.2827 278.79 89.1277 275.48L89.8747 275.12C88.8607 273.94 88.3887 273.05 87.6077 271.7C86.9267 271.66 86.7327 271.81 86.1747 272.13C83.6677 271.66 84.1127 270.4 84.1277 268.18L83.9788 267.95C83.2138 266.84 82.2037 265.97 81.4087 264.88C78.5467 260.99 75.2287 257.12 73.8367 252.4C73.4587 251.12 73.0887 249.7 72.3727 248.6C71.9367 246.88 71.7687 246.54 70.8847 244.99C70.7257 243.43 70.1377 243.65 68.7607 243.54C67.8777 240.1 66.7357 235.17 66.7227 231.45L66.7347 230.72C65.5577 227.26 66.0187 221.86 66.2247 218.21C66.3247 216.43 66.7257 215.95 66.4427 213.95C66.4177 211.67 67.6337 203.41 68.7777 202.11L68.8877 201.94C69.1687 201.59 69.6057 201.45 70.0507 201.22L70.0487 200.93C70.0117 199.53 69.6357 198.88 70.2707 197.65C72.9217 189.59 79.3358 178.63 84.3928 171.82C85.7098 170.05 89.1267 167.48 90.0847 165.94C94.7787 158.36 101.599 154.839 109.075 150.488C109.952 149.979 111.134 150.311 112.341 149.756C122.388 145.265 133.37 139.136 144.309 137.486C150.784 136.509 156.645 137.08 163.587 135.691C169.818 134.443 179.056 134.669 185.316 135.478C185.732 133.788 184.87 134.408 185.568 133.667L186.097 133.817ZM190.24 308.76C190.95 308.76 191.625 308.79 192.18 308.88L192.121 309.21C191.588 309.39 191.302 309.51 190.742 309.58C190.02 309.04 188.094 309.1 186.8 308.86H186.797C184.467 309.17 183.439 309.4 181.191 310.03L181.331 310.11C182.861 310.91 187.228 310.55 188.828 310.25L190.745 309.58C191.304 309.51 191.59 309.39 192.123 309.21L192.182 308.88C191.627 308.79 190.95 308.76 190.24 308.76ZM200.559 305.87C199.657 306.26 199.475 306.17 198.967 306.9C199.239 307.06 199.518 307.12 199.799 307.13C199.612 307.13 199.426 307.1 199.242 307.03C199.196 307.01 199.151 306.99 199.105 306.97C199.059 306.95 199.013 306.93 198.967 306.9C199.221 306.54 199.395 306.38 199.617 306.26C199.672 306.23 199.731 306.2 199.795 306.17C199.985 306.1 200.222 306.01 200.559 305.87ZM222.628 296.03C220.37 296.51 207.617 301.67 205.542 302.96H205.54L205.535 303.45L206.11 303.6C208.667 302.45 211.63 301.53 214.308 300.63L214.395 301.11C212.822 301.82 208.319 302.68 207.328 303.85C207.547 303.87 207.717 303.88 207.863 303.88C207.718 303.88 207.548 303.87 207.33 303.85C208.321 302.68 212.822 301.82 214.395 301.11L214.311 300.63C217.339 299.2 219.835 297.93 222.628 296.03ZM144.553 302.33C146.034 302.7 147.866 302.98 148.631 302.98C147.78 302.98 145.614 302.64 144.075 302.21L144.553 302.33ZM123.394 293.45C124.449 293.86 124.704 293.99 125.863 294.04C124.705 293.99 124.448 293.86 123.394 293.45L122.572 293.22C122.845 293.3 123.119 293.37 123.394 293.45ZM120.106 292.04C120.326 292.44 120.956 292.72 121.571 292.92L121.204 292.79C120.721 292.6 120.283 292.35 120.107 292.04H120.106ZM243.576 235.59C241.179 233.41 237.164 231.38 234.431 234.12C232.499 236.05 231.672 238.8 230.074 240.59C226.024 245.1 221.865 249.63 217.567 253.9C214.871 256.48 207.297 260.62 203.841 262.57C202.572 263.28 198.206 264.55 196.672 265.12C189.59 267.74 179.828 271.05 172.249 270.83C168.294 270.56 164.121 269.35 160.235 268.85C142.663 266.59 127.363 256.51 116.779 242.48C115.828 241.22 110.936 237.15 109.342 237.4C107.867 237.64 103.553 238.62 102.512 239.66C101.98 241.61 104.064 243.23 104.97 245.65L105.053 245.88C106.308 245.62 106.05 245.48 107.111 245.88C108.234 247.63 107.49 247.68 107.925 249.46L107.596 249.97H107.599C107.989 250.57 108.287 251.03 108.548 251.48C108.634 251.62 108.717 251.77 108.797 251.91C109.118 252.49 109.403 253.09 109.779 253.96C111.652 255.07 111.677 256.49 113.935 258.53C113.374 259.18 113.172 258.84 112.628 259.36L112.395 259.24C112.474 259.29 112.552 259.32 112.628 259.36L112.87 259.57C114.465 260.99 116.53 263.61 117.803 264.61C119.716 266.12 123.112 268.43 125.249 269.8C128.337 271.78 132.738 275.25 135.927 276.69C141.32 279.13 148.428 280.85 154.141 282.55C157.394 283.51 162.909 282.89 165.283 283.78C168.084 283.06 168.608 283.58 171.211 283.29L171.382 283.39C170.956 283.92 170.945 283.89 170.357 284.17L170.036 285.05C169.465 285.17 168.995 285.23 168.583 285.24C168.996 285.23 169.466 285.17 170.038 285.05C173.325 286 185.921 283.97 189.243 282.63C190.683 282.05 193.39 280.27 194.728 280.21L195.439 279.63C196.104 279.1 196.682 278.71 197.65 278.52C199.32 277.58 199.869 277.83 201.599 278.34C200.808 278.39 200.198 278.84 199.365 279.34C199.198 279.44 199.023 279.55 198.835 279.65C198.46 279.85 198.035 280.04 197.536 280.21H197.537C199.532 279.54 200.334 278.42 201.599 278.34C203.934 277.61 206.627 275.7 208.147 275.35L208.829 275.92L209.241 275.77C210.328 274.61 209.651 273.27 210.635 272.78C217.741 269.24 224.012 264.16 228.85 257.83C231.58 254.14 235.885 251.37 237.861 247.07C239.679 243.12 241.568 239.45 243.576 235.59ZM221.242 278.18C221.219 278.94 220.493 279.24 219.926 279.65H219.927C220.494 279.24 221.224 278.94 221.246 278.18C221.245 278.18 221.243 278.18 221.242 278.18ZM91.9677 269.07L91.4237 269.24H91.4247L91.9677 269.07ZM248.268 266.54C247.948 266.76 247.975 266.76 247.845 267.35C247.932 266.95 247.95 266.82 248.046 266.72C248.094 266.66 248.161 266.62 248.268 266.54ZM250.551 264.88C250.536 265.62 249.739 266.05 249.135 266.45C249.739 266.05 250.54 265.62 250.555 264.88C250.554 264.88 250.552 264.88 250.551 264.88ZM99.3027 257.18C100.506 257.61 100.72 257.94 101.364 259.01H101.366C100.722 257.94 100.508 257.61 99.3027 257.18ZM106.242 252.18C106.641 252.88 107.126 253.63 107.658 254.37C107.304 253.88 106.97 253.38 106.669 252.9C106.518 252.66 106.375 252.42 106.242 252.18ZM138.71 253.05L138.39 253.55H138.391L138.71 253.05L137.964 252.7C138.21 252.82 138.458 252.93 138.71 253.05ZM136.476 252.16C136.54 252.18 136.603 252.19 136.666 252.21C136.728 252.22 136.791 252.24 136.853 252.26C136.666 252.2 136.478 252.16 136.286 252.13L136.476 252.16ZM207.982 240.35L207.474 240.8L208.027 240.38L208.513 240.09L207.982 240.35ZM187.567 232.15C187.266 232.85 186.362 233.37 185.703 233.84C186.362 233.37 187.268 232.85 187.569 232.15L187.37 232.01H187.368L187.567 232.15ZM67.6657 227.26C67.6767 227.37 67.6887 227.48 67.7027 227.58L67.6657 227.26ZM69.0617 220.87C68.0657 222.31 68.2207 223.12 68.2987 224.84L68.5657 224.85L68.5527 223.88L68.8997 223.9C69.0427 223.37 69.0447 221.53 69.0617 220.87ZM102.79 211.9C103.699 212.31 106.842 216.62 107.584 217.72C107.585 217.72 107.586 217.72 107.587 217.72C106.847 216.62 103.697 212.31 102.79 211.9ZM226.039 212.1L226.068 212.59C225.323 213.36 223.247 214.47 222.233 215.07C223.247 214.48 225.325 213.36 226.07 212.59L226.041 212.1L225.621 211.91L226.039 212.1ZM135.646 169.66C126.896 169.25 119.299 169.73 112.403 175.87C106.541 181.08 108.399 190.31 108.404 197.16L108.664 199.46C111.419 205.82 113.135 209.83 120.111 212.62C122.762 213.68 127.042 214.49 129.819 213.42C130.393 213.19 131.796 212.48 132.415 212.18L132.764 212.34C132.523 213.29 132.277 213.52 131.658 214.3C134.373 213.35 138.265 212.5 140.223 210.59L140.861 210.14C141.039 209.88 141.077 209.81 141.201 209.52C144.969 200.9 149.01 200.07 147.756 189.61C148.377 188.73 148.064 188.93 148.966 188.56C148.061 188.93 148.375 188.73 147.754 189.61C147.654 188.11 147.248 186.46 146.932 184.98C146.346 184.29 146.06 184.05 145.356 183.48L145.357 183.47C144.46 182.35 144.781 182.28 145.439 181.16C145.269 180.1 144.374 179.49 143.507 178.59L143.517 178.18L144.513 177.86L144.969 176.96C143.442 176.31 141.752 174.67 140.452 173.54L140.298 173.25C139.897 173.06 139.698 173.01 139.469 173.02C139.696 173.01 139.895 173.06 140.295 173.25L140.45 173.54L140.268 173.76C140.306 174.47 140.415 175.01 140.13 175.65C139.358 175.03 138.946 174.04 138.463 173.14H138.464C137.539 171.87 136.444 170.79 135.646 169.66ZM223.295 173.18C218.959 170.44 208.938 169.39 205.932 174.07C198.238 175.01 197.444 182.59 193.094 187.22L193.115 193.65C193.471 196.21 193.569 198.28 194.971 200.47C195.743 201.64 196.004 202.97 196.462 204.04C197.764 207.07 203.641 212.15 206.611 213.21C210.42 214.56 216.159 214.22 219.865 212.55C228.853 208.5 231.477 202.2 234.807 193.66C232.067 185.53 231.108 178.11 223.295 173.18ZM269.61 205.26C269.458 206.65 270.069 207.32 269.979 208.28C269.971 208.36 269.959 208.44 269.94 208.53C269.886 208.78 269.781 209.06 269.601 209.38C270.56 207.69 269.409 207.11 269.613 205.26H269.61ZM262.526 205.08C262.881 206.27 262.788 208.03 262.585 209.25L262.479 209.18L262.586 209.26C262.789 208.03 262.881 206.27 262.526 205.08ZM191.074 194.16C190.682 194.92 190.721 195.05 190.682 195.94L190.543 197.11C191.296 200.05 193.108 202.55 195.303 204.58C194.343 203.69 193.456 202.71 192.699 201.65C192.483 201.35 192.278 201.03 192.084 200.72C191.406 199.6 190.873 198.4 190.544 197.11L190.682 195.94L190.705 195.39C190.713 195.24 190.725 195.12 190.747 195C190.758 194.94 190.771 194.89 190.789 194.83C190.841 194.64 190.927 194.45 191.074 194.16ZM268.874 202.12C269.653 203.08 268.781 203.18 269.981 203.96H269.982C268.784 203.18 269.655 203.08 268.875 202.12H268.874ZM70.6688 201.9C70.6788 202.05 70.6788 202.21 70.6558 202.38C70.6478 202.44 70.6377 202.5 70.6247 202.56L70.6257 202.57C70.6787 202.31 70.6818 202.1 70.6688 201.9ZM146.134 176.9C147.841 178.77 150.226 187.55 149.619 189.83H149.621C150.23 187.55 147.841 178.76 146.134 176.9ZM228.063 173.61C228.748 174.43 229.292 175.11 230.396 175.39H230.395C229.293 175.11 228.747 174.43 228.063 173.61ZM100.766 157.92C100.531 158.05 100.29 158.17 100.051 158.3C99.1767 159 98.4838 159.71 97.4188 159.95C98.4848 159.72 99.1767 159 100.051 158.3C100.41 158.1 100.773 157.93 101.114 157.73L100.766 157.92ZM102.539 156.46C102.262 156.92 101.88 157.25 101.447 157.53L101.762 157.31C102.065 157.08 102.331 156.81 102.539 156.46ZM161.557 147.757C161.814 147.908 162.039 148.018 162.249 148.095L162.089 148.031C161.925 147.96 161.75 147.87 161.557 147.757C161.722 147.73 161.871 147.708 162.006 147.692L161.557 147.757ZM135.181 142.394C135.409 142.624 135.452 142.765 135.618 143.057L135.108 143.275C134.886 143.294 134.828 143.31 134.773 143.3C134.828 143.311 134.884 143.294 135.11 143.275L135.62 143.057C135.454 142.765 135.412 142.623 135.183 142.393L135.181 142.394ZM200.944 139.606C202.576 140.044 205.438 140.759 206.83 141.603C207.687 141.979 208.569 142.229 209.067 142.964C208.924 143.01 208.777 143.028 208.626 143.026C208.777 143.028 208.926 143.01 209.069 142.964C208.571 142.229 207.689 141.979 206.833 141.603C205.44 140.759 202.576 140.044 200.944 139.606ZM169.311 139.179C169.992 139.184 170.628 139.335 171.277 139.79C170.669 139.92 170.125 140.002 169.603 139.99C170.125 140.003 170.67 139.92 171.279 139.79C170.629 139.334 169.993 139.183 169.311 139.179ZM190.993 137.63C191.655 137.639 191.877 137.845 192.577 138.386C192.422 138.395 192.284 138.402 192.159 138.406H192.161C192.286 138.402 192.425 138.395 192.579 138.386C191.878 137.845 191.657 137.638 190.993 137.63ZM196.456 137.778C196.186 137.829 196.264 137.835 195.798 138.253C195.798 138.254 195.799 138.255 195.799 138.256C196.423 137.696 196.075 137.869 196.876 137.697L196.456 137.778Z" fill="#2F4A3E"/>
<path d="M96.2182 304.43C96.8092 305.2 96.7813 305.83 96.9043 306.81C96.1553 305.86 96.1132 305.59 96.2182 304.43Z" fill="#2F4A3E"/>
<path d="M111.055 296.37C112.789 296.96 113.738 298.23 115.63 298.9C116.423 298.92 116.587 298.95 117.353 299.15L117.495 299.42C116.47 299.7 116.079 299.6 115.053 299.47C113.791 298.55 111.53 297.48 110.924 296.57L111.055 296.37Z" fill="#2F4A3E"/>
<path d="M290.699 288.66C291.286 288.77 291.858 288.85 292.426 289.03C292.754 289.69 292.762 289.39 292.576 289.95C291.815 290.29 291.787 290.32 291.001 290.16C290.842 289.73 290.738 289.52 290.676 289.07L290.699 288.66Z" fill="#2F4A3E"/>
<path d="M295.691 285.46C295.843 285.63 295.835 285.78 295.903 286.04C295.472 287.05 294.546 287.78 293.736 288.53C293.644 288.43 293.492 288.08 293.422 287.94C293.733 287.12 294.979 286.12 295.691 285.46Z" fill="#2F4A3E"/>
<path d="M301.165 280.47C300.369 282.17 299.515 283.64 297.354 283.51C298.08 281.35 298.894 280.64 301.165 280.47Z" fill="#2F4A3E"/>
<path d="M57.543 255.63C58.86 255.72 58.39 255.75 59.632 256.85L60.0239 256.39C60.8299 257.16 60.608 256.78 60.869 257.86L60.543 258.11C59.868 257.96 59.4309 257.94 58.9249 257.48L58.7289 257.56C58.1989 257.16 57.854 256.26 57.543 255.63Z" fill="#2F4A3E"/>
<path d="M270.354 241.771C270.527 242.011 270.83 247.041 270.511 247.541C269.233 249.541 268.458 251.51 267.462 253.6C267.161 252.76 267.183 252.701 267.21 251.801C268.096 249.861 270.213 245.921 269.682 244.061C269.872 243.241 269.891 243.19 269.809 242.37L270.354 241.771Z" fill="#2F4A3E"/>
<path d="M49.0059 239.07C49.6499 239.29 49.7579 239.54 50.1749 240.08L50.6788 240.16L50.6448 239.08L50.9208 239.09C51.6978 240.02 51.5338 239.6 51.6708 240.7L51.2679 241.65L51.5859 241.98L52.2039 241.59L52.6528 241.92L52.5389 242.25L51.7429 242.43C53.0549 244.31 56.0048 246.09 55.7958 249.14L56.2958 249.18L56.4009 249.78C55.8329 250.46 56.0999 250.25 55.1909 250.54L54.4919 249.98C52.8829 246.25 50.5089 242.62 49.0059 239.07Z" fill="#2F4A3E"/>
<path d="M68.7578 243.54C70.1348 243.65 70.7228 243.43 70.8818 244.99C70.8618 245.21 70.8498 245.42 70.8438 245.6C70.8498 245.41 70.8628 245.21 70.8828 244.99C71.7668 246.54 71.9348 246.88 72.3708 248.6L71.9108 248.8L71.2608 249C69.8148 248.27 68.8928 245.08 68.7578 243.54Z" fill="#2F4A3E"/>
<path d="M337.667 210.81C338.13 211.49 337.983 212.25 337.961 213.12C337.314 212.46 337.351 211.57 337.146 210.5L337.667 210.81Z" fill="#2F4A3E"/>
<path d="M271.589 202.55C271.767 202.4 272.014 202.35 272.233 202.44C272.45 202.53 272.598 202.73 272.62 202.97C272.642 203.2 272.531 203.43 272.333 203.55C272.057 203.73 271.691 203.66 271.494 203.4C271.299 203.13 271.34 202.76 271.589 202.55Z" fill="#2F4A3E"/>
<path d="M325.568 163.28C326.383 163.68 326.643 165.41 326.855 166.26C325.901 165.3 325.896 164.63 325.568 163.28Z" fill="#2F4A3E"/>
<path d="M323.375 153.496C324.385 154.368 324.648 156.28 325.084 157.78C323.909 157.05 323.662 154.816 323.375 153.496Z" fill="#2F4A3E"/>
<path d="M99.0246 155.232L98.8446 155.737C97.9846 156.2 97.6866 156.39 97.0726 157.15L96.7656 156.6C97.1276 155.89 97.9916 155.388 98.6696 154.893L99.0246 155.232Z" fill="#2F4A3E"/>
<path d="M233.336 149.629C234.481 150.567 237.908 152.699 238.018 153.748C236.898 153.83 235.74 152.555 234.793 151.735C234.212 151.234 233.644 150.718 233.09 150.189L233.336 149.629Z" fill="#2F4A3E"/>
<path d="M228.893 147.681C230.092 147.839 232.467 148.83 233.337 149.629L233.089 150.189C231.845 149.42 229.689 148.699 228.893 147.681Z" fill="#2F4A3E"/>
<path d="M322.824 149.15L322.836 149.958L322.548 149.836L322.438 149.093L322.824 149.15Z" fill="#2F4A3E"/>
<path d="M20.1046 143.195C20.1336 143.83 20.2676 144.955 20.0286 145.481C19.3706 147.104 18.5576 147.822 17.3496 149.044C18.0176 147.254 18.4846 146.374 19.3896 144.701L19.4776 143.765L20.1046 143.195Z" fill="#2F4A3E"/>
<path d="M320.297 142.396C321.166 143.074 322.095 147.124 322.46 148.407C321.396 147.735 320.449 143.718 320.297 142.396Z" fill="#2F4A3E"/>
<path d="M27.1269 125.592C27.1499 126.472 27.2689 127.623 26.8729 128.378C24.4589 132.973 22.3869 138.679 20.1019 143.195L19.4739 143.765C18.9749 141.956 25.6359 126.482 26.9129 125.319L27.1269 125.592Z" fill="#2F4A3E"/>
<path d="M318.117 136.983C319.018 137.424 318.913 137.811 318.929 138.625L318.547 138.549L318.117 136.983Z" fill="#2F4A3E"/>
<path d="M316.137 131.556C317.077 132.124 316.779 132.875 316.676 133.79L316.663 133.802C316.192 133.4 316.235 132.347 316.137 131.556Z" fill="#2F4A3E"/>
<path d="M38.6179 102.841C39.5149 104.299 37.3119 106.684 36.0979 107.486L35.9789 107.379L35.9629 106.942C36.8769 105.813 37.8419 104.114 38.6179 102.841Z" fill="#2F4A3E"/>
<path d="M301.174 105.187C301.561 105.816 301.434 106.22 301.45 107.046C300.981 106.181 300.873 106.102 300.971 105.173L301.174 105.187Z" fill="#2F4A3E"/>
<path d="M283.736 74.5723C285.031 74.8553 284.952 75.7673 285.239 76.9053C284.105 76.1553 283.939 75.9623 283.736 74.5723Z" fill="#2F4A3E"/>
<path d="M271.611 61.317C272.854 61.128 273.048 60.951 274.063 61.811C275.06 62.652 277.351 64.154 276.452 65.612L275.443 65.882C274.289 64.636 272.193 62.717 271.611 61.317Z" fill="#2F4A3E"/>
<path d="M266.993 50.5332C267.405 51.2622 267.551 51.4322 267.705 52.2382C267.118 51.7152 267.015 51.6712 266.674 50.9832L266.993 50.5332Z" fill="#2F4A3E"/>
</g>
</svg>
